<?xml version="1.0" encoding="UTF-8"?>
<svg id="Layer_1" data-name="Layer 1" xmlns="http://www.w3.org/2000/svg" xmlns:xlink="http://www.w3.org/1999/xlink" viewBox="0 0 697.21 564.16">
  <defs>
    <style>
      .cls-1 {
        fill: url(#linear-gradient);
      }

      .cls-1, .cls-2, .cls-3, .cls-4, .cls-5, .cls-6, .cls-7, .cls-8, .cls-9, .cls-10, .cls-11, .cls-12, .cls-13, .cls-14, .cls-15, .cls-16, .cls-17, .cls-18, .cls-19, .cls-20, .cls-21, .cls-22, .cls-23, .cls-24, .cls-25, .cls-26, .cls-27, .cls-28 {
        stroke-width: 0px;
      }

      .cls-2 {
        fill: #f3e7d8;
      }

      .cls-3 {
        fill: #f6e1db;
      }

      .cls-4 {
        fill: #4f1221;
      }

      .cls-5 {
        fill: #2d1114;
      }

      .cls-6 {
        fill: #5aafb4;
      }

      .cls-7 {
        fill: #99cac1;
      }

      .cls-8 {
        fill: #459fa2;
      }

      .cls-9 {
        fill: #398d93;
      }

      .cls-10 {
        fill: #0e0f10;
      }

      .cls-11 {
        fill: #154e58;
      }

      .cls-12 {
        fill: #22110e;
      }

      .cls-13 {
        fill: #207479;
      }

      .cls-14 {
        fill: #165f68;
      }

      .cls-15 {
        fill: #c82b52;
      }

      .cls-16 {
        fill: #ce406e;
      }

      .cls-17 {
        fill: #d8cf78;
      }

      .cls-18 {
        fill: #dd527c;
      }

      .cls-19 {
        fill: #e26992;
      }

      .cls-20 {
        fill: #b42146;
      }

      .cls-21 {
        fill: #b62e60;
      }

      .cls-22 {
        fill: #b7ddd8;
      }

      .cls-23 {
        fill: #911a49;
      }

      .cls-24 {
        fill: #e7b7cc;
      }

      .cls-25 {
        fill: #e58298;
      }

      .cls-26 {
        fill: #f18c91;
      }

      .cls-27 {
        fill: #053a47;
      }

      .cls-28 {
        fill: #681023;
      }
    </style>
    <linearGradient id="linear-gradient" x1="53.14" y1="368.95" x2="52.72" y2="320.54" gradientTransform="translate(0 557.63) scale(1 -1)" gradientUnits="userSpaceOnUse">
      <stop offset="0" stop-color="#16636b"/>
      <stop offset="1" stop-color="#0f4955"/>
    </linearGradient>
  </defs>
  <path class="cls-12" d="M417.42,98.38c-20.75,17.64-45.8,64.94-50.55,91.48-3.81,21.3,5.43,19.07,8.54,27.41-3.17,1.57-2.88,3.73-3.56,6.41l-2.14-.71c3.77-7.81-8.93-12.87-9.97-4.98-.77-.17-.83-.84-2.14-.71l-.71-1.42c2.22-1.3,2.48-4.23,1.42-6.41.45.07.96.02,1.42,0,6.68-.34,1.63-3.55,1.42-4.98-.15-1.04-1.25-1.07.71-4.63l-1.07-2.49c-1.52,1.71-1.7.07-1.78,0,3.24-9.22,5.11-20.36,8.54-30.26,8.43-24.26,24.8-52.38,43.43-70.12-.44,3.43,4.44-4.12,6.41,1.42h.03Z"/>
  <path class="cls-12" d="M339.11,197.34c-3.39.92-.74-1.72-6.41,1.42-.16-4.12-8.57-30.38-10.68-35.95-10.24-27.05-28.82-58.8-53.75-74.4-1.1.59-1.06,2.08-1.78,2.85-.9-7.62,3.1.17,5.7-7.12,3.84,3.46,11.12,7.01,20.65,17.44,24.34,26.66,35.84,62.05,46.27,95.75h0Z"/>
  <path class="cls-4" d="M366.88,225.1c.97-.14,2.35-1.1,2.85-2.14l2.14.71c-2.8,11.08-5.53,19.01-19.58,19.93-16.41,1.07-32.73-13.83-20.29-31.32.05-.06,1.34-.62,1.42-.71-1.33,15.91,10.68,22.48,25.27,19.22,2.87-.64,12-5.31,8.19-5.7h0Z"/>
  <path class="cls-5" d="M359.76,209.44c-.46.02-.98.07-1.42,0-.7-.11-2.58-2.06-3.2-2.14-12.27-1.51-4.96,12.5,1.78,8.54l.71,1.42c-16.07,1.61-6.65-10.78-16.73-11.39-5.2-.31-7.14,5.33-7.48,5.7-.08.09-1.38.65-1.42.71.36-4.4,6.25-7.4,9.97-8.54,6.05,3.17,12.79.87,17.8,5.7h0Z"/>
  <path class="cls-28" d="M361.18,204.46c.2,1.44,5.26,4.65-1.42,4.98-5.01-4.82-11.75-2.53-17.8-5.7,7.31-2.24,11.83-2.05,19.22.71h0Z"/>
  <path class="cls-23" d="M357.62,217.27c1.31-.13,1.36.54,2.14.71-.56,4.27,2.69,7.77,7.12,7.12,3.82.38-5.32,5.06-8.19,5.7-14.59,3.26-26.6-3.32-25.27-19.22.33-.37,2.27-6.01,7.48-5.7,10.08.61.66,13,16.73,11.39h-.01Z"/>
  <path class="cls-3" d="M369.73,222.97c-.5,1.03-1.88,1.99-2.85,2.14-4.43.65-7.68-2.84-7.12-7.12,1.03-7.88,13.74-2.83,9.97,4.98h0Z"/>
  <path class="cls-2" d="M358.33,209.44c1.06,2.18.79,5.1-1.42,6.41-6.74,3.96-14.05-10.05-1.78-8.54.62.08,2.51,2.02,3.2,2.14h0Z"/>
  <g>
    <path class="cls-10" d="M449.46,62.07c.58,5.18-4.34,3.76-6.76,5.7-7.72,6.18-10.45,15.72-3.2,22.78,6.91,6.73,16.82,6.9,22.78-1.42.23-.05.49.06.71,0,8.56-2.37,4.31-3.77,6.41-10.68,3.06,15.16-10.3,25.66-23.85,23.49-16.94-2.71-7.2-21.33-28.12-3.56-1.97-5.54-6.85,2.01-6.41-1.42,6.02-5.74,12.19-10.86,19.22-15.31-.35-10.2,9.02-19.55,19.22-19.58h0Z"/>
    <path class="cls-12" d="M469.39,78.45c-2.1,6.91,2.15,8.31-6.41,10.68.8-3.47,2.72-7.39,2.14-11.03-.49-3.04-2.07-2.34-2.14-2.49-2.97-6.21-7.02-9.06-14.24-8.54-4.52.33-4.54,1.19-7.12,3.56-6.55,6.01-6.41,12.75-2.14,19.93-7.25-7.06-4.52-16.6,3.2-22.78,2.42-1.94,7.34-.51,6.76-5.7,9.22-.02,18.13,7.44,19.93,16.37h.02Z"/>
    <path class="cls-16" d="M448.75,67.06c-12.93,8.94,17.8,29,14.24,8.54.07.15,1.65-.55,2.14,2.49.58,3.65-1.33,7.56-2.14,11.03-.22.06-.49-.05-.71,0-13.08,2.95-23.73-4.62-20.65-18.51,2.58-2.37,2.6-3.23,7.12-3.56h0Z"/>
    <path class="cls-20" d="M462.27,89.13c-5.96,8.32-15.87,8.16-22.78,1.42-4.27-7.19-4.41-13.93,2.14-19.93-3.08,13.89,7.57,21.46,20.65,18.51h-.01Z"/>
    <path class="cls-25" d="M462.99,75.6c3.56,20.46-27.17.4-14.24-8.54,7.21-.52,11.27,2.33,14.24,8.54Z"/>
  </g>
  <g>
    <path class="cls-10" d="M332.71,198.76c5.66-3.14,3.02-.5,6.41-1.42,5.91-1.61,5.8-12.44,19.93,0,.07.07.26,1.71,1.78,0l1.07,2.49c-1.96,3.56-.86,3.58-.71,4.63-7.4-2.76-11.91-2.96-19.22-.71-3.72,1.14-9.61,4.14-9.97,8.54-12.44,17.5,3.88,32.4,20.29,31.32,14.04-.92,16.78-8.85,19.58-19.93.68-2.68.39-4.84,3.56-6.41,8.28,22.21-16.98,31.28-8.19,33.46,51.07-68.94,157.35-206.42,234.22-239.2,63.79-27.21,89.89-5.93,95.04,60.16,4.16,53.33-10.2,117.68-33.46,165.88-19.9,41.23-44.36,67.87-93.26,68.34,84.76,77.97,39.76,215.05-69.41,236.71-2.62,29.24-41.24,28.62-42-1.42-40.55-5.46-73.21-73.11-90.41-107.5-8.7,26.39-26.28,32.35-37.73,3.56-16.95,35.09-51.54,98.38-92.55,104.65.08,29.5-39.8,29.81-41.29,0-28.83-1.19-58.59-22.7-77.24-43.78-49.28-55.71-50.87-142.14,7.83-191.5-39.52-2.56-60.42-15.14-81.16-48.41C10.92,202.24-9.62,110.35,4.51,46.05,13.72,4.18,34.33-6.86,75.35,4.4c87.51,24.03,202.91,172.61,254.15,247.03,11.84-4.75-2.21-2.66-6.76-16.02-7.5-22,10.3-28.14,9.97-36.66h0Z"/>
    <g>
      <path class="cls-16" d="M135.51,335.45c-43.1,44-28.85,118.1,15.31,155.91,63.25,54.16,126.78,9.82,160.54-51.26l4.27,7.12c-9.91,20.1-37.53,60.97-55.17,74.04-27.22,20.17-31.63,8.01-36.31,6.41-14.69-5.03-19.44,5.69-26.34,5.7-86.83-16.41-136.08-121.31-85.79-197.2l23.49-.71h0Z"/>
      <path class="cls-13" d="M230.9,475.69c6.31,1.45,15.26-.46,15.66-8.54,7.81.85,14.25-10.41,17.09-17.09,7.44,4.7,7.19-5.01,12.46-8.54,11.24-7.52,14.14,3.61,17.44,12.1-17.18,23.97-41.54,49.3-72.26,53.39-55.64,7.42-105.45-51.45-104.3-103.94l19.22,8.19c-3.63,10.21-3.95,24.08,7.83,28.48-2.81,14.08,5.69,24.84,20.29,19.58-1.29,19.25,22.68,36.94,29.19,10.68,2.33,11.63,5.35,35.15,19.93,17.8,8.39,15.23,18.13,2.97,17.44-12.1h.01Z"/>
      <g>
        <path class="cls-16" d="M635.27,49.26c8.22,26.56,6.39,75.49,1.42,103.23-7.15-3.63-14.39-16.6-22.43-17.8-24.72-3.69-2.42,32.13-20.29,70.12-13.85,29.46-55.37,54.59-81.51,72.97-3.43.5-9-9.61-21.36-2.85-2.4,1.31-16.02,18.47-28.12,16.37,1.99-1.63,3.88-3.51,5.7-5.34,8.05-18.66,4.53-23.02-14.24-28.83,25.61-14.19,57.6-37.19,71.19-63.72,9-17.56,12.11-42.31-7.12-54.46,17.83-41.37,70.91-87.32,116.75-89.7h0Z"/>
        <path class="cls-21" d="M636.69,152.49c-8.83,49.33-40.2,131.1-93.62,146.65-29.63.72-66.92,3.38-95.75,1.42.82-1.69,3.34-2.74,4.98-3.56,3.81-1.9,7.27-2.89,10.68-5.7,12.1,2.1,25.72-15.06,28.12-16.37,12.35-6.76,17.93,3.34,21.36,2.85,26.14-18.38,67.66-43.51,81.51-72.97,17.87-38-4.43-73.82,20.29-70.12,8.04,1.2,15.27,14.17,22.43,17.8Z"/>
        <path class="cls-21" d="M635.27,49.26c-45.84,2.38-98.93,48.33-116.75,89.7-14.59-9.22-27.43-5.13-39.87,4.98.11-.9-.18-2.08,0-2.49,2.34-5.23,66.51-66.3,75.82-73.68,13.42-10.65,50.34-35.52,65.85-38.44,8.48,5.36,12.01,10.44,14.95,19.93Z"/>
      </g>
      <g>
        <path class="cls-16" d="M179.64,138.25c-6.54,3.98-14.61,16.37-15.66,23.85-5.49,39.08,47.52,75.77,76.89,92.9-21.46,9.95-20.38,14.87-11.39,35.6-6.6-3.51-14.28-3.94-25.27-17.09-10.61,4.18-19-2.59-19.93-2.14-2.3,1.11,4.53,7.69-16.37-4.27-25.47-14.58-61.25-43.13-69.41-72.26-9.11-32.49,8.97-89.84-38.44-40.94-4.81-28.54-6.75-78.24,2.14-105.36,37.55-.46,109.7,52.46,117.47,89.7h-.03Z"/>
        <path class="cls-21" d="M229.48,290.6c.34.18.53-1.04,2.49,0,1.65,2.16,3.94,3.41,6.05,4.98,2.15,1.6,4.57,3,6.41,4.98-12.63.41-89.23-.29-95.75-1.42-16.4-2.86-36.83-21.35-46.63-34.53-19.96-26.84-36.46-77.79-42-110.7,47.41-48.91,29.34,8.44,38.44,40.94,8.17,29.13,43.95,57.68,69.41,72.26,20.91,11.97,14.08,5.38,16.37,4.27.93-.45,9.32,6.32,19.93,2.14,10.99,13.15,18.67,13.58,25.27,17.09h0Z"/>
        <path class="cls-21" d="M77.13,30.04c32.28,7.06,87.88,55.73,112.13,79.73,7.34,7.26,23.86,22.93,25.98,29.9-.03.04-.79-.16-.71.71-10.83-6.71-23.6-9-34.88-2.14-7.77-37.24-79.91-90.17-117.47-89.7,2.45-7.49,6.55-16.42,14.95-18.51h0Z"/>
      </g>
      <path class="cls-6" d="M210.26,117.6c-2.11,3.91,1.93,4.62-2.14,9.61,1.49,3.87,10.13,7.56,7.12,12.46-2.13-6.97-18.65-22.64-25.98-29.9-24.24-24-79.84-72.68-112.13-79.73-8.36-1.83-12.41-3.36-17.8,5.7-5.22-7.04,6.64-6.33-3.92-8.54-9.29,10.14,1.83-9.1,1.07-11.03-.23-.58-6.35-4.6-6.76-4.63-4.06-.26-1.58,10.3.36,12.46-3.16,5.15-.66,3.34-.71,8.9.09-1.78-1.47-2.88-2.14-4.27-.12-.25.26-2.55-1.78-4.27-3.35-2.82-11.04,1.23-1.07-14.24,52.38-6.81,131.9,71.65,165.88,107.5v-.02Z"/>
      <path class="cls-8" d="M685.82,110.48l-14.24,12.1c-3.84-8.91-25.26-7.8-18.51,9.25,1.38,3.49,5.8,4.77,6.41,8.19,1.38,7.82-8.16,17.05-13.53,2.49,3.22-24.96,3.23-54.86-.71-79.73,2.19-1.73,2.44-12.75,3.56-15.31,2.43-5.52,6.34,2.59,9.25,2.14-1.17,3.82-5.31,2.19-6.41,7.83,3.2,3.11-.43,13.68,8.54,13.88,10.1,4.64,18.93-4.13,15.66-12.81,1.32,1.14,2.76-3.52,7.12-1.78-.86-5.19-3.64-12.21-2.14-13.88,6.16,22.15,6.41,44.89,4.98,67.63h.02Z"/>
      <path class="cls-27" d="M657.34,222.97c-16.18,36.61-36.67,70.02-80.8,73.33-17.68,1.32-4.84-3.06,1.42-8.54,15.9-13.92,30.88-35.88,40.22-54.82,3.2.97,11.6-1.08,15.31-2.14,9.49-2.69,19.45-8.98,23.85-7.83h0Z"/>
      <path class="cls-13" d="M670.15,189.51c-12.17,2.96-23.63,5.73-36.31,4.27,5.23-16.18,9.93-34.4,12.1-51.26,5.37,14.56,14.9,5.33,13.53-2.49-.6-3.42-5.03-4.7-6.41-8.19,7,8.68,23.32,1.89,18.51-9.25l14.24-12.1c-1.74,27.86-7.04,52.57-15.66,79.02h0Z"/>
      <path class="cls-1" d="M58.62,180.96c4.77,19.17,14.35,47.47,23.49,64.78-10.69,1.42-20.69-2.22-31.32-2.85-11.03-19.4-20.69-40.56-27.05-61.94,9.51-.32,31.92,5.57,34.88,0h0Z"/>
      <path class="cls-13" d="M25.16,121.87c-7.12,15.77,24.31,19.2,19.22.71,2.76-.53,2.64-.69,4.98.71,1.14,20.02,4.42,38.24,9.25,57.67-2.97,5.57-25.37-.32-34.88,0-7.05-23.66-10.95-48.01-12.1-72.62l13.53,13.53h0Z"/>
      <path class="cls-27" d="M82.11,245.75c10.23,19.37,24.82,37.52,42.71,50.19-39.82-1.07-55.9-21.13-74.04-53.04,10.64.62,20.64,4.26,31.32,2.85h.01Z"/>
      <path class="cls-14" d="M670.15,189.51c-3.49,10.7-8.27,23.16-12.81,33.46-4.4-1.15-14.36,5.14-23.85,7.83-3.71,1.05-12.11,3.11-15.31,2.14,4.98-10.1,12.17-28.37,15.66-39.16,12.67,1.46,24.14-1.31,36.31-4.27Z"/>
      <path class="cls-8" d="M293.55,217.98c-2.88-3.27-7.86-1.13-12.1-1.42-12.75-16.64-51.61-66.7-66.92-76.17-.08-.87.69-.67.71-.71,3.01-4.9-5.63-8.59-7.12-12.46,4.06-4.99.02-5.7,2.14-9.61,30.19,31.85,57.27,65.07,83.29,100.38h0Z"/>
      <path class="cls-14" d="M304.94,435.83c-3.57,6.4-7.13,11.86-11.39,17.8-3.31-8.5-6.2-19.63-17.44-12.1-5.27,3.53-5.02,13.24-12.46,8.54-.4-.26-3.38-4.67-7.12-6.41,15.07-7.31,42.68-33.96,52.68-47.7,2.8.83-4.01,13.35-5.7,18.87-.73,2.41-5.33,17.62-4.98,18.51.12.32,5.5,2.4,6.41,2.49h0Z"/>
      <path class="cls-23" d="M135.51,335.45l-23.49.71c20.46-30.88,35-31.45,71.19-28.12-16.71,5.65-35.21,14.66-47.7,27.41h0Z"/>
      <path class="cls-9" d="M467.26,155.33c-14.15,14.39-33.37,39.09-46.27,55.53-2.77-10.9-2.15-3.54-9.25-4.27,17.29-22.25,35.44-43.73,54.11-64.78,2.67,1.99.59,5.77,5.7,7.48l-4.27,6.05h-.02Z"/>
      <g>
        <path class="cls-13" d="M292.84,281.34c-16.06,9.87-36.24,12.8-54.82,14.24-2.11-1.58-4.4-2.83-6.05-4.98-1.96-1.04-2.15.18-2.49,0-8.99-20.73-10.07-25.64,11.39-35.6,16.81,9.81,34.46,17.9,51.97,26.34h0Z"/>
        <path class="cls-14" d="M244.43,300.56c-1.84-1.98-4.25-3.38-6.41-4.98,18.57-1.44,38.75-4.37,54.82-14.24,1.32.64,9.29,3.67,9.25,4.63-18.97,13.17-35.64,13.87-57.67,14.59h0Z"/>
      </g>
      <path class="cls-11" d="M304.94,435.83c-.91-.09-6.28-2.17-6.41-2.49-.35-.89,4.25-16.1,4.98-18.51,1.68-5.52,8.49-18.03,5.7-18.87,3-4.12,4.37-9.84,8.19-13.53,2.37,23.47-1.59,33.93-12.46,53.39h0Z"/>
      <g>
        <path class="cls-7" d="M298.53,396.67c-12.7,16-35.46,38.16-55.89,42.71-25.36,5.66-32.25-17.02-24.21-24.21.76-.68,13.3-6.1,17.09-8.54,19.48-12.54,56.51-42.69,71.55-59.8,1.24,17.08-1.83,34.17-8.54,49.83h0Z"/>
        <path class="cls-8" d="M319.89,331.18c-7.45,20.1,7.69,28.9-21.36,65.5,6.72-15.66,9.78-32.76,8.54-49.83,4.52-5.14,9.06-10.13,12.1-16.37l.71.71h0Z"/>
      </g>
      <g>
        <path class="cls-13" d="M454.44,257.14c18.77,5.81,22.29,10.18,14.24,28.83-1.82,1.83-3.71,3.7-5.7,5.34-3.41,2.81-6.87,3.8-10.68,5.7,0-.48.21-1.2-.36-1.42-.92-.37-6.95,1.88-19.93,0-20.69-2.99-20.12-6.83-9.61-22.78,9.38-4.41,23.42-10.89,32.04-15.66h0Z"/>
        <path class="cls-14" d="M422.41,272.8c-10.5,15.95-11.08,19.79,9.61,22.78,12.98,1.88,19.01-.37,19.93,0,.56.23.35.94.36,1.42-1.64.82-4.16,1.87-4.98,3.56-23.91-1.62-31.59-3.57-53.39-15.31,9.33-4.45,19.13-8.07,28.48-12.46h0Z"/>
      </g>
      <g>
        <path class="cls-7" d="M400.34,395.96c-7.52-17.3-12.92-36.34-14.24-54.82,16.65,19.47,54.91,52.41,76.53,66.21,4.31,2.75,18.55,7.83,19.58,11.75,3.7,14.05-13.22,36.31-53.04,6.76-11.2-8.31-20.33-19.03-28.83-29.9Z"/>
        <path class="cls-8" d="M386.1,341.14c1.32,18.48,6.72,37.51,14.24,54.82-20.92-26.76-18.36-28.84-21.36-63.72,3.18,2.18,4.72,6.09,7.12,8.9h0Z"/>
      </g>
      <g>
        <path class="cls-7" d="M523.5,178.83c-11.59,42.8-73.35,72.82-110.35,89.7-9.41-.61-14.36-6.6-15.66-15.66,14.66-21.05,35.95-47.97,52.68-67.63,4.5,4.06,25.05-11.45,35.24-15.66,11.78-4.87,25.68-5.98,36.31-12.81,4.36,6.56.96,14.68,1.78,22.07h0Z"/>
        <path class="cls-7" d="M523.5,178.83c-.82-7.39,2.58-15.51-1.78-22.07-10.63,6.83-24.52,7.94-36.31,12.81-10.19,4.21-30.74,19.72-35.24,15.66,9.25-10.87,27.8-34.1,39.51-40.58,23.23-12.84,40.87,8.13,33.82,34.17h0Z"/>
        <path class="cls-8" d="M413.15,268.53c-9.43,4.3-18.51,9.38-28.48,12.46-3.21-11.27,6.9-19.63,12.81-28.12,1.3,9.06,6.25,15.06,15.66,15.66h.01Z"/>
      </g>
      <path class="cls-13" d="M420.98,210.86c-6.24,7.95-12.38,16.15-18.51,24.21-4.57-.55-5.6-1.9-8.54-4.98,5.8-7.98,11.75-15.71,17.8-23.49,7.11.73,6.49-6.63,9.25,4.27h0Z"/>
      <path class="cls-13" d="M402.47,235.07c-7.24,9.52-13.86,19.59-21,29.19-.94-2.05-6.26-7.34-6.05-8.9.21-1.55,16.2-22.09,18.51-25.27,2.94,3.08,3.97,4.43,8.54,4.98h0Z"/>
      <path class="cls-13" d="M293.55,217.98c5.82,7.9,11.55,15.35,17.09,23.49-3.55,2.83-9.18-4.36-11.39-.71-5.95-8.04-11.72-16.27-17.8-24.21,4.25.29,9.22-1.85,12.1,1.42h0Z"/>
      <path class="cls-14" d="M310.64,241.48c1.62,2.38,10.58,13.01,10.68,13.88.14,1.27-4.1,8.28-5.34,8.19-1.41-.1-14.64-19.96-16.73-22.78,2.21-3.64,7.85,3.55,11.39.71Z"/>
      <g>
        <path class="cls-16" d="M305.65,336.87c-12.59,16.54-44.93,44.34-62.29,56.24-12.29,8.43-26.35,20.13-41.29,12.1-33.84-18.18,26.45-75.66,59.09-93.26,4.64-2.5,43.68-20.08,47.34-21.36,9.73,13.78,2.23,32.02-2.85,46.27h0Z"/>
        <path class="cls-21" d="M305.65,336.87c5.08-14.26,12.58-32.49,2.85-46.27,1.2-.42,2.66-1.8,3.92-1.42,11.83,18.76,5.19,31.99-6.76,47.7h-.01Z"/>
      </g>
      <g>
        <path class="cls-16" d="M498.58,402.37c-2.27,1.99-8.21,5.31-11.03,5.7-21.54,2.92-81.69-53.45-95.04-71.19-3.85-14.46-10.02-25.98-6.41-41.29,40.9,12.71,99.14,45.52,113.91,87.92,1.11,3.18.85,10.05,3.56,9.97l-4.98,8.9h-.01Z"/>
        <path class="cls-19" d="M498.58,402.37l4.98-8.9c-2.71.08-2.45-6.79-3.56-9.97-14.77-42.4-73.01-75.21-113.91-87.92.46-1.93.37-4.27,2.14-5.7,8.76,3.34,49.75,22.5,57.31,27.05,17.91,10.78,43.66,35.52,53.75,53.75,6.02,10.88,10.38,21.95-.71,31.68h0Z"/>
        <path class="cls-21" d="M388.24,289.89c-1.76,1.42-1.68,3.76-2.14,5.7-3.61,15.31,2.55,26.83,6.41,41.29-9.06-12.04-13.65-18.94-12.1-35.24,1.76-18.55,6.95-12.08,7.83-11.75h0Z"/>
      </g>
      <g>
        <path class="cls-20" d="M472.24,532.65c-.86,9.06,16.47,18.97,19.22,7.12,6.27,16.42-15.68,22.61-22.78,11.03-3.38-5.51-3.3-14.94,3.56-18.15Z"/>
        <path class="cls-25" d="M491.46,539.77c-2.76,11.85-20.08,1.94-19.22-7.12,7.31-3.42,16.03-1.23,19.22,7.12Z"/>
      </g>
      <path class="cls-11" d="M315.62,447.22l-4.27-7.12c4.26-7.71,7.61-15.91,11.39-23.85,2.89,13.29-1.76,20.09-7.12,30.97h0Z"/>
      <g>
        <path class="cls-25" d="M229.48,539.77c.1.38-.06.97,0,1.42-3.86,10.49-19.14.16-18.51-8.54,7.4-3.37,16.29-1.09,18.51,7.12Z"/>
        <path class="cls-20" d="M229.48,541.19c.99,7.41-.08,11.79-8.9,10.68-7.65-.96-11.09-7.49-15.31-12.81.73-2.57,3.15-5.25,5.7-6.41-.63,8.7,14.65,19.04,18.51,8.54Z"/>
        <path class="cls-20" d="M229.48,541.19c-.06-.45.1-1.05,0-1.42,4.9,4.13-.85,14.49-6.05,16.37-9.95,3.6-21.32-6-18.15-17.09,4.21,5.32,7.66,11.85,15.31,12.81,8.82,1.11,9.89-3.27,8.9-10.68h0Z"/>
      </g>
      <g>
        <path class="cls-7" d="M229.48,169.57c1.03,1.54,22.65,24.41,26.34,25.63,14.45,17.7,28.04,35.5,41.29,54.11,6.9,17.09.03,16.75-14.95,18.51-31.24-14.46-65.53-31.63-88.99-57.31-13.41-14.67-27.71-33.51-19.22-53.75,32.92,1.95,46.86,41.84,55.53,12.81h0Z"/>
        <path class="cls-7" d="M227.34,161.74c1.32,2.62.49,5.37,2.14,7.83-8.67,29.02-22.61-10.87-55.53-12.81,1.78-4.24,4.35-8.52,8.19-11.39,18.28-13.67,33.17,4.2,45.21,16.37h0Z"/>
        <path class="cls-9" d="M282.16,267.82c14.98-1.76,21.85-1.42,14.95-18.51,7.96,11.17,20.63,20.98,14.59,32.04-9.91-4.34-19.7-8.97-29.54-13.53Z"/>
        <path class="cls-22" d="M255.82,195.2c-3.69-1.22-25.31-24.09-26.34-25.63-1.64-2.47-.81-5.21-2.14-7.83,10.51,10.62,19.08,21.95,28.48,33.46Z"/>
      </g>
      <path class="cls-27" d="M372.22,310.53l3.56,15.66c-10.22-12.37-12.12-7.13-3.56-15.66Z"/>
      <path class="cls-27" d="M319.89,331.18l-.71-.71c2.64-5.42,4.27-11.6,5.7-17.44,10.13,1.71-3.33,13.68-4.98,18.15h-.01Z"/>
      <path class="cls-24" d="M246.56,467.15c-.4,8.08-9.35,9.99-15.66,8.54-.2-.05-3.25-1.91-3.56-2.14-9.95-20.12,20.02-22.41,19.22-6.41h0Z"/>
      <g>
        <path class="cls-14" d="M236.6,318.36c-17.6-.84-75.02,10.39-88.28,17.09,29.06-24.76,66.72-28.2,103.58-27.05-4.47,4.11-10.46,6.41-15.31,9.97h0Z"/>
        <path class="cls-9" d="M256.53,443.66c3.74,1.74,6.71,6.15,7.12,6.41-2.84,6.68-9.28,17.93-17.09,17.09.8-16.01-29.17-13.72-19.22,6.41-3.07-2.23-4.12-4.96-3.56-8.9,1.01-7.14,9.94-4.99,3.56-15.31,9.31,1.94,20.68-1.57,29.19-5.7h0Z"/>
        <g>
          <path class="cls-8" d="M236.6,318.36c-22.13,16.25-77.93,70.82-37.73,93.97,1.24,6.66,6.65,20.45,11.39,24.21,2.9,5.55,10.96,11.54,17.09,12.81,6.38,10.32-2.55,8.16-3.56,15.31-.56,3.94.49,6.67,3.56,8.9.31.23,3.36,2.09,3.56,2.14.68,15.07-9.05,27.33-17.44,12.1-14.58,17.35-17.6-6.17-19.93-17.8-6.51,26.26-30.48,8.57-29.19-10.68-14.59,5.26-23.1-5.5-20.29-19.58-11.78-4.4-11.46-18.27-7.83-28.48l-19.22-8.19c.46-20.95,11.01-57.37,31.32-67.63,13.25-6.69,70.68-17.93,88.28-17.09h0Z"/>
          <path class="cls-13" d="M210.26,436.54c-4.75-3.75-10.15-17.54-11.39-24.21,2.16,1.25,8.84,2.41,9.25,3.2-1.06,8.06-1.71,13.64,2.14,21h0Z"/>
          <path class="cls-24" d="M155.8,351.11c17.97-3.6,18.64,23.55-.71,19.22-9.2-2.06-8.28-17.42.71-19.22Z"/>
        </g>
      </g>
      <g>
        <path class="cls-16" d="M581.88,334.02c42.05,55.54,24.16,133.28-28.83,175.13-10.97,8.66-43.77,26.52-56.95,24.92-3.23-.39-17.79-16.61-33.46-.71-33.69-6.06-65.1-60.62-79.38-89.7l4.27-4.98c30.37,55.52,79.68,101.36,144.16,62.65,59.27-35.58,75.91-123.25,25.98-168.72,7.9-1.79,16.28.71,24.21,1.42h0Z"/>
        <path class="cls-13" d="M579.74,405.22c-.5,60.87-67.46,125.77-128.5,93.97-19.57-10.2-32.85-28.69-45.21-46.27-.43-1.69.73-1.03,3.56-1.42,2.14-.3,9.11.56,7.83-7.12l17.09,5.7c7.88,12.23,16.26,33.6,32.75,32.75,1.99,16.51,14.78,8.26,25.98,9.97,9.23-4.39,9.36-23.69,10.68-23.49-.29,24.14,32.55,10.76,29.54-7.48,1.02-2.6,11.29,6.33,19.22-14.95.36-.96-.25-4.06,0-5.7,24.85-15.32-6.76-33.92,27.05-35.95h.01Z"/>
        <path class="cls-14" d="M477.94,445.79c-.97,3.2-12.16,7.49-15.66,7.83-9.46.91-18.38-4.08-27.76-3.56l-17.09-5.7c-1.32-7.93-15.41-1.73-7.83,7.12-2.83.39-3.99-.26-3.56,1.42-17.57-25-26.04-38.53-25.98-71.19,17.65,23.83,64.57,84.34,97.89,64.07h-.01Z"/>
        <path class="cls-23" d="M581.88,334.02c-7.93-.71-16.3-3.21-24.21-1.42-12.35-11.25-27.77-18.51-43.43-23.85,32.59-4.75,49.85-5.15,67.63,25.27h.01Z"/>
        <path class="cls-11" d="M387.52,438.68l-4.27,4.98c-4.64-9.45-12.82-21.21-7.12-30.97,2.3,9.2,6.86,17.69,11.39,25.98h0Z"/>
        <path class="cls-14" d="M489.33,431.56c1.23-5.29.89-10.71,0-16.02,4.1-2.11,8.93-2.7,12.81-5.34l-12.81,21.36h0Z"/>
        <path class="cls-24" d="M471.53,460.74c2.37,5.4,2.38,13.31-4.27,15.66-20.84,7.36-18.19-32.36,4.27-15.66Z"/>
        <g>
          <path class="cls-14" d="M537.74,328.33c-9.99-3.33-31.83-2.21-44.49-3.56-9.74-1.04-19.53-4.92-29.54-4.27-5.55-4.27-11.73-7.39-17.44-11.39,31.05-.61,65.4.84,91.48,19.22h-.01Z"/>
          <path class="cls-9" d="M462.27,453.63c-.04,2.62,6.1-.06,9.25,7.12-22.46-16.69-25.11,23.02-4.27,15.66.18,2.09-.25,4.35,0,6.41-16.49.85-24.87-20.51-32.75-32.75,9.38-.52,18.3,4.47,27.76,3.56h0Z"/>
          <g>
            <path class="cls-8" d="M537.74,328.33c26.89,8.95,42.21,51.08,42,76.89-33.82,2.03-2.2,20.63-27.05,35.95-.25,1.64.36,4.74,0,5.7-7.93,21.28-18.2,12.35-19.22,14.95,3.01,18.23-29.84,31.61-29.54,7.48-1.32-.19-1.44,19.11-10.68,23.49-11.2-1.71-24,6.54-25.98-9.97-.25-2.06.18-4.32,0-6.41,6.65-2.35,6.65-10.26,4.27-15.66-3.16-7.18-9.3-4.5-9.25-7.12,3.51-.34,14.69-4.63,15.66-7.83,4.99-3.03,10.05-8.45,11.39-14.24l12.81-21.36c7.14-4.86,11.18-15.54,10.68-23.85-1.11-18.41-34.47-54.58-49.12-65.85,10.01-.65,19.8,3.23,29.54,4.27,12.67,1.35,34.5.23,44.49,3.56h0Z"/>
            <path class="cls-24" d="M532.4,351.11c19.05-3.63,16.16,24.82-1.42,18.51-8.1-2.91-6.93-16.92,1.42-18.51Z"/>
          </g>
        </g>
        <path class="cls-8" d="M417.42,444.37c1.28,7.68-5.69,6.82-7.83,7.12-7.58-8.85,6.51-15.05,7.83-7.12Z"/>
      </g>
      <path class="cls-24" d="M675.85,58.51c3.27,8.69-5.56,17.46-15.66,12.81-18.6-8.55,9.04-30.42,15.66-12.81Z"/>
      <g>
        <path class="cls-8" d="M680.83,42.85c-1.51,1.67,1.28,8.69,2.14,13.88-4.35-1.74-5.8,2.92-7.12,1.78-6.63-17.61-34.26,4.27-15.66,12.81-8.97-.2-5.35-10.77-8.54-13.88,1.09-5.64,5.23-4.01,6.41-7.83-2.92.45-6.83-7.65-9.25-2.14-1.12,2.55-1.37,13.58-3.56,15.31-2.23-14.07-5.53-37.12-24.92-33.46-15.52,2.93-52.43,27.8-65.85,38.44-9.31,7.39-73.47,68.45-75.82,73.68-.18.41.11,1.59,0,2.49-.79.64-9.04,9-11.39,11.39l4.27-6.05c-5.11-1.7-3.02-5.49-5.7-7.48,35.05-39.52,89.66-99.18,137.76-120.31,35.27-15.5,64.84-23.24,77.24,21.36h-.01Z"/>
        <path class="cls-24" d="M656.98,24.34c13.68-2.01,17.09,17.75,4.98,19.93-15.07,2.72-17.18-18.14-4.98-19.93h0Z"/>
      </g>
      <g>
        <path class="cls-8" d="M44.38,10.1c-9.97,15.47-2.28,11.42,1.07,14.24,2.04,1.72,1.66,4.02,1.78,4.27-9.91-7.99-22.31.79-17.8,11.03,2.61,5.92,19.79,8.89,19.93-6.76.05-5.56-2.45-3.74.71-8.9-1.94-2.16-4.41-12.72-.36-12.46.41.03,6.53,4.05,6.76,4.63.77,1.93-10.36,21.17-1.07,11.03,10.55,2.21-1.3,1.51,3.92,8.54-10.53,17.7-11.16,66.56-9.97,87.57-2.34-1.4-2.22-1.24-4.98-.71-1.9-6.9-16.02-7.8-19.22-.71l-13.53-13.53c-1.22-26.01-2.23-93.69,32.75-98.24h0Z"/>
        <path class="cls-24" d="M26.23,51.39c20.83-4.58,18.01,25.86-.71,19.22-8.75-3.1-7.46-17.43.71-19.22Z"/>
      </g>
      <path class="cls-24" d="M47.23,28.61c.67,1.39,2.23,2.49,2.14,4.27-.14,15.65-17.33,12.69-19.93,6.76-4.51-10.25,7.88-19.03,17.8-11.03h0Z"/>
      <path class="cls-24" d="M44.38,122.59c5.09,18.48-26.34,15.05-19.22-.71,3.2-7.09,17.32-6.19,19.22.71Z"/>
      <path class="cls-24" d="M671.58,122.59c4.81,11.15-11.51,17.94-18.51,9.25-6.75-17.06,14.67-18.16,18.51-9.25Z"/>
      <g>
        <path class="cls-20" d="M360.47,254.29l-2.14.71c-.59-.12-1.47-.02-2.14,0-3.54.13-4.52,2.53-6.76,2.85-7.15,1.01-12.62-2.69-18.15,3.56-3.48,3.92-3.21,5.25-2.85,11.39,1.05,17.99,17.75,27.47,34.53,25.63.47-.05,8.84-1.9,9.25-2.14,1.64-.95,2.31-7.06,3.92-4.98-5.94,21.58-34.17,31.28-49.83,9.61-16.92-23.4.17-55.22,19.58-45.21,6.42-3.63,7.83-3.52,14.59-1.42h0Z"/>
        <path class="cls-16" d="M360.47,254.29c13.83,4.3,18.25,20.45,16.37,33.46-19.16,11.42-35.15-1.02-48.41-14.95-.36-6.14-.63-7.47,2.85-11.39,1.48,11.43,37.26,29.57,42.71,21,3.04-4.77-1.94-10.45-2.14-11.03-2.48-7.38-4.83-14.66-13.53-16.37l2.14-.71h.01Z"/>
        <path class="cls-15" d="M376.84,287.75c-.22,1.53-.3,2.06-.71,3.56-1.6-2.08-2.27,4.03-3.92,4.98-.41.24-8.78,2.08-9.25,2.14-16.78,1.84-33.48-7.64-34.53-25.63,13.26,13.93,29.25,26.37,48.41,14.95h0Z"/>
        <path class="cls-25" d="M356.2,255c-.53,10.64,12.92,26.04,15.66,16.37.2.59,5.17,6.26,2.14,11.03-5.46,8.57-41.24-9.57-42.71-21,5.54-6.25,11-2.55,18.15-3.56,2.25-.32,3.22-2.72,6.76-2.85h0Z"/>
        <path class="cls-17" d="M358.33,255c8.7,1.72,11.05,8.99,13.53,16.37-2.75,9.67-16.19-5.73-15.66-16.37.67-.02,1.54-.12,2.14,0h-.01Z"/>
      </g>
      <g>
        <path class="cls-20" d="M331.28,388.13v.71c5.87,7.34,29.81,20.74,36.31,8.9.31-.57,2.11-7.74,2.85-10.32.1-.37-.05-.97,0-1.42,3.21,3.59.16,14.91-3.56,19.22-1.72,2-9.45,6.03-12.1,6.41-17.2,2.46-28.43-8.38-29.19-25.27.7-1.47,2.86,1.12,5.7,1.78h-.01Z"/>
        <path class="cls-12" d="M360.47,362.5c3.29-.53,6.66-2.23,9.97-2.85-2.34,7,4.07-.06,2.85,4.98-.2-1.48-1.76-.38-3.56,0-13.67,2.92-24.47,3.48-38.44,2.14-9.16-4.93-7.2,3.38-3.56,10.68-6.2-4.18-2.58-13.25-1.42-18.51,4.22,5.06,27.79,4.58,34.17,3.56h-.01Z"/>
        <path class="cls-21" d="M333.77,423.01c1.41-.77,11.26,9.15,30.97,1.78-5.85,15.51-21.38,13.99-29.54.36-.55,5.09-2.32-1.65-1.42-2.14h0Z"/>
        <path class="cls-23" d="M336.62,434.4c16.84,6.34,20.93,1.51,22.07,1.42,4.4-.34-3.74,13.52-12.81,11.39-2.97-.7-8.72-9.26-9.25-12.81h-.01Z"/>
        <path class="cls-21" d="M367.59,414.47c-3.12,11.59-13.61,12.75-24.21,9.97l-1.42-5.7c5.66,1.74,20.03-.61,25.63-4.27h0Z"/>
        <path class="cls-16" d="M367.59,414.47c-5.6,3.66-19.97,6.01-25.63,4.27-2.3-.71-6.11-4.55-7.83-6.41,7.84,4.99,27.82,3.56,34.17-4.27.62,2.65-.06,3.99-.71,6.41h0Z"/>
        <path class="cls-12" d="M368.3,383.15c.32,5.12,1.98,2.67,2.14,2.85-.05.46.1,1.06,0,1.42-12.52,4.69-26.46,6.31-39.16,1.42v-.71c8.06,1.88,3.87-.43,5.34-.71.55-.1,7.62,7.16,7.48,0,3.74.61,7.62,1.18,11.39.71,2.21-.27,11.12-3.64,12.81-4.98h0Z"/>
        <path class="cls-20" d="M332.71,410.91c.05.37,1.19,1.27,1.42,1.42,1.72,1.86,5.53,5.7,7.83,6.41l1.42,5.7c-7.42-1.95-12.71-5.81-13.53-13.88,1.32-1.12,2.23.33,2.85.36h0Z"/>
        <path class="cls-12" d="M368.3,408.06c-6.35,7.83-26.33,9.26-34.17,4.27-.24-.15-1.38-1.06-1.42-1.42,2.47.1,20.16,7.63,22.07.71,2.65-.38,10.38-4.41,12.1-6.41.43.03,1.39,2.69,1.42,2.85h0Z"/>
        <g>
          <path class="cls-21" d="M369.73,329.04h-1.42c-2.63-5.78-12.06-8.76-12.1,0-7.56,4.18-18.91-7.67-23.49,0-6.56,10.96,5.48,27.71,16.73,31.32,4.22,1.36,8.18-.23,11.03,2.14-6.39,1.02-29.95,1.5-34.17-3.56-4.48-5.37.83-32.78,8.9-37.02,4.15-1.75,6.92,1.81,18.51,1.42,1.46-.05,9.34-6.83,16.02,5.7h0Z"/>
          <path class="cls-18" d="M357.62,353.96c12.1-.77,14.89-15.67,10.68-24.92h1.42c3.53,6.62,4.62,17.29,3.56,24.56-.39,2.67-2.4,4.72-2.85,6.05-3.31.62-6.67,2.32-9.97,2.85-2.85-2.37-6.81-.78-11.03-2.14-11.25-3.61-23.29-20.36-16.73-31.32,2.2,10.37,13.3,25.66,24.92,24.92h0Z"/>
          <path class="cls-19" d="M356.2,329.04c0,1.27,4.71,8.85,1.42,24.92-11.62.74-22.71-14.55-24.92-24.92,4.59-7.67,15.94,4.18,23.49,0h.01Z"/>
          <path class="cls-26" d="M368.3,329.04c4.21,9.25,1.42,24.15-10.68,24.92,3.28-16.07-1.43-23.65-1.42-24.92.04-8.76,9.47-5.78,12.1,0Z"/>
        </g>
        <path class="cls-19" d="M370.44,387.42c-.73,2.58-2.54,9.75-2.85,10.32-6.5,11.84-30.44-1.56-36.31-8.9,12.69,4.88,26.64,3.27,39.16-1.42Z"/>
        <g>
          <path class="cls-20" d="M331.28,366.77c.2.11-.02.87,3.56,2.85,2.56,10.63,26.61,11.42,20.65,18.51-3.78.47-7.65-.1-11.39-.71-6.89-1.13-13.08-3.35-16.37-9.97-3.64-7.3-5.6-15.61,3.56-10.68h0Z"/>
          <path class="cls-16" d="M373.29,364.64c2.08,5.84-.15,14.67-4.98,18.51-1.7,1.35-10.6,4.71-12.81,4.98,5.96-7.09-18.09-7.88-20.65-18.51,8.01,4.43,19.98,12.35,29.54,9.97,4.66-1.16,9.39-11.21,5.34-14.95,1.8-.38,3.36-1.48,3.56,0Z"/>
          <path class="cls-19" d="M369.73,364.64c4.05,3.74-.68,13.79-5.34,14.95-9.56,2.38-21.54-5.53-29.54-9.97-3.58-1.98-3.36-2.74-3.56-2.85,13.98,1.35,24.77.78,38.44-2.14h0Z"/>
        </g>
      </g>
    </g>
  </g>
  <g>
    <path class="cls-10" d="M251.55,62.78c-3.47,5.26-5.87,1.5-11.39,6.41-8.84,7.85-5.39,22.73,3.92,25.63,10.33,3.22,21.16-5.28,18.87-16.37,3.73-3.01,2.66-2.57,1.42-6.41,4.73,7.41,1.33,6.23,7.83,12.1-2.6,7.29-6.59-.5-5.7,7.12-3.9,4.17-7.44,9.6-13.88,10.68-32.54,5.44-31.94-45.05-1.07-39.16h0Z"/>
    <path class="cls-12" d="M264.36,72.04c1.24,3.84,2.31,3.39-1.42,6.41-.64-3.1-1.17-2.38-1.42-2.85-2.93-5.45-8.04-8.74-14.24-8.54-3.48.11-4.21,1.41-7.12,2.14,5.52-4.9,7.92-1.15,11.39-6.41,5.88,1.12,9.7,4.38,12.81,9.25Z"/>
    <path class="cls-20" d="M247.28,67.06c-4.76,2.46-3.57,3.4-4.27,4.98-.03.08-1.29-.26-1.42.36-1.59,7.15,6.8,17.12,14.59,15.31,1.54-.36,5.26-3.44,2.49-4.27,4.85-2.22,1.56-5.47,2.85-7.83.25.47.78-.25,1.42,2.85,2.3,11.09-8.54,19.59-18.87,16.37-9.3-2.9-12.76-17.78-3.92-25.63,2.9-.72,3.64-2.03,7.12-2.14h0Z"/>
    <path class="cls-25" d="M261.51,75.6c-1.28,2.36,2,5.61-2.85,7.83-5.49,2.51-15.3-5.9-15.66-11.39.7-1.58-.49-2.52,4.27-4.98,6.2-.19,11.3,3.1,14.24,8.54h0Z"/>
    <path class="cls-16" d="M243,72.04c.36,5.49,10.17,13.9,15.66,11.39,2.77.83-.95,3.91-2.49,4.27-7.8,1.81-16.19-8.16-14.59-15.31.14-.61,1.39-.28,1.42-.36h0Z"/>
  </g>
</svg>