<?xml version="1.0" encoding="UTF-8"?>
<svg id="Layer_1" data-name="Layer 1" xmlns="http://www.w3.org/2000/svg" xmlns:xlink="http://www.w3.org/1999/xlink" viewBox="0 0 561.76 563.24">
  <defs>
    <style>
      .cls-1 {
        fill: url(#linear-gradient);
      }

      .cls-1, .cls-2, .cls-3, .cls-4, .cls-5, .cls-6, .cls-7, .cls-8, .cls-9, .cls-10, .cls-11, .cls-12, .cls-13, .cls-14, .cls-15, .cls-16, .cls-17, .cls-18, .cls-19, .cls-20, .cls-21, .cls-22, .cls-23, .cls-24, .cls-25, .cls-26, .cls-27, .cls-28, .cls-29, .cls-30, .cls-31, .cls-32, .cls-33, .cls-34, .cls-35, .cls-36, .cls-37, .cls-38, .cls-39, .cls-40, .cls-41, .cls-42, .cls-43, .cls-44, .cls-45, .cls-46, .cls-47, .cls-48, .cls-49, .cls-50, .cls-51, .cls-52, .cls-53, .cls-54, .cls-55, .cls-56, .cls-57, .cls-58, .cls-59, .cls-60, .cls-61, .cls-62, .cls-63 {
        stroke-width: 0px;
      }

      .cls-2 {
        fill: url(#linear-gradient-4);
      }

      .cls-3 {
        fill: url(#linear-gradient-2);
      }

      .cls-4 {
        fill: url(#linear-gradient-3);
      }

      .cls-5 {
        fill: url(#linear-gradient-5);
      }

      .cls-6 {
        fill: #632d3d;
      }

      .cls-7 {
        fill: #4c3428;
      }

      .cls-8 {
        fill: #633527;
      }

      .cls-9 {
        fill: #47122b;
      }

      .cls-10 {
        fill: #44aab1;
      }

      .cls-11 {
        fill: #5f1a43;
      }

      .cls-12 {
        fill: #27413b;
      }

      .cls-13 {
        fill: #296872;
      }

      .cls-14 {
        fill: #5d182e;
      }

      .cls-15 {
        fill: #5d1e1a;
      }

      .cls-16 {
        fill: #53a2b4;
      }

      .cls-17 {
        fill: #45868a;
      }

      .cls-18 {
        fill: #955857;
      }

      .cls-19 {
        fill: #2f1123;
      }

      .cls-20 {
        fill: #305659;
      }

      .cls-21 {
        fill: #3a231c;
      }

      .cls-22 {
        fill: #57bdc4;
      }

      .cls-23 {
        fill: #828f98;
      }

      .cls-24 {
        fill: #1b263d;
      }

      .cls-25 {
        fill: #1b1316;
      }

      .cls-26 {
        fill: #0c3744;
      }

      .cls-27 {
        fill: #0c383c;
      }

      .cls-28 {
        fill: #452829;
      }

      .cls-29 {
        fill: #1b2d29;
      }

      .cls-30 {
        fill: #105a69;
      }

      .cls-31 {
        fill: #121112;
      }

      .cls-32 {
        fill: #207786;
      }

      .cls-33 {
        fill: #161813;
      }

      .cls-34 {
        fill: #122228;
      }

      .cls-35 {
        fill: #cc5288;
      }

      .cls-36 {
        fill: #cc9c89;
      }

      .cls-37 {
        fill: #e0a295;
      }

      .cls-38 {
        fill: #af968e;
      }

      .cls-39 {
        fill: #d57c92;
      }

      .cls-40 {
        fill: #d9b499;
      }

      .cls-41 {
        fill: #be667f;
      }

      .cls-42 {
        fill: #ae5870;
      }

      .cls-43 {
        fill: #b0d3d6;
      }

      .cls-44 {
        fill: #b43a6f;
      }

      .cls-45 {
        fill: #a68369;
      }

      .cls-46 {
        fill: #a97460;
      }

      .cls-47 {
        fill: #942a58;
      }

      .cls-48 {
        fill: #c39f85;
      }

      .cls-49 {
        fill: #9e4964;
      }

      .cls-50 {
        fill: #b68d62;
      }

      .cls-51 {
        fill: #741d3c;
      }

      .cls-52 {
        fill: #8e4e72;
      }

      .cls-53 {
        fill: #301619;
      }

      .cls-54 {
        fill: #80624e;
      }

      .cls-55 {
        fill: #8b6f5c;
      }

      .cls-56 {
        fill: #85553d;
      }

      .cls-57 {
        fill: #664539;
      }

      .cls-58 {
        fill: #67365a;
      }

      .cls-59 {
        fill: #eff0f1;
      }

      .cls-60 {
        fill: #e7949f;
      }

      .cls-61 {
        fill: #f1cab0;
      }

      .cls-62 {
        fill: #f6a9a8;
      }

      .cls-63 {
        fill: #67513f;
      }
    </style>
    <linearGradient id="linear-gradient" x1="365.75" y1="113.54" x2="412.54" y2="108.45" gradientTransform="translate(0 568.35) scale(1 -1)" gradientUnits="userSpaceOnUse">
      <stop offset="0" stop-color="#3f142b"/>
      <stop offset="1" stop-color="#9a2b5c"/>
    </linearGradient>
    <linearGradient id="linear-gradient-2" x1="518.32" y1="324.08" x2="503.04" y2="308.21" gradientTransform="translate(0 568.35) scale(1 -1)" gradientUnits="userSpaceOnUse">
      <stop offset="0" stop-color="#a12e61"/>
      <stop offset="1" stop-color="#4d1635"/>
    </linearGradient>
    <linearGradient id="linear-gradient-3" x1="60.47" y1="278.63" x2="24.72" y2="256.38" gradientTransform="translate(0 568.35) scale(1 -1)" gradientUnits="userSpaceOnUse">
      <stop offset="0" stop-color="#8c2658"/>
      <stop offset="1" stop-color="#c1447c"/>
    </linearGradient>
    <linearGradient id="linear-gradient-4" x1="339.42" y1="99.43" x2="360.8" y2="73.21" gradientTransform="translate(0 568.35) scale(1 -1)" gradientUnits="userSpaceOnUse">
      <stop offset="0" stop-color="#721a48"/>
      <stop offset="1" stop-color="#aa3266"/>
    </linearGradient>
    <linearGradient id="linear-gradient-5" x1="348.6" y1="242.49" x2="398.35" y2="223.95" gradientTransform="translate(0 568.35) scale(1 -1)" gradientUnits="userSpaceOnUse">
      <stop offset="0" stop-color="#191013"/>
      <stop offset="1" stop-color="#b73e76"/>
    </linearGradient>
  </defs>
  <path class="cls-61" d="M302.89,35.51c.08.32-.08.69,0,.98-3.65,13.66-1.98,30.1-8.02,44.21,12.07,13.58,9.6,37.09,7.02,54.15-.94,6.3-2.55,12.67-4.02,18.89-1.69,7.17-8.45,22.96-11.02,35.76v.98c-2.31-4.89-8.71-11.24-9.04-11.93-5.5-12.54,2.98-56.01-14.05-65.6-10.51-5.93-18.02-3.59-24.08,6.96,0-.16-.21.88-.99-2.98.35-23.91,7.86-54.13,39.12-47.69.59.13,9.2,4.76,10.54,5.95l2.52-.5c-2.28-1.65-.08-2.31,0-3.48.38-5.13-1.8-20.88-2.52-27.82-.8.11-1.96-.43-2.52.5-.56.9,1.61,5.1-8.02,18.39-3.43-3.24-8.02-7.97-12.04-9.94-3.14-16.42.97-49.26,20.06-51.68,8.42,3.16,15.1,26.44,17.05,34.78v.05Z"/>
  <path class="cls-1" d="M345.01,373.41c1.88,1.49,9.09,6.22,11.02,6.96-1.56,3.96.27,2.98.99,3.99,8.1,10.97,23.14,24.71,34.1,32.79,4.5,3.32,16.33,12.65,21.05,13.92l-.99.98c-2.9-1.57-5.93-2.87-8.53-4.97l-1.5,1.49c28.74,28.83,29.98,78.92,3.51,75.04-12.09-1.78-29.31-32.71-36.09-42.73-3.08,1.04,18.53,41.37,4.5,62.6-4.42,6.72-13.25,10.26-21.05,8.95,39.87-6.51,18.82-63.05,8.02-87.45-6.06-13.68-1.1-5.5-6.52-1.99-.16.11-2.06-2.07-3.51-.98,3.41-2.42,2.09-3,0-5.95.38-.13,1.1.16.99-.98,24.35-7.94,1.29-46.84-8.02-59.63l2.01-1.99v-.05Z"/>
  <path class="cls-3" d="M547.58,283.97c-.7.35-1.26.85-2.01.98-4.96-1.59-14.53-2.26-20.06-2.98-3.35-.45-9.12-1.86-12.04-1.99-2.98-.13-5.68.45-8.53-.98-10.03,21.6-46.04,20.14-49.15,21.87-1.72.96.8,3.64.51,4.97-3.46-.66-7.56-2.05-9.04,1.99-6.68-5.29-22.5-8.13-31.07-9.94-4.05-4.09-14.64-1.09-14.05-4.97,14.21.69,35.04,2.21,48.13-4.97,2.84,2.71,4.67,1.83,8.02,1.99,5.68.24,10.43,0,16.03-.98,18.88-3.27,30.3-11.37,30.08-30.8,2.36-6.11,6.35-3.51,13.03-6.96,41.8-5.82,50.41,22.61,30.08,32.79l.05-.03Z"/>
  <path class="cls-61" d="M119.37,400.25c14.48,8.24,27.7-2.98,40.11-9.43-12.92,19.16-53.81,64.67-74.22,38.26-2.33-5.1-1.64-6.11-3-10.92,3.35-1.57,4.1-4.81,5.01-7.94,5.74-3.93,14.34-17.88,22.07-22.85.8,3.29,6.92,11.16,10.03,12.91v-.03Z"/>
  <path class="cls-44" d="M142.42,426.08c-5.76,15.65-9.44,39.54-5.01,55.67-36.38,41.16-44-16.63-15.04-47.69,6.94.77,12.39-8.18,20.06-7.94v-.03Z"/>
  <path class="cls-31" d="M227.69,324.71c-5.93,10.89-6.01,17.75,7.02,18.89.19,0,2.84,1.41,3,1.99-6.97,1.41-8.02-.27-14.53-1.99-1.56.82-1.53,2.98-2.52,3.99-4.05,4.09-4.88,7.36-10.03,11.93-1.21,1.09-15.18,11.19-20.06,14.91-8.53,6.51-17.91,10.07-26.06,17.88-8.96,8.58-17.8,22.19-22.07,33.8-7.67-.24-13.11,8.72-20.06,7.94,1.18-4.04-6.11,2.63-12.55,3.99-11.02,2.31-19.57,1.97-24.56-8.95,20.4,26.41,61.29-19.1,74.21-38.26-12.41,6.46-25.63,17.67-40.11,9.43,11.48.72,15.39-.69,25.07-5.95,14.72-8.02,11.64-8.42,9.04-10.92,26.46-8.21,47.24-28.09,67.19-46.21-2.9-1.89-4.91-1.41-8.02-3.48,6.25-.88,8.55-6.56,13.03-9.94l2.01.98-.03-.03Z"/>
  <g>
    <path class="cls-61" d="M72.23,321.73c-.94,3.91.46,8.13,0,11.93-.29,2.5-.94,3.75-.99,4.97-1.13,2.87-2.47,5.9-3,8.95-8.2,3.83-17.37,9.01-26.57,9.94-4.42.45-19.04-.27-22.58-1.99-14.1-6.88-7.88-22.45,4.5-32.79,5.98-4.97,15.26-6.32,12.55-8.95,7.51-.24,20.4-3.35,29.09-4.97,7.35-1.36,14.93-1.46,22.07-3.99l-15.04,16.9h-.03Z"/>
    <path class="cls-33" d="M68.24,347.56c-.19.98-1.02,7.55-.99,7.94-7.99,6.62-9.81,5.15-12.04,5.95-12.55,4.54-32.42,11.85-36.09-5.95,3.54,1.73,18.15,2.44,22.58,1.99,9.2-.93,18.37-6.11,26.57-9.94h-.03Z"/>
  </g>
  <g>
    <path class="cls-35" d="M55.18,190.55c4.96,1.81,8.98,4.17,13.03,7.47.67,2.26-8.74,17.3,0,30.8-6.62.96-17.56,3.48-22.07,8.45-14.72-7.47-35.95-12.91-33.09-32.79,5.07-20.46,25.79-19.9,42.12-13.92h0Z"/>
    <path class="cls-44" d="M46.17,237.26c-.48.53-4.91,9.38-5.01,9.94-19.14-9.11-33.92-19.13-28.07-42.73-2.87,19.88,18.39,25.32,33.09,32.79Z"/>
  </g>
  <g>
    <path class="cls-4" d="M136.42,289.93c-.16.37.08,1.3,0,1.99-16.78,3.32-33.62,4.76-49.15,12.91-7.13,2.52-14.72,2.6-22.07,3.99,14.05-6.38-32.47.24-37.62,0-5.12-.24-19.92-5-22.58-9.43-4.16-7.01-1.82-13.39-5.01-12.44.48-3.8,1.98-7.31,3-10.92,18.31-9.43,31.53-2.79,43.11-6.96,15.12,22.4,65.85,23.52,90.25,20.86h.05Z"/>
    <path class="cls-35" d="M41.16,256.13c.43,4.73,2.36,9.01,5.01,12.91-11.58,4.17-24.83-2.47-43.11,6.96.59-2.13-.67-4.65,2.01-9.43,5.84-10.52,25.44-11.05,36.09-10.44Z"/>
    <path class="cls-47" d="M65.23,308.82c-8.69,1.62-21.58,4.73-29.09,4.97-20.03.64-34.16-5.47-36.09-26.84,3.19-.98.86,5.39,5.01,12.44,2.65,4.46,17.43,9.19,22.58,9.43,5.15.24,51.67-6.38,37.62,0h-.03Z"/>
  </g>
  <g>
    <path class="cls-44" d="M224.66,86.18l-2.01,2.98c-4.32-3.8-8.69-3.67-11.02-4.97-2.87-12.83-9.54-16.95-10.03-17.88-.86-1.65-5.84-11.29-6.01-11.93-2.14-8.21-1.64-19.24,2.01-26.84.11,7.81-2.47,13.31,0,22.37.86,3.16,21.45,41.24,25.07,34.78-4.37-10.04,8.58-31.03,11.02-26.84-7.67,7.28-11.53,17.99-9.04,28.32h0Z"/>
    <path class="cls-47" d="M246.72,50.42c-.54.13-.29,3.27-9.04,4.46.05-15.54-4.67-36-22.07-40.26,19.76-1.3,25.87,20.78,31.07,35.76l.03.03Z"/>
  </g>
  <g>
    <path class="cls-61" d="M373.09,22.6c-6.78,3.32-7.61,22.29-13.03,33.8-.56-.03-9.36,1.54-11.02,1.99-.51-.85-3-2.52-3-3.48s5.63-17.51,6.01-18.39c3.43-7.84,11.37-18.41,21.05-13.92h0Z"/>
    <path class="cls-61" d="M375.1,25.57c4.5,8.66,1.07,19.05-3,27.82-.88,1.91-3.38,4.33-4.02,5.95-1.88.05-4.56-1.73-6.01-1.99,4.72-10.26,6.65-35.61,13.03-31.81v.03Z"/>
    <path class="cls-45" d="M375.1,25.57c-6.38-3.8-8.31,21.55-13.03,31.81-2.82-.53-1.9-.98-2.01-.98,5.42-11.51,6.25-30.48,13.03-33.8,2.68,1.25,1.64,2.29,2.01,2.98Z"/>
  </g>
  <path class="cls-11" d="M87.27,410.19c-.91,3.14-1.66,6.38-5.01,7.94-4.61,2.18-7.59-.35-12.04,0,.91-.21,15.98-7.23,17.05-7.94Z"/>
  <g>
    <path class="cls-60" d="M352.04,36.49c-.38.88-6.03,17.43-6.01,18.39,0,.96,2.49,2.63,3,3.48-2.17.58-4.53,2.98-7.02,2.98.86-2.98,2.23-6.86,2.01-9.94-.8-11.56-8.18-15.89-19.06-15.89-4.83,0-9.04.82-13.03,3.99l-8.53,5.95c-1.34-1.09.19-5.95-.51-8.95-.08-.32.08-.69,0-.98,1.82.53,3.19-1.28.99-1.99,8.26-24.13,39.92-17.99,48.13,2.98h.03Z"/>
    <path class="cls-6" d="M302.89,35.51c.05-.82.7-1.12.99-1.99,2.2.69.83,2.52-.99,1.99Z"/>
  </g>
  <g>
    <path class="cls-2" d="M360.06,444.97c-8.74.9,4.4,27.85,4.02,30.32-.32,2.07-3.67-3.37-4.02,0-.29,2.98,8.42,32.34-6.01,41.24-17.78,10.97-24.45-9.25-34.1-19.88-.43-1.14-.16-3.61-2.01-3.99.05-2.23-.19-8.95,0-9.94,4.64-23.65,9.95-12.22,18.55-16.9,2.17-1.2,1.37-3.83,1.5-3.99.16-.16.78-1.73.99-1.99,9.2-11.45,6.06-10.2,7.02-11.93,1.42-2.58.88-3.8.99-3.99.11-.13.72-.29,3-1.99,1.45-1.06,3.35,1.09,3.51.98,5.42-3.51.46-11.69,6.52,1.99l.03.05Z"/>
    <g>
      <path class="cls-47" d="M360.06,444.97c10.81,24.39,31.85,80.96-8.02,87.45-6.78-1.14-6.06-2.87-9.04-4.97-10.62-8.98,16.06-1.75,11.02-10.92,14.45-8.9,5.71-38.29,6.01-41.24.35-3.37,3.67,2.07,4.02,0,.4-2.47-12.74-29.41-4.02-30.32h.03Z"/>
      <path class="cls-9" d="M354.02,516.52c5.04,9.19-21.64,1.97-11.02,10.92-10.11-7.17-18.69-19.45-23.06-30.8,9.63,10.63,16.3,30.85,34.1,19.88h-.03Z"/>
    </g>
  </g>
  <path class="cls-44" d="M147.44,213.4c8.93,2.95,34.67,30.03,41.1,39.75-6.54,2.63-12.07,17.56,5.01,19.88v1.99c-1.9.37-10.27,5.47-11.02,6.96.05-1.38-.99-.88-2.01-.98-6.43-.72-.94-3.72-2.01-7.47-2.33-8.18-10.3-4.76-10.54-19.37-10.78-.61-21.1-2.5-31.58-4.97-12.23-2.87-25.28-4.68-35.1-12.91-10.83-17.35,15.6-16.87,8.02-21.87.88.74,19.63,11.64,20.56,10.92-.46-10.89,7.16-15.36,17.56-11.93h0Z"/>
  <path class="cls-39" d="M149.45,194.51c-1.02,2.5-1.88,5.26-2.01,7.94-1.13,11.98-13.59-5.77-28.07-10.44,8.28,8.34,21.48,11.74,28.07,21.36-10.38-3.45-18.02,1.04-17.56,11.93-.91.72-19.68-10.18-20.56-10.92-17.43-14.85,6.7-21.79,7.02-23.36.32-1.59-9.17-2.58-7.02-12.91.32-1.59,3.32-3.83,4.02-5.47,10.13,3.27,24.29,22.4,36.09,21.87h.03Z"/>
  <path class="cls-61" d="M210.63,134.88c2.6,4.76,9.41,11.93,15.04,23.36,4.67,9.46,9.28,25.51,14.05,36.27-6.49-.5-9.06-.08-14.05,3.99-.38-3.75-22.09-40.18-26.06-45.73-3.38-4.7-16.36-10.5,2.01-18.89,1.13-.5,4.24-3.03,4.5-2.98,1.37.24,1.53,4.65,4.5,3.99h0Z"/>
  <path class="cls-60" d="M149.45,165.71c7.96,4.46,16.7,10.31,12.04,20.86-.29.66-6.46,7.71-12.04,7.94-11.8.53-25.95-18.6-36.09-21.87.86-2.13-.83-5.02,2.01-8.45,7.02-8.48,25.77-3.16,34.1,1.49l-.03.03Z"/>
  <g>
    <path class="cls-61" d="M172.53,75.26c14.99,11.03,29.12,43.15,38.1,59.63-2.98.66-3.14-3.75-4.5-3.99-.27-.05-3.38,2.47-4.5,2.98-1.15-4.38-8.82-9.8-13.03-10.92-21.64-5.74-49.6,9.65-41.1,34.78-4.29-4.46-26.38-28.83-28.58-29.81-.32-.13-4.24-1.41-3.51.5l34.1,37.28c-8.34-4.68-27.08-9.96-34.1-1.49-2.84,3.43-1.13,6.32-2.01,8.45-.67,1.65-3.67,3.88-4.02,5.47-2.14,10.34,7.35,11.32,7.02,12.91-.32,1.57-24.45,8.5-7.02,23.36,7.59,5-18.88,4.52-8.02,21.87,5.55,8.87,20.3,12.99,30.08,13.92,1.66,2.74,2.57,7.31,4.02,9.94-21.32-5.18-42.93-11.24-60.68-24.84,14.29,16.98,42.42,20.99,63.68,28.83.83,1.3,2.17,1.17,3,2.5-9.38,5.15,1.45,12.91,0,15.89-5.17.74-3.38,2.79-4.02,4.46-.38.98-.59,1.89-.99,2.98-24.43,2.63-75.13,1.54-90.25-20.86-2.65-3.91-4.58-8.18-5.01-12.91-.19-2.1-.29-7.25,0-8.95.11-.56,4.53-9.41,5.01-9.94,4.5-4.97,15.44-7.49,22.07-8.45-8.74-13.52.67-28.56,0-30.8-4.08-3.29-8.1-5.63-13.03-7.47,1.82-1.46,9.84-.37,14.05,0,.27,0,5.42,5.5,2.01-.98-.94-1.78-22.71-15.62-28.07-28.32-5.26-12.46-4.91-32.66,13.54-29.31,2.73-1.01,1.23-34.2,46.14-12.91-14.75-24.21-13.46-58.88,21.05-41.74,2.68-3.29,12.28-9.25,15.55-9.94,10.32-2.15,24.56,1.67,33.09,7.94l-.05-.05Z"/>
    <g>
      <path class="cls-17" d="M174.52,75.26h-2.01c-8.53-6.27-22.76-10.1-33.09-7.94-2.49-8.72.27-15.86,5.01-22.85-12.9,36.19,3.38,10.97,30.08,30.8h0Z"/>
      <path class="cls-15" d="M69.23,190.55l2.01-.98c3.43,6.48-1.72,1.01-2.01.98Z"/>
      <path class="cls-8" d="M147.44,157.74s.43-.72,3,1.99c5.87,6.16,11.29,13.6,17.05,19.88-2.04,5.21.05,4.73,0,4.97-.19.82-2.12,3.19-3,3.99-.91-.98-1.77-1.54-3-1.99,4.67-10.58-4.08-16.42-12.04-20.86l-34.1-37.28c-.72-1.89,3.19-.64,3.51-.5,2.2.98,24.29,25.35,28.58,29.81h0Z"/>
      <path class="cls-56" d="M135.43,260.11c.83,1.51,2.06,2.5,3,3.99-21.26-7.84-49.39-11.85-63.68-28.83,17.75,13.6,39.36,19.66,60.68,24.84Z"/>
      <path class="cls-51" d="M136.42,249.17c.21,1.3-2.65,1.22-5.01.98-9.79-.93-24.53-5.05-30.08-13.92,9.81,8.26,22.9,10.04,35.1,12.91v.03Z"/>
      <path class="cls-45" d="M72.74,164.7c.94,1.75,8.39,6.91,8.53,7.47,1.85,7.31-11.8,5.98-8.53-7.47Z"/>
    </g>
  </g>
  <g>
    <path class="cls-44" d="M180.55,280.97l-16.03,4.46,17.05-.5c-.7,7.33,4.02,8.66,9.04,10.92.24.11,1.69,2.47,5.01,1.99-5.71,4.44-5.79,14.27.99,17.88-2.68.29-44.61,11.74-52.15,13.92-13.19-5.69-7.21-19.45,4.02-24.34-.29-1.83-2.04-5-2.01-5.47.32-6.11-.43-6.51,5.01-10.92,11.66-2.9-2.01-1.78-14.05-1.99.62-1.67-1.15-3.72,4.02-4.46,1.45-2.98-9.38-10.76,0-15.89-.86-1.3-2.17-1.17-3-2.5-.94-1.46-2.17-2.44-3-3.99-1.45-2.63-2.36-7.2-4.02-9.94,2.36.21,5.23.29,5.01-.98,10.48,2.47,20.81,4.36,31.58,4.97.24,14.64,8.2,11.21,10.54,19.37,1.07,3.75-4.45,6.72,2.01,7.47h-.03Z"/>
    <path class="cls-14" d="M151.46,288.94c-4.77,1.2-10.16,2.02-15.04,2.98.08-.69-.16-1.59,0-1.99.43-1.09.64-2.02.99-2.98,12.01.21,25.71-.93,14.05,1.99Z"/>
  </g>
  <path class="cls-53" d="M311.9,39.49c-6.17,14.8-9.52,30.64-8.02,46.71.21,2.29.72,4.7.99,6.96.67,5.66,6.22,15.07,3,32.79-.7,3.93-.97,2.82-.99,2.98l-5.01,5.95c2.57-17.06,5.04-40.57-7.02-54.15,6.06-14.14,4.37-30.56,8.02-44.21.7,3-.86,7.84.51,8.95l8.53-5.95v-.03Z"/>
  <g>
    <path class="cls-44" d="M263.77,113.02c10.89,10.76,8.61,46.31,6.52,47.69-24.13-30.16,4.56,2.68,4.5,30.8-1.8.58-5.17,4.54-5.01,6.96h-2.01c-3.73-16.93-17.94-9.17-19.06,0-4.72-4.09-14.18-30.21-15.04-35.76,1.61-15.7-5.87-24.98,6.01-37.28v-4.46c0-.32.03-.66,0-.98,6.06-10.55,13.54-12.89,24.08-6.96h.03Z"/>
    <path class="cls-53" d="M277.82,178.62v12.91c-1.02,0-2.44-.19-3,0,.05-28.11-28.63-60.98-4.5-30.8,2.09-1.41,4.37-36.93-6.52-47.69,17.03,9.57,8.55,53.06,14.05,65.6l-.03-.03Z"/>
  </g>
  <g>
    <path class="cls-61" d="M285.84.73c-19.09,2.42-23.19,35.26-20.06,51.68-1.26-.61-3.89-1.75-5.01-1.99-.59-.13-1.37.08-2.01,0-1.34-12.36,8.71-56.6,27.08-49.69h0Z"/>
    <path class="cls-40" d="M290.85,71.27c-9.73,1.94-10.22-6.27-13.03-8.95,9.63-13.29,7.45-17.48,8.02-18.39.56-.93,1.69-.4,2.52-.5.7,6.96,2.87,22.72,2.52,27.82l-.03.03Z"/>
  </g>
  <g>
    <path class="cls-35" d="M215.65,14.65c17.4,4.25,22.12,24.71,22.07,40.26,8.74-1.22,8.5-4.36,9.04-4.46,3.43-.82,8.42-.45,12.04,0,.64.08,1.42-.13,2.01,0,6.11,6.06,14.56,9.96,17.05,18.89-31.24-6.43-38.74,23.78-39.12,47.69-1.47-7.12-13.65-29.15-14.05-30.8-2.52-10.34,1.34-21.04,9.04-28.32-2.44-4.2-15.39,16.79-11.02,26.84-3.62,6.46-24.21-31.62-25.07-34.78-2.47-9.06.11-14.56,0-22.37,3.14-6.51,10.72-12.44,18.04-12.91l-.03-.03Z"/>
    <path class="cls-6" d="M265.79,52.41c4.02,1.97,8.61,6.7,12.04,9.94,2.82,2.66,3.3,10.87,13.03,8.95-.08,1.17-2.28,1.83,0,3.48l-2.52.5c-1.31-1.2-9.95-5.85-10.54-5.95-2.49-8.93-10.91-12.81-17.05-18.89,1.13.24,3.75,1.38,5.01,1.99l.03-.03Z"/>
    <path class="cls-58" d="M224.66,86.18c.4,1.65,12.55,23.67,14.05,30.8.8,3.85.99,2.82.99,2.98.03.32,0,.66,0,.98-2.14,2.9-3.81-7.55-6.01-12.44-1.56-3.48-8.9-17.51-11.02-19.37l2.01-2.98-.03.03Z"/>
  </g>
  <path class="cls-47" d="M286.83,190.55c-1.34,1.65-.75,2.76-.99,3.99-3.51-2.98-3.49-3.03-8.02-2.98v-12.91c.29.69,6.73,7.04,9.04,11.93l-.03-.03Z"/>
  <path class="cls-31" d="M375.1,378.38c0,.21-.86,3.51-.99,3.99-.05.16-1.18.45-2.01,2.98-.72-.24-12.01-.74-15.04-.98-.72-1.01-2.55,0-.99-3.99,11.85,4.54,16.01.56,15.04-11.93.86,2.02,3.99,7.92,4.02,9.94h-.03Z"/>
  <g>
    <path class="cls-60" d="M173.53,456.9c-4.42-.24-5.84-14.11-6.01-19.88,5.87,1.49,5.12-6.06,7.02-9.43,2.92-5.23,8.93-12.01,11.02-17.4-.51,4.46.91,3.8.99,3.99,4.91,11.58,18.58,8.26,21.56-2.98,8.96,7.84,15.34-.11,22.58-4.97-11.53,23.12-23.22,63.13-57.16,50.7v-.03Z"/>
    <path class="cls-39" d="M187.58,400.25l-20.06,28.83c1.5-19.88,9.87-28.67,16.03-38.77l23.06-23.86c-6.78,11.16-11.66,23.01-19.06,33.8h.03Z"/>
    <path class="cls-60" d="M185.56,410.19c-2.12,5.39-8.1,12.14-11.02,17.4-1.9,3.4-1.15,10.95-7.02,9.43-.08-2.58-.19-5.37,0-7.94l20.06-28.83c-1.56,4.17-1.8,9.38-2.01,9.94Z"/>
  </g>
  <path class="cls-18" d="M210.63,359.49c-1.23,2.36-2.63,4.68-4.02,6.96l-23.06,23.86c1.31-2.15,3.03-4.68,4.02-6.96,2.52-5.87-3.75.27,3.51-7.94.88,6.19,5.17-.61-.51-.98,4.88-3.72,18.85-13.82,20.06-14.91v-.03Z"/>
  <g>
    <path class="cls-22" d="M160.5,33.52c19.81,1.83,30.19,17.51,40.11,32.79,5.42,8.37,5.12,14.61,11.02,17.88,2.33,1.3,6.73,1.17,11.02,4.97,2.12,1.89,9.46,15.92,11.02,19.37,2.2,4.89,3.86,15.3,6.01,12.44v4.46c-11.88,12.3-4.4,21.58-6.01,37.28-20.81-23.36-34.16-68.9-59.17-87.45-26.7-19.85-42.98,5.39-30.08-30.8,3.97-5.82,8.5-10.07,16.03-10.92l.05-.03Z"/>
    <g>
      <path class="cls-13" d="M195.59,54.4c.16.64,5.15,10.28,6.01,11.93h-.99c-9.92-15.28-20.32-30.96-40.11-32.79,16.52-1.86,24.91,10.6,35.1,20.86h0Z"/>
      <path class="cls-24" d="M211.63,84.21c-5.9-3.29-5.6-9.54-11.02-17.88h.99c.48.93,7.16,5.05,10.03,17.88Z"/>
    </g>
  </g>
  <g>
    <path class="cls-21" d="M470.36,373.41c4.83,2.34,9.97,3.35,15.04,4.97,1.56.5,3.32,1.12,5.01.98v.98c.59,1.49,4.45,2.58,6.01,2.98,1.85,2.44,3.99,4.65,6.01,6.96-2.68,6.14,4.67,5.61,6.01,12.44,3.94,19.72-11.29,26.07-28.07,20.38-9.57-20.03-11.98-11.66-19.55-12.91-4.02,4.25-16.78,19.05-19.06,20.86-7.19,5.71-16.54,5.42-15.55,10.92-3.11-1.97-5.87-4.04-9.04-5.95-2.01-1.25-4.08-2.92-6.01-3.99l.99-.98c24.88,6.67,38.5-23.3,32.09-37.76-2.73-6.14-11.1-1.59-9.04-6.96,14.56,2.02,27-5.5,26.06-20.86-.46-7.63-2.63-9.06-8.02-13.92l.99-.98c3.14,2.92,8.79,5.58,11.02,9.43,5.15,8.95,1.31,14.19,5.01,13.42h.08Z"/>
    <g>
      <path class="cls-7" d="M417.22,436.01c3.14,1.94,5.93,4.01,9.04,5.95,12.49,7.84,36.52,27.1,51.64,21.87,14.37-4.97,7.32-30.69,2.52-40.73,16.78,5.71,32.01-.66,28.07-20.38-1.37-6.83-8.71-6.3-6.01-12.44,18.34,20.91,7.45,41.53-20.06,35.29,25.66,64.35-41.77,41.53-65.18,10.44h-.03Z"/>
      <path class="cls-40" d="M480.39,423.1c4.8,10.07,11.88,35.76-2.52,40.73-15.12,5.23-39.17-14.03-51.64-21.87-.99-5.5,8.37-5.21,15.55-10.92,2.28-1.81,15.04-16.61,19.06-20.86,7.59,1.25,10-7.12,19.55,12.91h0Z"/>
    </g>
  </g>
  <g>
    <path class="cls-39" d="M470.36,373.41c-3.7.77.13-4.46-5.01-13.42-2.23-3.88-7.91-6.54-11.02-9.43-1.64-1.51-3.59-2.71-5.01-4.46,12.49-9.99,14.61-16.31,8.02-30.32-1.69-3.61-4.85-4.92-1.5-4.97,12.71-.24,62.36,39.38,14.53,62.6h0Z"/>
    <path class="cls-34" d="M456.31,305.82c.19.03,2.84,1.97,3,1.99-4.34,2.42,6.57,4.65,19.06,12.91,8.69,9.01,15.9,17.99,16.03,30.8.13,12.14-6.73,15.46-8.02,17.88-.08.13-1.93,1.91-2.01,2.5-.27,1.99,1.66,3.75.99,6.46-5.07-1.62-10.22-2.63-15.04-4.97,47.83-23.25-1.82-62.87-14.53-62.6-3.35.05-.19,1.36,1.5,4.97.59,8.66-.32,14.27-8.02,18.89,9.22-8.13,7.19-19.56-2.01-26.84,1.47-4.04,5.55-2.66,9.04-1.99Z"/>
    <path class="cls-49" d="M454.33,350.56l-.99.98c-6.03-5.42-14.75-8.64-22.07-11.93,5.04-.05,13.89-2.5,18.04-4.97,7.69-4.6,8.63-10.23,8.02-18.89,6.57,14,4.45,20.3-8.02,30.32,1.42,1.78,3.38,2.95,5.01,4.46v.03Z"/>
  </g>
  <path class="cls-61" d="M416.2,297.87c8.58,1.81,24.43,4.65,31.07,9.94,9.2,7.28,11.23,18.71,2.01,26.84-4.16,2.47-13,4.92-18.04,4.97-9.38-4.2-23.11-7.87-25.58-8.95-1.18-.5.59-1.06.51-1.99,19.38,3.67,27.24-13.07,10.03-23.86-12.98-8.13-30.81-6.54-36.09-12.91,12.82,2.74,25.18,3.67,36.09,5.95v.03Z"/>
  <g>
    <path class="cls-22" d="M78.26,372.4c1.77,1.06,1.85,1.33,4.02,1.99,4.83,7.97,15.31,11.61,24.08,11.93-10.7,13.21-37.05,37.09-55.15,29.81-20.94-10.87-8.39-41.74,4.02-54.66,2.2-.8,4.05.66,12.04-5.95.51,7.71,4.72,13.1,11.02,16.9l-.03-.03Z"/>
    <path class="cls-31" d="M109.34,387.31c-7.69,5-16.33,18.92-22.07,22.85-1.07.74-16.14,7.76-17.05,7.94-8.18,1.81-11.85,1.75-19.06-1.99,18.1,7.25,44.48-16.61,55.15-29.81.62-.77,1.9-1.17,3-3.99.05,1.73-.27,3.91,0,4.97l.03.03Z"/>
    <path class="cls-33" d="M121.38,358.51c-6.27,7.15-11.1,10.71-12.04,20.86-7.51-5.85-13.06-.61-27.08-4.97-2.14-.66-2.25-.93-4.02-1.99v-.98c10.67,5.87,20.94-.43,30.08-4.97,4.42-2.21,8.79-5.34,13.03-7.94h.03Z"/>
    <path class="cls-17" d="M109.34,379.36c-.08.96-.03,2.02,0,2.98-1.1,2.82-2.39,3.19-3,3.99-8.77-.32-19.25-3.96-24.08-11.93,14.02,4.36,19.57-.88,27.08,4.97h0Z"/>
  </g>
  <path class="cls-31" d="M478.38,221.35c.03,2.36-.54,6.11-2.01,7.94-.16.19-3.54,2.66-4.02,2.98-.8.53-5.47,1.59-17.05,8.95-5.6,3.56-13.16,6.67-16.03,12.91-18.04-1.91-35.34,5.13-53.14,6.96h-2.01v-.98c18.31-3.11,75.07-14.64,72.2-39.75,3.35-.96,1.77,8.9,3.51,9.94.94.56,16.22-7.39,18.55-8.95h0Z"/>
  <path class="cls-21" d="M510.47,206.44c-8.45,5.02-21.34,9.65-12.04,11.93-.54.16-1.42-.13-2.01,0-7.21,1.49-7.02-.96-10.03,7.94-3.59,1.09-7.27-.9-7.02,4.97-1.85-.13-3.38.74-3-1.99,1.47-1.83,2.04-5.58,2.01-7.94,3.67-2.44,8.85-6.14,11.02-9.94l21.05-4.97h.03Z"/>
  <g>
    <path class="cls-45" d="M526.53,181.6c-.32,4.62-13.65,13.71-18.04,15.89-4.72,2.34-10.89,3.75-16.03,4.97.13-2.42-.21-6.78-.99-8.95-.4-1.83,14.77-10.18,16.54-10.92.99-.43,2.25,1.73,4.02.98.72-.29-.99-7.79,13.03-2.98l-2.52-4.97c3.43.16,4.5,3.08,4.02,5.95l-.03.03Z"/>
    <path class="cls-40" d="M522.51,175.64l2.52,4.97c-14.02-4.78-12.31,2.68-13.03,2.98-1.77.72-3.03-1.43-4.02-.98-1.77.77-16.95,9.09-16.54,10.92-1.58-4.33-6.35-7.52-10.03-9.94,6.84-1.67,13.51-5.45,20.06-7.94,4.05-1.54,7.99-2.47,12.04-3.99,2.98,1.12,6.52,1.99,9.04,3.99h-.03Z"/>
    <path class="cls-54" d="M524.52,198.5c-.4.43-2.33,1.46-3,1.99-1.1.88-2.82,1.17-4.02,1.99l-9.04-4.97c4.4-2.18,17.72-11.29,18.04-15.89,6.14,1.43,2.98,11.69-2.01,16.9l.03-.03Z"/>
    <path class="cls-63" d="M508.46,197.51l9.04,4.97c-2.36,1.62-4.67,2.58-7.02,3.99l-21.05,4.97c1.56-2.74,2.84-5.77,3-8.95,5.15-1.22,11.31-2.63,16.03-4.97Z"/>
    <path class="cls-48" d="M501.46,175.64c-6.54,2.5-13.22,6.27-20.06,7.94-17.05,4.17,5.17-5.53,20.06-7.94Z"/>
  </g>
  <g>
    <path class="cls-61" d="M513.47,171.66c-4.02,1.51-7.99,2.42-12.04,3.99-14.88,2.44-37.11,12.12-20.06,7.94,3.67,2.42,8.45,5.61,10.03,9.94.78,2.15,1.13,6.54.99,8.95-.19,3.19-1.45,6.22-3,8.95-2.17,3.8-7.37,7.49-11.02,9.94-2.33,1.57-17.62,9.49-18.55,8.95-1.74-1.04-.16-10.89-3.51-9.94-1.07-9.27-4.64-8.1-7.02-12.91-5.58-11.32-4.67-12.3-5.01-12.91,3.06-.56,5.28-2.58,8.02-3.99,17.03-8.69,30.89-22.16,51.16-21.87,7.48.9,6.76,1.75,10.03,2.98v-.03Z"/>
    <path class="cls-15" d="M444.3,194.51c.35.64-.56,1.59,5.01,12.91-10.81-.32-3-4.6-9.04-17.88,1.47,1.57,2.98,3.08,4.02,4.97Z"/>
  </g>
  <g>
    <path class="cls-61" d="M463.33,61.34c6.62,7.65-1.56,13.95-4.02,18.89-1.85,3.75-1.88,4.73-2.01,4.97l-4.02-2.5c6.11-7.65-13.67,5.71-8.53-3.48-7.45,2.29-10.56,2.63-4.5-3.99,4.16-4.54,16.84-15.25,23.06-13.92l.03.03Z"/>
    <path class="cls-21" d="M453.31,100.1c-1.61,1.78-3.81,5-6.01,5.95-.32.13-1.26-.08-2.01,0v-.98c2.98-1.04,19.22-20.06,14.05-24.84,2.44-4.94,10.64-11.21,4.02-18.89,11.18,2.42-1.64,18.28-2.01,19.37-.35,1.04,4.16,5.93-8.02,19.37l-.03.03Z"/>
    <path class="cls-40" d="M441.27,72.28l-7.02-8.95c18.34-2.13,16.52-4.15,7.02,8.95Z"/>
    <g>
      <path class="cls-61" d="M434.27,63.33l7.02,8.95c-.62.85-1.21,1.86-.99,2.98-6.06,6.62-2.95,6.24,4.5,3.99-5.15,9.19,14.64-4.17,8.53,3.48l4.02,2.5c-4.08,7.2-8.77,13.52-14.05,19.88-7.99-1.54-15.23,4.22-16.54,3.99-2.31-.43-5.31-16.79-25.58,1.99,3.19-9.86,2.9-20.35-.99-29.81-.08-3.56,2.9-7.55,3-7.94,10.67-6.88,17.8-10.84,31.07-9.94v-.05Z"/>
      <path class="cls-48" d="M445.29,105.07h-2.01c5.26-6.38,9.95-12.67,14.05-19.88.13-.24.16-1.22,2.01-4.97,5.2,4.78-11.07,23.81-14.05,24.84Z"/>
    </g>
  </g>
  <g>
    <path class="cls-44" d="M242.73,366.45c-3.97,14-16.68,59.65-36.6,40.73-2.17,10.52-11.1,15.84-19.55,6.96-.08-.19-1.5.5-.99-3.99.21-.56.46-5.77,2.01-9.94,7.4-10.76,12.28-22.61,19.06-33.8,1.39-2.29,2.76-4.6,4.02-6.96,5.15-4.57,5.98-7.84,10.03-11.93,5.6-1.17,3.67,6.16,10.54,8.95.78.32,5.09-2.9,13.54,5.47-1.37,1.17-1.56,2.9-2.01,4.46l-.05.03Z"/>
    <path class="cls-11" d="M237.71,345.57c1.29-.27,2.36.32,4.02-.98.21,3.99,3.67,9.03,8.02,8.95-.08.64.13,1.49,0,1.99-.46,1.54-2.14,4.09-3,5.95-1.64,3.51-2.92,4.7-3,4.97h-.99c.46-1.59.62-3.32,2.01-4.46-8.45-8.37-12.76-5.15-13.54-5.47-6.86-2.79-4.93-10.1-10.54-8.95.97-.98.97-3.16,2.52-3.99,6.52,1.73,7.59,3.4,14.53,1.99h-.03Z"/>
    <path class="cls-25" d="M243.72,366.45c-2.47,7.33-4.02,15.23-2.01,22.85-2.25,4.38-4.72,11.19-6.01,15.89h-.99c-2.06-3.08-3.78.85-4.02.98-7.21,4.86-13.59,12.81-22.58,4.97-2.98,11.24-16.65,14.59-21.56,2.98,8.47,8.87,17.4,3.59,19.55-6.96,19.92,18.89,32.66-26.73,36.6-40.73h.99l.03.03Z"/>
  </g>
  <path class="cls-35" d="M362.07,57.38c1.45.27,4.13,2.05,6.01,1.99-.24.61.13,1.99,0,2.98-15.36,1.62-26.97,14.8-37.11,24.84.35-.8-.24-4.17,0-6.46,4.24-5.74,9.01-12.46,11.02-19.37,2.49,0,4.85-2.39,7.02-2.98,1.69-.45,10.48-2.02,11.02-1.99.11,0-.83.48,2.01.98h.03Z"/>
  <path class="cls-9" d="M344,51.4c.21,3.08-1.13,6.96-2.01,9.94-2.01,6.91-6.78,13.63-11.02,19.37-.24,2.29.35,5.69,0,6.46-.13.27.13.72,0,.98-.72-2.07-3.14-8.93-3-9.94.08-.77,6.11-6.38,6.01-13.92,6.52.16,6.19-12.28,10.03-12.91v.03Z"/>
  <path class="cls-31" d="M436.25,153.78c.78-.21,3.94,1.17,4.02,1.49.46,2.05-28.53,26.46-31.07,28.32-4.61,3.35-16.84,9.03-27.08,15.89-9.97,6.7-21.07,16.18-30.08,21.87-2.57,1.62-3.83.74-6.01,2.98-4.48-2.13-7.64-5-13.03-3.99,6.6-2.34,12.76-7.25,17.05-12.91l2.01.98c-2.12,3.43-3.65,6.91-7.02,9.43l.51,1.49c16.57-11.69,68.85-49.55,52.66-69.56-.05-.32.08-.69,0-.98-.51-2.21-1.93-2.82-2.01-2.98-.24-.45-3.75-4.76-4.02-4.97h.99c10.35,9.65,15.55,21.39,11.53,35.76,10.83-6.46,22.66-13.98,31.58-22.85l-.03.03Z"/>
  <g>
    <path class="cls-61" d="M489.42,91.15c-2.63,12.59-15.52,25.14-27.08,29.81-.54.21-4.99.45-7.02.98-.72-7.63-3.03-10.5-8.02-15.89,2.2-.98,4.4-4.2,6.01-5.95,11.26-5.31,23.76-20.57,36.09-8.95h.03Z"/>
    <path class="cls-48" d="M493.42,98.11c-2.2-.48-3.3,7.73-8.02,14.4-3.51,4.97-10.3,10.47-15.04,14.4-.67,0-1.34-.03-2.01,0l-6.01-5.95c11.56-4.68,24.45-17.22,27.08-29.81,2.14,2.02,3.97,3.64,4.02,6.96h-.03Z"/>
    <path class="cls-29" d="M447.3,106.08c5.01,5.39,7.29,8.26,8.02,15.89.35,3.77-.35,3.99-.99,6.96-1.31,5.95-1.98,5.82-3,7.94-1.64,3.4-5.34,12.65-7.02,7.94,10.11-13.95,13.89-25.03.99-38.77.72-.08,1.69.13,2.01,0v.03Z"/>
    <path class="cls-55" d="M462.34,120.99l6.01,5.95c-4.05.21-9.46,3.93-14.05,1.99.67-2.98,1.37-3.19.99-6.96,2.04-.53,6.49-.77,7.02-.98h.03Z"/>
    <path class="cls-54" d="M468.35,126.94c.67-.03,1.34,0,2.01,0-4.53,3.77-16.57,15.33-19.06,9.94,1.02-2.13,1.69-1.99,3-7.94,4.58,1.94,9.97-1.78,14.05-1.99Z"/>
  </g>
  <g>
    <path class="cls-7" d="M493.42,98.11c.11,6.78-7.67,16.87-12.04,21.87-1.1,1.25-2.84,2.76-4.02,3.99-.91.96-2.06,2.05-3,2.98-3.81,3.72-9.2,6.93-13.03,10.92-2.52,2.63-5.01,3.69-.99,3.99-.7.82-.97.93-.99.98-.08.13-1.58-.43-2.01.5-.46.96.46,4.12,0,4.97-2.57,4.94-4.72,5.39-5.01,5.95-6.17,11.69,1.1,13.55-21.05,21.36-.48.19-1.5-.16-2.01,0-4.48,1.46-11.34,1.22-12.04,6.96-1.72.48-5.87.72-8.02.98,2.55-1.86,31.56-26.28,31.07-28.32-.08-.32-3.24-1.7-4.02-1.49,2.68-2.66,5.82-5.9,8.02-8.95,1.69,4.7,5.39-4.54,7.02-7.94,2.47,5.39,14.53-6.16,19.06-9.94,4.75-3.93,11.53-9.46,15.04-14.4,4.72-6.7,5.84-14.91,8.02-14.4Z"/>
    <path class="cls-55" d="M474.38,126.94c1.02,3.11-2.87,5.5-3,7.94-1.07-6.32-7.48,6.75,2.01,7.47-4.21,3.75-18.21,13.9-14.05.5.03-.05.32-.16.99-.98.94-1.12,1.21-2.52.99-3.99,3.83-3.99,9.22-7.2,13.03-10.92l.03-.03Z"/>
    <path class="cls-45" d="M471.35,134.88c.13-2.47,4.02-4.86,3-7.94.97-.93,2.12-2.05,3-2.98-.11,18.97-6.43,18.2-6.01,10.92Z"/>
    <g>
      <path class="cls-45" d="M487.41,166.69c3.27-5.85,24.26-21.66,17.56-40.73-13.11,8.05-22.84,19.72-34.1,29.81-.08.08-1.23-1.7-2.01-.98-7.05,13.42-23.84,16.47-29.57,32.79-5.76-4.38-19.36-2.36-8.02-11.93,22.17-7.81,14.91-9.67,21.05-21.36.29-.58,2.44-1.04,5.01-5.95.46-.85-.46-4.01,0-4.97.43-.9,1.93-.35,2.01-.5-4.16,13.42,9.84,3.24,14.05-.5-9.49-.69-3.08-13.79-2.01-7.47-.4,7.28,5.9,8.02,6.01-10.92,1.15-1.22,2.92-2.74,4.02-3.99,32.5-14.91,36.17,22.08,6.01,46.71h0Z"/>
      <path class="cls-55" d="M487.41,166.69c-3.65,6.51,1.31,1.12,6.52.98,3.54-.08,6.17.58,9.52.98-20.24-.29-34.1,13.15-51.16,21.87,10.83-8.95,24.24-14.99,35.1-23.86l.03.03Z"/>
      <path class="cls-61" d="M487.41,166.69c-10.86,8.87-24.26,14.91-35.1,23.86-2.73,1.41-4.99,3.4-8.02,3.99-1.05-1.89-2.55-3.4-4.02-4.97-.16-.19-.91-1.91-.99-1.99,5.76-16.31,22.55-19.37,29.57-32.79.78-.72,1.93,1.06,2.01.98,11.26-10.1,20.99-21.76,34.1-29.81,6.73,19.1-14.29,34.89-17.56,40.73h0Z"/>
      <path class="cls-45" d="M429.26,175.64c-3.57,2.31-7.94,5.82-12.04,6.96.7-5.74,7.56-5.5,12.04-6.96Z"/>
    </g>
    <path class="cls-45" d="M460.33,141.85c-4.02-.29-1.53-1.33.99-3.99.19,1.43-.05,2.84-.99,3.99Z"/>
  </g>
  <g>
    <path class="cls-55" d="M247.74,512.54l-.99.98-.99-1.99c1.66.72,1.9.98,2.01.98l-.03.03Z"/>
    <path class="cls-40" d="M237.71,466.84c.88.43,17.59,5.98,18.55,5.95,1.1,0,6.78-5.74,11.53-3.99-.27,2.6,6.25,9.67,8.02,10.92-1.56,9.75-4.56,22.53-13.03,28.83-4.42,3.27-9.92,5.07-15.04,3.99-.11,0-.32-.27-2.01-.98-4.21-4.97-11.34-11.56-13.03-17.88-1.66-6.24-.99-12.54-.99-18.89,0-1.33-.03-2.66,0-3.99.08-2.87.75-5.29.99-7.94,2.2,1.46,1.9,2.47,5.01,3.99Z"/>
  </g>
  <g>
    <g>
      <path class="cls-61" d="M187.58,383.35c-.97,2.29-2.71,4.81-4.02,6.96-6.17,10.07-14.56,18.89-16.03,38.77-.19,2.58-.08,5.37,0,7.94.19,5.77,1.58,19.64,6.01,19.88,15.18,17.35,23.49,14,43.11,4.97-9.17,23.33-24.77,42.73-51.16,45.73-13.11-1.38-24.72-13.63-28.07-25.83-4.42-16.1-.75-39.99,5.01-55.67,4.26-11.61,13.11-25.19,22.07-33.8,12.33.58,19.57-11.8,23.06-8.95h.03Z"/>
      <path class="cls-21" d="M234.71,405.22c-3.65,6.51-3.24,25.59-9.52,23.86-1.21.64.83,1.22.51,1.99-5.76,13.05-2.82,12.25-3,12.91-1.77,6.3-3.62,11.8-6.01,17.88-19.63,9.03-27.94,12.38-43.11-4.97,33.92,12.46,45.63-27.55,57.16-50.7.21-.16,1.96-4.07,4.02-.98h-.05Z"/>
      <path class="cls-36" d="M190.58,374.4c5.66.4,1.37,7.17.51.98-7.27,8.21-.99,2.07-3.51,7.94-3.51-2.84-10.72,9.51-23.06,8.95,8.15-7.84,17.53-11.4,26.06-17.88Z"/>
    </g>
    <g>
      <path class="cls-21" d="M230.69,455.89c-5.09-7.84-6.17,11.43-9.04,18.89-.4,1.01-.72,2.31-.99,2.98-4.16,10.07-12.76,17.38-17.05,26.84h-.99c-7.37,1.59-16.41,9.57-22.58,1.99-2.55-.08-7.51,1.73-14.53.98,26.38-3,41.96-22.4,51.16-45.73,2.39-6.08,4.24-11.58,6.01-17.88,1.88-4.28,4.77-9.59,4.5-13.92l-1.5.98c.35-.77-1.69-1.36-.51-1.99,6.3,1.75,5.87-17.35,9.52-23.86h.99c-4.29,15.52-9.3,35.07-5.01,50.7l.03.03Z"/>
      <path class="cls-56" d="M222.67,443.96c.19-.66-2.73.13,3-12.91l1.5-.98c.24,4.33-2.63,9.65-4.5,13.92v-.03Z"/>
      <g>
        <path class="cls-55" d="M232.7,493.65c1.69,6.35,8.85,12.94,13.03,17.88-7.32-3.16-12.17-14-13.54-12.91-.94,12.89-13.7,44.03-29.09,42.73-.21,0-2.33-1.86-3.51-1.99-6.86-9.43-1.64-24.68,3-34.78h.99c-1.31,2.92-3.35,11.27-4.02,14.91-.32,1.78-1.9,4.92-2.01,6.96-.03.66,0,1.33,0,1.99.16,4.15.62,10.28,6.01,10.92,9.52,1.17,22.55-22.21,25.07-30.32,1.8-5.82,1.02-16.16,4.02-15.41l.05.03Z"/>
        <path class="cls-48" d="M231.68,474.78c0,6.35-.67,12.62.99,18.89-3-.74-2.2,9.59-4.02,15.41-2.52,8.1-15.55,31.49-25.07,30.32,12.25-11.8,27.8-50.06.99-18.39-2.23,2.63-3.3,7.97-7.02,7.47,0-.66-.03-1.33,0-1.99l24.08-23.36-2.52-13.42c-3.46,0,4.99,14.14-19.55,29.81.67-3.64,2.68-11.98,4.02-14.91,4.29-9.46,12.87-16.77,17.05-26.84,4.75,7.33,2.47-4.33,11.02-2.98l.03-.03Z"/>
        <path class="cls-57" d="M230.69,455.89c.32,1.17.51,3.56,2.01,3.99-.43,3.53,0,2.84,0,2.98-.24,2.66-.91,5.07-.99,7.94l-10.03,3.99c2.84-7.44,3.94-26.73,9.04-18.89h-.03Z"/>
        <path class="cls-54" d="M231.68,474.78c-8.58-1.36-6.3,10.31-11.02,2.98.27-.66.62-1.97.99-2.98l10.03-3.99c-.03,1.33,0,2.66,0,3.99Z"/>
        <path class="cls-61" d="M203.61,539.37c-5.39-.66-5.84-6.78-6.01-10.92,3.73.53,4.8-4.84,7.02-7.47,26.78-31.67,11.26,6.59-.99,18.39h-.03Z"/>
        <path class="cls-40" d="M197.6,526.46c.11-2.02,1.69-5.18,2.01-6.96,24.53-15.68,16.09-29.81,19.55-29.81l2.52,13.42-24.08,23.36Z"/>
      </g>
    </g>
  </g>
  <g>
    <path class="cls-21" d="M401.16,111.05c-1.64,5.02-5.31,8.58-8.02,12.91h-.99c7.21-12.57,12.23-28.54,7.02-42.73h.99c3.89,9.46,4.21,19.95.99,29.81h0Z"/>
    <path class="cls-61" d="M390.14,69.31c1.74,1.49,8.34,10.07,9.04,11.93,5.2,14.19.19,30.16-7.02,42.73-2.41,4.2-7.13,8.4-10.03,12.44,1.77,1.33,4.21,1.3,6.01,2.5l-24.08,25.83c-.72-4.07-3.97-4.78-7.02-5.95-3.91-1.51-8.31-.93-12.04-2.98.62-.74.97-.93.99-.98.99-1.14,7.21-4.57,7.53-4.97,9.46-11.61-2.95-16.02-4.5-18.89-.35-.61-.64-1.38-.99-1.99-1.23-2.18-.97-4.76-4.02-9.94-3.32-5.63-3.27-7.47-11.02-7.94-6.94-.43-10.64,1.75-16.03,5.95v-.98c2.01-9.83,10.64-20.49,14.05-27.82.13-.27-.13-.72,0-.98,10.13-10.04,21.74-23.22,37.11-24.84,8.28-.88,15.82,1.65,22.07,6.96l-.03-.05Z"/>
  </g>
  <g>
    <path class="cls-13" d="M404.19,43.45h-.99c-2.14-2.71-9.2-5.42-12.55-4.97-5.36.72-18.77,18.73-15.04,21.87,5.93.53,10.05,4.78,14.53,7.94v.98c-6.25-5.31-13.78-7.81-22.07-6.96.13-.98-.24-2.39,0-2.98.62-1.62,3.11-4.04,4.02-5.95,7.53-10.31,20.99-24.84,32.09-9.94Z"/>
    <path class="cls-27" d="M403.17,73.27c-.11.4-3.08,4.38-3,7.94h-.99c-.67-1.86-7.27-10.44-9.04-11.93v-.98c2.84,2.02,5.04,4.57,7.53,6.96,6.57-6.72,11.88-23.7,5.52-31.81h.99c8.1,10.89,1.88,18.95-.99,29.81h-.03Z"/>
    <path class="cls-22" d="M403.17,43.45c6.38,8.1,1.05,25.06-5.52,31.81-2.49-2.39-4.67-4.94-7.53-6.96-4.48-3.16-8.61-7.44-14.53-7.94-3.73-3.14,9.71-21.15,15.04-21.87,3.35-.45,10.4,2.26,12.55,4.97Z"/>
  </g>
  <g>
    <g>
      <path class="cls-47" d="M261.76,546.34c-.16,0-2.65-.85-3-.98-8.63-3.53-11.31-23.36-12.04-31.81l.99-.98c5.12,1.09,10.62-.69,15.04-3.99-3.14,12.12,10.13-3.59,15.04-12.91,3.41,11.32.78,50.75-16.03,50.7v-.03Z"/>
      <path class="cls-53" d="M280.83,482.73v8.95c-3.24,1.46-2.65,3.32-3,3.99-4.91,9.33-18.18,25.03-15.04,12.91,8.47-6.3,11.48-19.05,13.03-28.83.56.4,4.75,2.87,5.01,2.98Z"/>
    </g>
    <g>
      <path class="cls-11" d="M285.84,532.41c2.25,5.45,8.74,11.77,9.04,14.91,0,.21-.64.93-.99,3.99-.11.98.21,2.26,0,2.98-1.18,3.91-3.22,6.14-6.01,8.95-7.69,0-15.5-.93-23.06-.98l-.99-4.97c4.99,6.32,6.73-3.16,3-6.96,14.16-4.44,14.45-23.97,19.06-17.88l-.05-.03Z"/>
      <path class="cls-19" d="M285.84,532.41c-4.58-6.08-4.88,13.47-19.06,17.88-.97.29-2.79-.19-4.02,0,0-.21-1.53.58-.99-3.99,16.81.05,19.47-39.35,16.03-50.7.35-.66-.24-2.52,3-3.99.38,13.07,0,28.62,5.01,40.73l.03.05Z"/>
      <path class="cls-47" d="M266.78,550.3c3.7,3.8,1.98,13.29-3,6.96-.94-1.2-.59-.96-.99-1.99-1.82-4.38.03-3.85,0-4.97,1.23-.19,3.03.29,4.02,0h-.03Z"/>
    </g>
  </g>
  <path class="cls-59" d="M296.86,548.33c4.5,2.31,3.46.96,5.01.98.72,2.39-5.84,3.56-8.02,1.99.35-3.03,1.02-3.77.99-3.99.75.16,1.34.64,2.01.98v.03Z"/>
  <path class="cls-25" d="M337,436.01c-5.52,4.2-3.86,11.05-5.01,14.4-2.98,8.72-13.78,16.82,6.01,11.43-.16.16.67,2.79-1.5,3.99-8.61,4.68-13.92-6.75-18.55,16.9-2.01.74-5.31-2.74-6.01-4.97,2.98-3.11,4.32-6.64,6.01-10.44-1.56-2.44-3.94-1.12-6.01-1.49l-5.01-2.98c11.82-.05,20.16-8.21,21.05-19.88,1.13-14.69-7.59-28.14-11.53-41.74,6.78,7.97,10.86,31.01,20.56,34.78h0Z"/>
  <g>
    <path class="cls-9" d="M350.03,436.01c2.09,2.95,3.41,3.53,0,5.95-2.28,1.7-2.9,1.83-3,1.99,1.34-7.2-5.87-1.06-5.01-6.96,2.71.29,5.47-.08,8.02-.98h0Z"/>
    <path class="cls-9" d="M342.01,437.02c-.86,5.87,6.35-.27,5.01,6.96-.11.16.43,1.38-.99,3.99-4.88,2.5-11.42,5.53-7.02,11.93-.21.27-.83,1.83-.99,1.99-19.79,5.39-8.98-2.71-6.01-11.43,1.15-3.37-.51-10.23,5.01-14.4,2.44.96,2.71.74,5.01.98l-.03-.03Z"/>
    <path class="cls-11" d="M338.98,459.87c-4.4-6.4,2.14-9.43,7.02-11.93-.97,1.73,2.17.48-7.02,11.93Z"/>
  </g>
  <g>
    <path class="cls-63" d="M317.93,495.64c-.32,8.85,3.78,21.23-3,39.75-1.21,3.29-1.96,5.02-4.02,7.94-1.37,1.94-2.87,3.85-5.01,4.97-.64,0-.88,1.04-4.02.98-1.56-.03-.51,1.33-5.01-.98,21.26-9.25,21.61-30.13,20.06-51.18,0-.37-4.69-1.43.99-1.49h.03Z"/>
    <path class="cls-40" d="M289.86,484.72c.4,1.83,2.04,3.35,3,4.97,1.34,2.29.94,6.7,11.02,1.99,4.69.88,9.25,1.73,14.05,1.99v1.99c-5.68.05-1.02,1.14-.99,1.49,1.56,21.04,1.21,41.93-20.06,51.18-.67-.35-1.26-.85-2.01-.98-.27-3.14-6.76-9.46-9.04-14.91-5.04-12.12-4.64-27.69-5.01-40.73v-8.95c2.76,1.22,6.03,1.65,9.04,1.99v-.03Z"/>
    <path class="cls-21" d="M317.93,482.73c-.19.98.05,7.71,0,9.94v.98c-4.8-.24-9.33-1.12-14.05-1.99-1.21-.24-5.28-2.07-11.02-1.99-.97-1.62-2.6-3.14-3-4.97,7.75.85,11.4.21,18.04-3.99,1.23-.77,3.06-1.99,4.02-2.98.72,2.23,4.02,5.71,6.01,4.97v.03Z"/>
    <path class="cls-21" d="M303.88,491.68c-10.11,4.7-9.68.29-11.02-1.99,5.74-.08,9.84,1.75,11.02,1.99Z"/>
  </g>
  <path class="cls-11" d="M182.56,281.98c-.08.13-.99,2.82-.99,2.98l-17.05.5,16.03-4.46c1.02.11,2.06-.4,2.01.98Z"/>
  <path class="cls-9" d="M147.44,202.48c-.03.66-.03,1.33,0,1.99.11,1.97-.29,4.76,0,5.47.88,2.21,34.21,26.36,38.1,28.32-.99-.48-8.71-3.45-9.04-2.5l15.04,17.4c-.97.19-2.41-.24-3,0-6.46-9.72-32.2-36.8-41.1-39.75-6.6-9.62-19.81-13.02-28.07-21.36,14.48,4.68,26.97,22.43,28.07,10.44v-.03Z"/>
  <g>
    <path class="cls-19" d="M181.54,194.51c7.83,8.42,16.36,16.45,24.08,24.84.11.11-.13,1.75.99,2.98-10.19-5.85-19.84-16.45-30.08-23.86,1.88.88,3.97,1.49,5.52,2.98l1.5-1.49c-6.86-7.31-16.44-21.36-16.03-15.41.05-.24-2.04.24,0-4.97,4.61,5,9.41,9.91,14.05,14.91l-.03.03Z"/>
    <g>
      <path class="cls-44" d="M192.59,161.72l30.08,48.7c-9.06-1.38-14.34-.8-17.05,8.95-7.72-8.4-16.25-16.42-24.08-24.84,1.88-6.8-3.97-15.15-8.02-20.86,1.23,1.28,7.43,8.53,8.53,7.94-.56-9.88-3.49-23.09,10.54-19.88v-.03Z"/>
      <path class="cls-11" d="M195.59,163.71l28.07,42.73c0,.98-.11,2.02,0,2.98.03.32-.08.69,0,.98h-.99l-30.08-48.7c3.54.82,2.84,1.91,3,1.99v.03Z"/>
    </g>
    <g>
      <path class="cls-60" d="M188.57,122.95c-1.96,12.54-27.37,14.64-32.6,18.89-9.46,7.71,4.99,11-5.52,17.88-2.57-2.71-2.9-1.86-3-1.99-8.47-25.14,19.49-40.52,41.1-34.78h.03Z"/>
      <path class="cls-44" d="M225.67,198.5c.16,1.62-2.06,5.98-2.01,7.94l-28.07-42.73c4.18,1.73,7.67,4.28,12.04,5.47l-8.02-16.39c3.97,5.53,25.71,41.98,26.06,45.73v-.03Z"/>
      <g>
        <path class="cls-39" d="M201.6,133.9c-18.37,8.4-5.39,14.19-2.01,18.89l8.02,16.39c-4.37-1.2-7.83-3.75-12.04-5.47-.16-.08.54-1.17-3-1.99-14.02-3.22-11.1,9.99-10.54,19.88-1.1.58-7.29-6.67-8.53-7.94-1.21-1.67-2.52-3.16-3.51-4.97-2.28,3.61,2.09,3.51,3.51,4.97,4.05,5.71,9.92,14.06,8.02,20.86-4.64-5-9.44-9.91-14.05-14.91-5.76-6.27-11.18-13.71-17.05-19.88,10.51-6.88-3.94-10.2,5.52-17.88,5.23-4.25,30.65-6.32,32.6-18.89,4.21,1.12,11.88,6.54,13.03,10.92l.03.03Z"/>
        <path class="cls-44" d="M162,159.73c2.01-.35,1.39,1.41,1.5,1.49,9.92,8.16,2.31,9.17-1.5-1.49Z"/>
        <path class="cls-44" d="M173.53,173.65c-1.42-1.46-5.79-1.36-3.51-4.97.99,1.81,2.31,3.29,3.51,4.97Z"/>
      </g>
    </g>
  </g>
  <path class="cls-31" d="M344,119c3.24,19.26-25.55,61.33-8.02,41.24,2.98-3.43,8.85-13.15,10.03-17.4h3c-.46,3.85-3.54,7.79-3,11.93-.05.05-.38.27-.99.98-8.1,9.59-14.24,20.75-20.06,31.81,16.84-43.95-7.51.9-11.02,15.89-9.95,10.92-27.96,52.42-33.09,58.64-.08.08-1.58.9-2.01.98-.99-.45-3.94.9-4.02-.98.62-.13,1.56.16,2.01,0,4.02-1.38,28.58-52.21,32.09-59.63,4.16-8.79,31.32-69.14,32.09-73.04,1.82-9.09,1.23-14.51-8.02-18.39,7.75.48,7.72,2.31,11.02,7.94l-.03.03Z"/>
  <path class="cls-49" d="M176.53,198.5c-3.24-1.51-3.49-2.07-6.01-3.99-2.31-1.73-4.08-3.85-6.01-5.95.88-.8,2.82-3.16,3-3.99-.38-5.95,9.2,8.1,16.03,15.41l-1.5,1.49c-1.56-1.51-3.65-2.1-5.52-2.98h0Z"/>
  <path class="cls-21" d="M277.82,376.39c0,4.3-.08,8.61,0,12.91.32,17.59.43,35.66,5.01,52.66-2.01,13.23-14.88,25.3-15.04,26.84-4.75-1.78-10.46,3.96-11.53,3.99-.97,0-17.67-5.53-18.55-5.95,1.07-1.41,5.66-.16,8.02,0,35.31,2.29,31.83-67.65,28.07-90.45.86-2.79,1.18-7.44,3-9.94-.7,7.23.99,9.43.99,9.94h.03Z"/>
  <g>
    <path class="cls-39" d="M343,375.41c9.3,12.78,32.36,51.68,8.02,59.63-13.67,4.46-5.07-.69-6.01-12.44-.24-2.9-6.27-21.31-8.02-24.34,2.79-14.43-7.16-28.19-15.04-39.75.19-.27.43-3.83,2.01-3.99,2.17,4.7,14.72,14.91,19.06,20.86l-.03.03Z"/>
    <path class="cls-44" d="M337,398.26c-5.42-9.35-3.59-5.79-9.04-2.98.29-9.67-4.8-25.8-10.03-33.8.94-.58,3.86-2.79,4.02-2.98,7.88,11.56,17.83,25.32,15.04,39.75h0Z"/>
  </g>
  <g>
    <path class="cls-60" d="M293.86,398.26c2.28.05,3.73-2.02,6.01-1.99,1.53,0,4.58,2.68,15.04,2.98,11.66.32,8.02-1.38,13.03-3.99,5.44-2.82,3.59-6.38,9.04,2.98,1.74,3.03,7.78,21.47,8.02,24.34.97,11.74-7.67,16.9,6.01,12.44.11,1.17-.64.85-.99.98-2.55.9-5.31,1.28-8.02.98-2.31-.24-2.57-.05-5.01-.98-9.71-3.77-13.78-26.81-20.56-34.78,3.94,13.6,12.68,27.05,11.53,41.74-11.34,13.95-18.88,15.28-37.11,11.93-1.98-.37-2.71,1.99-4.02.5-2.36-4.28-2.76-8.82-4.02-13.42-4.58-17.01-4.69-35.07-5.01-52.66,5.15,1.09,10.08,12.12,16.03,8.95h.05Z"/>
    <path class="cls-39" d="M327.96,442.98c-.91,11.66-9.22,19.82-21.05,19.88-4.61,0-8.07-.5-12.04-2.98-1.58-.98-4.18-2.74-4.02-4.97,18.23,3.35,25.77,2.02,37.11-11.93h0Z"/>
  </g>
  <path class="cls-60" d="M379.09,347.56c-5.07,1.04,6.76,6.08,14.53,11.93,3.51,2.63,26.57,21.36,27.59,22.85,6.73,10.02,1.58,21.81-8.02,27.82,3.7-8.05-.88-2.36-16.54-10.92-8.37-4.57-14.67-11.74-22.58-16.9.16-.48.99-3.77.99-3.99l12.04,4.97c17.75-15.84-46.04-52.27-8.02-35.76h0Z"/>
  <g>
    <path class="cls-39" d="M372.09,385.34c2.9.98,12.66,15.44,17.05,18.39l2.01,13.42c-10.94-8.08-26.01-21.81-34.1-32.79,3.03.24,14.32.74,15.04.98h0Z"/>
    <g>
      <path class="cls-41" d="M413.2,410.19c-2.23,1.38-11.18,4.38-1.5,2.98,11.37-1.62,15.04-9.57,18.55-18.89,10.43-3.64,8.71,7.23,13.03-.98h.99c6.41,14.45-7.21,44.43-32.09,37.76-4.72-1.28-16.54-10.58-21.05-13.92l-2.01-13.42c-4.4-2.95-14.16-17.4-17.05-18.39.8-2.52,1.96-2.82,2.01-2.98,7.88,5.15,14.21,12.33,22.58,16.9,15.68,8.58,20.24,2.87,16.54,10.92v.03Z"/>
      <path class="cls-53" d="M435.26,386.33c-2.09,5.34,6.3.8,9.04,6.96h-.99l-12.55-3.99c-1.21.98-.03,3.75-.51,4.97-3.51,9.33-7.19,17.24-18.55,18.89-9.68,1.38-.72-1.59,1.5-2.98,9.6-6.01,14.75-17.8,8.02-27.82,5.17,0,7.72,3.11,14.05,3.99v-.03Z"/>
      <path class="cls-42" d="M443.28,393.29c-4.32,8.24-2.63-2.63-13.03.98.46-1.22-.72-3.99.51-4.97l12.55,3.99h-.03Z"/>
    </g>
  </g>
  <path class="cls-44" d="M387.14,383.35l-12.04-4.97c0-2.02-3.14-7.92-4.02-9.94-3.35-7.76-8.66-12.97-13.03-19.88-1.98-3.14-7.08-8.53-3.51-8.95,2.92-.35,42.9,31.22,32.6,43.74h0Z"/>
  <g>
    <path class="cls-10" d="M352.04,343.6c1.1,1.33,4.5,3.64,6.01,4.97,4.37,6.91,9.68,12.12,13.03,19.88.97,12.46-3.19,16.47-15.04,11.93-1.96-.74-9.17-5.47-11.02-6.96-3.65-2.9-13.49-13.95-16.03-17.88,5.36-4.09,16.3-6.3,23.06-11.93h0Z"/>
    <path class="cls-27" d="M327.96,349.55c-.19.27-.72,2.02-2.01,3.48.48,1.01,2.9,2.31,3,2.5,2.57,3.93,12.41,15.01,16.03,17.88l-2.01,1.99c-4.34-5.95-16.86-16.18-19.06-20.86-2.25-4.86-2.12-6.11,4.02-4.97l.03-.03Z"/>
    <path class="cls-32" d="M352.04,343.6c-6.76,5.63-17.7,7.84-23.06,11.93-.11-.16-2.52-1.46-3-2.5,1.29-1.46,1.82-3.22,2.01-3.48,3.83-5.9,13.78-6.22,16.54-13.92,4.96,0,5.2,5.1,7.53,7.94l-.03.03Z"/>
  </g>
  <g>
    <path class="cls-5" d="M369.06,284.96c-2.12,1.14-3.78.74-5.01,2.5,1.39,2.26,2.92,1.78,5.01,2.5,3.78,1.28,7.29,1.2,11.02,1.99,5.28,6.4,23.11,4.78,36.09,12.91,4.61,4.86,8.23,10.6,5.01,17.4-4.83,10.18-27.67-3.37-41.1,20.38-2.76,4.89-2.71,1.2,12.04,10.92-4.21-2.05-8.74-4.09-13.03-5.95-37.99-16.5,25.77,19.93,8.02,35.76,10.3-12.51-29.68-44.05-32.6-43.74-3.57.4,1.53,5.82,3.51,8.95-1.53-1.33-4.93-3.64-6.01-4.97-2.33-2.87-2.57-7.94-7.53-7.94-2.79,7.68-12.71,8-16.54,13.92-6.11-1.14-6.27.11-4.02,4.97-1.56.13-1.8,3.69-2.01,3.99-.13.21-3.08,2.39-4.02,2.98-1.5-2.29-.54-5.26-4.02-4.97-1.02-3.11-3.86-1.62-6.01-1.99-1.66-.29-16.22-1.22-17.05-.98v-1.99c7.59.29,10.89-3.51,11.02-10.92,1.47.13.7-1.81,1.5-1.99.13-.03.83,1.46,2.52.98,9.28,10.07,18.5-.77,16.03-9.94h2.01c12.04,8.37,22.71-3.75,16.03-14.4-3.19-5.1-37.59-20.59-45.12-26.33v-.98c2.76,2.34,46.84,25.11,49.63,24.84,6.27-.58,12.76-11.24,4.02-17.88-5.42-4.12-36.17-9.01-44.61-9.94v-1.99c17.21,3.88,53.7,13.55,56.17-.98.16,4.92,8.02-.8,9.04,2.98l.03-.08Z"/>
    <path class="cls-53" d="M406.17,328.69c-8.23-.45-13.62,10.97-26.06,13.92,13.46-23.75,36.3-10.2,41.1-20.38,3.22-6.78-.4-12.54-5.01-17.4,17.21,10.79,9.36,27.53-10.03,23.86Z"/>
  </g>
  <g>
    <path class="cls-39" d="M406.17,328.69c.08.93-1.66,1.49-.51,1.99,2.47,1.06,16.19,4.73,25.58,8.95,7.32,3.27,16.03,6.48,22.07,11.93,5.39,4.86,7.56,6.3,8.02,13.92-3.38,5.07-6.57,12.75-13.03,14.91-7.64,1.01-14.08-3.61-21.05-5.95-.43-.21-1.29-1.38-8.02-4.97-7.94-7.09-17.62-11.32-27.08-15.89-14.75-9.72-14.8-6.06-12.04-10.92,12.47-2.92,17.86-14.37,26.06-13.92v-.05Z"/>
    <path class="cls-39" d="M392.15,353.54c8.98,5.93,17.59,10.87,27.08,15.89,6.73,3.59,7.59,4.76,8.02,4.97,7.16,3.56,11.48,9.14,21.05,5.95,6.46-2.15,9.65-9.83,13.03-14.91.91,15.38-11.5,22.88-26.06,20.86-6.33-.88-8.87-3.99-14.05-3.99-.99-1.49-24.08-20.22-27.59-22.85-7.78-5.82-19.6-10.87-14.53-11.93,4.29,1.86,8.85,3.93,13.03,5.95l.03.05Z"/>
    <path class="cls-49" d="M419.23,369.43c-9.49-5.05-18.1-9.99-27.08-15.89,9.46,4.57,19.14,8.82,27.08,15.89Z"/>
    <path class="cls-42" d="M448.29,380.37c-9.6,3.19-13.89-2.39-21.05-5.95,7,2.36,13.41,6.99,21.05,5.95Z"/>
  </g>
  <g>
    <path class="cls-27" d="M512.48,322.71c44.72,28.88,17.43,69.03-16.03,60.63-1.58-.4-5.44-1.49-6.01-2.98,2.52-.56,3.99.85,6.01.98,46.06,3.53,48.37-38.13,14.05-57.63-.08-1.3.88-.96,2.01-.98l-.03-.03Z"/>
    <path class="cls-17" d="M496.45,381.36c-2.04-.16-3.51-1.54-6.01-.98v-.98c2.95-8.95,10.67-23.14,4.02-27.82-.13-12.83-7.35-21.81-16.03-30.8,25.26,16.71,32.95,31.62,18.04,60.63l-.03-.05Z"/>
    <path class="cls-30" d="M490.41,379.36c-1.69.11-3.46-.48-5.01-.98.67-2.71-1.29-4.46-.99-6.46.08-.58,1.93-2.34,2.01-2.5-3.14,5.37,4.96,4.07,3-.5-.13-.29-2.92.37-3,.5,1.29-2.42,8.15-5.74,8.02-17.88,6.65,4.68-1.07,18.87-4.02,27.82Z"/>
    <path class="cls-10" d="M465.35,308.82c10.97,2.6,24.59,8.37,35.1,9.94,2.79,2.68,6.76,3.11,10.03,4.97,34.32,19.53,32.04,61.17-14.05,57.63,14.91-29.02,7.19-43.9-18.04-60.63-12.49-8.26-23.41-10.52-19.06-12.91,1.98.35,4.1.61,6.01.98l.03.03Z"/>
    <path class="cls-12" d="M481.38,311.79c1.31.32,2.71.64,4.02.98,5.71,1.59,11.4,4.12,17.05,5.95-.64-.08-1.37.11-2.01,0-10.54-1.57-24.13-7.33-35.1-9.94.32.05.67-.05.99,0,5.07,1.01,10,1.73,15.04,2.98v.03Z"/>
    <path class="cls-26" d="M486.39,369.43s2.87-.8,3-.5c1.96,4.54-6.14,5.87-3,.5Z"/>
  </g>
  <g>
    <path class="cls-61" d="M439.28,254.14c2.09.21,4.8-.35,6.01,0,15.52,4.33,14.53,17.62,15.04,19.88.38,2.76-1.66,4.25-2.01,6.96-2.41,1.3-6.52,6.14-8.02,6.96-13.11,7.17-33.92,5.66-48.13,4.97-5.5-.27-10.64-1.38-16.03-1.99,3.78-15.86-2.33-14.45-2.01,0-2.41-.29-3.59-.85-5.01-.98-1.98-6.14,3.27-1.49,2.01-9.94,7.45-5.79,6.14-10.6,5.01-18.89,17.8-1.81,35.1-8.85,53.14-6.96h0Z"/>
    <path class="cls-15" d="M379.09,289.93c1.42.13,2.6.72,5.01.98.64.08,1.34-.08,2.01,0,5.39.61,10.56,1.73,16.03,1.99-.62,3.88,10,.88,14.05,4.97-10.91-2.29-23.3-3.24-36.09-5.95-3.75-.8-7.24-.69-11.02-1.99,3.41-.35,6.62-.32,10.03,0h-.03Z"/>
    <path class="cls-45" d="M381.1,279.99c1.26,8.45-3.99,3.8-2.01,9.94-3.41-.32-6.62-.35-10.03,0-2.09-.72-3.62-.24-5.01-2.5,1.23-1.73,2.9-1.36,5.01-2.5,2.31-1.22,11.29-4.38,12.04-4.97v.03Z"/>
    <path class="cls-48" d="M386.12,290.91c-.64-.08-1.34.08-2.01,0-.35-14.45,5.76-15.86,2.01,0Z"/>
  </g>
  <g>
    <path class="cls-44" d="M475.37,240.24c15.01,2.15,19.06,1.54,29.09,15.89.05.66,0,1.33,0,1.99.21,19.45-11.21,27.53-30.08,30.8-3.97-2.76,1.85-.05,0-8.45-1.56-6.99-10.05-8.05-10.54-7.47-1.15,1.43-1.13,11.85-3.51.98-.51-2.26.48-15.54-15.04-19.88,13.11-9.62,8.87-2.1,10.54-.98.72.48,11.74-10.5,11.53-12.91.4,0,.56-1.06,8.02,0v.03Z"/>
    <path class="cls-11" d="M474.38,288.94c-5.63.98-10.38,1.25-16.03.98.99-2.15-.05-8.5,0-8.95.35-2.71,2.39-4.2,2.01-6.96,2.39,10.87,2.36.45,3.51-.98.48-.61,8.98.48,10.54,7.47,1.85,8.4-3.97,5.69,0,8.45h-.03Z"/>
    <path class="cls-53" d="M458.32,289.93c-3.35-.16-5.17.72-8.02-1.99,1.5-.82,5.6-5.66,8.02-6.96-.05.45.99,6.8,0,8.95Z"/>
    <path class="cls-47" d="M476.36,229.29c-.38,2.74,1.15,1.86,3,1.99,7.86.56,12.28.96,18.04,6.96,5.44,5.66,6.49,10.76,7.02,17.88-10.03-14.35-14.08-13.74-29.09-15.89-.7-5.71-5.82,2.13-3-7.94.48-.32,3.86-2.79,4.02-2.98v-.03Z"/>
    <path class="cls-47" d="M467.36,240.24c.21,2.42-10.81,13.39-11.53,12.91-1.66-1.12,2.57-8.61-10.54.98-1.23-.35-3.91.21-6.01,0,2.9-6.24,10.43-9.35,16.03-12.91.43,4.09,9.3-1.41,10.54-3.99.24,0,1.34,2.98,1.5,2.98v.03Z"/>
    <path class="cls-47" d="M472.37,232.29c-2.82,10.07,2.31,2.23,3,7.94-7.45-1.06-7.61,0-8.02,0-.16,0-1.26-3-1.5-2.98-1.21,2.58-10.08,8.05-10.54,3.99,11.56-7.36,16.25-8.42,17.05-8.95Z"/>
  </g>
  <g>
    <path class="cls-21" d="M512.48,322.71c-1.13.03-2.09-.29-2.01.98-3.27-1.86-7.24-2.29-10.03-4.97.64.11,1.37-.08,2.01,0,14.69,1.73,62.28,2.5,56.17-22.37-.7-2.79-6.68-7.09-9.04-9.43,5.31,2.42,11.21,5.85,12.04,12.44,2.71,21.42-35.04,22.88-49.15,23.36h0Z"/>
    <path class="cls-38" d="M549.59,286.95c-2.23-1.01-3.81-1.91-4.02-1.99.75-.13,1.31-.64,2.01-.98-.4,1.91.64,1.62,2.01,2.98Z"/>
    <path class="cls-40" d="M545.57,284.96c.21.08,1.8.98,4.02,1.99,2.33,2.34,8.34,6.67,9.04,9.43,6.14,24.84-41.45,24.07-56.17,22.37-5.66-1.83-11.34-4.36-17.05-5.95l5.01-4.97c1.23-.27,2.68-.21,3.51.98l16.03-5.95c-2.04-5.66,3.03-2.58,8.53-8.45,5.12-5.5,2.65-8.1,7.02-12.44,5.52.72,15.1,1.38,20.06,2.98Z"/>
    <path class="cls-45" d="M525.51,281.98c-4.37,4.33-1.9,6.93-7.02,12.44-5.5,5.87-10.56,2.79-8.53,8.45l-16.03,5.95c-.83-1.22-2.28-1.25-3.51-.98-.56.11-6.25-1.94-9.04,3.99-5.04-1.25-9.97-1.97-15.04-2.98-3.83-4.44,6.6-2.52,8.53-2.98.91-.21,1.39-1.97,1.5-1.99,1.82-.4,4.02-.56,6.01-.98,3.32-.72,2.82-3.51,5.52.98,1.88-11.51,8.47-2.68,11.02-7.94,2.52,7.23,1.39-1.65,2.01-1.99,4.75,1.14,16.73-7.6,12.55-13.92,2.9.13,8.69,1.54,12.04,1.99v-.03Z"/>
    <path class="cls-21" d="M513.47,279.99c4.21,6.3-7.8,15.07-12.55,13.92-.62.32.54,9.19-2.01,1.99-2.55,5.26-9.14-3.53-11.02,7.94-2.71-4.49-2.2-1.7-5.52-.98-1.42-4.6-8.1.74-6.01.98-.13.03-.59,1.78-1.5,1.99-1.93.48-12.36-1.43-8.53,2.98-.32-.05-.67.05-.99,0-1.93-.37-4.05-.64-6.01-.98-.19-.03-2.84-1.97-3-1.99.32-1.33-2.2-4.01-.51-4.97,3.08-1.73,39.12-.27,49.15-21.87,2.84,1.46,5.55.85,8.53.98h-.03Z"/>
    <path class="cls-48" d="M490.41,307.81l-5.01,4.97c-1.29-.37-2.71-.66-4.02-.98,2.79-5.93,8.47-3.85,9.04-3.99Z"/>
    <path class="cls-7" d="M482.4,302.84c-1.98.43-4.18.58-6.01.98-2.09-.24,4.61-5.61,6.01-.98Z"/>
  </g>
  <g>
    <g>
      <path class="cls-60" d="M151.46,288.94c-5.44,4.41-4.69,4.81-5.01,10.92-4.08,6.38-16.44,5.63-17.56,5.95-.24.08-3.78,2.92-4.02,2.98-17.29,4.97-37.3,7.2-51.16,18.89-1.77-2.74,1.98-5.05-1.5-5.95l15.04-16.9c15.5-8.16,32.33-9.62,49.15-12.91,4.88-.96,10.27-1.78,15.04-2.98h.03Z"/>
      <path class="cls-39" d="M144.44,329.68c-17.56,5.05-42.01,19.88-61.18,13.92-.32-.19-3.83-2.82-4.02-2.98-3.08-3-5.17-7.33-7.02-6.96.46-3.8-.94-8.02,0-11.93,3.49.93-.27,3.24,1.5,5.95,13.86-11.69,33.86-13.92,51.16-18.89.24-.08,3.78-2.92,4.02-2.98,1.1-.32,13.46.43,17.56-5.95,0,.48,1.72,3.64,2.01,5.47-11.21,4.89-17.19,18.68-4.02,24.34Z"/>
    </g>
    <g>
      <path class="cls-60" d="M79.26,340.6c-5.23,13.42,1.69,32.31-5.01,25.83-4.99-9.06-3.51-18.04-3-27.82.05-1.22.7-2.47.99-4.97,1.85-.37,3.94,3.93,7.02,6.96Z"/>
      <path class="cls-41" d="M74.24,366.45c.86,1.54.56,3.06,4.02,4.97v.98c-6.3-3.8-10.54-9.19-11.02-16.9,0-.4.83-6.96.99-7.94.54-3.03,1.9-6.08,3-8.95-.48,9.78-1.98,18.76,3,27.82v.03Z"/>
      <path class="cls-9" d="M196.58,315.75c.97-.11,2.04-.05,3,0,2.6.16,3.75.21,5.01,2.98-.19.56,0,2.5,0,3.99-1.5-.05-3.65.45-5.01.98,9.65-9.22-5.36-7.12-20.06.5l8.02,5.47c-2.04.93-2.87.93-3,.98-8.18-11.72-19.68,2.92-25.07,5.95-7,3.96-14.83,7.36-22.07,10.92,36.25-24.71,46.87-29.28-1.5-12.91-3.54,1.2-10.94,5.45-12.55,5.95-14.42,4.6-26.49,11.32-40.11,2.98,19.14,5.95,43.6-8.87,61.18-13.92,7.53-2.18,49.47-13.6,52.15-13.92v.05Z"/>
      <path class="cls-39" d="M83.28,343.6c13.62,8.32,25.69,1.62,40.11-2.98-9.33,13.58-37.64,33.08-15.04,25.83-9.14,4.54-19.41,10.84-30.08,4.97-3.46-1.91-3.16-3.43-4.02-4.97,6.7,6.48-.21-12.41,5.01-25.83.19.19,3.7,2.79,4.02,2.98Z"/>
      <path class="cls-41" d="M137.41,347.56c-5.44,3.72-10.38,7.44-16.03,10.92-4.26,2.6-8.61,5.74-13.03,7.94-22.6,7.25,5.71-12.25,15.04-25.83,1.61-.5,9.01-4.76,12.55-5.95,48.37-16.37,37.75-11.8,1.5,12.91h-.03Z"/>
    </g>
  </g>
  <g>
    <path class="cls-60" d="M431.24,175.64c-11.34,9.57,2.25,7.55,8.02,11.93.08.08.83,1.81.99,1.99,6.01,13.29-1.8,17.56,9.04,17.88,2.36,4.81,5.95,3.64,7.02,12.91,2.87,25.11-53.89,36.67-72.2,39.75-20.75,3.51,18.18-6.83,22.07-15.41,2.57-5.71.27-11.98-5.01-15.41,1.96-.58,35.55-17.43,36.09-19.37.16-.58-1.31-3.43-1.5-3.48-1.61-.5-26.92,12.04-30.59,13.92,3.73-10.76,2.6-19.02-10.03-20.86-4.21-.61-8.9.88-13.03,0,10.24-6.88,22.47-12.54,27.08-15.89,2.14-.29,6.3-.5,8.02-.98,4.1-1.14,8.47-4.65,12.04-6.96.51-.16,1.5.19,2.01,0v-.03Z"/>
    <path class="cls-62" d="M401.16,229.29c-.29.08-.7-.08-.99,0-1.58.35-7,.37-7.02-.98,6.22-3.37,10.35-7.09,12.04-7.94,3.67-1.89,28.98-14.43,30.59-13.92.19.05,1.66,2.9,1.5,3.48-.56,1.97-34.13,18.81-36.09,19.37h-.03Z"/>
  </g>
  <g>
    <path class="cls-41" d="M505.46,216.38c1.31-.08.97.88.99,1.99.24,7.2,7.27,12.36,0,19.88-4.8,5-4.96,1.04-9.04,0-5.79-6.01-10.19-6.38-18.04-6.96-.24-5.87,3.41-3.88,7.02-4.97,2.68-.8,12.01,1.2,10.03-7.94.59-.13,1.47.16,2.01,0,1.05-.29,0,2.74,7.02-1.99h0Z"/>
    <path class="cls-49" d="M496.45,218.37c1.98,9.17-7.35,7.15-10.03,7.94,3-8.9,2.82-6.46,10.03-7.94Z"/>
  </g>
  <g>
    <path class="cls-22" d="M443.28,105.07h2.01v.98c12.87,13.74,9.12,24.79-.99,38.77-2.2,3.06-5.34,6.27-8.02,8.95-8.93,8.87-20.75,16.39-31.58,22.85,4.02-14.4-1.18-26.12-11.53-35.76-2.36-2.21-4.83-3.77-8.02-4.46,2.49-4.28,5.39-8.21,8.02-12.44,2.71-4.33,6.41-7.89,8.02-12.91,20.27-18.79,23.27-2.42,25.58-1.99,1.31.24,8.55-5.5,16.54-3.99h-.03Z"/>
    <path class="cls-13" d="M393.14,123.96c-2.63,4.2-5.52,8.16-8.02,12.44,3.19.72,5.66,2.29,8.02,4.46h-.99c-.16-.13-.67.19-4.02-1.99-1.82-1.2-4.24-1.14-6.01-2.5,2.9-4.01,7.61-8.21,10.03-12.44h.99v.03Z"/>
  </g>
  <g>
    <path class="cls-22" d="M204.6,325.69c1.15,4.22,4.8,5.79,8.02,7.94,3.11,2.07,5.12,1.59,8.02,3.48-19.95,18.12-40.73,38-67.19,46.21-2.17-2.1-5.2-1.99-7.02-5.95l-.99-3.99c0-.45.8-4.38.99-4.97,10.38-9.62,21.18-18.81,32.09-27.82l26.06-14.91h.03Z"/>
    <path class="cls-52" d="M204.6,322.71c0,.96-.19,2.29,0,2.98l-26.06,14.91c7.43-6.14,18.58-13.6,17.05-14.91,1.98-.88,3.81-1.91,4.02-1.99,1.37-.56,3.51-1.06,5.01-.98h-.03Z"/>
  </g>
  <g>
    <path class="cls-39" d="M178.54,340.6c-10.91,9.01-21.72,18.2-32.09,27.82,1.47-4.52,9.54-9.51,0-8.95.43-.66,2.12-7.09,9.04-12.91,4.88-4.12,22.33-12.7,29.09-15.89.13-.08.99-.05,3-.98,2.71-1.25,5.31-2.76,8.02-3.99,1.53,1.33-9.6,8.77-17.05,14.91Z"/>
    <path class="cls-44" d="M184.55,330.66c-6.73,3.22-24.18,11.77-29.09,15.89l4.02-9.94c5.39-3.06,16.89-17.7,25.07-5.95Z"/>
    <g>
      <path class="cls-60" d="M159.48,336.64l-4.02,9.94c-6.89,5.82-8.58,12.25-9.04,12.91-5.07,7.71-15.28,27.26-15.04,30.32.43,5.13,8.85,5.18,13.03,4.46-9.68,5.26-13.59,6.7-25.07,5.95-3.11-1.78-9.22-9.65-10.03-12.91-.27-1.06.05-3.24,0-4.97-.03-.98-.08-2.02,0-2.98.94-10.18,5.76-13.71,12.04-20.86,5.66-3.48,10.62-7.23,16.03-10.92,7.24-3.59,15.04-6.96,22.07-10.92l.03-.03Z"/>
      <path class="cls-60" d="M146.45,368.44c-.19.58-1.02,4.52-.99,4.97.05,2.23.16,2.1.99,3.99,1.82,3.99,4.83,3.88,7.02,5.95,2.63,2.52,5.71,2.9-9.04,10.92-4.18.72-12.63.66-13.03-4.46-.24-3.06,9.97-22.61,15.04-30.32,9.54-.56,1.47,4.41,0,8.95Z"/>
      <path class="cls-23" d="M146.45,377.37c-.86-1.86-.94-1.73-.99-3.99l.99,3.99Z"/>
    </g>
  </g>
  <g>
    <path class="cls-31" d="M283.83,348.57c2.09,1.86,4.1,2.87,7.02,2.98v1.99c-.19.05-.46,2.39-3,1.99-2.14-.37,1.18-1.22-4.02-.98-7.56.32-6.27,4.17-7.02,11.93-1.85,2.5-2.14,7.15-3,9.94-1.39,4.46-3.62,8.72-4.02,10.92-1.56.13-2.36,2.36-3,2.98-6.35,6.22-10.81,10.87-20.06,5.95-2.39-1.28-2.98-2.68-4.02-4.97,16.54,10.65,23.62-6.7,27.08-19.88.13-.56,2.79-.4,3-10.44-1.72-.4-9.54-.37-10.03-.5-1.13-4.2,5.39-2.21,3-6.96,7.29,3.61,13.03-4.73,14.05-10.92,2.28,1.94,1.15,3.45,4.02,5.95v.03Z"/>
    <path class="cls-32" d="M262.78,360.5c.48.13,8.31.11,10.03.5-.24,10.04-2.87,9.88-3,10.44l-23.06-9.94c.88-1.86,2.57-4.44,3-5.95,4.42,1.73,8.37,3.69,13.03,4.97v-.03Z"/>
    <path class="cls-10" d="M269.81,371.42c-3.46,13.18-10.54,30.53-27.08,19.88-.05-.11-.29.72-.99-1.99-2.01-7.63-.46-15.52,2.01-22.85.08-.27,1.37-1.46,3-4.97l23.06,9.94Z"/>
  </g>
  <g>
    <path class="cls-40" d="M538.54,202.48c18.39,16.85-6.03,39.67-23.06,44.72-.4-7.09-2.41-1.41-3.51-1.99-.19-.11-.27-3.14-2.01-3.99-.27-.13-1.8,5.37-3.51-.98.13-.24-.08-1.22,0-1.99,7.27-7.52.24-12.67,0-19.88,5.66,2.05,8.02-1.73,12.04-4.97,2.92-2.36,1.45-3.19,3.51-4.97,1.9-1.65,8.9,2.52-.51-7.94.67-.53,2.6-1.57,3-1.99,7.29,1.49,7.48.43,14.05,3.99h0Z"/>
    <path class="cls-28" d="M517.49,251.16c-6.68,3.45-10.67.85-13.03,6.96,0-.66.05-1.33,0-1.99-.54-7.12-1.58-12.22-7.02-17.88,4.05,1.04,4.21,5,9.04,0-.08.77.13,1.75,0,1.99-4.93,8.82,1.85,9.09,9.04,6.96,17.05-5.05,41.48-27.87,23.06-44.72,20.08,10.84,5.28,35.07-21.05,48.7l-.03-.03Z"/>
    <path class="cls-45" d="M518.49,213.4l-7.02-2.98,8.02-2.5c-3.14-3.67-6.27,1.2-8.02,2.5-2.33,1.73-3.67,4.38-6.01,5.95-7,4.73-5.98,1.7-7.02,1.99-9.3-2.29,3.59-6.91,12.04-11.93,2.36-1.41,4.67-2.36,7.02-3.99,1.18-.82,2.92-1.12,4.02-1.99,9.41,10.5,2.41,6.3.51,7.94-2.06,1.78-.59,2.6-3.51,4.97l-.03.03Z"/>
    <path class="cls-48" d="M511.49,210.43l7.02,2.98c-3.99,3.24-6.38,7.01-12.04,4.97-.03-1.12.29-2.07-.99-1.99,2.33-1.57,3.67-4.22,6.01-5.95Z"/>
    <path class="cls-40" d="M515.48,247.2c-7.19,2.13-13.97,1.86-9.04-6.96,1.72,6.35,3.22.85,3.51.98,1.74.82,1.8,3.88,2.01,3.99,1.1.58,3.11-5.1,3.51,1.99Z"/>
    <path class="cls-45" d="M511.49,210.43c1.74-1.28,4.88-6.16,8.02-2.5l-8.02,2.5Z"/>
  </g>
  <g>
    <path class="cls-39" d="M324.96,35.51c4.37,8.77,2.47,18.09,3,19.37.59,1.41,5.9-.66,6.01,9.43.08,7.55-5.93,13.15-6.01,13.92-3.14-.4-5.71-1.33-9.04-.98-7.88.8-7.19,3.19-12.04,6.96-.13.11-2.33-.5-3,1.99-1.5-16.08,1.85-31.91,8.02-46.71,3.99-3.16,8.2-3.99,13.03-3.99h.03Z"/>
    <path class="cls-35" d="M344,51.4c-3.83.64-3.51,13.07-10.03,12.91-.11-10.1-5.42-8.05-6.01-9.43-.54-1.28,1.37-10.63-3-19.37,10.89,0,18.26,4.33,19.06,15.89h-.03Z"/>
    <g>
      <path class="cls-44" d="M318.93,77.25c-5.87,11.03-.38,21.44-5.01,23.36,4.24,2.58-6.94,21.31,3,15.41v.98c-1.26.98-7.13,6.32-7.02,7.94-.54.37-1.34.82-2.01.98,3.19-17.72-2.33-27.16-3-32.79,2.84-.77,2.25-6.01,2.01-8.95,4.83-3.77,4.13-6.16,12.04-6.96v.03Z"/>
      <path class="cls-47" d="M306.89,84.21c.24,2.92.86,8.18-2.01,8.95-.27-2.26-.78-4.68-.99-6.96.67-2.5,2.87-1.89,3-1.99Z"/>
      <path class="cls-35" d="M327.96,78.24c-.11,1.01,2.28,7.87,3,9.94-3.41,7.33-12.01,18.02-14.05,27.82-9.97,5.9,1.23-12.83-3-15.41,4.64-1.91-.86-12.33,5.01-23.36,3.3-.32,5.87.61,9.04.98v.03Z"/>
    </g>
  </g>
  <g>
    <path class="cls-20" d="M298.87,153.78c-3.75,12.57-7.45,25.14-11.02,37.76-.05-1.12.32-2.07-.99-1.99,2.57-12.81,9.36-28.62,11.02-35.76h.99Z"/>
    <path class="cls-34" d="M298.87,153.78h-.99c1.45-6.22,3.06-12.57,4.02-18.89l5.01-5.95c-1.02,4.6-5.74,17.16-8.02,24.84h-.03Z"/>
    <path class="cls-16" d="M292.87,193.53c-.54,1.28-2.63,4.38-4.02,4.97,0-.74-.83-2.52-.99-6.96,3.59-12.62,7.29-25.19,11.02-37.76,2.31-7.68,7-20.25,8.02-24.84.03-.16.29.93.99-2.98.67-.16,1.47-.64,2.01-.98,3.16-2.15,3.83-5,6.01-.5-9.76,17.96-16.65,54.18-23.06,69.06h.03Z"/>
    <path class="cls-22" d="M332.98,111.05c9.28,3.85,9.84,9.3,8.02,18.39-.78,3.91-27.94,64.25-32.09,73.04-2.92-7.73-7.83-9.65-16.03-8.95,6.41-14.88,13.3-51.1,23.06-69.06-2.2-4.49-2.84-1.65-6.01.5-.11-1.62,5.76-6.96,7.02-7.94,5.42-4.22,9.12-6.4,16.03-5.95v-.03Z"/>
  </g>
  <path class="cls-37" d="M348.02,128.93c-1.88,2.13-.59,8.74-2.01,13.92-1.18,4.25-7.05,13.98-10.03,17.4-17.53,20.09,11.26-21.97,8.02-41.24,3.06,5.18,2.79,7.76,4.02,9.94v-.03Z"/>
  <path class="cls-47" d="M346.01,154.76c-.54-4.15,2.55-8.08,3-11.93.46-3.8-.32-8.08,0-11.93,1.56,2.84,13.97,7.28,4.5,18.89-.32.4-6.52,3.83-7.53,4.97h.03Z"/>
  <path class="cls-53" d="M349.01,130.93c-.32,3.85.46,8.13,0,11.93h-3c1.42-5.18.13-11.8,2.01-13.92.35.61.67,1.36.99,1.99Z"/>
  <g>
    <path class="cls-41" d="M290.85,454.91c-.16,2.23,2.44,3.99,4.02,4.97-.75-.11-1.1.24-.99.98,1.21,8.72,11.82,13.39,14.05,19.88-6.68,4.2-10.3,4.84-18.04,3.99-3-.32-6.27-.77-9.04-1.99-.27-.11-4.45-2.58-5.01-2.98-1.77-1.28-8.28-8.32-8.02-10.92.16-1.54,13.03-13.6,15.04-26.84,1.23,4.6,1.66,9.14,4.02,13.42,1.29,1.49,2.04-.85,4.02-.5h-.05Z"/>
    <path class="cls-47" d="M311.9,465.83c2.06.37,4.45-.96,6.01,1.49-1.72,3.8-3.06,7.33-6.01,10.44-.97,1.01-2.79,2.21-4.02,2.98-2.2-6.51-12.84-11.19-14.05-19.88,8.28,5.34,14.37,4.28,18.04,4.97h.03Z"/>
    <path class="cls-9" d="M306.89,462.85l5.01,2.98c-3.7-.69-9.76.37-18.04-4.97-.11-.74.24-1.09.99-.98,3.97,2.47,7.43,3,12.04,2.98Z"/>
  </g>
  <path class="cls-51" d="M199.59,323.72c-.21.08-2.01,1.12-4.02,1.99-2.73,1.2-5.31,2.74-8.02,3.99l-8.02-5.47c14.69-7.63,29.71-9.72,20.06-.5h0Z"/>
  <path class="cls-44" d="M185.56,238.25c.21.11,1.64,2.21,4.02,1.99.78,4.78,5.55,8.45,10.03,10.92l-.99,1.99c-2.47-.35-4.53-.5-7.02,0l-15.04-17.4c.32-.98,8.04,2.02,9.04,2.5h-.03Z"/>
  <g>
    <path class="cls-31" d="M164.49,188.56c1.93,2.1,3.73,4.25,6.01,5.95-5.44-3.91-20.56,3.96-23.06,9.94-.03-.66-.03-1.33,0-1.99.13-2.68.97-5.47,2.01-7.94,5.58-.24,11.74-7.28,12.04-7.94,1.23.45,2.09,1.01,3,1.99Z"/>
    <path class="cls-10" d="M170.52,194.51c2.55,1.91,2.76,2.47,6.01,3.99,10.24,7.41,19.89,18.02,30.08,23.86.48.53.97,4.52,8.02,11.93l-.99.98c-8.63-5.61-24.45-12.2-24.08,3.99-1.93-1.46-3.65-.82-4.02-.98-3.91-1.97-37.21-26.12-38.1-28.32-.29-.69.11-3.51,0-5.47,2.49-5.98,17.62-13.84,23.06-9.94l.03-.03Z"/>
  </g>
  <g>
    <path class="cls-44" d="M357.05,158.75c6.43,4.12,4.21,10.26,4.02,16.9-.08,2.71,1.69,5.21.99,8.45-.19,1.3-10.54,21.39-12.04,23.36-4.29,5.66-10.46,10.58-17.05,12.91l-2.01-.5c.83-5.23,1.82-6.64-.99-11.43-2.73-4.62-7.19-5.95-12.04-5.95,1.23-5.21,4.53-10.18,7.02-14.91,5.82-11.03,11.96-22.21,20.06-31.81,3.7,2.05,8.12,1.46,12.04,2.98h0Z"/>
    <path class="cls-53" d="M365.07,180.61c.4,3.43-6.86,17.86-9.04,21.87-1.21,2.26-2.73,3.91-4.02,5.95l-2.01-.98c1.5-1.97,11.82-22.05,12.04-23.36.7-3.24-1.07-5.74-.99-8.45.05.32,3.86,3.69,4.02,4.97h0Z"/>
    <path class="cls-6" d="M364.05,164.7c1.05,5.85-3.49,7.39-3,10.92.19-6.64,2.41-12.78-4.02-16.9,3.06,1.2,6.3,1.91,7.02,5.95v.03Z"/>
    <path class="cls-51" d="M324.96,187.57c-2.49,4.73-5.79,9.7-7.02,14.91-1.74,0-2.52,0-4.02.98,3.54-15.01,27.88-59.86,11.02-15.89h.03Z"/>
  </g>
  <g>
    <path class="cls-44" d="M293.86,398.26c-5.95,3.19-10.91-7.84-16.03-8.95-.08-4.3,0-8.61,0-12.91,2.14-8.93,8.9-4.44,10.03-11.93,4.34,10.71,9.04,22.16,6.01,33.8h0Z"/>
    <path class="cls-19" d="M293.86,367.43c4.45,8.64,6.89,19.21,6.01,28.83-2.28,0-3.75,2.05-6.01,1.99,3-11.64-1.69-23.09-6.01-33.8-1.23-3.06-2.28-6.11-4.02-8.95,1.98.32,9.68,11.24,10.03,11.93Z"/>
    <path class="cls-44" d="M283.83,354.52v.98c1.74,2.84,2.76,5.9,4.02,8.95-1.13,7.49-7.88,2.98-10.03,11.93,0-.5-1.69-2.71-.99-9.94.75-7.76-.54-11.61,7.02-11.93h-.03Z"/>
  </g>
  <g>
    <path class="cls-34" d="M174.52,75.26c24.99,18.57,38.37,64.09,59.17,87.45.86,5.55,10.32,31.67,15.04,35.76-1.26,10.36,17.35,48.55,20.56,62.6,3.16.13-.64-58.7-1.5-62.6h2.01l3.51,62.6c3.65-17.51,8.96-34.62,12.55-52.19,1.45-7.07-.24-13.34,0-14.4.27-1.2-.35-2.31.99-3.99v-.98c1.31-.08.97.88.99,1.99.16,4.44,1.02,6.19.99,6.96-.05,5.23-2.79,21.34-4.02,27.34-2.06,10.1-11.69,30.32-8.02,36.27-.46.16-1.39-.13-2.01,0-1.13.24-4.61.16-6.01,0-.64-.08-1.42.13-2.01,0l-19.06-57.15c-2.09-5.23-6.92-7.97-8.02-10.44-4.77-10.76-9.36-26.81-14.05-36.27-5.63-11.43-12.44-18.6-15.04-23.36-8.98-16.47-23.11-48.6-38.1-59.63h2.01v.03Z"/>
    <path class="cls-34" d="M332.98,220.36c5.39-1.01,8.55,1.86,13.03,3.99-.08.08.29,1.36-2.01.98-4.24-5.87-12.2-3.77-17.56-.98-2.63,1.38-41.59,39.3-41.61,42.25,0,.19,2.33,2.47,2.52,2.5,2.68.29,45.42-23.36,47.64-24.84.78,2.63,6.25-1.17,11.53,0,.86.19.4,1.94.51,1.99-6.84-4.25-56.14,21.36-57.16,24.34-.94,2.71,1.31,3.27,3.51,3.48,2.41.24,42.9-6.67,47.64-7.94,6.97,3.64,7.32.53,14.05,5.95-5.84-6.7-61.75,1.59-63.17,4.46-3.19,6.35,8.61,5.69,12.04,6.46v1.99c-5.42-.58-17.72-4.36-9.04,2.98v.98c-4.8-1.91-3.38,1.51-5.01,2.98-.88.8-1.23.72-2.01,1.99-1.26,2.07-3.24-.9-2.01,6.96-14.42-14.8-2.12,23.38-2.01,47.69-2.84-2.52-1.74-4.01-4.02-5.95.86-5.37-1.47-34.57-3-39.75-2.09-7.07-4.88-7.71-8.02-.98-2.39,5.07-11.13,47.67-3,51.68,2.39,4.76-4.16,2.76-3,6.96-4.67-1.28-8.61-3.24-13.03-4.97.13-.5-.08-1.36,0-1.99,13.78-.24,12.84-46.15,18.04-56.14-2.33-8.74-26.52,38.93-26.06,47.22-1.64,1.3-2.73.74-4.02.98-.16-.56-2.82-1.97-3-1.99,10.72-10.73,17.24-34.14,28.07-49.18-1.07-.8-1.82-2.66-3.51-2.5-2.28.24-30.51,30.8-31.58,32.79l-2.01-.98c.46-5.58,39.71-35.79,29.57-36.77-3-.29-48.99,26.92-50.65,31.81-1.26-2.76-2.41-2.82-5.01-2.98,4.58-4.81,55.98-29.23,55.15-32.31-.48-1.86-4.02-1.57-5.52-1.49-2.79.16-51.45,14.19-53.65,15.89-3.32.48-4.77-1.89-5.01-1.99,28.63-9.19,89.39-18.04,47.64-20.86-5.71-.4-42.23-.45-44.61,0v-1.99c11.56,1.57,46.52-.13,61.18,0h.99c.13,3.88-3.94,10.68,6.01,17.88,14.26,10.31,32.36-5.13,24.08-20.86-1.02-1.91-6.57-6.75-7.02-6.96.43-.11,1.93-.9,2.01-.98-.72,1.43,2.31,3.03,2.52,2.98,3.62-.93,49.01-49.93,46.63-56.65,2.84,4.78,1.82,6.22.99,11.43l2.01.5-.03-.03Z"/>
    <path class="cls-43" d="M225.67,323.72c-4.48,3.37-6.78,9.06-13.03,9.94-3.24-2.15-6.86-3.72-8.02-7.94-.19-.72,0-2.02,0-2.98,0-1.49-.19-3.4,0-3.99,1.66-4.89,47.64-32.1,50.65-31.81,10.13.98-29.12,31.19-29.57,36.77h-.03Z"/>
    <path class="cls-43" d="M234.71,343.6c-13.03-1.12-12.95-7.97-7.02-18.89,1.1-1.99,29.31-32.55,31.58-32.79,1.69-.19,2.44,1.7,3.51,2.5-10.83,15.07-17.35,38.47-28.07,49.18Z"/>
    <path class="cls-43" d="M190.58,295.88c-5.01-2.29-9.71-3.59-9.04-10.92,0-.16.94-2.84.99-2.98.78-1.46,9.14-6.59,11.02-6.96,2.39-.45,38.93-.4,44.61,0,41.75,2.82-19.01,11.66-47.64,20.86h.05Z"/>
    <path class="cls-43" d="M199.59,315.75c-.97-.05-2.06-.11-3,0-6.78-3.61-6.7-13.44-.99-17.88,2.2-1.7,50.86-15.73,53.65-15.89,1.47-.08,5.01-.35,5.52,1.49.83,3.08-50.57,27.47-55.15,32.31l-.03-.03Z"/>
    <path class="cls-43" d="M239.72,194.51c1.1,2.47,5.93,5.21,8.02,10.44l19.06,57.15c-1.37-.29-2.44.37-4.02-.5-3-1.65-33.6-45.28-39.12-52.19-.11-.96,0-1.99,0-2.98-.05-1.97,2.17-6.32,2.01-7.94,4.99-4.07,7.56-4.49,14.05-3.99h0Z"/>
    <path class="cls-43" d="M267.8,198.5c.86,3.91,4.67,62.76,1.5,62.6-3.19-14.06-21.8-52.24-20.56-62.6,1.1-9.17,15.34-16.93,19.06,0Z"/>
    <path class="cls-43" d="M308.9,202.48c-3.51,7.41-28.07,58.24-32.09,59.63-3.67-5.95,5.95-26.2,8.02-36.27,1.23-5.98,3.94-22.08,4.02-27.34,1.39-.58,3.46-3.69,4.02-4.97,8.23-.69,13.14,1.2,16.03,8.95Z"/>
    <path class="cls-43" d="M277.82,191.53c4.53-.05,4.5,0,8.02,2.98-.24,1.06,1.45,7.36,0,14.4-3.57,17.54-8.87,34.65-12.55,52.19l-3.51-62.6c-.16-2.42,3.22-6.38,5.01-6.96.56-.19,2.01,0,3,0h.03Z"/>
    <path class="cls-43" d="M355.04,272.04c.51.4,2.92,1.83,3,1.99,1.15,1.91,2.36,5.77,2.01,7.94-2.44,14.53-38.96,4.86-56.17.98-3.43-.77-15.23-.11-12.04-6.46,1.45-2.87,57.32-11.16,63.17-4.46h.03Z"/>
    <g>
      <path class="cls-43" d="M344,225.33c6.46,8.98-2.55,14.51-9.04,18.89-2.23,1.49-44.96,25.14-47.64,24.84-.19,0-2.52-2.31-2.52-2.5,0-2.95,38.98-40.87,41.61-42.25,5.36-2.79,13.33-4.86,17.56.98l.03.03Z"/>
      <path class="cls-43" d="M317.93,202.48c4.85,0,9.3,1.36,12.04,5.95,2.39,6.72-43.01,55.72-46.63,56.65-.19.05-3.22-1.54-2.52-2.98,5.12-6.22,23.17-47.69,33.09-58.64,1.47-1.01,2.28-.98,4.02-.98Z"/>
    </g>
    <path class="cls-43" d="M347.02,246.19c8.9,3.64,6.54,5.87,8.02,7.94.29,2.29-.59,5.21-2.01,6.96-2.9,3.59-8.02,3.88-12.04,4.97-4.72,1.28-45.23,8.18-47.64,7.94-2.2-.21-4.45-.77-3.51-3.48,1.02-2.98,50.33-28.62,57.16-24.34h.03Z"/>
    <path class="cls-43" d="M303.88,284.96c8.45.93,39.2,5.82,44.61,9.94,8.74,6.64,2.28,17.3-4.02,17.88-2.79.27-46.87-22.51-49.63-24.84-8.71-7.33,3.62-3.59,9.04-2.98Z"/>
    <path class="cls-43" d="M276.8,302.84c1.53,5.18,3.89,34.38,3,39.75-.99,6.22-6.73,14.56-14.05,10.92-8.12-4.01.64-46.58,3-51.68l8.02.98.03.03Z"/>
    <path class="cls-43" d="M321.96,329.68c2.44,9.17-6.78,20.01-16.03,9.94-5.04-5.47-12.74-31.25-20.06-38.77-1.26-7.87.72-4.89,2.01-6.96,5.07,4.3,33.46,33.4,34.1,35.76l-.03.03Z"/>
    <path class="cls-43" d="M249.75,353.54c-4.34.08-7.8-4.97-8.02-8.95-.46-8.29,23.76-55.93,26.06-47.22-5.23,9.99-4.26,55.91-18.04,56.14v.03Z"/>
    <g>
      <path class="cls-40" d="M274.82,262.11c.08,1.91,3,.53,4.02.98.46.21,6.01,5.05,7.02,6.96,1.05,17.7-7.24,21.97-24.08,20.86-9.97-7.2-5.87-14.03-6.01-17.88,0-.11,1.37.37.99-1.99,3.49-4.57,6.41-7.36,12.04-8.95,1.42.16,4.91.24,6.01,0v.03Z"/>
      <path class="cls-50" d="M261.76,290.91c16.84,1.12,25.12-3.16,24.08-20.86,8.28,15.73-9.79,31.19-24.08,20.86Z"/>
    </g>
    <g>
      <path class="cls-43" d="M198.59,253.15c8.74,1.22,43.68,15.62,56.17,19.88-14.64-.13-49.63,1.57-61.18,0-17.08-2.31-11.56-17.24-5.01-19.88.59-.24,2.04.19,3,0,2.47-.5,4.56-.35,7.02,0h0Z"/>
      <path class="cls-27" d="M256.75,270.05v.98c.38,2.36-1.02,1.89-.99,1.99h-.99c-12.47-4.25-47.43-18.65-56.17-19.88l.99-1.99c4.77,2.68,47.86,17.4,57.16,18.89h0Z"/>
    </g>
    <path class="cls-25" d="M361.05,265.08c.13.11,2.31-.5,3,1.99-.16.05-2.49,1.7-3,1.99-2.36,1.36-5.26-.58-3,4.97-.08-.16-2.52-1.59-3-1.99-6.73-5.42-7.05-2.31-14.05-5.95,4.02-1.09,9.14-1.38,12.04-4.97,4.5.35-1.66,7.6,8.02,3.99v-.03Z"/>
    <g>
      <path class="cls-43" d="M294.88,288.94c7.53,5.74,41.96,21.26,45.12,26.33,6.65,10.65-3.99,22.77-16.03,14.4-2.09-1.46-28.88-32.5-34.1-37.76,1.64-1.46.21-4.89,5.01-2.98h0Z"/>
      <path class="cls-12" d="M323.94,329.68h-2.01c-.64-2.39-29.01-31.49-34.1-35.76.78-1.28,1.13-1.2,2.01-1.99,5.23,5.26,32.01,36.32,34.1,37.76Z"/>
    </g>
    <path class="cls-16" d="M276.8,302.84l-8.02-.98c3.14-6.7,5.93-6.06,8.02.98Z"/>
    <g>
      <path class="cls-20" d="M266.78,262.11c.59.13,1.37-.08,2.01,0-5.63,1.59-8.55,4.38-12.04,8.95v-.98c-10.67-8.13-34.19-28.99-43.11-34.78l.99-.98c1.85,1.94,39.92,32.71,42.63,32.79,1.45.05,4.48-3.19,4.5-3.48.4-3.24-35.85-42.97-38.1-53.17-.08-.32.03-.66,0-.98,5.5,6.91,36.12,50.54,39.12,52.19,1.58.85,2.65.21,4.02.5l-.03-.05Z"/>
      <path class="cls-43" d="M222.67,210.43h.99c2.25,10.2,38.5,49.93,38.1,53.17-.03.29-3.06,3.53-4.5,3.48-2.71-.08-40.78-30.85-42.63-32.79-7.05-7.41-7.53-11.4-8.02-11.93-1.13-1.22-.88-2.87-.99-2.98,2.71-9.72,7.99-10.31,17.05-8.95h0Z"/>
    </g>
    <path class="cls-43" d="M213.64,235.27c8.93,5.79,32.44,26.65,43.11,34.78-9.3-1.49-52.39-16.21-57.16-18.89-4.48-2.5-9.25-6.14-10.03-10.92-.05-.32,0-.66,0-.98-.4-16.16,15.44-9.57,24.08-3.99h0Z"/>
    <g>
      <path class="cls-43" d="M285.84,300.85c1.56,9.72,16.27,28.27,16.03,39.75-.13,7.44-3.43,11.24-11.02,10.92-2.92-.11-4.91-1.12-7.02-2.98-.13-24.34-12.44-62.5,2.01-47.69Z"/>
      <path class="cls-34" d="M305.9,339.61c-1.69.45-2.39-1.04-2.52-.98-.8.19-.05,2.13-1.5,1.99.21-11.48-14.51-30.03-16.03-39.75,7.32,7.52,15.01,33.27,20.06,38.77v-.03Z"/>
    </g>
  </g>
  <g>
    <path class="cls-44" d="M314.93,358.51c5.5,10.84,18.66,39.46,0,40.73-10.46-.29-13.51-2.98-15.04-2.98.86-9.59-1.58-20.17-6.01-28.83,6.27-8.37,10.64,2.84,21.05-8.95v.03Z"/>
    <path class="cls-9" d="M317.93,361.48c5.23,8,10.32,24.13,10.03,33.8-5.01,2.58-1.39,4.3-13.03,3.99,18.66-1.3,5.5-29.89,0-40.73-.35-.69-.86-1.25-.99-1.99,3.46-.29,2.52,2.68,4.02,4.97l-.03-.03Z"/>
    <path class="cls-51" d="M287.85,355.53c6.43,1.12,16.09,5.55,20.06-.98,2.14.37,5.01-1.12,6.01,1.99.13.74.67,1.3.99,1.99-10.43,11.77-14.8.58-21.05,8.95-.35-.69-8.04-11.61-10.03-11.93v-.98c5.17-.21,1.88.61,4.02.98v-.03Z"/>
    <path class="cls-9" d="M307.91,354.52c-3.97,6.54-13.62,2.1-20.06.98,2.55.4,2.84-1.94,3-1.99.83-.21,15.36.72,17.05.98v.03Z"/>
  </g>
  <g>
    <path class="cls-11" d="M361.05,269.07c.51-.29,2.84-1.94,3-1.99,1.88-.56,4.13-.74,6.01-1.49l4.5,15.41c-4.61,1.75-12.33-7.94-13.54-11.93h.03Z"/>
    <path class="cls-47" d="M382.12,275.02c-7.99,11.16-6.81-3.22-7.02-3.99l7.02,3.99Z"/>
  </g>
  <g>
    <path class="cls-11" d="M368.07,240.24c-6.65,4.2-17.94,11.27-3,3.99-2.44,8.4,10.64,13.95,11.02,15.41,1.29,4.86-4.72,3.85-5.01,5.95-.24,1.75,2.73,1.09,4.02,5.47.21.74-.97,15.15,7.02,3.99,3.65-5.1,3.97-7.52,2.01-13.92h2.01c1.13,8.29,2.44,13.1-5.01,18.89-.75.58-9.73,3.75-12.04,4.97-1.02-3.77-8.87,1.94-9.04-2.98.38-2.18-.86-6.03-2.01-7.94-2.23-5.55.64-3.61,3-4.97,1.21,3.99,8.93,13.68,13.54,11.93l-4.5-15.41c-1.9.74-4.16.93-6.01,1.49-.7-2.5-2.87-1.86-3-1.99-2.01-1.73-2.82-6.38-6.01-10.92-1.47-2.1.88-4.3-8.02-7.94-.11-.05.35-1.81-.51-1.99-5.28-1.17-10.75,2.63-11.53,0,6.49-4.36,15.5-9.91,9.04-18.89,2.31.37,1.93-.9,2.01-.98,2.17-2.23,3.43-1.36,6.01-2.98l16.03,18.89-.03-.05Z"/>
    <g>
      <path class="cls-44" d="M395.15,199.48c29.09,15.09-14,32.5-27.08,40.73l-16.03-18.89c9.01-5.66,20.11-15.17,30.08-21.87,4.13.88,8.85-.61,13.03,0v.03Z"/>
      <path class="cls-9" d="M405.18,220.36c-1.69.88-5.82,4.57-12.04,7.94-8.12,4.44-16.01,9.57-24.08,13.92-1.18.64-2.76,1.38-4.02,1.99-14.91,7.28-3.62.21,3-3.99,13.08-8.26,56.17-25.67,27.08-40.73,12.63,1.83,13.75,10.1,10.03,20.86h.03Z"/>
    </g>
    <g>
      <path class="cls-47" d="M384.11,260.11v.98c1.96,6.38,1.64,8.82-2.01,13.92l-7.02-3.99c-1.29-4.38-4.26-3.69-4.02-5.47.29-2.13,6.3-1.12,5.01-5.95-.38-1.46-13.46-7.01-11.02-15.41,1.26-.61,2.82-1.36,4.02-1.99-2.04,2.31,8.74,12.59,9.52,12.91,9.71,4.12,35.85-14.22,21.56-25.83.32-.08.7.08.99,0,5.28,3.4,7.59,9.7,5.01,15.41-3.86,8.58-42.82,18.92-22.07,15.41h.03Z"/>
      <path class="cls-19" d="M361.05,265.08c-9.68,3.61-3.51-3.64-8.02-3.99,1.42-1.75,2.31-4.65,2.01-6.96,3.22,4.57,4.02,9.19,6.01,10.92v.03Z"/>
      <path class="cls-44" d="M400.17,229.29c14.29,11.61-11.88,29.97-21.56,25.83-.78-.35-11.56-10.6-9.52-12.91,8.07-4.36,15.93-9.49,24.08-13.92.03,1.36,5.44,1.33,7.02.98l-.03.03Z"/>
    </g>
  </g>
  <g>
    <g>
      <path class="cls-60" d="M242.73,391.29c1.05,2.29,1.61,3.69,4.02,4.97-4.99,19.95-11.58,43.02-14.05,63.61-1.5-.4-1.69-2.82-2.01-3.99-4.29-15.62.72-35.15,5.01-50.7,1.31-4.7,3.78-11.53,6.01-15.89.72,2.71.97,1.89.99,1.99h.03Z"/>
      <path class="cls-39" d="M252.75,461.87c-2.23,1.75-5.04,2.87-7.02,4.97-2.39-.16-6.94-1.41-8.02,0-3.11-1.49-2.82-2.52-5.01-3.99,0-.16-.43.56,0-2.98,2.44-20.59,9.04-43.66,14.05-63.61,9.25,4.89,13.73.24,20.06-5.95.11,22.56-1.85,51.76-14.05,71.56Z"/>
    </g>
    <g>
      <path class="cls-39" d="M245.73,466.84c1.98-2.1,4.8-3.22,7.02-4.97,16.11-12.73,13.75-55.61,17.05-74.53.38-2.21,2.63-6.46,4.02-10.92,3.73,22.8,7.21,92.71-28.07,90.45l-.03-.03Z"/>
      <path class="cls-49" d="M252.75,461.87c12.2-19.8,14.16-49,14.05-71.56.64-.64,1.47-2.84,3-2.98-3.3,18.95-.94,61.8-17.05,74.53Z"/>
    </g>
  </g>
  <g>
    <path class="cls-61" d="M352.04,208.43c1.29-2.07,2.82-3.72,4.02-5.95,3.08-1.06,8.28-6.22,11.02-8.95l.51,1.99c10.97-11.48,32.76-28.51,30.59-45.73,16.22,20.01-36.09,57.87-52.66,69.56l-.51-1.49c3.38-2.52,4.91-6.03,7.02-9.43h0Z"/>
    <path class="cls-62" d="M392.15,140.86c.24.21,3.75,4.52,4.02,4.97-10.3,9.65-19.3,20.19-26.06,31.81-1.31,2.29-2.17,5.37-5.01,2.98-.16-1.28-3.97-4.65-4.02-4.97-.48-3.56,4.05-5.1,3-10.92l24.08-25.83c3.32,2.18,3.83,1.83,4.02,1.99l-.03-.03Z"/>
    <path class="cls-37" d="M398.15,148.81c-1.29,12.06-5.01,16.08-12.04,24.84-5.71-5.82-10.27,1.17-16.03,3.99,6.76-11.61,15.79-22.16,26.06-31.81.08.16,1.5.77,2.01,2.98Z"/>
    <path class="cls-46" d="M398.15,149.79c2.2,17.22-19.6,34.25-30.59,45.73l-.51-1.99c6.3-6.22,13.54-12.99,19.06-19.88,7.02-8.77,10.75-12.78,12.04-24.84.08.32-.05.66,0,.98h0Z"/>
    <path class="cls-37" d="M386.12,173.65c-5.5,6.88-12.76,13.66-19.06,19.88-2.76,2.74-7.94,7.89-11.02,8.95,2.17-4.01,9.44-18.41,9.04-21.87,2.84,2.36,3.7-.69,5.01-2.98,5.79-2.82,10.35-9.8,16.03-3.99Z"/>
  </g>
  <path class="cls-24" d="M189.56,239.23c0,.32-.05.69,0,.98-2.39.21-3.81-1.89-4.02-1.99.35.19,2.06-.48,4.02.98v.03Z"/>
</svg>