<?xml version="1.0" encoding="UTF-8"?>
<svg id="Layer_1" data-name="Layer 1" xmlns="http://www.w3.org/2000/svg" viewBox="0 0 579.17 494.12">
  <defs>
    <style>
      .cls-1 {
        fill: #f3e8e1;
      }

      .cls-1, .cls-2, .cls-3, .cls-4, .cls-5, .cls-6, .cls-7, .cls-8, .cls-9, .cls-10, .cls-11, .cls-12, .cls-13, .cls-14, .cls-15, .cls-16, .cls-17, .cls-18, .cls-19, .cls-20, .cls-21, .cls-22, .cls-23, .cls-24, .cls-25, .cls-26, .cls-27, .cls-28, .cls-29, .cls-30, .cls-31, .cls-32, .cls-33, .cls-34, .cls-35, .cls-36, .cls-37, .cls-38, .cls-39, .cls-40, .cls-41, .cls-42, .cls-43, .cls-44, .cls-45, .cls-46, .cls-47, .cls-48, .cls-49 {
        stroke-width: 0px;
      }

      .cls-2 {
        fill: #f7c6ca;
      }

      .cls-3 {
        fill: #60203a;
      }

      .cls-4 {
        fill: #5c9d92;
      }

      .cls-5 {
        fill: #74cccd;
      }

      .cls-6 {
        fill: #5fc7ce;
      }

      .cls-7 {
        fill: #5fc1b2;
      }

      .cls-8 {
        fill: #726d65;
      }

      .cls-9 {
        fill: #7a8483;
      }

      .cls-10 {
        fill: #4ca6a6;
      }

      .cls-11 {
        fill: #351824;
      }

      .cls-12 {
        fill: #99beb2;
      }

      .cls-13 {
        fill: #6e2637;
      }

      .cls-14 {
        fill: #9d2457;
      }

      .cls-15 {
        fill: #32bebd;
      }

      .cls-16 {
        fill: #361316;
      }

      .cls-17 {
        fill: #101011;
      }

      .cls-18 {
        fill: #06767a;
      }

      .cls-19 {
        fill: #078e91;
      }

      .cls-20 {
        fill: #21a086;
      }

      .cls-21 {
        fill: #0f7f5c;
      }

      .cls-22 {
        fill: #102221;
      }

      .cls-23 {
        fill: #172231;
      }

      .cls-24 {
        fill: #251121;
      }

      .cls-25 {
        fill: #251016;
      }

      .cls-26 {
        fill: #c4b4a8;
      }

      .cls-27 {
        fill: #c84586;
      }

      .cls-28 {
        fill: #d0ecee;
      }

      .cls-29 {
        fill: #df7ab1;
      }

      .cls-30 {
        fill: #df698d;
      }

      .cls-31 {
        fill: #cbe0d9;
      }

      .cls-32 {
        fill: #b2617d;
      }

      .cls-33 {
        fill: #b2d0c5;
      }

      .cls-34 {
        fill: #c26e8c;
      }

      .cls-35 {
        fill: #b8bbb0;
      }

      .cls-36 {
        fill: #908d85;
      }

      .cls-37 {
        fill: #b53977;
      }

      .cls-38 {
        fill: #b58faa;
      }

      .cls-39 {
        fill: #bc456a;
      }

      .cls-40 {
        fill: #98d6d5;
      }

      .cls-41 {
        fill: #9bd9df;
      }

      .cls-42 {
        fill: #863b59;
      }

      .cls-43 {
        fill: #f2b2b7;
      }

      .cls-44 {
        fill: #eda5c3;
      }

      .cls-45 {
        fill: #e8ece7;
      }

      .cls-46 {
        fill: #eec7d8;
      }

      .cls-47 {
        fill: #efd4d7;
      }

      .cls-48 {
        fill: #f093a2;
      }

      .cls-49 {
        fill: #033132;
      }
    </style>
  </defs>
  <path class="cls-17" d="M176.54.14c49.64-2.51,88.59,29.81,113.75,67.8C326.62,13.05,365.08-8.88,433.92,4.46c71.92,13.95,127.48,66.9,141.39,135.94,14.36,71.39-12.75,126.65-57.21,181.68-61.34,75.95-140.23,125.61-226.51,172.02-2.14.1-3.96-1.11-5.85-1.88-3.22-1.31-53.49-30.05-60.46-34.2-82.22-49.33-169.38-120.08-208.96-206.86C-27.9,154.29,20.51,39.34,128.44,8.82,138.71,5.9,166.52.61,176.54.1v.03Z"/>
  <g>
    <path class="cls-30" d="M265.91,53.02c4.06,2.78,15.48,22.13,21.12,27.36,3.05.84,13.35-8.82,15.27-11.2,2.66.17-2.03,1.58,3.89,3.72-3.89,2.95-11.28,11.23-16.57,14.92-1.89.34-12.33-10.16-14.61-11.84,3.29.67-3.05-7.31-4.55-9.02-28.1-32.46-97.74-35.78-132.91-13.98-3.36,2.08-14.05,9.89-8.76,10.56-66.63,37.99-93.71,127.02-48.1,189.76-11.46-.37-23.02.5-34.44,0v-.64c28.48-.07,8.16-11.7-3.26-37.66-13.35-30.35-13.49-63.08-8.44-95.2.6-3.86,2.87-5.94,1.3-9.02-.07-.13.07-.94-.67-1.88,2.17-.44,15.59-24.48,25.99-34.2,12.37-11.57,37.17-26.42,52.97-33.6,46.84-21.29,86.53-28.13,132.59,0,9.21,5.63,13.98,11.84,14.96,11.84.74,0-.53-3.25,4.24,0l-.04.07Z"/>
    <path class="cls-32" d="M464.15,33.1c9.88,5.7,19.44,11.5,28.27,18.68,22.07,17.94,53.67,56.64,59.13,84,4.62-28.91-14.47-51.57-14.61-54.42,0-.4.77-.34,1.3-.3,32.44,45.5,37.83,97.35,22.1,149.96-.98.13-2.49-.34-3.26.3-.98.8-8.76,16-12.37,22.1-.91-25.02,14.36-45.6,7.81-71.56-3.54-14.02-5.08-3.39-8.76-2.48-.14,0-.49-.77-.98-.64-1.79-23.14-14.96-61.03-28.59-80.58-29.81-42.75-89.22-76.59-143.63-69.38-1.19-7.68,16.22-10.16,22.42-10.56,10.3-.7,31.84,3.42,42.25,6.24,7.67,2.05,25.85,9.69,27.29,9.96.74.13,1.51-.54,1.61-1.24v-.07Z"/>
    <path class="cls-42" d="M560.35,230.95c-23.05,77.09-108.6,155.32-175.82,200.33-12.3,8.25-82.95,50.87-91.33,53.52-1.3-3.52-.49-8.05-.67-11.84,88.1-48.02,189.03-117.37,234.64-206.56,11.46,7.11,10.12-.1,11.7-2.78,1.96-3.39,3.85-6.87,5.85-10.26,3.57-6.1,11.35-21.26,12.37-22.1.77-.64,2.28-.2,3.26-.3h0Z"/>
    <path class="cls-42" d="M81.33,321.79c4.59,5.4,9.91,10.5,14.96,15.56,9.46,9.52,19.72,18.01,29.88,26.76,54.65,47.01,98.72,73.54,161.84,108.88,0,1.27,1.23,6.47.67,11.84-2.17-.34-2.59-.23-4.87-1.24-3.33-1.48-56.02-31.82-63.06-36.08-56.05-34.17-119.56-83.16-157.61-135.64,10.16-5.1,10.44,8.92,18.22,9.96l-.03-.03Z"/>
    <path class="cls-3" d="M79.36,281.35c1.47,1.01,11.53,14.69,22.74,26.76,60.43,64.95,113.15,91.95,187.21,138.76-.35,6.44-.53,12.84-.67,19.28-2.73-1.61-5.18-3.92-7.81-5.6-.53-3.22,1.12-10.03-.98-12.44-1.65-1.91-38.71-21.13-44.84-24.88-9.56-5.83-19.3-11.87-28.59-18.04-12.79-8.48-93.71-68.37-101.07-75.28-9.77-9.19-31.39-36.32-34.44-49.16,2.17,0,5.11-1.31,7.46-.64.95.67.91,1.21.98,1.24Z"/>
    <path class="cls-48" d="M265.91,53.02c-4.76-3.25-3.5,0-4.24,0-.98,0-5.75-6.2-14.96-11.84-46.07-28.13-85.76-21.29-132.59,0-15.8,7.18-40.6,22.03-52.97,33.6,7.04-13.18,39.17-37.52,52.34-45.4,10.61-6.37,23.79-8.95,19.16-12.44,54.86-15.73,97.67-9.02,133.26,36.08Z"/>
    <path class="cls-48" d="M35.82,110.86c1.58,3.08-.7,5.2-1.3,9.02-5.04,32.12-4.9,64.85,8.44,95.2,11.42,25.95,31.74,37.59,3.26,37.66-35.03-31.22-31.21-103.32-11.7-141.84.32.1.88-.03,1.3,0v-.03Z"/>
    <path class="cls-43" d="M538.24,81.02c-.53,0-1.33-.1-1.3.3.18,2.85,19.23,25.55,14.61,54.42-5.47-27.36-37.1-66.06-59.13-84-8.83-7.18-18.39-12.98-28.27-18.68-7.81-4.49-15.38-9.56-24.07-12.44v-5.6c42.56,10.46,73.53,31.39,98.16,65.96v.03Z"/>
    <path class="cls-43" d="M61.18,74.78c-10.4,9.72-23.82,33.77-25.99,34.2-1.44.3-9.56-2.21-9.74-2.78C44.93,62.74,85.74,30.38,132.68,16.9c4.62,3.49-8.55,6.07-19.16,12.44-13.14,7.88-45.3,32.26-52.34,45.4v.03Z"/>
    <path class="cls-43" d="M34.52,110.86c-19.51,38.53-23.33,110.66,11.7,141.84v.64c-2.28-.1-5.11.27-7.15,0-4.31-4.66-9.91-7.41-13.66-12.74-14.22-20.49-15.69-65.69-12.37-89.6,1.09-7.81,4.87-16.5,4.55-23.94,6.06-18.71,4.48-19.68,16.88-16.16l.04-.03Z"/>
    <path class="cls-34" d="M440.12,20.66c8.69,2.88,16.25,7.95,24.07,12.44-.14.7-.88,1.37-1.61,1.24-1.44-.27-19.62-7.88-27.29-9.96-10.4-2.78-31.95-6.94-42.25-6.24-6.2.44-23.61,2.88-22.42,10.56-20.74,2.75-35.28,10.97-48.76,26.12-7.95-2.08-5.11.1-4.55-7.48,17.17-20.25,43.23-36.05,70.83-37.96.07.64-.25,1.41.32,1.88,4.83,3.86,34.09,3.45,51.67,9.32v.07Z"/>
    <path class="cls-42" d="M70.92,280.74c3.08,12.84,24.66,39.97,34.44,49.16-3.26,1.07-2.45,2.38-2.59,2.48-.35.27-3.82.74-6.52,4.96-5.01-5.06-10.37-10.13-14.96-15.56-11-13.01-19.62-27.97-30.55-41.08,1.05-.3,16.43-.03,20.14,0l.04.03Z"/>
    <path class="cls-3" d="M81.33,321.79c-7.78-1.01-8.06-15.06-18.22-9.96-2.14-2.92-15.34-22.57-15.59-23.94-.35-1.91,1.09-6.54,3.26-7.14,10.93,13.08,19.55,28.07,30.55,41.08v-.03Z"/>
    <g>
      <path class="cls-30" d="M64.41,257.1l-4.24,15.56-19.83-.64c-3.92-4.19-7.11-9.32-9.74-14.32,11.14-.87,22.63-.97,33.81-.64v.03Z"/>
      <path class="cls-42" d="M74.18,257.1c-7.32,5.53-1.58,12.44,2.59,18.04l-34.12.64c-1.79-1.68-2.14-3.59-2.28-3.72l19.83.64,4.24-15.56c3.15.1,6.73-.27,9.74,0v-.03Z"/>
    </g>
    <path class="cls-48" d="M440.12,15.06v5.6c-17.59-5.87-46.84-5.47-51.67-9.32-.6-.47-.28-1.24-.32-1.88,15.52-1.07,36.82,1.88,51.99,5.6h0Z"/>
    <path class="cls-48" d="M39.08,253.35c-.84-.1-1.75.07-2.59,0C3.45,230.38,6.53,161.3,17.64,127.03c.32,7.44-3.47,16.13-4.55,23.94-3.33,23.91-1.89,69.11,12.37,89.6,3.71,5.37,9.32,8.11,13.66,12.74l-.04.03Z"/>
    <path class="cls-32" d="M321.82,54.86c-3.36,3.79-10.93,12.47-7.81,12.44-2.52,1.71-5.36,3.76-7.81,5.6-5.92-2.18-1.23-3.55-3.89-3.72,1.61-1.98,7.08-12.47,14.96-21.76-.6,7.58-3.4,5.37,4.55,7.48v-.03Z"/>
    <path class="cls-16" d="M39.08,253.35c2.03.27,4.87-.1,7.15,0,11.42.5,23.02-.37,34.44,0,1.93,1.98-2.84,2.25-4.55,3.72-.63-.1-1.3.07-1.96,0-3.01-.27-6.59.1-9.74,0-11.14-.37-22.67-.23-33.81.64-.07-.13-2.73.27-.32-1.88,4.59-.2,6.87,1.14,6.17-2.48.84.07,1.75-.1,2.59,0h.04Z"/>
    <path class="cls-25" d="M291.9,445.59c.11,7.04-.14,14.12,0,21.16.11,5,.63,5.9.67,6.24.14,3.79-.63,8.32.67,11.84-2.07.67-2.59.3-4.55,0,.6-5.33-.67-10.56-.67-11.84,0-2.05.6-4.63.67-6.84.11-6.44.32-12.84.67-19.28.07-.23,2.28-1.01,2.59-1.24l-.03-.03Z"/>
    <path class="cls-25" d="M81.96,280.74c2.42,2.95,8.44,9.79,11.03,12.44,1.54,5.87,11.63,7.61,9.11,14.92-11.24-12.07-21.26-25.75-22.74-26.76l2.59-.64v.03Z"/>
    <path class="cls-39" d="M275.01,76.02c-45.58-33.33-95.22-41.55-146.26-12.44-5.29-.67,5.43-8.48,8.76-10.56,35.21-21.8,104.81-18.44,132.91,13.98,1.47,1.71,7.85,9.69,4.55,9.02h.04Z"/>
    <path class="cls-42" d="M542.79,178.7c4.76,61.16-40.64,124.34-82.53,167.06-36.19,36.89-78.12,66.43-122.5,93.62-11.46,7.04-24.1,12.71-35.42,19.92,22.1-24.85,52.83-40.21,79.63-59.72,48.17-35.14,102.22-86.78,129.69-138.76,20.84-39.5,22.91-70.65,9.11-112.94-12.79-39.03-53.74-86.92-95.88-98.62-4.52-1.27-22.39-5.3-23.09-1.24-31.77-4.19-61.38,1.34-87.75,19.28-3.12,0,4.45-8.65,7.81-12.44,13.49-15.16,28.03-23.37,48.76-26.12,54.4-7.21,113.82,26.63,143.63,69.38,13.63,19.55,26.8,57.44,28.59,80.58h-.04Z"/>
    <path class="cls-34" d="M552.57,181.79c-2.14,3.35-2,13.21-3.26,20.22-3.89,22.2-11.77,44.2-22.1,64.38-45.61,89.2-146.54,158.54-234.64,206.56,0-.3-.53-1.24-.67-6.24,3.75-2.05,6.83-5.2,10.4-7.48,11.32-7.21,23.96-12.88,35.42-19.92,44.38-27.2,86.35-56.74,122.5-93.62,41.9-42.72,87.3-105.9,82.53-167.06.49-.13.84.67.98.64,3.71-.91,5.22-11.54,8.76,2.48l.07.03Z"/>
    <path class="cls-42" d="M544.76,253.35c-2,3.39-3.89,6.87-5.85,10.26-1.58,2.72-.25,9.89-11.7,2.78,10.33-20.22,18.18-42.22,22.1-64.38,1.23-7.01,1.09-16.87,3.26-20.22,6.55,25.92-8.72,46.54-7.81,71.56h0Z"/>
    <path class="cls-34" d="M134.61,362.86c27.43,23.81,62.6,49.56,93.92,68.44,17.03,10.26,35.56,18.58,52.34,29.24,2.63,1.68,5.08,3.99,7.81,5.6-.04,2.25-.67,4.8-.67,6.84-63.13-35.34-107.2-61.87-161.84-108.88,1.4,1.31,4.48-1.81,4.87-1.88.63-.07,1.19,3.05,3.57.64h0Z"/>
    <path class="cls-32" d="M102.77,332.38c10.19,10.6,20.7,20.79,31.84,30.48-2.38,2.45-2.98-.7-3.57-.64-.39.03-3.47,3.19-4.87,1.88-10.19-8.75-20.46-17.24-29.88-26.76,2.7-4.26,6.17-4.73,6.52-4.96h-.03Z"/>
    <path class="cls-42" d="M280.87,460.55c-16.78-10.7-35.28-18.98-52.34-29.24-31.32-18.88-66.49-44.63-93.92-68.44-11.14-9.69-21.65-19.92-31.84-30.48.14-.1-.67-1.44,2.59-2.48,7.36,6.91,88.31,66.8,101.07,75.28,9.28,6.17,19.06,12.21,28.59,18.04,6.17,3.76,43.19,22.97,44.84,24.88,2.1,2.41.46,9.22.98,12.44h.03Z"/>
    <path class="cls-3" d="M511.62,260.82c-27.43,51.98-81.48,103.62-129.69,138.76-26.76,19.52-57.52,34.87-79.63,59.72-3.57,2.28-6.62,5.43-10.4,7.48-.14-7.04.11-14.12,0-21.16,8.72-6.74,55.59-31.96,75.07-45.4,34.61-23.91,80.33-65.39,104.99-98.62,3.33-4.46,26.52-39,28.59-42.62,1.23,5.57,9.81-13.18,11.39-12.44,4.94,2.35-6.31,9.96-.32,14.32v-.03Z"/>
    <path class="cls-3" d="M511.62,260.82c-5.99-4.36,5.25-11.97.32-14.32-1.58-.74-10.16,18.01-11.39,12.44,24.87-43.06,27.18-98.92,0-141.54-20.63-32.33-58.68-64.05-98.79-69.38.67-4.06,18.53,0,23.09,1.24,42.11,11.7,83.09,59.55,95.88,98.62,13.84,42.29,11.77,73.4-9.11,112.94h0Z"/>
    <g>
      <path class="cls-22" d="M292.57,379.66c.32,6.67-.63,13.25-.67,19.92,0,2.05.49,3.69.67,5.6.28,3.15-2.21,3.92,1.3,3.12-.46.47-.49,1.24-1.96,1.54-.21,6.74.28,13.51,0,20.22,0,.3-1.3,3.82,0,6.24-1.12,1.48-2.66.47-3.89,0,1.54-14.25.21-28.64.67-42.92,0-.07,1.3-.47,1.3-.94.18-5.23,1.12-11.77-2.59-14.62.21.1,1.26-.27,3.57,2.48l1.61-.64h0Z"/>
      <path class="cls-19" d="M484.96,253.98c-7.95,10.7-14.89,22.33-23.4,32.66-10.3,12.47-22.95,22.47-33.14,34.84.14,1.98-1.12,6.54-1.96,8.08-3.82,7.04-65.58,55.56-76.37,63.14-18.85,13.25-39.87,23.51-58.19,37.32.28-6.71-.21-13.48,0-20.22,1.47-.3,1.47-1.07,1.96-1.54,1.86-1.88,38.15-23.71,45.19-28.6,31.28-21.9,69.57-54.73,95.22-82.42,11.28-12.17,27.57-34.57,29.88-37.02.32-.34,1.82.84,6.17-6.24,4.87.13,9.77-.17,14.61,0h.03Z"/>
      <path class="cls-18" d="M291.9,436.27c-1.3-2.41,0-5.9,0-6.24,18.29-13.82,39.31-24.08,58.19-37.32,10.79-7.58,72.55-56.1,76.37-63.14.84-1.54,2.07-6.1,1.96-8.08,10.19-12.37,22.88-22.37,33.14-34.84,8.51-10.33,15.45-21.96,23.4-32.66,1.33.03,6.62-.3,7.15.3-51.29,86.01-113.68,131.38-200.2,181.98h0Z"/>
      <path class="cls-49" d="M464.15,260.19c-2.31,2.45-18.64,24.85-29.88,37.02-25.64,27.73-63.93,60.56-95.22,82.42-7.01,4.9-43.33,26.73-45.19,28.6-3.5.8-1.02.07-1.3-3.12,46.87-31.29,106.57-74.81,143.63-116.02,6.73-7.48,20.11-26.56,21.44-27.7,1.44-1.21,4.76-2.72,6.52-1.24v.03Z"/>
      <g>
        <path class="cls-47" d="M146.98,260.19c-1.23,3.72-2.28-.4-9.11,2.48-11.28,4.76-4.66,14.62-4.55,15.56.42,3.08.56,6.37-3.26,5.6-15.45-7.41-31.84-10.26-50.69-26.12-.21-.67.42-1.71.98-1.88,3.36-.94,51.74.7,62.39,0,1.54,1.01,3.05,3.42,4.24,4.36Z"/>
        <path class="cls-9" d="M266.57,419.47c-.63,1.11-3.05.1-2.59,3.12-20.95-11.64-40.29-24.91-59.8-38.56,1.47.2,1.19-.47,1.3-.64.07-.1.07-1.78.98-1.88,3.57-.3,53,33.37,60.11,37.96h0Z"/>
        <path class="cls-27" d="M185.97,331.75c-5.08,2.95-15.97-1.81-16.88-7.48-.91-5.67,3.19-6.81,4.55-9.32,15.17-6.27,20.7,11.94,12.37,16.8h-.04Z"/>
        <path class="cls-31" d="M173.63,314.95c-1.37,2.51-5.47,3.69-4.55,9.32-3.61-4.29-17.03-12.78-18.85-16.16-.25-.44.25-2.05,0-2.48l5.18-6.84c2.42,1.61,19.3,13.45,19.51,14.62,0,.1-.84.7-1.3,1.54h0Z"/>
        <path class="cls-15" d="M149.57,308.1c-3.05,14.05-26.38.27-11.03-7.48,3.15.1,6.17-.6,8.76,1.24.98.67,2.49,5.2,2.28,6.24Z"/>
        <path class="cls-15" d="M231.47,361.62h-.67c-1.37-.2-4.76-3.66-5.18-4.96-3.26-9.83,9.49-12.94,12.37-5.9,2.24,5.5-3.47,10.8-6.52,10.9v-.03Z"/>
        <path class="cls-33" d="M253.58,377.79h-1.3c-2.24,0-6.9-.23-7.81,0-7.11-7.81-20.81-9.29-13.66-16.16h.67c7.18,5.43,14.61,11.17,22.1,16.16Z"/>
        <g>
          <path class="cls-15" d="M284.75,392.71s-1.82,2.38-1.96,2.48c-3.71,3.22-12.37,3.05-15.59-1.24.32-2.48-.63-4.36,1.3-6.84,3.54-4.49,18.95-3.55,16.25,5.6Z"/>
          <path class="cls-12" d="M282.83,395.22l.67,15.26c-.21.44-1.37.1-2.59.94l-13-11.2c-.11-.87-1.47.27-.67-6.24,3.26,4.29,11.88,4.46,15.59,1.24Z"/>
          <path class="cls-15" d="M280.87,411.39c-12.02,7.88-12.02-3.15-13-11.2l13,11.2Z"/>
        </g>
        <g>
          <path class="cls-12" d="M76.11,257.1c1.16.17,2.14.34,3.26.64,18.85,15.86,35.28,18.71,50.69,26.12,7.74,3.72,18.15,10.09,25.36,14.92l-5.18,6.84c-2.73-5.16-5.01-8.35-11.7-4.96-15.34,7.75,7.99,21.53,11.03,7.48h.67c1.82,3.39,15.24,11.9,18.85,16.16.91,5.67,11.81,10.43,16.88,7.48,7.15,6.64,14.29,13.28,21.44,19.92-2.17,3.52.67,7.01.67,9.02,0,.87-4.24,13.21,4.87,14.62,11.28,1.74,10.93-14.05,8.13-20.52,1.33.94,2.7,2.08,4.55,1.88.46,1.34,3.85,4.76,5.18,4.96-7.18,6.91,6.55,8.38,13.66,16.16-6.55,1.81-6.27,15.86,3.57,16.8,12.65,1.21-.95-4.33-1.61-5.3-5.99-8.38,6.59-8.99,5.85-11.5h1.3c4.83,3.22,10.47,5.57,14.96,9.32-1.93,2.48-.98,4.36-1.3,6.84-.84,6.47.56,5.33.67,6.24.98,8.05.98,19.08,13,11.2,1.26-.8,2.38-.5,2.59-.94l-.67-15.26s1.89-2.35,1.96-2.48l3.89.64c-.46,14.29.88,28.67-.67,42.92-.14-.07.28-.44-2.59-1.88,3.78-3.29-10.75-9.69-18.85-14.92-7.11-4.59-56.54-38.26-60.11-37.96-.91.07-.91,1.78-.98,1.88-12.75-4.36-5.6-11.03-7.46-12.44-1.4.84-5.08,3.55-6.52,3.12-2.49-.77-20.67-23-40.64-29.88-11.28-9.29-49.53-42.59-57.84-51-2.63-2.68-8.65-9.49-11.03-12.44-4.38-5.33-4.97-5.3-5.18-5.6-4.17-5.6-9.91-12.51-2.59-18.04.63.07,1.33-.1,1.96,0l-.07-.03Z"/>
          <g>
            <path class="cls-4" d="M205.48,383.39s.18.84-1.3.64c-18.18-12.71-36.15-25.72-53.28-39.8,19.97,6.87,38.11,29.07,40.64,29.88,1.44.44,5.11-2.28,6.52-3.12,1.89,1.41-5.29,8.08,7.46,12.44l-.04-.03Z"/>
            <path class="cls-15" d="M252.28,377.79c.74,2.51-11.84,3.15-5.85,11.5.7.97,14.26,6.47,1.61,5.3-9.84-.94-10.12-14.99-3.57-16.8.88-.23,5.53,0,7.81,0h0Z"/>
            <path class="cls-4" d="M285.42,434.39c-5.82-2.85-15.2-8.35-21.44-11.84-.46-3.02,1.96-2.01,2.59-3.12,8.09,5.23,22.63,11.64,18.85,14.92v.03Z"/>
            <path class="cls-7" d="M189.85,353.51c-2.14,2.51-5.78-1.61-6.52,1.88-2-.7-14.15-4.39-14.61-4.96-.14-.2.46-4.83.67-4.96.88-.64,3.12,2.62,20.46,8.08v-.03Z"/>
            <path class="cls-15" d="M189.85,353.51c2.17.67,6.17.97,6.52,1.54,5.08,8.99-10.68,1.14-13,.3.7-3.49,4.38.67,6.52-1.88l-.04.03Z"/>
            <path class="cls-15" d="M118.04,293.79c1.65,0,5.25,9.09-5.18,6.84-.53-1.44,4.76-6.84,5.18-6.84Z"/>
            <path class="cls-10" d="M150.23,305.62c.25.47-.25,2.05,0,2.48h-.67c.21-1.01-1.3-5.53-2.28-6.24-2.63-1.84-5.64-1.14-8.76-1.24,6.69-3.39,8.97-.2,11.7,4.96v.03Z"/>
          </g>
        </g>
        <path class="cls-15" d="M133.31,278.23c-.14-.91-6.73-10.8,4.55-15.56,20.95-2.51,10.16,24.48-4.55,15.56Z"/>
        <g>
          <path class="cls-45" d="M287.38,377.79c3.75,2.88,2.77,9.39,2.59,14.62,0,.47-1.3.87-1.3.94l-3.89-.64c2.7-9.15-12.72-10.09-16.25-5.6-4.48-3.79-10.12-6.1-14.96-9.32-7.5-5-14.92-10.73-22.1-16.16,3.01-.1,8.72-5.4,6.52-10.9-2.84-7.01-15.62-3.92-12.37,5.9-1.86.2-3.19-.94-4.55-1.88-3.05-2.11-10.12-8.85-13.66-3.12-7.15-6.64-14.29-13.28-21.44-19.92,8.37-4.86,2.84-23.07-12.37-16.8.46-.84,1.33-1.44,1.3-1.54-.21-1.17-17.1-13.01-19.51-14.62-7.22-4.86-17.59-11.2-25.36-14.92,3.82.77,3.68-2.51,3.26-5.6,14.71,8.92,25.5-18.07,4.55-15.56,6.83-2.88,7.88,1.24,9.11-2.48,7.36,5.9,25.33,25.62,37.38,36.72,18.71,17.2,83.62,70.69,103.03,80.88h.04Z"/>
          <path class="cls-6" d="M153.14,283.22c4.2-1.17,11,8.62,13.31,12.14-16.01-.91-19.9-10.29-13.31-12.14Z"/>
          <path class="cls-6" d="M211.64,332.99c8.69-.4-.14,10.36-5.85,8.72-5.5-1.61,0-8.45,5.85-8.72Z"/>
        </g>
        <g>
          <path class="cls-15" d="M221.07,354.78c2.8,6.47,3.15,22.27-8.13,20.52-9.11-1.41-4.87-13.75-4.87-14.62,0-2.01-2.8-5.5-.67-9.02,3.54-5.77,10.61,1.01,13.66,3.12h0Z"/>
          <path class="cls-40" d="M213.6,361.62c8.65-2.55,9.11,12.04,0,9.96-4.52-1.04-3.26-8.99,0-9.96Z"/>
        </g>
      </g>
      <g>
        <path class="cls-15" d="M453.74,260.82c1.16.27,2.52-.44,3.89.64-1.37,1.14-14.71,20.22-21.44,27.7-37.1,41.21-96.76,84.74-143.63,116.02-.18-1.91-.67-3.55-.67-5.6,3.47,1.88,6.66-11.47,11.03-15.56,19.51-10.09,34.58-25.89,50.38-40.44l.67,6.24c7.85-7.71,16.36-14.75,22.74-23.64,2.21,11.43,9.74,6.27,9.42-2.18,14.78-7.81,22.46-22.2,29.25-28.94,4.66-4.59,10.79-8.38,15.59-13.08,7.18-7.04,14.61-13.75,19.83-22.4,1.3.4,1.47.94,2.91,1.24h.04Z"/>
        <path class="cls-15" d="M427.75,271.39c-3.22,2.75-5.96,6.47-9.11,9.32-3.33,3.02-6.52,4.69-6.83,4.96-16.67,15.46-31.07,33.4-49.39,47.28-21.37,15.16-40.81,32.36-63.37,46.04-.21-.77-2.56-.67-.67-3.72,15.94-11.37,61.06-45.1,74.41-56.6,17.73-15.32,37.34-35.51,52.97-52.88l1.96,5.6h.03Z"/>
        <path class="cls-15" d="M453.74,260.82c-1.47-.34-1.65-.84-2.91-1.24-5.22,8.65-12.65,15.36-19.83,22.4-2.24-2.21-4.24-2.68-6.52-.64l-5.85-.64c3.15-2.85,5.89-6.57,9.11-9.32,4.8-4.12,12.93-8.65,17.24-13.08.6-.64-.28-.47-.32-1.24,6.24.34,7.29-1.74,9.11,3.72l-.04.03Z"/>
        <path class="cls-15" d="M298.42,375.3c-1.89,3.05.42,2.98.67,3.72.11.37-.88,5.2,3.89,4.96-4.41,4.06-7.6,17.44-11.03,15.56,0-6.67.98-13.25.67-19.92,1.44-1.94,3.96-3.02,5.85-4.36l-.03.03Z"/>
        <path class="cls-15" d="M444.67,257.1c.04.77.95.64.32,1.24-4.31,4.43-12.4,8.95-17.24,13.08l-1.96-5.6c.95-1.07,5.5-8.48,6.17-8.72,4.2.17,8.48-.23,12.68,0h.04Z"/>
        <path class="cls-5" d="M424.49,281.35c-.6.57-7.53,11.23-9.11,13.68-6.8,6.74-14.47,21.13-29.25,28.94.32,8.42-7.22,13.61-9.42,2.18-6.38,8.89-14.92,15.93-22.74,23.64l-.67-6.24c-15.8,14.55-30.86,30.35-50.38,40.44-4.76.23-3.78-4.59-3.89-4.96,22.56-13.68,42-30.88,63.37-46.04,18.32-13.92,32.75-31.82,49.39-47.28.32-.3,3.5-1.98,6.83-4.96l5.85.64v-.03Z"/>
        <path class="cls-15" d="M431.01,281.98c-4.8,4.69-10.96,8.45-15.59,13.08,1.58-2.45,8.48-13.11,9.11-13.68,2.24-2.08,4.24-1.58,6.52.64l-.04-.03Z"/>
      </g>
      <g>
        <path class="cls-17" d="M275.01,76.02c2.28,1.68,12.72,12.14,14.61,11.84,5.29-3.72,12.68-11.97,16.57-14.92,2.45-1.84,5.25-3.89,7.81-5.6,26.38-17.94,55.98-23.51,87.75-19.28,40.11,5.3,78.16,37.02,98.79,69.38,27.18,42.62,24.87,98.49,0,141.54-2.1,3.62-25.29,38.16-28.59,42.62-24.63,33.23-70.38,74.68-104.99,98.62-19.48,13.48-66.35,38.66-75.07,45.4-.32.23-2.52,1.01-2.59,1.24-74.06-46.81-126.74-73.81-187.21-138.76,2.52-7.31-7.57-9.09-9.11-14.92,8.3,8.45,46.56,41.75,57.84,51,17.13,14.08,35.14,27.09,53.28,39.8,19.51,13.65,38.85,26.93,59.8,38.56,6.24,3.45,15.66,8.95,21.44,11.84,2.87,1.41,2.45,1.81,2.59,1.88,1.26.47,2.77,1.48,3.89,0,86.49-50.6,148.92-96,200.2-181.98-.53-.64-5.82-.27-7.15-.3-4.87-.17-9.77.13-14.61,0-4.34,7.08-5.85,5.9-6.17,6.24-1.72-1.48-5.04,0-6.52,1.24-1.37-1.07-2.73-.37-3.89-.64-1.82-5.47-2.84-3.39-9.11-3.72-4.2-.23-8.48.17-12.68,0-.7.23-5.22,7.65-6.17,8.72-15.62,17.37-35.24,37.56-52.97,52.88-13.35,11.54-58.47,45.27-74.41,56.6-1.89,1.34-4.41,2.41-5.85,4.36l-1.61.64c-2.31-2.75-3.4-2.38-3.57-2.48-19.41-10.19-84.32-63.68-103.03-80.88-12.05-11.1-30.02-30.78-37.38-36.72-1.19-.94-2.7-3.35-4.24-4.36-10.65.7-59.03-.94-62.39,0-.56.17-1.19,1.21-.98,1.88-1.12-.3-2.1-.47-3.26-.64,1.72-1.51,6.48-1.74,4.55-3.72-45.61-62.74-18.53-151.77,48.1-189.76,51.04-29.11,100.68-20.89,146.26,12.44l.04-.03Z"/>
        <g>
          <path class="cls-37" d="M131.39,172.46c-3.54,13.98-4.87,28.23-3.89,42.62.28,4.09,2.28,8.65,2.59,12.74-1.3,0-2.35-1.14-3.26-1.88-4.45-3.66-13-10.13-15.59-12.44-1.75-16.06,7.15-33.23,7.81-39.2v-.64c3.19.84,7.18,1.84,6.52-2.48.14.2,3.33,3.79,3.57,3.72,1.3-.2.32-2.88,2.28-2.48l-.04.03Z"/>
          <path class="cls-49" d="M474.55,104.66c.67,4.8,1.72,9.56,2.59,14.32,7.88,42.72,9.84,88.33-3.89,130.04-.11,0-.11,1.34-1.96.3,1.86-2.48.81-6.94-2.59-7.78,16.08-34.27,11.11-106.7,1.3-143.72,1.79,1.84,3.33,4.63,4.55,6.84Z"/>
          <g>
            <path class="cls-15" d="M223.03,292.55c-14.15-13.28-13-2.48-1.61,6.84,2.77,2.25,21.68,14.05,23.09,11.2,14.5,11.67,30.37,21.9,44.84,33.6v25.52c-28.62-19.21-56.23-39.8-81.9-62.54l4.24-25.82c4.1,3.35,7.43,7.71,11.39,11.2h-.04Z"/>
            <path class="cls-15" d="M223.03,292.55c6.94,6.07,14.26,12.27,21.44,18.04-1.37,2.85-20.32-8.95-23.09-11.2-11.39-9.32-12.54-20.12,1.61-6.84h.04Z"/>
          </g>
          <path class="cls-38" d="M288.01,109.02c.04,1.24,0,2.48,0,3.72v3.72c-2.52-1.34-7.64-5.33-7.81-7.48l7.81-8.08c.18,2.68-.07,5.4,0,8.08v.03Z"/>
          <path class="cls-47" d="M139.48,245.26c4.73,7.71,8.9,8.25-.32,7.14l.32-7.14Z"/>
          <path class="cls-31" d="M386.17,79.14c-.25.44,1.12.94.32,1.24-1.82.34-2.38-.54-2.91-.64-8.16-9.15-17.31-2.75,1.61-17.44,2.28.23-1.96,8.08,10.72,10.26-6.24,3.02-6.34.1-9.74,6.54v.03Z"/>
          <g>
            <path class="cls-15" d="M422.57,61.1c-5.71,0-11.63.97-11.7,6.84,0,3.19-.21,5.7,3.26,7.48-.07,2.25-4.52,6.94-2.91,8.72,3.47,3.82,5.78-4.63,6.83-6.24,15.38,10.23,30.93,23.57,51.36,19.28-.07.77.63.6.67.64,9.81,37.02,14.78,109.45-1.3,143.72-1.33,2.82-4.94,11.03-8.13,11.84l-29.57-.3c-2.03-2.72,10.16-28.87,12.37-45.4,1.19-8.89,1.58-26.56,0-35.14,1.37-2.55,5.39-9.22,5.85-10.56,14.96-6.67,2.73-28.64-4.55-38.56,7.43-11.87-2.52-8.55-5.18-9.32-1.54-.47-3.4-4.26-4.55-5.6-15.73-18.28-20.77-25.92-48.76-29.24,3.4-6.4,3.5-3.52,9.74-6.54-12.68-2.21-8.44-10.03-10.72-10.26-18.92,14.69-9.77,8.28-1.61,17.44-4.94-.64-9.74-2.25-14.61-3.12h-3.26c-.6.2-.25,1.21-.32,1.24-.6-2.62-7.32-1.04-12.02,0-31.6,7.04-45.68,20.42-63.37,30.48.39-3.08-.53-9.96,0-11.5.77-2.28,25.89-22.06,33.49-26.46,30.9-17.94,65.26-21.76,99.14-9.32l-.14-.1Z"/>
            <path class="cls-31" d="M349.42,64.82c9.42-1.84,7.81,15.36-.67,11.84-4.1-1.71-4.13-10.9.67-11.84Z"/>
          </g>
          <path class="cls-23" d="M439.45,113.98c2.7.8,12.65-2.51,5.18,9.32-1.82-2.48-8.76-9.29-5.18-9.32Z"/>
          <g>
            <path class="cls-28" d="M420.61,73.54c-3.15.64-2.77,3.76-6.52,1.88-3.47-1.74-3.29-4.26-3.26-7.48,2.84-7.18,14.12-8.18,13,.94-.28,2.38-2.84,3.82-3.26,4.66h.04Z"/>
            <path class="cls-28" d="M420.61,73.54c-.39.77-2.1,3.59-2.59,4.36-1.05,1.58-3.36,10.06-6.83,6.24-1.61-1.78,2.84-6.44,2.91-8.72,3.71,1.88,3.33-1.24,6.52-1.88Z"/>
          </g>
          <g>
            <path class="cls-19" d="M341.33,85.38c11.74,5.87-9.32,10.56-24.38,19.28-9.04,5.26-17.13,12.11-25.68,18.04-.07-3.62-2.31-7.85,1.3-10.56,22.31-15.06,19.69-16.73,48.76-26.76h0Z"/>
            <path class="cls-49" d="M365.36,77.9c-7.99,2.78-16.04,4.69-24.07,7.48-29.04,10.03-26.45,11.7-48.76,26.76-2.66,1.78-2.73,2.51-2.91,2.48-.67-.13.35-2.31-1.61-1.88,0-1.24.04-2.48,0-3.72.81.13,1.33-.27,1.96-.64,17.69-10.06,31.77-23.44,63.37-30.48,4.69-1.04,11.42-2.62,12.02,0h0Z"/>
            <path class="cls-10" d="M439.45,113.98c-3.57.03,3.36,6.84,5.18,9.32,7.29,9.93,19.51,31.92,4.55,38.56,8.55-25.38-12.65-37.99-14.96-41.38-.25-.34.56-2.82-3.89-6.84,3.96-3.02,4.24,4.29,4.55-5.3,1.16,1.34,3.01,5.13,4.55,5.6v.03Z"/>
            <g>
              <path class="cls-19" d="M383.58,79.78c.53.07,1.09.94,2.91.64.81-.3-.56-.8-.32-1.24,27.99,3.32,33,10.97,48.76,29.24-.32,9.56-.6,2.28-4.55,5.3,4.45,4.02,3.68,6.51,3.89,6.84,2.31,3.39,23.51,16,14.96,41.38-.46,1.34-4.48,8.01-5.85,10.56-11.63-63.18-104.64-87.22-151.76-41.68-2.35-2.41-.32-7.68-.32-8.08,8.55-5.94,16.64-12.78,25.68-18.04,15.03-8.75,36.12-13.45,24.38-19.28,7.99-2.75,16.04-4.69,24.07-7.48.07,0-.25-1.04.32-1.24h3.26c4.9.87,9.7,2.45,14.61,3.12l-.04-.03Z"/>
              <path class="cls-24" d="M403.37,96.58c4.17-1.88,8.72,6.54,5.18,8.08-3.82,1.71-8.58-6.57-5.18-8.08Z"/>
            </g>
          </g>
          <g>
            <path class="cls-30" d="M373.8,118.34c-.42,4.46,10.58,12.98,16.25,19.58,4.69,5.47,13.42,18.68,14.61,18.98,7.95,1.98,10.47-15.12-5.53-28,4.62,2.68,6.87,4.23,11.03,7.48-2,2.18,8.16,10.43,11.7,16.5,8.23,14.08,9.53,35.18,9.11,51-.21,7.54-3.99,22.67-.67,22.1-1.68,5.83-7.04,19.62-9.74,27.36-7.74-.4-15.69.54-23.4,0-2.35-.17-4.73.64-5.85-.94-1.12-14.29,1.75-58.92-.67-68.44-2.03-8.01-12.89-15.83-20.14-19.58-25.57-25.25-51.5-19.15-79.31-.64v-23.04c3.47-2.25,16.39-17.07,38.01-23.04,17.55-4.83,27.67-3.99,44.52.64l.07.03Z"/>
            <path class="cls-30" d="M420.61,257.1c-34.75,44.57-83.41,79.17-129.34,112.6l-.67-25.52c30.76-22.63,62.11-44.97,88.38-72.5,2.8-2.95,10.09-13.11,12.37-14.62h29.25v.03Z"/>
            <path class="cls-30" d="M344.9,255.83l35.42.94c-24.94,29.91-56.79,53.55-88.73,76.22l-.32-29.54c20.74-14.05,39.66-26.73,53.63-47.58v-.03Z"/>
            <path class="cls-30" d="M190.52,258.34c4.45,4.46,11.63,14.96,18.22,20.22l-3.57,27.06c-13.87-12.37-38.43-34.07-49.08-47.92,0-.44-.18-1.14.32-1.24,1.68-.4,32.02-.91,34.12,1.88h0Z"/>
            <path class="cls-14" d="M288.01,164.38c.11,2.92,2.24,8.01-.67,9.96-5.22-1.94-35.56-33.8-78.33-11.84-5.25,2.72-15.69,10.03-18.53,14.92-.18-9.56,17.31-21.6,26.31-24.88,25.78-9.39,49.08-1.81,71.18,11.84h.04Z"/>
            <path class="cls-14" d="M370.55,164.38c-45.54-23.64-72.45,7.41-78.65,9.96-1.16-3.08-.63-7.21-.67-10.56,27.78-18.54,53.74-24.61,79.31.64v-.03Z"/>
            <path class="cls-2" d="M399.17,128.9c15.97,12.88,13.49,29.98,5.53,28-1.19-.3-9.91-13.48-14.61-18.98-5.68-6.61-16.64-15.16-16.25-19.58,11.63,3.19,14.96,4.56,25.36,10.56h-.03Z"/>
            <path class="cls-14" d="M430.34,225.98c-3.36.6.46-14.52.67-22.1.42-15.86-.88-36.95-9.11-51-3.54-6.07-13.7-14.29-11.7-16.5,31,23.98,29.99,55.36,20.14,89.6h0Z"/>
            <g>
              <path class="cls-43" d="M385.5,194.86c-4.62-.07-7.95-12.41-13.66-10.9v68.74c-9.28.23-18.67.07-27.95-.3-.88-10.83,1.89-26.36-1.96-36.38,2.7,3.69.91-4.86-2.59-9.66-2.84-3.86-11.17-8.79-15.94-9.66-15.87-2.85-23.61,8.48-33.49,8.08-.35-6.3.25-12.68,0-18.98,9.46-8.85,29.08-21.36,41.93-22.7,19.3-2.01,51.46,10.93,53.63,31.72l.04.03Z"/>
              <path class="cls-48" d="M385.5,194.86c1.33,12.88-.98,41.68,0,57.54-.46.64-11.7.27-13.66.3v-68.74c5.71-1.51,9.04,10.8,13.66,10.9Z"/>
              <path class="cls-48" d="M341.96,216.02c-4.48-11.74-18.92-16.46-30.86-14.92-17.34,2.25-20.18,20.35-21.12,3.72,9.88.4,17.59-10.93,33.49-8.08,4.73.84,13.1,5.8,15.94,9.66,3.54,4.8,5.29,13.35,2.59,9.66l-.04-.03Z"/>
            </g>
            <g>
              <path class="cls-15" d="M271.13,291.3c-10.96,5.67,10.51,18.34,16.88,20.22,1.19-10.36-2.49-7.81-4.55-12.14,1.96,1.54,4.2,2.75,5.85,4.66v29.24c-.32.5-.95.34-1.61.3-3.43-.1-47.01-37.26-52.65-42.32-12.05-10.8-23.26-22.57-34.79-33.9l38.67-.3c9.46,16.4,17.52,23.04,32.16,34.2l.04.03Z"/>
              <path class="cls-15" d="M283.46,299.39c2.07,4.33,5.75,1.74,4.55,12.14-6.41-1.88-27.85-14.55-16.88-20.22,3.96,3.02,8.86,5.4,12.37,8.08h-.04Z"/>
            </g>
            <path class="cls-11" d="M291.27,140.74v23.04c0,3.39-.49,7.48.67,10.56-1.44.6-1.33-1.31-1.61-1.24-.35.07-.28,2.25-2.91,1.24,2.87-1.91.74-7.04.67-9.96-.25-7.58-.35-15.49.67-23.04.63-.1,2.49-.54,2.59-.64l-.07.03Z"/>
            <path class="cls-25" d="M157.38,253.35c3.75.27,23.61.34,25.99,0-.28,5,1.79-.4,7.15,4.96-2.1-2.78-32.44-2.25-34.12-1.88-.49.1-.32.84-.32,1.24-.18-.23-2.59,1.14-1.3-4.36.84.1,1.75-.07,2.59,0v.03Z"/>
            <path class="cls-25" d="M420.61,253.35c-.63,1.84,1.58,3.59,0,3.72h-29.25c4.06-2.72,6.41.5,5.85-3.72,7.71.54,15.66-.4,23.4,0h0Z"/>
            <path class="cls-13" d="M290.6,344.19l.67,25.52h-1.96v-25.52h1.3Z"/>
            <g>
              <path class="cls-30" d="M288.68,141.34c-1.02,7.54-.91,15.46-.67,23.04-22.1-13.65-45.4-21.23-71.18-11.84-9.04,3.29-26.52,15.32-26.31,24.88-7.53,13.04-2.35,58.08-3.89,75.58-.49.64-2.42.2-3.26.3-2.38.34-22.24.27-25.99,0-6.9-7.85-14.92-14.45-17.55-24.88-2.28-9.02-2.17-26.26-1.3-35.78,7.22-77.96,92.87-101.97,150.14-51.34v.03Z"/>
              <path class="cls-14" d="M157.38,253.35c-.84-.07-1.79.1-2.59,0-.95-.13-1.96.1-2.91,0-6.73-7.51-15.76-13.68-12.02-24.88,2.63,10.43,10.65,17.07,17.55,24.88h-.04Z"/>
              <path class="cls-43" d="M188.24,125.82c14.68-.34,2.94,3.52-9.42,19.58-11.42,14.86-17.55,36.52-22.1,20.52-5.04-17.71,12.23-39.67,31.53-40.14v.03Z"/>
            </g>
            <g>
              <path class="cls-15" d="M273.05,173.7c3.36,2.01,13.35,7.75,14.96,10.56-.32,8.05-4.24,1.64-11.39-1.88-9.81-4.8-29.88-9.89-3.57-8.72v.03Z"/>
              <g>
                <path class="cls-15" d="M273.05,173.7c-26.31-1.17-6.24,3.92,3.57,8.72,7.15,3.49,11.07,9.93,11.39,1.88l.32,24.88c-7.6-9.83-29.29-10.6-38.99-4.36-16.04,10.29-9.88,47.48-12.37,48.52h-44.21c2.91-32.46-13.7-69.55,25.36-85.84,21.93-9.15,36.01-5.2,54.93,6.24v-.03Z"/>
                <path class="cls-31" d="M240.23,168.74c.7,0,1.4-.17,1.61.3-6.52,5.13-13.38,10.7-18.22,17.44-5.32,7.44-13.24,32.83-18.85,15.56-5.78-17.87,16.32-33.5,35.42-33.3h.04Z"/>
              </g>
            </g>
            <g>
              <path class="cls-30" d="M249.65,222.86c1.72.77,1.93,1.44,1.96,3.12.07,2.92-4.41,17.27,3.26,27.06,4.03,5.16,24.91,16.67,32.82,17.1.67-.54.21-2.78.32-3.72l5.18-.64c.07.91-.35,3.25.32,3.72,8.86-4.02,18.36-7.28,24.38-15.26,5.22-6.87,12.58-29.88,11.7-38.9,10.16,9.86,8.51,30.41,1.96,41.98-6.06,10.73-27.15,26.59-38.67,32.66-3.47-21.23-2.24-14.25-3.89,1.88-27.53-15.73-51.5-35.21-39.34-69.08v.07Z"/>
              <path class="cls-43" d="M328.3,214.15c.67.47.81.77,1.3,1.24.88,8.99-6.48,31.99-11.7,38.9-6.03,7.95-15.52,11.2-24.38,15.26-.67-.5-.25-2.82-.32-3.72-1.26-13.88,1.47-28.4-.67-42.32.07-.03.18-.44,1.3-1.24,4.97-1.14,12.93-6.64,17.24-7.48,12.23-2.38,16.99,5.43,17.24-.64h0Z"/>
              <path class="cls-30" d="M292.57,223.5c2.14,13.92-.6,28.44.67,42.32l-5.18.64c1.19-10.73-1.19-32.06,0-42.92.07-.64.7-.7.67-1.24.74.6,1.68,1.07,2.28,1.88.7.1,1.02-.37,1.61-.64l-.03-.03Z"/>
              <path class="cls-47" d="M288.68,222.23c.04.54-.6.64-.67,1.24-5.08-.97-11.42-11.4-23.09-9.96-10.58,1.31-10.51,13.38-13.31,12.44-.04-1.64-.25-2.35-1.96-3.12,5.78-16.1,21.54-15.39,34.12-6.24,2.84,2.08,4.34,5.16,4.87,5.6l.04.03Z"/>
              <path class="cls-47" d="M328.3,214.15c-.21,6.04-4.97-1.74-17.24.64-4.27.84-12.26,6.34-17.24,7.48,4.41-3.25,17.45-20.46,34.44-8.08l.04-.03Z"/>
              <path class="cls-43" d="M288.01,223.5c-1.19,10.86,1.19,32.19,0,42.92-.11.97.35,3.22-.32,3.72-7.92-.47-28.8-11.97-32.82-17.1-7.67-9.79-3.19-24.14-3.26-27.06,2.8.94,2.73-11.13,13.31-12.44,11.67-1.48,18.01,8.99,23.09,9.96h0Z"/>
            </g>
          </g>
          <g>
            <path class="cls-19" d="M485.62,246.5c.18.27-.7,1.24,1.3,2.48-4.31.23-9.28.1-13.66,0,13.77-41.72,11.77-87.32,3.89-130.04,11.6,11.17,21.72,38.23,22.74,53.18,1.05,15.29-1.82,36.89-6.52,51.64-2.73,8.65-9.91,20.59-9.74,21.76.11.91,1.89.84,1.96.94l.04.03Z"/>
            <path class="cls-19" d="M473.26,96.58c40.78,45.6,50.3,96.64,22.1,151.5-1.23,1.64-4.87.74-8.44.94-2-1.24-1.12-2.21-1.3-2.48,2.52-.4,6.55-9.76,7.81-12.74,11.49-27.56,13.56-61.03,2.59-88.96-1.16-2.95-17.55-33.06-21.44-40.14-1.23-2.21-2.73-5-4.55-6.84,0,0-.74.13-.67-.64.98-.2,1.65-2.92,3.89-.64h0Z"/>
            <path class="cls-10" d="M485.62,246.5s-1.82,0-1.96-.94c-.14-1.17,7.01-13.14,9.74-21.76,4.66-14.75,7.57-36.35,6.52-51.64-1.05-14.96-11.14-42.05-22.74-53.18-.88-4.76-1.93-9.52-2.59-14.32,3.89,7.08,20.28,37.19,21.44,40.14,10.96,27.93,8.9,61.43-2.59,88.96-1.26,3.02-5.25,12.37-7.81,12.74h0Z"/>
          </g>
          <g>
            <path class="cls-15" d="M422.57,61.1c22.03,8.08,35.59,18.58,50.69,35.48-2.24-2.31-2.91.4-3.89.64-20.42,4.29-35.98-9.05-51.36-19.28.49-.77,2.21-3.59,2.59-4.36.42-.84,2.94-2.28,3.26-4.66,1.12-9.12-10.16-8.11-13-.94.04-5.87,5.99-6.81,11.7-6.84v-.03Z"/>
            <path class="cls-5" d="M430.03,69.18c8.44-1.68,10.4,10.46.67,8.72-5.22-.94-5.57-7.75-.67-8.72Z"/>
            <path class="cls-41" d="M442.39,80.38c7.22-1.58,7.15,11.94-1.3,9.32-4.69-1.44-1.12-8.79,1.3-9.32Z"/>
          </g>
          <g>
            <path class="cls-45" d="M173.63,55.5c2.35,5.67,15.38,14.92,16.88,18.04-3.92-3.92-8.44-3.45-9.11-3.72-1.61-.67-5.29-3.32-6.83-3.72-12.37-3.35-24.45,4.46-35.73,8.72-2.38,2.35,7.18,15.69,10.09,22.4,1.19,2.78,2.98,4.06,2.59,7.48-.63,6.04-4.06,5.37-6.52,8.08,4.2-7.65,3.68-18.01-7.81-14.32-2.94,1.74-2.73-1.84-1.96-3.72.21-.5,6.41-7.34-.98-8.08-1.51-.13-4.59,1.88-4.87,3.42-.56,3.15,2.49,4.43,2.59,4.66.91,2.05,2.42,3.72.32,5.6-3.47,3.12-15.48-2.72-16.25,9.32-6.97-1.68-12.61,3.59-10.09,10.56-4.87-4.66-9.53-4.02-13,1.88-.39-1.88,1.02-3.52-3.89-3.12.35-2.38.95-6.07-2.59-4.96,6.1-9.69,9.49-12.44,16.88-19.92,12.47,9.66,24.87-6.24,7.81-7.48,19.23-16.87,36.36-26.26,62.39-31.12h.07Z"/>
            <path class="cls-1" d="M89.14,118.94c-.84,5.8-12.82,21.46-10.4,35.48-4.27,16.23-10.3,32.76-7.81,49.76-1.02.67-2.07,2.48-3.26,3.12-6.73-29.44,2.7-67.64,18.85-93.32,3.57-1.07,2.94,2.58,2.59,4.96h.04Z"/>
            <path class="cls-26" d="M268.5,109.62c2.87,2.72,2.24,6.87,1.96,10.56-18.99-10.93-34.89-14.79-57.21-13.08-.74-3.69-6.55-.5-13-2.78l8.44-4.66c14.12-6.17,55.77,6.17,59.8,9.96h0Z"/>
            <path class="cls-45" d="M288.01,100.9l-7.81,8.08-1.61.64c-1.3-.37-2.14-1.81-2.28-1.88,6.52-8.42-4.66-14.35-13.66-11.84-6.45-1.64-9.25-4.16-9.74-4.36-.74-7.98,1.51-11.37,7.81-16.16,10.12,6.54,19.93,12.34,27.95,21.46.07.3-.84,1.27-.67,4.06Z"/>
            <path class="cls-27" d="M146.98,138.86c-7.6,9.66-12.65,21.9-15.59,33.6-1.96-.4-.98,2.28-2.28,2.48-.25.03-3.43-3.52-3.57-3.72-.35-.44,1.26-3.69-3.26-3.12,1.05-1.74,3.43-11.84,7.81-19.28.21-.37,4.83-3.66,3.89-7.48.28,0,4.03-1.84,5.18-2.48h7.81Z"/>
            <path class="cls-12" d="M276.31,107.78s.98,1.48,2.28,1.88l1.61-.64c.18,2.11,5.25,6.14,7.81,7.48,0,2.11.32,15.06-.32,15.56-5.64-4.09-11.14-8.32-17.24-11.84.28-3.69.95-7.85-1.96-10.56l.67-3.72c.77.4,5.5,1.41,7.15,1.88v-.03Z"/>
            <path class="cls-27" d="M69.63,213.54c-.63-2.08-1.47-4.12-1.96-6.24,1.19-.64,2.24-2.45,3.26-3.12,21.19-14.22,24.73,20.89-1.3,9.32v.03Z"/>
            <path class="cls-15" d="M260.72,75.42c-6.31,4.83-8.55,8.18-7.81,16.16-.21-.07-2.28-.44-4.55-1.24-13.35-13.55-18.32-16-.98-7.48l6.17-12.44c2.66,1.54,4.66,3.39,7.15,4.96l.04.03Z"/>
            <path class="cls-1" d="M130.05,227.83c.63,8.22.81,16.36.67,24.58-1.12,1.54-3.22.77-5.18.94l1.3-27.36c.88.74,1.96,1.84,3.26,1.88l-.04-.03Z"/>
            <path class="cls-15" d="M103.43,94.06c2.59-2.62,5.01-5.03,7.81-7.48,17.1,1.24,4.66,17.14-7.81,7.48Z"/>
            <path class="cls-20" d="M152.16,133.26c-1.33,1.37-4.27,4.43-5.18,5.6h-7.81c4.62-2.51,6.52-7.91,13-5.6Z"/>
            <path class="cls-1" d="M93.03,122.06c.35,1.61-.63,10.4,9.11,9.32-5.78,1.07-2.07,2.72-2.59,3.42-.32.44-1.19-.3-3.89,1.54-.21.13-2.91.17-3.26,3.72-3.36-.3-8.44,7.44-9.74,9.96-.84,1.61-1.93,1.88-1.96,4.36h-1.96c-2.42-14.02,9.56-29.68,10.4-35.48,4.9-.4,3.5,1.21,3.89,3.12v.03Z"/>
            <path class="cls-30" d="M130.05,148.82c-4.38,7.48-6.73,17.54-7.81,19.28-.11.2-1.02.8-3.26,3.12-1.26,1.31-2.1,3.42-4.55,3.12-2.84-3.96-4.27-8.32-4.55-8.72,3.05-7.48,7.43-14.32,11.7-21.16l8.44,4.36h.04Z"/>
            <path class="cls-27" d="M145.01,112.74c-.95,1.07-2.24,1.88-3.26,3.12-1.44.2-4.41,3.52-5.53,3.12-.77-.3-7.29-12.04-8.13-13.68-.35-.67-.74-1.11-1.3-1.54l.98-.94c2.98-.07,7.53-3.76,9.42-4.36,11.46-3.72,11.98,6.67,7.81,14.32v-.03Z"/>
            <path class="cls-30" d="M111.21,213.54c-.21-.17-1.54.34-1.96-.3-1.96-12.88-1.02-25.59,1.96-38.26,1.09.03,2.17,0,3.26,0,.25,0,1.54.87,4.55-.64-.67,5.97-9.56,23.14-7.81,39.2h0Z"/>
            <path class="cls-15" d="M109.91,165.62c.28.4,1.72,4.76,4.55,8.72v.64c-1.09,0-2.17.03-3.26,0-4.48-.2-14.29-.07-14.96-5.9-.49-4.33,7.32-12.07,13.66-3.42v-.03Z"/>
            <path class="cls-1" d="M135.27,94.7c-.81,1.88-.98,5.47,1.96,3.72-1.89.6-6.45,4.29-9.42,4.36l-.98.94c.56.47.95.91,1.3,1.54-.6,3.12-2.42,4.96-5.85,5.6-3.12.57-2.28-4.09-9.74,3.72-2.14,2.25-3.82,4.69-5.18,7.48-.7-.27-1.09-1.27-1.3-1.88-2.56-7.01,3.08-12.24,10.09-10.56.77-12.04,12.79-6.2,16.25-9.32,2.07-1.88.6-3.55-.32-5.6h3.26-.07Z"/>
            <path class="cls-15" d="M106.02,120.22c.21.6.6,1.61,1.3,1.88-.28.57,1.09,2.45-1.96,6.84-.6.84-1.54,2.21-2.59,2.48-.21.07-.46,0-.67,0-9.74,1.07-8.76-7.75-9.11-9.32,3.47-5.87,8.13-6.54,13-1.88h.04Z"/>
            <path class="cls-44" d="M80.66,154.42c.04-2.45,1.12-2.75,1.96-4.36,4.97-3.05,9.95.94,9.11,5.3-.84,4.33-11.17,7.24-11.03-.94h-.04Z"/>
            <path class="cls-29" d="M122.28,110.86c7.74,8.35-9,13.11-9.74,3.72,7.46-7.85,6.66-3.15,9.74-3.72Z"/>
            <path class="cls-20" d="M133.98,141.34c.91,3.79-3.68,7.08-3.89,7.48l-8.44-4.36c1.05-1.71,2.14-3.32,3.26-4.96,1.86-.03,8.65,1.91,9.11,1.88l-.04-.03Z"/>
            <path class="cls-29" d="M92.36,140.1c.35-3.55,3.05-3.59,3.26-3.72,1.72-1.41,4.9-.1,5.85,1.54,4.06,6.97-9.95,11.1-9.11,2.18h0Z"/>
            <g>
              <path class="cls-47" d="M141.76,115.86c-6.13,7.34-11.67,15.66-16.88,23.64-1.09,1.68-2.21,3.29-3.26,4.96-4.27,6.84-8.65,13.68-11.7,21.16-6.34-8.65-14.12-.91-13.66,3.42.67,5.87,10.47,5.73,14.96,5.9-2.98,12.68-3.92,25.38-1.96,38.26.39.64,1.75.13,1.96.3,2.59,2.31,11.14,8.82,15.59,12.44l-1.3,27.36c-10.12.84-24.07-.6-34.79,0-8.13-11.57-16.99-26.46-21.12-39.8,26.03,11.57,22.53-23.54,1.3-9.32-2.52-17,3.5-33.53,7.81-49.76h1.96c-.14,8.18,10.23,5.26,11.03.94.84-4.36-4.1-8.35-9.11-5.3,1.3-2.51,6.38-10.23,9.74-9.96-.84,8.92,13.17,4.8,9.11-2.18-.95-1.64-4.13-2.95-5.85-1.54,2.7-1.84,3.57-1.14,3.89-1.54.53-.7-3.15-2.35,2.59-3.42.21,0,.46.07.67,0,2.42,18.34,23.58-4.93,2.59-2.48,3.05-4.39,1.68-6.27,1.96-6.84,1.37-2.78,3.05-5.23,5.18-7.48.77,9.36,17.48,4.63,9.74-3.72,3.43-.64,5.25-2.48,5.85-5.6.84,1.64,7.36,13.41,8.13,13.68,1.12.4,4.1-2.92,5.53-3.12h.04Z"/>
              <path class="cls-27" d="M103.08,222.86c14.89-3.22.46,20.39-4.24,11.5-1.68-3.19-.14-10.56,4.24-11.5Z"/>
              <path class="cls-27" d="M102.77,131.42c1.05-.27,2-1.64,2.59-2.48,20.98-2.41-.21,20.82-2.59,2.48Z"/>
              <path class="cls-15" d="M81.64,184.3c5.78-1.37,7.01,7.81,2.59,8.72-4.97,1.04-6.73-7.75-2.59-8.72Z"/>
            </g>
            <g>
              <path class="cls-33" d="M181.41,69.82c-4.55,2.01-8.13,5.3-7.15,10.56-10.61,2.51-21.16,6.3-25.36,16.8-2.87-6.71-12.47-20.05-10.09-22.4,11.28-4.26,23.4-12.07,35.73-8.72,1.54.4,5.22,3.08,6.83,3.72l.04.03Z"/>
              <path class="cls-33" d="M174.26,80.38c.32,1.74,3.71,5.26,5.18,5.6,0,.5-.7,2.95-.67,3.12-3.64-.34-3.08.6-3.26.64-13.21,1.34-17.73-.37-22.1,14.32-.53-.1-.84.94-1.96.64.35-3.42-1.4-4.69-2.59-7.48,4.2-10.46,14.75-14.29,25.36-16.8l.04-.03Z"/>
            </g>
            <path class="cls-15" d="M190.52,73.54c1.89,3.92,1.93,7.85-1.96,10.56-2.38,1.68-6.27,2.51-9.11,1.88-1.47-.34-4.87-3.86-5.18-5.6-.98-5.26,2.59-8.58,7.15-10.56.67.27,5.15-.17,9.11,3.72Z"/>
            <path class="cls-30" d="M135.27,94.7h-3.26c-.11-.23-3.15-1.51-2.59-4.66.28-1.54,3.4-3.55,4.87-3.42,7.39.74,1.19,7.58.98,8.08h0Z"/>
            <path class="cls-35" d="M248.36,90.34c2.28.8,4.34,1.17,4.55,1.24.49.17,3.33,2.72,9.74,4.36-3.54,5.37,1.86,7.58,6.52,9.96l-.67,3.72c-4.03-3.79-45.68-16.13-59.8-9.96-8.3-.77-19.34,7.95-23.4,1.88.98-.6,1.89-.7,2.59-1.54-2-2.31-8.41-8.62-9.11-10.9-.04-.17.63-2.58.67-3.12,2.84.64,6.73-.2,9.11-1.88l30.86,2.48c11.32-6.47,22.77,1.58,28.94,3.72v.03Z"/>
            <g>
              <path class="cls-45" d="M253.58,70.42l-6.17,12.44c-17.34-8.52-12.37-6.07.98,7.48-6.17-2.15-17.59-10.23-28.94-3.72l-30.86-2.48c3.89-2.75,3.85-6.64,1.96-10.56-1.51-3.15-14.57-12.37-16.88-18.04.39-.07.91.07,1.3,0,13.07,19.52,20.42,11.47,3.89-1.24,29.04-3.82,50.16,2.01,74.76,16.16l-.04-.03Z"/>
              <path class="cls-15" d="M174.93,55.5c.21-.03,3.08-1.14,3.89-1.24,16.5,12.71,9.18,20.76-3.89,1.24Z"/>
              <path class="cls-15" d="M205.79,64.22c5.6-.47,7.6,4.69,8.44,4.96,16.85-1.58,15.69,10.06,11.03,11.2-6.03,1.48-2.28-9.29-11.7-7.48-.77.13-9.6,7.51-13.31-.3-1.79-3.79,1.4-8.05,5.53-8.38Z"/>
            </g>
            <path class="cls-35" d="M175.56,89.7c3.96,3.49,3.4,10.83-2.59,11.84-4.06.67-9.35-2.21-13.31-.64-.67.27-3.89,3.96-5.18,4.36-.35.1-.91-1.24-.98-1.24,4.38-14.69,8.9-12.94,22.1-14.32h-.04Z"/>
            <path class="cls-15" d="M178.82,89.1c.7,2.28,7.11,8.58,9.11,10.9-.74.87-1.61.97-2.59,1.54-3.05,1.81-10.65,3.92-12.37,0,5.99-1.01,6.55-8.35,2.59-11.84.18,0-.42-.97,3.26-.64v.03Z"/>
            <g>
              <path class="cls-26" d="M208.7,99.66l-8.44,4.66c6.45,2.31,12.26-.91,13,2.78-22.31,1.71-45.65,10.19-61.09,26.12-6.48-2.31-8.37,3.08-13,5.6-1.19.64-4.9,2.48-5.18,2.48-.46,0-7.25-1.91-9.11-1.88,5.25-7.98,10.75-16.3,16.88-23.64,1.02-1.24,2.28-2.01,3.26-3.12,2.42-2.75,5.85-2.05,6.52-8.08,1.09.3,1.44-.7,1.96-.64.07,0,.63,1.34.98,1.24,1.33-.4,4.55-4.09,5.18-4.36,3.99-1.58,9.25,1.31,13.31.64,1.72,3.92,9.32,1.81,12.37,0,4.06,6.07,15.1-2.62,23.4-1.88l-.04.07Z"/>
              <path class="cls-36" d="M149.88,116.46l9.42,4.66c-.53,1.24-8.27-3.79-9.42-4.66Z"/>
              <path class="cls-8" d="M162.88,114.62c3.08-1.31,14.78,3.69,0,.64l-.32-.3s.21-.27.32-.3v-.03Z"/>
            </g>
            <path class="cls-21" d="M125.54,171.22c.67,4.36-3.29,3.32-6.52,2.48v-2.48c2.24-2.31,3.12-2.92,3.26-3.12,4.52-.57,2.91,2.68,3.26,3.12h0Z"/>
            <path class="cls-46" d="M119.02,173.7v.64c-3.01,1.51-4.31.6-4.55.64v-.64c2.42.3,3.29-1.81,4.55-3.12v2.48Z"/>
            <path class="cls-15" d="M276.31,107.78c-1.65-.47-6.38-1.48-7.15-1.88-4.66-2.38-10.05-4.59-6.52-9.96,8.97-2.55,20.18,3.39,13.66,11.84h0Z"/>
          </g>
        </g>
      </g>
    </g>
  </g>
</svg>