<?xml version="1.0" encoding="UTF-8"?>
<svg id="Layer_1" data-name="Layer 1" xmlns="http://www.w3.org/2000/svg" viewBox="0 0 589.18 552.94">
  <defs>
    <style>
      .cls-1 {
        fill: #7a1544;
      }

      .cls-1, .cls-2, .cls-3, .cls-4, .cls-5, .cls-6, .cls-7, .cls-8, .cls-9, .cls-10, .cls-11, .cls-12, .cls-13, .cls-14, .cls-15, .cls-16, .cls-17, .cls-18, .cls-19, .cls-20, .cls-21 {
        stroke-width: 0px;
      }

      .cls-2 {
        fill: #2e131a;
      }

      .cls-3 {
        fill: #3e1221;
      }

      .cls-4 {
        fill: #1d1216;
      }

      .cls-5 {
        fill: #40bfb7;
      }

      .cls-6 {
        fill: #1f5355;
      }

      .cls-7 {
        fill: #0f6c66;
      }

      .cls-8 {
        fill: #10262d;
      }

      .cls-9 {
        fill: #d4528e;
      }

      .cls-10 {
        fill: #e0729b;
      }

      .cls-11 {
        fill: #c93f84;
      }

      .cls-12 {
        fill: #b26a99;
      }

      .cls-13 {
        fill: #b57995;
      }

      .cls-14 {
        fill: #ba2c69;
      }

      .cls-15 {
        fill: #a31f5d;
      }

      .cls-16 {
        fill: #991b48;
      }

      .cls-17 {
        fill: #ed9eb4;
      }

      .cls-18 {
        fill: #e689aa;
      }

      .cls-19 {
        fill: #e5e4e3;
      }

      .cls-20 {
        fill: #fbedf4;
      }

      .cls-21 {
        fill: #6a0a2d;
      }
    </style>
  </defs>
  <path class="cls-4" d="M237.28,12.97c2.69,1.41,3.95,1.54,4.17,1.62,21.63,12.8,43.26,41.57,52.77,64.53,7.25-17.33,17.72-35.51,31.19-48.99C350.68,4.78,373.4,1.96,407.71.73c15.03-.55,31.62-.77,46.56.81-1.56,5.16-9.21.55-13.29,3.29-20.15-1.02-48.21-.85-67.32,4.91-1.95.6-6.12.94-5.82,3.29-9.43.38-11.47,2.43-19.11,6.53-3.13,1.66-6.38,4.27-9.16,6.53-21.72,17.71-38.27,43.02-42.39,70.68,13.42,11.01,6.17-6.1,20.81-29.41,5.26-8.36,12.68-16.35,21.63-20.83,3.39.17,3.17,3.12,3.34,3.29-8.47-5.29-25.37,22.96-29.1,32.26-3.78,9.47-4.04,16.82-5,20.83-.04.21-2.65-1.28-.82,3.29-.39-.26-1.22-.6-1.65-.81-9.9-5.12-29.84-4.05-35.75,6.53-1.09-1.54-2.13-2.09-2.48-2.43,4.73-7.68,9.6-3.71,6.65-14.72.43-1.84.96-2.86.82-4.91-.35-6.1-.43-11.91.43-17.97,6.56,24.84-3.74,34.19,14.55,25.74-.39-14.55-5.34-23.56-12.47-35.55-4.86-8.19-8.77-12.63-14.98-19.59-5.82-6.57-11.29-12.59-18.29-17.97-11.25-8.66-25.5-17.8-39.92-17.16-20.81-3.71-87.87-8.41-98.51,14.72-4.82,1.62-17.03-6.57-37.01,17.97-2.04,2.52-2.3,4.69-2.48,4.91-.39.47-2-2.9-1.26,2.43-5.99.81-7.9,2.48-12.07,5.72-3.69,2.9-12.73,13.53-13.29,17.97-.65,5.08.43,5.89,2.48,9.82,3.39,6.4,15.2,15.62,22.46,17.16.74,7-2.26,2.35-4.17,4.1-3-.98-4.08-1.79-6.65-3.29-4.3-2.48-7.9-5.33-11.21-9.01-11.81,3.24-19.2,11.57-22.85,22.88-4.6,14.21-2.22,21.55,11.64,28.98-.61.51-4.04,2.65-4.17,2.86-4.21-2.86-7.64-4.01-10.82.81-10.03,15.32,22.8,19.89,23.28,21.64.04.21-2.69,3.63-2.91,3.67-.65.17-9.38-3.33-11.21-4.1-8.12-3.29-13.81-11.82-19.11,2.43-4.39,11.78-1.3,17.92,3.34,27.78,2,4.31,5.17,6.1,5,11.44-.13-.13-1.69,0-3.34-1.62-14.98-15.19-17.29-36.36,0-50.23.56-1.88-3.17-6.53,1.65-13.49,1.43-2.05,3.21-3.58,5-5.29-14.29-18.27,1.78-43.83,21.63-50.66-13.9-15.19,6.08-36.96,21.63-41.65,4.86-14.47,26.06-31.71,42-27.36C114.93,4.06,130.56,1.79,147.24.77c29.19-1.79,64.15-1.45,90.21,12.25l-.17-.04Z"/>
  <path class="cls-10" d="M318.76,149.37c3.78,6.4,1.17,13.27-1.65,19.59-8.6,6.06-14.12,10.2-25.37,13.06-45.65-15.15-23.93-52.79.82-30.22,6.47-5.38,20.76-11.65,26.19-2.43Z"/>
  <path class="cls-9" d="M239.8,488.41c-12.99-2.01-31.84-12.72-36.57-25.31-.78-2.09-2.3-3.37-1.65-6.96,12.29-4.91,10.51.68,17.89,2.86,28.1,8.28,34.01-4.74,46.13,4.48-13.64,15.24,4.34,23.73-10.38,25.74-2.39.34-12.55-.38-15.38-.81h-.04Z"/>
  <path class="cls-10" d="M342.87,262.94c-16.46-6.19-20.76-30.47-9.56-35.12,10.55-4.4,13.59,7.72,19.55,0,4.52-2.6,10.64-1.96,14.12,2.05,11.55,13.27-9.47,38.58-24.11,33.08Z"/>
  <path class="cls-9" d="M342.87,49.72c.87.94,3.08,5.8,9.16,9.39-30.79,11.74-8.08,36.02-8.3,38.41-.61,6.53-12.51-.13-16.2.43-12.6,1.84-4.69,18.69-18.72,4.91.96-4.01,1.22-11.35,5-20.83,3.74-9.3,20.63-37.56,29.1-32.26l-.04-.04Z"/>
  <path class="cls-9" d="M402.72,365.88c-4.3,11.31-22.11,21.68-35.75,6.53-9.43-14.72-2.35-36.06,16.2-22.06,10.95-11.74,26.02-1.49,19.55,15.53Z"/>
  <path class="cls-9" d="M344.52,418.16c-4.52-.13-11.81-4.69-14.12-8.15-9.43-14.13.87-33.33,17.03-19.59,4.86-7.47,17.11-6.87,18.72,2.86,1.74,10.63-10.47,25.22-21.63,24.92v-.04Z"/>
  <path class="cls-10" d="M356.16,214.76c-16.9,13.57-36.57-15.36-25.76-29.41,1.91,4.1,8.43,2.26,12.07,4.91,3.39.34,2.74-2.35,2.91-2.43,22.33-16.86,25.28,15.32,10.82,26.97l-.04-.04Z"/>
  <path class="cls-9" d="M359.5,357.69c-.13,10.63-8.51,20.27-14.55,21.25-20.98,3.41-28.58-36.96-7.47-32.69,1.17.26,3.13,2.56,4.56,3.29.09.04.74,1.71,1.26,1.62,1.35-.17,16.46-15.79,16.2,6.53h0Z"/>
  <path class="cls-9" d="M336.22,301.35c-9.08-3.84-17.29-21.13-6.65-31.03,8.34-6.4,10.95,3.03,12.07,3.29.91.17,15.29-4.99,17.89-5.29-.43,12.21-4.39,41.06-23.28,33.08l-.04-.04Z"/>
  <path class="cls-9" d="M341.21,340.53c-18.24-3.2-23.71-38.71-2.48-31.03.26.09,2.74,3.63,3.74,4.1,25.89-22.83,18.72,30.43-1.26,26.97v-.04Z"/>
  <path class="cls-9" d="M339.56,46.48c-8.95,4.48-16.37,12.46-21.63,20.83-14.64,23.35-7.38,40.42-20.81,29.41,4.13-27.61,20.67-52.96,42.39-70.68-1.22,7.34-1.26,13.1,0,20.44h.04Z"/>
  <g>
    <path class="cls-14" d="M320.41,471.25c5.04,15.11-11.08,30.13-25.76,31.03-2.39.13-8.43-.85-10.82-1.62,3.13-5.46-4.21-10.41-.82-15.92,3.3-5.42,28.62-7.34,16.63-15.11,7.17-1.19,16.77-10.37,20.81,1.62h-.04Z"/>
    <path class="cls-9" d="M299.65,469.63c11.99,7.77-13.29,9.69-16.63,15.11-3.39,5.55,3.95,10.46.82,15.92-18.63-6.02-26.06-31.07-12.07-35.94,9.6-3.33,11.68,7.6,27.84,4.91h.04Z"/>
  </g>
  <path class="cls-1" d="M466.74,368.31c6.6-10.93,4.65-15.36-.43-26.12,7.86,7.9,16.9,20.78,5.82.81,9.99.38,19.89-.21,29.49-3.29,4.86,3.93-7.25,18.01-11.21,21.25-16.85,13.57-22.37,7.38-23.71,7.34h.04Z"/>
  <g>
    <path class="cls-14" d="M528.29,299.69c-8.43,21.17-35.92,29.83-57.38,29.41.87-30.98-21.41-16.6,16.2-20.44,8.73-.9,22.54-3.97,26.58-12.25-5.65,13.61,6.78-.77,14.55,3.29h.04Z"/>
    <path class="cls-1" d="M530.76,302.97c-1.17,5.29,1.17,16.09-18.72,25.31-1.78.81-13.51,4.57-15.38,4.91-4.04.77-26.19,2.52-27.45-.43-.22-.94,1.65-3.46,1.65-3.67,21.46.43,48.95-8.24,57.38-29.41,1.39.73,1.13,2.65,2.48,3.29h.04Z"/>
  </g>
  <g>
    <path class="cls-9" d="M482.55,21.98c-6.91,2.18-1.52,8.58,18.29,6.53,1.87,3.24,11.16,11.18,14.98,13.87-10.64.17-22.33,1.19-30.36,9.01-.22-46.78-70.62-48.57-61.5,2.43-9.08-2.43-19.63-3.67-28.28.81-2.17-1.54,15.25-32.69-17.03-42.46,1.09-3.63,6.95,0,8.73,0,6.3,0,20.67-1.75,38.22-1.62,9.03.09,29.45,6.32,37.01-3.29,9.99,2.52,14.81,5.68,19.94,14.72h0Z"/>
    <path class="cls-10" d="M440.98,4.82c7.43.38,14.33.6,21.63,2.43-7.51,9.6-27.97,3.33-37.01,3.29-17.55-.13-31.92,1.62-38.22,1.62-1.78,0-7.64-3.63-8.73,0-.7-.21-.96-.64-1.65-.81-1-.26-2.65.6-3.34-1.62,19.11-5.76,47.17-5.93,67.32-4.91h0Z"/>
  </g>
  <g>
    <path class="cls-9" d="M312.11,425.5c6.25,19.03-9.16,28.68-27.45,24.92l12.47,4.91-9.16,6.96c-15.33-2.56-37.44-20.57-22.46-35.94,15.9-7.47,22.41,5.8,25.37,5.72,6.3-5.42,13.16-7.77,21.2-6.53l.04-.04Z"/>
    <path class="cls-14" d="M322.93,432.84c4.65,16.13-22.33,33.5-34.92,29.41l9.16-6.96-12.47-4.91c18.29,3.76,33.66-5.89,27.45-24.92,7.3,1.11,6.12,3.16,10.82,7.34l-.04.04Z"/>
  </g>
  <g>
    <path class="cls-9" d="M253.09,425.5c1.91,27.23-22.37,23.99-41.57,21.25-.13,0-.39-1.84-2.08-1.62-.91,4.31-3.26,4.57-7.08,4.91-12.38,1.07-29.84-13.4-35.75-23.69-1.87-3.24-4.34-6.15-4.17-10.2,14.55-3.63,14.59,2.43,22.85,5.29,18.5,6.44,27.15-2.52,48.21,3.29,1.56.43,6.25,4.1,6.65,4.1.82-.04,5.6-8.19,12.9-3.29l.04-.04Z"/>
    <path class="cls-14" d="M254.74,426.31c1.78,3.33,1.87,6.19,1.65,9.82-1.13,22.15-32.31,25.91-44.91,10.63,19.2,2.77,43.48,6.02,41.57-21.25.43.3,1.13.68,1.65.81h.04Z"/>
  </g>
  <g>
    <path class="cls-14" d="M412.71,370.79c8.56-3.33,14.42-9.94,12.47-19.59,10.12.47,34.53-14.55,38.22,2.05,5.26,23.47-37.05,32.9-50.73,17.58l.04-.04Z"/>
    <path class="cls-9" d="M425.17,351.16c1.95,9.69-3.91,16.3-12.47,19.59-.91.34-1.35,1.11-2.48.81-1.39-1.41-2.3-.64-2.48-.81-1.43-3.2,4.17-22.36,7.08-22.88,2.74,1.07,7.82,3.16,10.38,3.29h-.04Z"/>
  </g>
  <g>
    <path class="cls-1" d="M426.82,421.41c-2.61,5.8-10.77,12.38-15.81,16.35-7.21-5.55-16.33-4.95-18.29-5.72-2.52-.98-2.82-1.32-2.48-4.1,12.9-.51,31.4-15.02,36.57-6.53h0Z"/>
    <path class="cls-15" d="M411.06,437.75c-8.04,6.32-15.72,11.18-25.76,13.87-16.68,3.88-11.25-4.44-7.47-6.53,2.39-1.32,21.98-2.48,14.98-13.06,1.95.77,11.08.17,18.29,5.72h-.04Z"/>
    <path class="cls-1" d="M390.25,427.94c-.35,2.77,0,3.12,2.48,4.1,6.99,10.58-12.6,11.74-14.98,13.06-.04-8.32,1.22-14.6-5.82-20.83.35-1.07,10.16,4.01,18.29,3.67h.04Z"/>
  </g>
  <g>
    <path class="cls-1" d="M554.04,258.84c.22,1.45,1.22,3.33,1.65,11.44-6.25,14.6-23.58,19.63-38.22,20.02-.65-2.77.82-3.5.82-3.67,13.9-5.8,30.32-13.91,32.4-30.22,1.3.21,1.95,2.18,3.34,2.43h0Z"/>
    <path class="cls-14" d="M550.7,256.41c-2.13,16.3-18.55,24.41-32.4,30.22-.17-4.14.09-9.01-.82-13.06,8.34-3.24,27.8-8.19,26.58-16.35,2.22-.43,4-1.24,6.65-.81h0Z"/>
    <path class="cls-15" d="M544.05,257.22c1.22,8.15-18.24,13.1-26.58,16.35-.56-2.43-5.52-7.98-3.74-9.01,11.42,1.15,23.63-6.1,30.36-7.34h-.04Z"/>
  </g>
  <g>
    <path class="cls-1" d="M465.09,375.66c3.08,3.07,2.26,3.88-5,12.68-14.9,18.01-29.19,21.38-30.75,22.45l-.82-2.43c8.3-5.29,13.94-14.85,19.11-22.88,6.3-2.13,11.68-6.7,17.46-9.82h0Z"/>
    <path class="cls-14" d="M447.63,385.47c-5.17,8.02-10.82,17.58-19.11,22.88-17.29,11.01-6.12-1.84-5.82-9.01,4.91-.73,15.38-6.96,17.46-11.44.39-.04,6.3-2.05,7.47-2.43Z"/>
    <path class="cls-1" d="M440.16,387.95c-2.08,4.48-12.55,10.71-17.46,11.44.17-4.48-2.3-10.41-3.74-14.72,4.73,2.09,16.63,3.88,21.2,3.29Z"/>
  </g>
  <path class="cls-17" d="M499.18,21.98c-.17,1.75.87,5.12,1.65,6.53-19.81,2.05-25.19-4.35-18.29-6.53,2.26-.73,13.42-.64,16.63,0Z"/>
  <path class="cls-1" d="M325.4,182.07c-6.08-3.58-4.95-5.97-5-7.34,4.26-8.28,15.07,3.54,5,7.34Z"/>
  <g>
    <path class="cls-10" d="M390.25,24.41c-5.73,28.55-31.19,38.5-49.04,11.44-.22-3.97.82-3.12.82-3.29,1.09.13,2.87-.26,3.74-.81,10.12-6.27,6.95-14.08,39.48-13.87,3.08,2.52,3.3,3.03,5,6.53h0Z"/>
    <path class="cls-14" d="M341.21,35.85c17.89,27.06,43.3,17.11,49.04-11.44,5.43,11.1,3.13,21.55-7.08,29.41-16.98,13.06-41.13-1.15-42-17.97h.04Z"/>
    <path class="cls-17" d="M367.8,12.97c3.56-.17,5.65.09,9.16.81,5.04,1.02,4.56,1.02,8.3,4.1-32.53-.21-29.36,7.64-39.48,13.87-.87.55-2.65.94-3.74.81,1-7.38,1.26-7.47,6.65-13.06,7.64-4.1,9.69-6.15,19.11-6.53h0Z"/>
    <path class="cls-15" d="M373.62,9.69c.65,2.26,2.35,1.37,3.34,1.62v2.43c-3.47-.73-5.56-.98-9.16-.81-.3-2.3,3.87-2.69,5.82-3.29v.04Z"/>
  </g>
  <path class="cls-9" d="M61.02,102c18.2,5.97,17.46-2.48,14.12,5.72-8.64,21.21,12.68,35.55,22.85,34.31,8.38-1.02,24.41-15.45,22.02-29.41-.17-3.16,1.82-.43,4.17-.81-2.17,17.5,10.6,24.03,9.99,25.74-4.73,1.71-7.51,4.27-9.99,8.58-7.73,13.49.09,22.75,9.99,32.26-21.76,5.93-12.42,21.38-14.98,27.36-.82,1.92-2.91,3.46-5,4.1-4.08,1.24-9.08.26-12.47-2.43-.3-.26-3.87-5.85-4.17-6.53-.61-1.41-1.13-2.69-1.65-4.1-.78-2.05-2.69-27.66-29.49-26.12-18.46,1.02-25.89,13.79-24.54,30.22-11.34-.9-24.67-1.11-30.75-12.25,13.38-.04,8.6-14.34,14.98-22.06,1.82.73,10.6,4.23,11.21,4.1.22-.04,2.95-3.46,2.91-3.67-.48-1.75-33.31-6.36-23.28-21.64,8.99,16.77,7.21,6.36,10.82-.81.13-.21,3.52-2.35,4.17-2.86-13.86-7.47-16.24-14.77-11.64-28.98,6.34,37.98,5.13,3.84,34.1-13.87,2.56,1.45,3.65,2.3,6.65,3.29v-.13Z"/>
  <path class="cls-10" d="M232.28,228.63c1.3.34,2.87,1.41,3.74,2.43,11.86-10.8,24.06-2.13,22.02,12.68-1.91,13.87-18.81,19.85-19.94,20.83-28.32-3.54-30.92-39.78-11.21-38.41.61,0,4.26,2.18,5.39,2.43v.04Z"/>
  <path class="cls-9" d="M218.99,360.97c-1.39,10.07-13.03,19.55-23.28,18.78-26.02-1.92-25.8-51.51,2.91-30.22,11.55-9.05,22.41-3.37,20.37,11.44Z"/>
  <path class="cls-10" d="M237.28,186.16s-.26,1.62.43,1.62c21.41-18.35,33.7,17.54,0,32.69-.74-.68-1.95-1.32-2.91-1.62-13.29-4.61-24.97-25.86-14.55-34.31,6.99-5.68,11.99-.94,17.03,1.62Z"/>
  <path class="cls-9" d="M241.45,387.09c2.39-.3,14.25-5.59,16.63,4.48,4.34,18.35-15.16,25.18-18.29,27.36-32.58-6.62-25.58-41.31-6.25-33.5,2.82,1.15,4.17,8.28,7.9,1.62v.04Z"/>
  <path class="cls-9" d="M246.44,347.91c29.93-10.2,6.04,53.05-19.94,23.69-8.38-15.75-3.17-36.53,16.2-20.44,1.26-.94,2.22-2.73,3.74-3.29v.04Z"/>
  <path class="cls-9" d="M244.79,302.97c-16.46,1.45-18.85-24.24-19.94-27.78,1,.04,1.3-1.15,1.65-1.62,7.3-9.43,11.25.85,19.11-2.43.78-.34,9.08-7.34,14.12,2.05,5,9.26-4.6,28.94-14.98,29.83l.04-.04Z"/>
  <path class="cls-9" d="M258.91,311.13c3.56,9.22-1.65,26.12-12.47,28.59-25.1,5.72-28.97-48.35-2.08-26.97,4.6-4.95,9.38-6.87,14.55-1.62Z"/>
  <path class="cls-11" d="M11.16,188.6c6.08,11.14,19.46,11.35,30.75,12.25.26,3.16,5.91,9.47-12.07,7.34-7.82-.9-14.12-6.27-19.55-11.44-4.6-9.86-7.69-16-3.34-27.78,3.3.13-2.39,7.6,4.17,19.59l.04.04Z"/>
  <g>
    <path class="cls-10" d="M165.79,147.75c3.17,6.96,1.69,10.97-1.65,17.16-14.29,26.46-39.57,4.78-39.09-10.63,2.56-1.45,4.6,2.01,7.08.81,1.56-.77,2.78-14.43,13.29-2.43,14.72-7.6,15.59,5.55,17.89-1.24.52-1.49-3.39-6.4,2.48-3.67Z"/>
    <path class="cls-17" d="M165.79,147.75c-5.86-2.73-2,2.18-2.48,3.67-2.3,6.74-3.17-6.36-17.89,1.24-10.51-11.99-11.73,1.71-13.29,2.43-2.48,1.19-4.52-2.26-7.08-.81,0-1.28,1.04-4.35,1.65-5.72,6.73-15.07,19.89-2.52,21.2-2.43,3.43.13,12.55-10.03,17.89,1.62Z"/>
  </g>
  <g>
    <path class="cls-10" d="M92.64,195.13c-2.17,15.96-39.57,25.31-44.91-1.62,5.99.9,5.99-9.35,11.21-10.63,5.65-1.37,16.29,12.55,16.2-7.34,7.47,2.13,18.63,10.93,17.46,19.59h.04Z"/>
    <path class="cls-14" d="M47.73,193.5c5.3,26.93,42.7,17.58,44.91,1.62l3.34,1.62c.56,1.41,1.04,2.69,1.65,4.1-14.51,34.36-47.95,15.83-51.56-1.24-.91-4.23.82-5.8.82-6.15h.82v.04Z"/>
    <path class="cls-17" d="M75.18,175.54c.04,19.89-10.55,5.97-16.2,7.34-5.21,1.28-5.21,11.52-11.21,10.63h-.82c.74-14.94,13.42-22.24,28.28-17.97h-.04Z"/>
  </g>
  <g>
    <path class="cls-10" d="M213.17,146.13c10.68,15.75-20.28,48.18-36.57,20.44-3.39-5.76-4.52-12.55-1.65-18.78,8.95,10.58,1.87-2.77,22.85,4.91,4.82-4.91,9.99-3.5,15.38-6.53v-.04Z"/>
    <path class="cls-17" d="M201.53,142.85c5.08-1.92,8.6-1.19,11.64,3.29-5.39,3.03-10.6,1.62-15.38,6.53-20.98-7.68-13.9,5.68-22.85-4.91,1.43-3.16,4.34-6.02,7.9-6.53,12.07-1.71,9.25,9.94,18.72,1.62h-.04Z"/>
  </g>
  <path class="cls-1" d="M114.23,209.85c-.65,6.49,3.78,9.22-.82,12.25-5.3,3.5-16.29,0-22.46-1.24,5.65-2.73,7.56-8.71,10.82-13.49,3.39,2.69,8.38,3.71,12.47,2.43v.04Z"/>
  <path class="cls-1" d="M173.26,167.39c.35.43,3.13,5.8,6.65,8.58-15.03,6.23-6.08,11.82-19.94,0,3.04-2.13,4.6-6.06,6.65-8.58,2.04-2.52,2.39-4.52,3.74-4.1.61,2.3,2.04,3.12,2.91,4.1h0Z"/>
  <g>
    <path class="cls-9" d="M211.52,398.53v.81c-6.21,10.54-20.2,16.86-30.36,7.34-5.91-5.51-3.91-13.02-7.9-10.63,0-.21.78-3.88.82-4.1,6.43,2.22,13.51.17,20.37.81.3-.09.43-2.13,2.91-3.29,2.22-1.02,3-1.96,4.17-2.43,11.34-4.95,14.12.98,9.99,11.44v.04Z"/>
    <path class="cls-14" d="M211.52,399.34c.17,2.05,7.9,9.05-.43,15.53-11.81,9.18-38.79.26-37.83-18.78,4-2.39,2,5.12,7.9,10.63,10.16,9.47,24.15,3.2,30.36-7.34v-.04Z"/>
    <path class="cls-10" d="M197.41,389.57c-2.48,1.15-2.61,3.2-2.91,3.29-6.86-.64-13.94,1.41-20.37-.81,3.6-10.63,16.59-9.52,23.28-2.43v-.04Z"/>
  </g>
  <path class="cls-21" d="M120.92,209.04c-3.17,6.32-3.04,6.44,1.65,12.25-.52.09-7.56,4.35-9.16.81,4.6-3.03.17-5.76.82-12.25,2.08-.64,4.17-2.13,5-4.1,1.48.3.17,1.58,1.65,3.29h.04Z"/>
  <g>
    <path class="cls-2" d="M226.46,107.72c-1.43,2.13-1.52,3.29-1.65,5.72-1.13,21.25,19.81,37.04,34.92,12.25.04,2.77,1.78,5.51,1.65,6.53-6.82,4.01-9.6,6.4-3.34,9.82-.26,1.07.17,2.82,0,4.1-6.17-8.79-17.68.94-18.72.81-.43-.04-4.04-4.44-6.65-4.91-20.63-3.63-12.34,37.51,8.73,35.94,3.17,5.97.7,4.05-4.17,8.15-5.04-2.56-10.08-7.3-17.03-1.62-10.42,8.45,1.26,29.7,14.55,34.31-3.82,3.67-4.26,4.18-2.48,9.82-1.17-.3-4.82-2.39-5.39-2.43-19.72-1.41-17.11,34.87,11.21,38.41-6.17,5.46,2.82,6.15,7.47,6.53-7.86,3.29-11.81-7-19.11,2.43-.7-3.71-11.73-18.39-13.73-17.97l-9.56,10.2c.65,1.19,15.55-9.73,21.63,9.39,1.13,3.54,3.52,29.19,19.94,27.78-5.34,13.87,9.86-2.94,14.12,8.15-5.17-5.25-9.95-3.29-14.55,1.62-26.89-21.38-23.02,32.69,2.08,26.97v8.15c-1.52.51-2.52,2.3-3.74,3.29-19.37-16.09-24.58,4.69-16.2,20.44-5.99-6.79-3.65-11.27-7.47-10.63,2.04-14.81-8.82-20.49-20.37-11.44-28.71-21.3-28.93,28.34-2.91,30.22-2.22,7.77,1.3,4.61,5.82,7.34-1.17.51-1.91,1.41-4.17,2.43-6.69-7.08-19.68-8.15-23.28,2.43-.09.21-.82,3.88-.82,4.1-.96,19.03,26.02,28,37.83,18.78,8.3-6.44.61-13.44.43-15.53v-.81c6.6,2.77,2.43-11.35,12.07-14.72,9.69-3.37,13.86,4.74,14.98,4.91.17,0,.52-1.32,2.91-1.62-3.74,6.66-5.08-.47-7.9-1.62-19.37-7.81-26.36,26.89,6.25,33.5-.26.17,1.13.6-5,3.67,5.6,10.63,13.86-7.77,19.94,3.67-.56-.13-1.22-.51-1.65-.81-7.3-4.91-12.07,3.2-12.9,3.29-.39,0-5.08-3.67-6.65-4.1-21.07-5.8-29.71,3.16-48.21-3.29-8.25-2.86-8.34-8.92-22.85-5.29-.17,4.05,2.3,6.96,4.17,10.2l-6.65-1.62c-1.82-3.07-2.04-8.41-3.74-9.82-21.2-6.02-34.96-25.14-44.91-43.28-6.43-1.41-14.59-4.69-19.55-9.01-2.61-2.26-8.08-9.52-9.16-12.68-5.17-15.41,3.78-12.25-5.82-17.58-3.56-1.96-10.73-5.51-13.29-8.15-4.82-4.99-7.12-11.1-6.65-17.97.43-6.23,4.13-9.99,3.34-11.01-20.67-3.58-39.39-19.89-25.76-40.84-.17-.85-8.51-4.78-9.99-6.15-11.47-10.41-15.2-22.62-5-35.55.65-2.48-1.52-1.88-2.48-2.86-.56-.55-1.13-1.11-1.65-1.62.17-5.33-3-7.13-5-11.44,5.43,5.16,11.73,10.5,19.55,11.44,17.94,2.09,12.34-4.18,12.07-7.34-1.35-16.43,6.08-29.19,24.54-30.22,26.84-1.49,28.71,24.11,29.49,26.12l-3.34-1.62c1.17-8.66-9.99-17.46-17.46-19.59-14.85-4.23-27.54,3.03-28.28,17.97,0,.3-1.74,1.92-.82,6.15,3.6,17.03,37.01,35.59,51.56,1.24.3.68,3.87,6.27,4.17,6.53-3.21,4.78-5.17,10.71-10.82,13.49,6.17,1.24,17.16,4.74,22.46,1.24,1.61,3.54,8.64-.77,9.16-.81,3.04-.38,6.56,2.52,9.16-.43.13-.77-9.56-10.46-10.82-11.86-1.48-1.66-.22-2.94-1.65-3.29,2.52-5.97-6.82-21.42,14.98-27.36-9.86-9.52-17.72-18.78-9.99-32.26l2.48,2.43c-.61,1.37-1.61,4.44-1.65,5.72-.52,15.41,24.8,37.04,39.09,10.63l2.48,2.43c-2.04,2.52-3.6,6.44-6.65,8.58,13.86,11.82,4.91,6.23,19.94,0-3.52-2.77-6.3-8.15-6.65-8.58-.3-2.48,1.65-1.88,3.34-.81,16.29,27.74,47.26-4.65,36.57-20.44-3.04-4.48-6.56-5.16-11.64-3.29,2.08-1.84,3.69-2.35,2.48-4.91,5.91-1.15,13.64-8.41,15.81-13.87,8.3,3.58-.56-6.96,6.65-16.35l-.17.09Z"/>
    <g>
      <path class="cls-19" d="M56.9,306.22c-.48,6.87,1.87,12.97,6.65,17.97.39,6.83-13.46-6.32-6.65-8.58-.65-2.73-3.6-9.39,0-9.39Z"/>
      <g>
        <path class="cls-10" d="M178.69,182.07c4.43-.73,10.47,2.22,13.29,5.72,17.11-15.83,26.71,10.2,9.16,24.5-23.54,19.12-40.05-27.36-22.46-30.22Z"/>
        <path class="cls-9" d="M123.83,371.6c3.65.13,17.63,22.62,48.21,8.15,1.87.98-7.25,15.79-.43,29.83-16.24,5.25-33.4-8.15-43.22-19.59-7.47-8.71-14.85-18.74-4.56-18.39Z"/>
        <path class="cls-9" d="M86.39,334.81c13.29,2.82,27.49.43,39.92,6.53.7,1.15-11.6,6.62-4.56,24.11-17.46,6.36-40.7-12.93-35.31-30.64h-.04Z"/>
        <g>
          <path class="cls-9" d="M110.1,317.66c-2.04,8.32.52,13.19-1.26,13.87-16.72.68-52.99-4.99-46.95-28.59,13.2,11.27,32.1,10.63,48.21,14.72h0Z"/>
          <path class="cls-9" d="M110.1,317.66c-16.11-4.1-35.01-3.46-48.21-14.72,2.04-8.07,11.29-9.6,14.55-9.01,2.13.38,12.25,14.94,39.09,12.25,1.3.68-4,5.63-5.39,11.44l-.04.04Z"/>
        </g>
        <g>
          <path class="cls-9" d="M133.38,280.91c-26.93,26.8-49.21,5.04-51.95,4.1-1.22-.43-1.43.77-1.26,1.62-6.65-12.25-4.86-24.28,11.21-26.12,19.11-2.22,25.45,9.77,42.39,8.15,1.69.68-.04,9.99-.43,12.25h.04Z"/>
          <path class="cls-14" d="M133.38,280.91c-4.56,28.59-43.78,23.13-53.21,5.72-.22-.9,0-2.05,1.26-1.62,2.74.94,25.02,22.7,51.95-4.1Z"/>
        </g>
        <path class="cls-15" d="M161.66,241.69c.35,7.9,5.65,14.47,10.82,20.02l-26.19.43c7.17-6.32,10.51-10.46,9.56-20.44h5.82Z"/>
        <path class="cls-21" d="M212.78,202.51c1.17,2.39,11.12,13.4,11.21,14.3.78,7.68-20.54,6.02-21.63.81-.3-1.49,8.47-10.16,10.38-15.11h.04Z"/>
        <g>
          <path class="cls-9" d="M183.25,310.31c4.56,6.36,3.34,11.1.82,17.97-12.07,7.72-27.32,8.24-40.74,4.91-12.29,5.16-29.62,4.05-28.28-13.06,6.69,1.02,16.24-5.97,22.02-6.53,14.25-1.41,16.59,10.58,46.13-3.29h.04Z"/>
          <path class="cls-9" d="M183.25,310.31c-29.54,13.87-31.88,1.88-46.13,3.29-5.82.55-15.33,7.55-22.02,6.53,2.13-26.84,41.83-8.75,44.48-9.01,4.86-.47,15.29-12.46,23.71-.81h-.04Z"/>
          <path class="cls-14" d="M184.07,328.28c-6.52,17.75-30.32,18.48-40.74,4.91,13.42,3.33,28.67,2.82,40.74-4.91Z"/>
        </g>
        <g>
          <path class="cls-9" d="M169.96,356.88c-9.6,21-28.58,15.49-44.91,4.91-1.52-4.01-1.52-4.74-.82-9.01,1.56-.3,3.82,2.43,4.56,2.43,1.26.04,24.15-5.46,21.2-9.01,7.99,2.01,15.42-4.05,19.94,10.63l.04.04Z"/>
          <path class="cls-14" d="M125.04,361.78c16.33,10.58,35.31,16.09,44.91-4.91,8.64,27.87-36.7,26.76-44.91,4.91Z"/>
          <path class="cls-10" d="M150.02,346.25c2.95,3.5-19.94,9.05-21.2,9.01-.78,0-3.04-2.77-4.56-2.43,3.3-20.83,24.15-6.96,25.76-6.53v-.04Z"/>
        </g>
        <g>
          <path class="cls-9" d="M73.53,285.82c-23.45-.3-33.53-3.2-36.57-27.78.87-1.24,1.74-2.3,2.91-3.29,11.34,2.94,22.19-4.18,21.2,2.86-.56,3.88-11.64,2.3,14.55,5.29.87.81-6.78,8.75-2.08,22.88v.04Z"/>
          <path class="cls-9" d="M73.53,285.82l.82,1.24c-15.29,10.54-51.21-10.11-37.4-28.98,3.04,24.58,13.12,27.48,36.57,27.78v-.04Z"/>
        </g>
        <g>
          <path class="cls-10" d="M144.2,229.44c10.6,21.55-31.75,44.6-39.09,8.15.35-3.71,1.26-4.52,3.34-7.34,16.9-3.16,33.44,8.24,32.4-2.43.17.09.82-.3,3.34,1.62Z"/>
          <path class="cls-14" d="M105.11,237.63c7.34,36.45,49.65,13.36,39.09-8.15,20.89,16.13-9.69,46.73-32.01,26.97-5.65-4.99-7.77-11.44-7.08-18.78v-.04Z"/>
          <path class="cls-17" d="M140.85,227.82c1.04,10.67-15.51-.73-32.4,2.43,7.47-10.16,22.46-7.43,32.4-2.43Z"/>
        </g>
        <g>
          <path class="cls-9" d="M85.17,227.82c5.99-1.75,12.94-3.29,18.29.43-3.04,7.08-4.08,16.3-9.16,22.45-10.99-.47-21.54,1.96-32.4-.81-1.3-1.58-.52-2.73-2.08-2.43-17.85,8.41-47.99-4.65-39.48-26.97,10.12,21.55,35.62,9.9,37.83,9.82,5.26-.26,13.12,3.63,25.76,0,.3-.09,1.04-2.39,1.26-2.43v-.04Z"/>
          <path class="cls-9" d="M85.17,227.82s-.96,2.35-1.26,2.43c-12.64,3.63-20.5-.26-25.76,0-2.22.13-27.71,11.74-37.83-9.82,5.6-14.64,22.24-.26,25.37-2.43.74-.51.09-4.91,2.48-4.91.96,0,7.69,8.79,14.98,11.44,11.16,4.1,17.07.98,22.02,3.29h0Z"/>
          <path class="cls-14" d="M94.29,250.69c-6.6,8.02-21.33,10.5-29.49,4.1-3.95-3.07-2.74-4.69-2.91-4.91,10.86,2.77,21.41.34,32.4.81h0Z"/>
        </g>
        <path class="cls-1" d="M216.91,164.1l9.56,11.01c-7.17,2.01-12.73,7.81-13.73,7.77-.43,0-7.04-4.87-7.08-5.29-.09-.85,9.16-7.26,11.21-13.49h.04Z"/>
        <path class="cls-14" d="M161.66,241.69h-5.82c-.52-5.42-3.69-10.67-7.47-14.3,14.72-1.66,20.76,2.39,12.47-4.91,16.29,3.71.13,2.22.82,19.21Z"/>
        <path class="cls-1" d="M169.52,204.94c1,2.35,10.25,11.86,10.38,12.68,1.26,6.27-15.46,4.4-18.29-.81l7.9-11.86Z"/>
        <path class="cls-1" d="M221.9,126.54c10.68,12.08,4.34,8.54-2.48,17.97-11.6-10.03-2.65-6.02,2.48-17.97Z"/>
        <g>
          <path class="cls-10" d="M122.57,194.32c8.64,1.92,8.34-5.29,12.07-6.53,3.47-1.15,5.6,3.07,7.9-2.43,1.26.47,1.74,1.88,2.91,1.62,27.23-18.35,26.49,23.35,5,31.84-14.81,5.85-28.62-14.34-27.84-24.5h-.04Z"/>
          <path class="cls-17" d="M142.5,185.35c-2.3,5.55-4.43,1.28-7.9,2.43-3.69,1.24-3.43,8.45-12.07,6.53.52-6.87,6.6-12.89,13.73-12.25,1.74.17,5.17,2.86,6.25,3.29Z"/>
        </g>
        <g>
          <path class="cls-10" d="M169.13,231.1c9.03,5.51,14.03,1.07,19.94-.81,2.35-.73,12.55-8.79,19.11-.43,8.51,10.88-4.91,33.2-17.89,33.89-11.25.6-30.36-19.16-21.2-32.69l.04.04Z"/>
          <path class="cls-17" d="M189.07,230.25c-5.95,1.88-10.9,6.32-19.94.81,4.39-6.49,15.07-6.87,19.94-.81Z"/>
        </g>
        <path class="cls-15" d="M226.46,273.57c-.35.47-.65,1.71-1.65,1.62-6.04-19.12-20.93-8.19-21.63-9.39l9.56-10.2c2-.43,13.03,14.25,13.73,17.97Z"/>
        <g>
          <path class="cls-10" d="M184.07,273.57l20.37,1.62c1.3-1.02-.74-2.05-.43-2.43,15.64-18.27,26.41,13.57,8.73,26.97-18.11,13.7-36.92-13.91-28.67-26.12v-.04Z"/>
          <path class="cls-10" d="M204.05,272.76c-.35.38,1.74,1.45.43,2.43l-20.37-1.62c4.73-7.04,13.64-5.55,19.94-.81Z"/>
        </g>
        <path class="cls-1" d="M122.57,221.29c-4.69-5.8-4.82-5.93-1.65-12.25,1.22,1.41,10.9,11.05,10.82,11.86-2.56,2.94-6.12,0-9.16.43v-.04Z"/>
        <g>
          <path class="cls-10" d="M137.51,279.29c10.68,2.18,6.86-5.97,11.21-7.34,4.95-1.54,6.08,1.11,7.08,2.43.35.51-.74,3.2,1.26,4.1,5.39-14.08,10.16.85,14.55-9.82,11.99,5.04,7.12,21.85-.43,28.59-14.94,13.4-35.44-.68-33.66-17.97Z"/>
          <path class="cls-17" d="M157.49,269.47c-1.39,1.15-2,3.12-1.65,4.91-1-1.37-2.13-4.01-7.08-2.43-4.34,1.37-.52,9.56-11.21,7.34.96-9.26,12.16-17.5,19.94-9.82Z"/>
          <path class="cls-17" d="M171.61,268.66c-4.39,10.63-9.16-4.27-14.55,9.82-1.95-.9-.87-3.58-1.26-4.1-.3-1.75.26-3.76,1.65-4.91,3.52-2.9,10.08-2.52,14.12-.81h.04Z"/>
        </g>
        <path class="cls-1" d="M224.42,295.63c1.56-.21,10.77,9.73.82,10.63-9.29.81-3.56-10.29-.82-10.63Z"/>
        <g>
          <path class="cls-9" d="M204.05,313.6c.22.26-.96,2.94,2.08,4.91,3.74-3.03,10.47-4.78,9.56-9.82,17.5,4.44-5.6,47.07-21.63,24.92-9.34-12.89-2.61-35.21,9.99-20.02Z"/>
          <path class="cls-9" d="M215.69,308.69c.91,5.04-5.82,6.74-9.56,9.82-3-1.96-1.87-4.61-2.08-4.91,3.95-3.12,5.95-6.36,11.64-4.91h0Z"/>
        </g>
        <path class="cls-1" d="M180.34,291.54c.74-.17,10.08,10.88,4.17,12.25-6.91,1.62-8.21-11.27-4.17-12.25Z"/>
        <path class="cls-15" d="M102.2,249.07c7.12-.6,7.56,7.94-7.08,5.29,1.78-1.66,4.6-5.08,7.08-5.29Z"/>
        <path class="cls-14" d="M133.77,295.63c2-.04,4.6,4.31,6.25,5.29-19.98,3.2-7.3-5.29-6.25-5.29Z"/>
        <path class="cls-1" d="M261.38,132.26c-.61,5.93-3.04,8.58-3.34,9.82-6.25-3.41-3.47-5.76,3.34-9.82Z"/>
        <path class="cls-1" d="M219.43,338.91c1.22-1.58-.35,14.04-.43.43l.43-.43Z"/>
      </g>
    </g>
  </g>
  <g>
    <path class="cls-1" d="M382.78,460.63c-.26,2.01-4.34,7.85-5.82,9.82-13.42,3.37-28.49,4.65-36.57,17.16-18.85-.43-3.26,1.66-13.29-22.06-.3-.73-2.95-3.63-2.08-4.1,28.01,10.54,41.35-6.91,57.77-.81Z"/>
    <path class="cls-14" d="M376.96,470.44c-8.99,11.86-22.06,17.5-36.57,17.16,8.08-12.5,23.15-13.79,36.57-17.16Z"/>
  </g>
  <g>
    <path class="cls-4" d="M293,552.94c-3.78-1.62-24.76-19.67-29.1-23.69-12.42-11.52-23.71-24.63-34.49-37.56-16.03-5.25-32.53-17.8-33.66-35.55-.7-1.11-8.56-3.76-10.82-5.29-11.16-7.85-18.03-14.51-24.93-26.12l6.65,1.62c5.91,10.29,23.37,24.75,35.75,23.69,6.17,4.74-8.56,4.4.82,13.06,4.73,12.59,23.58,23.3,36.57,25.31,4.91,3.07,2.56,5.51,4.56,6.53,5.95.13,24.24,2.13,28.28,3.29,3.47.98,17.81,13.06,22.02,4.1,14.68-.9,30.79-15.96,25.76-31.03,4.08-.17-3.6-8.96,6.65-5.72,10.03,23.73-5.56,21.64,13.29,22.06,14.51.34,27.58-5.29,36.57-17.16,1.48-1.96,5.56-7.81,5.82-9.82.35-2.82-2.22-3.58-2.48-6.15l5-2.86c10.03-2.73,17.76-7.6,25.76-13.87,5.04-3.97,13.2-10.54,15.81-16.35,3.3-7.34-3.43-6.53,2.48-10.63,1.56-1.11,15.85-4.44,30.75-22.45,7.25-8.79,8.08-9.56,5-12.68-3.65-3.67-6.6-.55-5.82-4.48.39-1.88,5.78-2.9,7.47-2.86,1.35,0,6.86,6.23,23.71-7.34,4-3.2,16.11-17.28,11.21-21.25-3.17-2.56-7.56-.38-5-6.53,1.87-.34,13.64-4.1,15.38-4.91,19.89-9.22,17.55-20.02,18.72-25.31.52-2.39,1.65-6.1.82-8.58,7.95-4.74,25.84-14.17,25.76-23.69,0-.68-1.65-.34-1.65-.43-.48-8.11-1.43-9.99-1.65-11.44-.52-3.46-1.09-6.79-1.65-10.2,8.34-4.44,19.85-5.55,22.46-15.53,1.74-6.74-2-16.35,1.65-20.83,6.25,22.32.56,28.89-18.29,41.27,13.68,20.44-4.47,35-22.46,43.28,12.47,28-25.63,38.28-26.58,40.84,1.78,18.61-15.72,32.35-32.01,37.98-8.86,16.35-22.67,30-38.66,39.61-6.38,17.67-29.88,37.26-48.21,43.28-2.43,15.45-15.68,28.13-30.36,33.08-16.98,24.88-41.78,44.6-66.93,61.29h.04Z"/>
    <g>
      <g>
        <path class="cls-5" d="M288.83,508c-.26,9.26,2.17,18.61,2.48,27.78.09,2.43-.52,4.23-.82,6.53l-42.39-45.32.43-1.24c7.21,1.75,14.98,4.18,22.46,3.29,1.91,2.56,16.9,8.83,17.89,9.01l-.04-.04Z"/>
        <path class="cls-6" d="M328.75,507.19c-11.03,17.28-15.29,21.68,3.34,2.43,9.38-9.69,13.42-17.11,15.81-14.3,2.22,2.65-42.22,40.25-46.56,42.89.13-6.83,12.99-31.54,16.63-35.12,4.52-4.44,5.04-2.26,5.39-2.43,17.5-10.2,13.55-6.23,5.39,6.53Z"/>
        <path class="cls-8" d="M317.93,503.09c-3.65,3.58-16.51,28.3-16.63,35.12-3.74,2.3-6.99,2.26-10.82,4.1.3-2.3.91-4.14.82-6.53,3.26,6.23,8.08-18.44,13.29-29.41,8.17-2.35,10.34-8.45,13.29-3.29h.04Z"/>
        <path class="cls-7" d="M304.64,506.38c-5.21,10.97-10.08,35.64-13.29,29.41-.35-9.13-2.74-18.52-2.48-27.78,3.78.64,11.81-.51,15.81-1.62h-.04Z"/>
        <path class="cls-12" d="M238.54,494.94l5.82.81c50.17,49.42,29.75,36.83-5.82-.81Z"/>
        <path class="cls-8" d="M332.05,509.62c-18.63,19.25-14.38,14.85-3.34-2.43l3.34,2.43Z"/>
      </g>
      <path class="cls-13" d="M326.66,492.51c.48-.13,1.04-.09,1.26.43,1.3,3.12-5.86.94-1.26-.43Z"/>
    </g>
  </g>
  <path class="cls-17" d="M204.88,7.26c.52.09,1.17-.09,1.65,0,0,.55.22,1.41-.43,1.62-15.46,5.33-69.41-1.88-88.13,8.15-4.04,2.18-6.21,6.4-9.56,9.01-22.28-3.84-27.93,17.41-39.09,13.87,19.98-24.54,32.18-16.35,37.01-17.97C116.97-1.19,184.03,3.5,204.83,7.21l.04.04Z"/>
  <path class="cls-10" d="M54.38,98.76c-28.93,17.71-27.75,51.85-34.1,13.87,3.65-11.31,11.03-19.63,22.85-22.88,3.3,3.67,6.91,6.53,11.21,9.01h.04Z"/>
  <path class="cls-10" d="M26.15,166.53c-6.34,7.72-1.56,22.02-14.98,22.06-6.56-12.04-.87-19.5-4.17-19.59,5.3-14.3,10.99-5.72,19.11-2.43l.04-.04Z"/>
  <path class="cls-10" d="M108.41,26.03c-.3.26-.7,2.22-2.08,3.29-1.09.81-21.98,13.44-23.28,13.87-6.73,2.26-10.42-1.92-9.56,2.43-2.26-.47-4.21-1.32-6.65-.81.17-.21.43-2.39,2.48-4.91,11.16,3.54,16.77-17.75,39.09-13.87Z"/>
  <g>
    <path class="cls-10" d="M307.94,106.1c8.12,5.72,9.51,16.94,5,25.31-2.91,5.42-16.63,12.55-21.2,12.25-4.13-.26-17.85-8.75-21.2-12.25-2.87-7-2.87-9.39-.82-16.35,5.04,4.74,10.03-4.74,17.03-6.53,8.43-2.13,20.02,1.41,19.55-3.29.48.26,1.26.55,1.65.81v.04Z"/>
    <path class="cls-17" d="M306.29,105.29c.52,4.65-11.12,1.11-19.55,3.29-6.99,1.79-12.03,11.27-17.03,6.53.13-.51-.3-1.28.82-3.29,5.91-10.58,25.84-11.65,35.75-6.53h0Z"/>
  </g>
  <path class="cls-17" d="M27.8,144.51c-3.6,7.17-1.82,17.63-10.82.81,3.17-4.82,6.6-3.67,10.82-.81Z"/>
  <g>
    <path class="cls-14" d="M412.71,393.62c6.12,26.08-42.13,33.89-43.22,12.25,8.3-3.29,19.02-6.19,26.58-10.63,3.87-2.26,9.64-5.04,9.99-9.82,4,1.37,5.78,4.4,6.65,8.15v.04Z"/>
    <path class="cls-10" d="M390.25,389.57c.35.21,1.48.64,1.65.81,1.87,1.54,4.86,1.96,4.17,4.91-7.6,4.44-18.33,7.34-26.58,10.63-.65-13.02,7.12-23.94,20.81-16.35h-.04Z"/>
    <path class="cls-9" d="M406.06,385.47c-.35,4.78-6.12,7.55-9.99,9.82.74-2.94-2.3-3.37-4.17-4.91,3.91-5.42,7.43-7.21,14.12-4.91h.04Z"/>
  </g>
  <g>
    <path class="cls-4" d="M270.55,131.41c3.34,3.5,17.07,11.99,21.2,12.25,4.56.3,18.29-6.83,21.2-12.25,7.17.55,4.6,5.42,5.82,7.77,1,1.92,9.47,8.32,0,10.2-5.39-9.18-19.72-2.94-26.19,2.43-24.76-22.58-46.47,15.07-.82,30.22,11.21-2.86,16.77-7,25.37-13.06,2.56-1.84,7.17-7.26,8.3-3.67.82,2.6-5.3,1.75-5,9.39.04,1.37-1.09,3.76,5,7.34,2.3,1.37,4.39.17,5,2.43v.81c-10.77,14.04,8.9,42.98,25.76,29.41l5,3.29c-.09.26.09.55,0,.81-.56,1.88,1.13,2.86.82,3.67l-9.16,5.29c-5.91,7.72-8.99-4.4-19.55,0-11.21,4.65-6.91,28.94,9.56,35.12,11.81,13.91-3.82,2.73-10.38,4.1-2.95.6-2.74,3.12-2.91,3.29-10.64,9.9-2.43,27.19,6.65,31.03-.39,4.05,12.73,3.12,2.48,8.15-21.2-7.68-15.72,27.87,2.48,31.03l.82,9.01c-1.43-.73-3.39-3.03-4.56-3.29-21.11-4.27-13.51,36.11,7.47,32.69,6.04-.98,14.42-10.63,14.55-21.25,4.34-1.19-1.48,4.78,7.47,14.72,13.64,15.11,31.45,4.78,35.75-6.53,4.78.98.74,1.07,5,4.91.22.17,1.13-.6,2.48.81,6.82,7.04,5.43,11.35,9.99,19.21-2.91,4.69-2.69,3.24-7.47,2.86-.87-3.8-2.65-6.83-6.65-8.15-6.73-2.3-10.21-.51-14.12,4.91-.22-.17-1.3-.6-1.65-.81-19.89-12.68-21.46,10.11-24.11,24.11,4.69,5.38,4.3,15.49-1.26,7.77-8.17,1.28-29.71,12.12-20.37-3.29,11.12.3,23.32-14.25,21.63-24.92-1.56-9.73-13.86-10.33-18.72-2.86-16.2-13.74-26.45,5.46-17.03,19.59-3.52,2.56.52,4.61,0,6.96-.09.34-3.78,4.35-4.17,5.72-.61,2.13,6.17,18.69-3.34,10.2-4.69-4.18-3.52-6.23-10.82-7.34-8.04-1.24-14.9,1.11-21.2,6.53-2.95.13-9.47-13.19-25.37-5.72-7.82,3.67-4.3,11.18-9.16,9.82.17-3.63.09-6.49-1.65-9.82-6.08-11.44-14.33,6.96-19.94-3.67,6.12-3.07,4.73-3.5,5-3.67,3.13-2.18,22.63-9.01,18.29-27.36-2.39-10.07-14.25-4.82-16.63-4.48-2.39.3-2.74,1.66-2.91,1.62-1.09-.17-5.26-8.28-14.98-4.91-9.64,3.33-5.43,17.46-12.07,14.72,4.17-10.46,1.39-16.39-9.99-11.44-4.52-2.73-8.04.43-5.82-7.34,10.25.77,21.89-8.71,23.28-18.78,3.82-.64,1.48,3.84,7.47,10.63,25.97,29.36,49.91-33.89,19.94-23.69v-8.15c10.82-2.48,16.03-19.38,12.47-28.59-4.26-11.1-19.46,5.72-14.12-8.15,10.38-.9,19.98-20.53,14.98-29.83-5.04-9.35-13.33-2.39-14.12-2.05-4.69-.38-13.64-1.07-7.47-6.53,1.13-.98,18.03-6.96,19.94-20.83,2.04-14.81-10.16-23.47-22.02-12.68-.87-1.02-2.48-2.13-3.74-2.43-1.78-5.59-1.3-6.15,2.48-9.82.96.34,2.17.94,2.91,1.62,33.7-15.15,21.41-51.04,0-32.69-.65,0-.35-1.58-.43-1.62,4.86-4.14,7.3-2.18,4.17-8.15,12.55-.94,23.24-22.36,16.63-31.84.17-1.28-.26-2.99,0-4.1.3-1.19,2.74-3.84,3.34-9.82.09-1.02-1.61-3.76-1.65-6.53v-1.62c10.6-1.11,5.6,1.92,10.82,7.34l.09-.04Z"/>
    <g>
      <path class="cls-9" d="M272.63,384.66c6.52-.9,14.68,4.48,19.94,8.15,31.84-25.44,48.56,21.85-4.17,30.22-37.44-12.12-26.97-36.83-15.81-38.41l.04.04Z"/>
      <path class="cls-9" d="M275.11,346.25c5.43-.17,13.07,4.91,17.46,8.15,32.4-24.03,46.39,19.46-1.65,30.22-37.31-10.54-30.19-37.9-15.81-38.41v.04Z"/>
      <path class="cls-10" d="M272.63,307.88c6.56-1.02,14.94,3.16,19.94,7.34,29.4-23.17,46.26,15.07.82,30.22-36.53-7.9-34.1-35.47-20.81-37.56h.04Z"/>
      <path class="cls-10" d="M275.11,268.66c5.78-.85,14.12,2.35,18.29,6.53,25.84-19.5,38.4,9.18,14.12,24.5-11.99,7.6-20.98,7.17-32.4-1.62-11.38-8.75-13.51-27.36,0-29.41Z"/>
      <g>
        <path class="cls-10" d="M268.07,229.44c7.95,3.54,16.94,2.73,23.71,9.01,2.43.43,23.15-5.93,23.71-10.63,14.98,6.79,5.82,29.83-22.02,38.41-20.07-4.05-39.57-22.36-25.37-36.75l-.04-.04Z"/>
        <path class="cls-10" d="M315.46,227.82c-.56,4.65-21.28,11.05-23.71,10.63-6.73-6.27-15.77-5.42-23.71-9.01,7.51-7.6,17.59-3.03,23.71,4.1,7.21-5.29,14.59-9.82,23.71-5.72Z"/>
      </g>
      <g>
        <path class="cls-10" d="M278.84,182.88c1.74,4.31-2.08,2.77-1.26,5.72,3.3-.21,10.25,2.43,10.82,2.43,1.74,0,.3-1.11,2.91-1.62.7-.13,1.04,1.19,2.08.81,1.13-.38,10.42-10.97,22.46-4.91,16.63,8.36-2.48,34.1-20.81,37.56-6.56,1.24-23.06-6.91-27.02-12.68-7.04-10.2-4.6-28.08,10.82-27.36v.04Z"/>
        <path class="cls-10" d="M291.31,189.41c-2.61.51-1.17,1.66-2.91,1.62-.56,0-7.51-2.65-10.82-2.43-.82-2.94,2.95-1.41,1.26-5.72,3.13.13,10.77,3.46,12.47,6.53Z"/>
      </g>
    </g>
  </g>
  <g>
    <path class="cls-2" d="M587.31,164.1c2.74,10.03,2.48,18.14-.82,27.78-2.74,8.02-6.52,11.05-12.47,16.73,1.09.9,2.13,2.39,2.48,3.67-3.69,4.48.09,14.13-1.65,20.83-2.61,9.94-14.12,11.1-22.46,15.53.61,3.41,1.17,6.74,1.65,10.2-1.35-.26-2-2.26-3.34-2.43-2.65-.43-4.43.43-6.65.81-6.69,1.24-18.89,8.49-30.36,7.34-1.78,1.02,3.17,6.57,3.74,9.01.91,4.05.65,8.96.82,13.06,0,.17-1.48.9-.82,3.67,14.68-.38,31.97-5.42,38.22-20.02,0,.09,1.65-.26,1.65.43.09,9.52-17.85,18.95-25.76,23.69.82,2.48-.3,6.19-.82,8.58-1.39-.6-1.13-2.56-2.48-3.29-7.77-4.01-20.2,10.33-14.55-3.29-4.08,8.28-17.89,11.35-26.58,12.25-37.66,3.8-15.38-10.58-16.2,20.44,0,.21-1.87,2.73-1.65,3.67,1.26,2.9,23.37,1.15,27.45.43-2.56,6.15,1.82,3.97,5,6.53-9.6,3.07-19.5,3.67-29.49,3.29,11.08,19.97,2.04,7.08-5.82-.81,5.04,10.75,7.04,15.19.43,26.12-1.69,0-7.12.98-7.47,2.86-.78,3.93,2.17.81,5.82,4.48-5.78,3.12-11.16,7.68-17.46,9.82-1.22.43-7.08,2.39-7.47,2.43-4.56.6-16.46-1.19-21.2-3.29,1.43,4.31,3.91,10.2,3.74,14.72-.3,7.17-11.47,20.02,5.82,9.01l.82,2.43c-5.91,4.1.78,3.29-2.48,10.63-5.17-8.49-23.67,6.02-36.57,6.53-8.12.34-17.94-4.74-18.29-3.67,7.04,6.23,5.78,12.5,5.82,20.83-3.78,2.09-9.16,10.41,7.47,6.53l-5,2.86c.26,2.56,2.82,3.33,2.48,6.15-16.42-6.06-29.75,11.35-57.77.81-.91.47,1.78,3.37,2.08,4.1-10.25-3.24-2.56,5.55-6.65,5.72-4-12.04-13.64-2.82-20.81-1.62-16.16,2.73-18.24-8.24-27.84-4.91-13.99,4.87-6.6,29.96,12.07,35.94,2.39.77,8.38,1.79,10.82,1.62-4.21,8.96-18.55-3.12-22.02-4.1-4.04-1.11-22.33-3.16-28.28-3.29-2-1.02.3-3.5-4.56-6.53,2.87.43,12.99,1.15,15.38.81,14.72-2.01-3.26-10.5,10.38-25.74-12.12-9.26-18.03,3.8-46.13-4.48-7.34-2.18-5.6-7.77-17.89-2.86-.65,3.58.87,4.82,1.65,6.96-9.38-8.71,5.34-8.32-.82-13.06,3.82-.34,6.17-.6,7.08-4.91,1.65-.17,1.95,1.62,2.08,1.62,12.6,15.28,43.78,11.57,44.91-10.63,4.86,1.37,1.35-6.15,9.16-9.82-14.98,15.36,7.12,33.37,22.46,35.94,12.55,4.1,39.57-13.27,34.92-29.41,9.51,8.49,2.74-8.07,3.34-10.2.39-1.37,4.08-5.38,4.17-5.72.52-2.35-3.52-4.35,0-6.96,2.3,3.46,9.64,8.07,14.12,8.15-9.34,15.36,12.21,4.52,20.37,3.29,5.52,7.77,5.95-2.39,1.26-7.77,2.65-14,4.21-36.79,24.11-24.11-13.68-7.6-21.46,3.29-20.81,16.35,1.09,21.64,49.38,13.83,43.22-12.25,4.78.38,4.6,1.84,7.47-2.86-4.52-7.85-3.17-12.16-9.99-19.21,1.13.26,1.61-.47,2.48-.81,13.68,15.36,55.94,5.89,50.73-17.58-3.69-16.6-28.15-1.58-38.22-2.05-2.61-.13-7.64-2.22-10.38-3.29-2.91.51-8.51,19.63-7.08,22.88-4.26-3.84-.22-3.93-5-4.91,6.47-17.03-8.56-27.27-19.55-15.53-18.55-14-25.63,7.3-16.2,22.06-8.95-9.94-3.17-15.88-7.47-14.72.26-22.32-14.85-6.7-16.2-6.53-.52.04-1.17-1.58-1.26-1.62l-.82-9.01c19.94,3.5,27.15-49.81,1.26-26.97-1-.43-3.47-3.97-3.74-4.1,10.21-5.08-2.87-4.1-2.48-8.15,18.89,7.98,22.85-20.91,23.28-33.08-2.61.3-16.94,5.51-17.89,5.29-1.13-.21-3.74-9.69-12.07-3.29.17-.17,0-2.65,2.91-3.29,6.56-1.37,22.19,9.86,10.38-4.1,14.64,5.46,35.66-19.8,24.11-33.08-3.52-4.01-9.6-4.65-14.12-2.05l9.16-5.29c.3-.81-1.39-1.79-.82-3.67,4.17,2.99,15.51,10.54,17.46,1.24.7-3.33-7.47-7.47-10.38-16.73-1.95,5.08-5.39,9.52-7.08,14.72l-5-3.29c14.46-11.65,11.55-43.83-10.82-26.97-3.43-5.04-9.6-6.57-14.98-3.29-.61-2.3-2.69-1.11-5-2.43,10.08-3.8-.74-15.62-5-7.34-.3-7.64,5.82-6.79,5-9.39-1.13-3.58-5.73,1.84-8.3,3.67,2.82-6.36,5.43-13.19,1.65-19.59,9.47-1.88,1-8.28,0-10.2-1.17-2.35,1.35-7.21-5.82-7.77,4.56-8.41,3.13-19.63-5-25.31-1.82-4.52.78-3.03.82-3.29,13.99,13.83,6.08-3.07,18.72-4.91,3.74-.55,15.59,6.15,16.2-.43.22-2.39-22.5-26.67,8.3-38.41-6.08-3.63-8.3-8.45-9.16-9.39-.17-.17.09-3.07-3.34-3.29-1.26-7.3-1.22-13.1,0-20.44,2.74-2.26,6.04-4.87,9.16-6.53-5.39,5.59-5.65,5.72-6.65,13.06,0,.17-1.04-.73-.82,3.29.87,16.82,25.02,31.03,42,17.97,10.21-7.85,12.47-18.31,7.08-29.41-1.69-3.5-1.91-4.01-5-6.53-3.78-3.07-3.3-3.07-8.3-4.1v-2.43c.7.17.96.6,1.65.81,32.27,9.77,14.9,40.97,17.03,42.46,8.64-4.48,19.2-3.24,28.28-.81-9.08-51.04,61.29-49.25,61.5-2.43,8.04-7.81,19.72-8.79,30.36-9.01.3,0,.96,1.84,5.82.43-4.08-7.98-13.42-18.95-22.46-20.83-3.21-.64-14.38-.73-16.63,0-5.13-9.01-9.95-12.16-19.94-14.72-7.3-1.84-14.2-2.09-21.63-2.43,4.08-2.69,11.73,1.92,13.29-3.29,14.9,1.58,20.93,3.03,31.19,14.72,2.91.38,7.9-.51,9.99,0,30.27,7.64,24.8,26.42,39.09,30.22,11.42,15.88,26.63,16.47,21.2,40.42,19.72,11.48,24.11,27.61,19.11,48.99,11.21,10.11,4.3,16.82,5,19.59.13.55,6.38,7.3,7.47,8.58l-.13.26Z"/>
    <g>
      <path class="cls-10" d="M421.44,182.88c5.43-1.15,11.81,1.02,15.81,4.91,20.59-18.18,41.52,17.63-.82,35.94-25.93-8.41-27.71-38.2-14.98-40.84h0Z"/>
      <path class="cls-14" d="M516.21,222.91c16.72-1.62,24.76,13.44,20.37,23.3-3.21,7.21-31.27,15.96-42,5.29-11.42,13.02-13.73,10.93-2.08-2.86l-5-19.59c9.6,1.71,22.63-5.55,28.67-6.15h.04Z"/>
      <path class="cls-10" d="M376.53,182.88c4.86-.94,10.29,2.13,14.12,4.91,13.59-14.77,27.49,4.91,12.9,22.45-22.63,27.27-45.87-23.77-27.02-27.36Z"/>
      <path class="cls-10" d="M332.48,142.03c7.69-1.41,11.77,4.99,12.47,4.91.65-.09,2.04-6.57,10.82-4.91,19.37,3.71-1.91,48.1-21.63,32.69-9.47-7.43-13.03-30.64-1.65-32.69Z"/>
      <g>
        <path class="cls-10" d="M390.25,90.56c-2.48-4.23-2.48-4.05-3.34-9.01-1.13-6.79-1.56-7.72.82-13.87,3.13,6.44,17.76,9.35,17.46,1.24-12.99-17.97,20.59,11.22,15.81-11.86,11.25,3.58,16.03,14.68,14.12,25.74-2.61,15.19-22.11,14.3-27.02,27.36-4.26-8.11-13.25-11.82-17.89-19.59h.04Z"/>
        <path class="cls-17" d="M421,57.1c4.82,23.09-28.8-6.15-15.81,11.86.3,8.11-14.33,5.25-17.46-1.24,4.82-12.38,22.11-14.17,33.27-10.63Z"/>
      </g>
      <path class="cls-15" d="M421.44,224.53c2.39-.04,10.51,4.95,14.12,5.72,1.69,2.56-7.64,8.07-3.74,24.11-.26.9-6.73,4.91-7.9,5.29-20.98,7.04,13.33-9.82-7.08-33.08.09-.68,4.3-2.05,4.56-2.05h.04Z"/>
      <g>
        <path class="cls-10" d="M402.72,108.53c9.9,14.72-11.73,30.43-17.89,31.03-10.9,1.11-26.28-13.4-21.2-28.59,2.26,3.97,33.92,1.75,36.18.81,1.95-.81.35-3.84,2.91-3.29v.04Z"/>
        <path class="cls-17" d="M402.72,108.53c-2.56-.6-.96,2.48-2.91,3.29-2.22.9-33.92,3.16-36.18-.81,6.12-18.27,19.81-3.29,21.2-3.29,1.09,0,9.86-11.1,17.89.81Z"/>
      </g>
      <g>
        <path class="cls-10" d="M357.85,112.63c-.26,9.65-11.73,26.84-22.85,25.31-8.9-1.19-17.03-19.46-12.9-30.22,8.51,14.34,6.82.51,12.9.81,3.17.17,4.78,6.44,5.82,6.53,1.43.13,4.17-7.17,6.65-7.34,4.43-.3,1.78,6.7,10.38,4.91Z"/>
        <path class="cls-17" d="M357.85,112.63c-8.6,1.79-5.95-5.21-10.38-4.91-2.52.17-5.21,7.47-6.65,7.34-1.04-.09-2.65-6.36-5.82-6.53-6.04-.3-4.39,13.53-12.9-.81,3.21-8.28,9.82-8.41,16.2-2.43,6.99-8.62,19.85-4.18,19.55,7.34Z"/>
      </g>
      <g>
        <path class="cls-14" d="M428.52,48.91c11.25,8.71,13.51,2.52,20.37.81,6.25-1.54,28.23-2.13,9.56-14.3,18.68,4.78,14.59-5.89,2.08-11.86-1.3-.64-2.48.98-2.91.81-.48-.17-3.43-2.69-9.16-4.91,21.54-2.6,41.22,20.74,23.71,37.56-29.06-16.47-37.79,15.41-43.65-8.15v.04Z"/>
        <g>
          <path class="cls-10" d="M428.52,48.91c-1.04-4.27-.7-5.55,0-9.82,6.43-3.5,34.1-11.01,29.1-14.72.43.17,1.61-1.45,2.91-.81,12.51,5.97,16.59,16.64-2.08,11.86,18.68,12.16-3.3,12.76-9.56,14.3-6.86,1.66-9.12,7.9-20.37-.81h0Z"/>
          <path class="cls-17" d="M448.45,19.5c5.69,2.22,8.64,4.74,9.16,4.91,5,3.67-22.67,11.22-29.1,14.72,1.82-10.93,8.69-18.27,19.94-19.59v-.04Z"/>
        </g>
      </g>
      <g>
        <path class="cls-10" d="M473.38,63.63c14.77,21.34-23.45,46.82-35.75,22.06.65-6.15.96-7.51,0-13.87,18.59-16.05,32.88-2.43,35.75-8.15v-.04Z"/>
        <path class="cls-14" d="M437.64,85.66c12.29,24.75,50.51-.73,35.75-22.06-.3-.43-.7-1.11-.82-1.62,28.23,17.5-9.56,58.04-37.4,32.26-.74-3.2,2.43-8.15,2.48-8.58Z"/>
        <path class="cls-17" d="M472.56,61.97c.13.55.52,1.19.82,1.62-2.87,5.72-17.16-7.9-35.75,8.15-.43-2.86-2.61-5.04-3.34-7.77.52-3.41,20.89-12.8,38.22-2.05l.04.04Z"/>
      </g>
      <path class="cls-14" d="M539.49,58.73c9.43,8.79,14.81,13.02,10.82,26.97l-12.9.43c8.3-9.01-2.3-16.35,2.08-27.36v-.04Z"/>
      <g>
        <path class="cls-14" d="M506.66,268.66c-.52,23.69-32.49,31.37-50.73,19.59-3.13-6.15-4.86-8.96-5-17.16,10.77,23.94,41.87,8.58,13.29.81,13.03-3.12,31.53-16.09,42.39-3.29l.04.04Z"/>
        <path class="cls-15" d="M455.92,288.25c18.2,11.78,50.17,4.1,50.73-19.59,12.68,14.98-5.39,30.05-20.37,31.84-16.03,1.96-24.32-.51-30.36-12.25h0Z"/>
        <path class="cls-10" d="M464.26,271.95c28.58,7.77-2.56,23.13-13.29-.81,1.35-2.3,10.9.17,13.29.81Z"/>
      </g>
      <g>
        <path class="cls-10" d="M452.62,146.94c8.47,13.87-9.43,32.69-20.37,31.03-10.34-1.54-26.06-24.16-14.55-33.5-.22,15.83,3.87-3.16,16.2,9.01,7.69-.73,13.55-10.46,18.72-6.53h0Z"/>
        <path class="cls-18" d="M452.62,146.94c-5.17-3.93-11.03,5.8-18.72,6.53-12.38-12.16-16.46,6.87-16.2-9.01,8.21-6.66,13.64,2.99,17.89,2.43,4.47-4.27,13.2-6.27,17.03,0v.04Z"/>
      </g>
      <g>
        <path class="cls-14" d="M363.67,450c-10.47-2.82-29.54,2.52-34.1-4.1,2.87-14.34-2.22-21.47-1.26-22.06,22.5,11.99,29.93-7.3,39.48,4.48,6.17,7.55,3.04,16.13-4.17,21.64l.04.04Z"/>
        <path class="cls-14" d="M363.67,450c-14.55,11.18-37.09,3.67-37.4.43.7-.64,3.26-4.23,3.34-4.48,4.56,6.62,23.63,1.24,34.1,4.1l-.04-.04Z"/>
      </g>
      <g>
        <path class="cls-10" d="M368.67,149.37c7.12,6.27,6.99-.17,9.56-.81,1.17-.3,17.81,6.02,20.37,1.24,2.17-4.05-4.47-3.16-3.34-6.96,16.07-4.05,15.68,16.52,7.47,26.55-18.07,22.02-38.31-5.16-34.1-20.02h.04Z"/>
        <path class="cls-17" d="M395.25,142.85c-1.13,3.8,5.52,2.9,3.34,6.96-2.56,4.78-19.2-1.54-20.37-1.24-2.56.68-2.43,7.08-9.56.81,4.13-14.51,19.89-3.24,21.2-3.29.78,0,2.78-2.6,5.39-3.29v.04Z"/>
      </g>
      <path class="cls-9" d="M359.07,122.44c1.82,7.26,6.6,13.27,12.07,18.39-9.86,12.38-1.17-.38-21.63-3.29l9.56-15.11Z"/>
      <path class="cls-21" d="M361.15,218.81c.09-.26-.09-.55,0-.81,1.69-5.16,5.13-9.65,7.08-14.72,2.95,9.26,11.08,13.4,10.38,16.73-1.95,9.3-13.29,1.75-17.46-1.24v.04Z"/>
      <path class="cls-1" d="M365.76,163.29c0,3.07,9.64,12.68,9.56,13.49-.04.55-8.17,6.96-8.73,6.96-.61,0-3.13-4.57-10.38-6.96l9.56-13.49h0Z"/>
      <path class="cls-14" d="M515.78,42.38c-3.78-2.69-13.12-10.67-14.98-13.87-.78-1.41-1.87-4.82-1.65-6.53,9.03,1.88,18.33,12.89,22.46,20.83-4.86,1.41-5.52-.43-5.82-.43h0Z"/>
      <path class="cls-1" d="M386.95,81.6c.82,4.91.82,4.78,3.34,9.01-2.56,1.45-4.3,11.31-7.08,11.44-.56,0-7.99-5.25-9.56-5.72.09-.04.74-1.54.82-1.62,4.82-4.27,7.25-6.66,9.16-13.06h3.34l-.04-.04Z"/>
      <path class="cls-1" d="M410.62,164.91l10.38,11.86c-1.95.26-8.21,6.06-8.73,6.15-1.56.17-4.91-5.38-10.38-6.15l8.73-11.86Z"/>
      <g>
        <path class="cls-10" d="M458.44,115.1c8.64-.85,14.33-7.47,23.71-5.72,1.17-.6.04-2.52-.43-3.29,16.33-10.24,21.28,9.9,11.64,21.64-17.07,20.83-35.09-1.07-34.92-12.68v.04Z"/>
        <path class="cls-17" d="M481.72,106.1c.48.77,1.56,2.65.43,3.29-9.38-1.75-15.03,4.87-23.71,5.72.22-14.81,20.15-14.04,23.28-9.01Z"/>
      </g>
      <g>
        <path class="cls-10" d="M413.53,109.39c4.56,3.2,28.58,6.57,19.94-2.43,33.57-11.74,20.89,36.53-4.56,31.84-6.25-1.15-22.33-17.63-15.38-29.41h0Z"/>
        <path class="cls-17" d="M433.47,106.91c8.6,9.01-15.38,5.68-19.94,2.43,3.17-5.38,14.59-8.07,19.94-2.43Z"/>
      </g>
      <g>
        <path class="cls-14" d="M529.94,80.79c-2.91,1.75-5.78-.77-7.9,0-1.43.51-9.73,17.03-24.54,15.53,1.78-1.75-2.17-6.74-2.48-8.58-.65-3.5.91-5.04.82-5.29,2.48-1.66,7.08,6.32,12.9,3.29,7.95-4.14-5.82-25.14,10.82-4.1,4.13-4.14,5.69-9.86,5.39-15.53-.39-7.85-5.52-14.17-10.82-19.59,16.24.98,24.58,3.97,21.63,22.45-.22,1.41-4.91,11.31-5.82,11.86v-.04Z"/>
        <path class="cls-15" d="M529.94,80.79c-1.95,5.04,10.03-2.86-1.26,9.01-.91.94-9.56,7.51-10.82,8.15-18.29,9.6-18.94,2.01-32.4-1.62-1.61-2.26,1.22-7,1.26-7.34,4.04,4.78,3.69,6.62,10.82,7.34,14.81,1.49,23.11-15.02,24.54-15.53,2.13-.77,5,1.75,7.9,0h-.04Z"/>
        <g>
          <path class="cls-10" d="M507.48,45.67c1.13,7.17,14.72,6.1,1.65,14.3,1.04,1.32,8.08-2.35,15.81,6.15.26,5.63-1.3,11.4-5.39,15.53-16.63-21.04-2.87-.09-10.82,4.1-5.82,3.03-10.42-4.95-12.9-3.29-1.26-4.14-4.3-6.53-5.82-10.63,9.69-2.13,19.07-16.82,11.64-25.31,1.13-.21,4.65-.73,5.82-.81v-.04Z"/>
          <path class="cls-17" d="M490.02,71.79c-2.87-7.81-3.82-10.71-.82-19.59,3.3-3.12,8.12-4.87,12.47-5.72,7.43,8.49-1.95,23.17-11.64,25.31Z"/>
          <path class="cls-10" d="M490.02,71.79c1.52,4.1,4.56,6.49,5.82,10.63.09.26-1.48,1.84-.82,5.29.35,1.84,4.26,6.83,2.48,8.58-7.12-.73-6.78-2.56-10.82-7.34.96-22.15-5.69-29.11,2.48-36.75-2.95,8.88-2.04,11.78.82,19.59h.04Z"/>
          <path class="cls-9" d="M514.13,46.48c5.3,5.42,10.42,11.78,10.82,19.59-7.69-8.45-14.77-4.78-15.81-6.15,13.03-8.19-.52-7.13-1.65-14.3,5.13-.38,6.3.81,6.65.81v.04Z"/>
        </g>
      </g>
      <g>
        <path class="cls-9" d="M468.39,225.38c27.32,20.36-14.12,41.44-32.4,23.69-.22-1.32-.22-7.77,0-9.01,7.51,6.32,38.74-5.8,29.1-13.87-.22-.17-2.04.68-1.65-1.62,2,0,3.21.55,5,.81h-.04Z"/>
        <path class="cls-14" d="M435.99,249.07c18.29,17.75,59.72-3.33,32.4-23.69,22.11,3.24,16.51,24.5,7.08,31.84-11.86,9.26-36.83,7.85-39.48-8.15Z"/>
        <path class="cls-10" d="M435.99,240.07c.87-4.52,6.34-11.31,10.82-13.06-8.95,9.01,6.78,10.75,14.12,2.86.61-.64-2.17-2.48,4.17-3.67,9.64,8.07-21.59,20.19-29.1,13.87Z"/>
        <path class="cls-17" d="M463.44,224.53c-.39,2.35,1.43,1.45,1.65,1.62-6.34,1.19-3.56,3.03-4.17,3.67-7.38,7.9-23.11,6.15-14.12-2.86,2.69-1.07,13.86-2.52,16.63-2.43Z"/>
      </g>
      <g>
        <path class="cls-10" d="M446.8,274.38c-2.22,18.31-28.32,31.54-39.92,12.25-1.3-6.91-1.04-13.27,5.82-17.16,4.78,3.8,9.43,2.48,14.55,12.25,3.04.43,1.09-4.65,3.74-6.53,5.52-3.93,6.25,4.44,10.38,3.29,6.56-1.88-2.65-9.26-1.26-10.63,3.65,1.62,4.86,3.12,6.65,6.53h.04Z"/>
        <path class="cls-9" d="M406.89,286.63c11.6,19.29,37.7,6.06,39.92-12.25,12.12,23.52-34.23,42.89-39.92,12.25Z"/>
        <path class="cls-17" d="M427.65,269.47c.26.21-.13,2.13,3.34,5.72-2.65,1.88-.7,6.96-3.74,6.53-5.13-9.77-9.77-8.45-14.55-12.25,4.91-2.77,10.03-3.71,14.98,0h-.04Z"/>
        <path class="cls-10" d="M440.16,267.85c-1.39,1.37,7.82,8.75,1.26,10.63-4.13,1.15-4.86-7.21-10.38-3.29-3.47-3.58-3.04-5.51-3.34-5.72,5.82-3.24,6.3-4.35,12.47-1.62Z"/>
      </g>
      <g>
        <path class="cls-14" d="M558.21,217.19l5.82,14.72c-6.17,8.41-16.72,11.01-14.12,14.72-.74.13-2.08,1.71-4.17.43-4.65-39.48-31.36-18.48,12.47-29.83v-.04Z"/>
        <path class="cls-1" d="M549.87,246.6c-2.61-3.67,7.95-6.27,14.12-14.72,3.3-4.52,8.69-15.11,2.48-17.97,1.69-.51,4.3-4.01,5.82,3.67,3,14.89-10.16,27.19-22.46,28.98l.04.04Z"/>
        <path class="cls-14" d="M566.51,213.95c6.21,2.86.82,13.44-2.48,17.97l-5.82-14.72c2.87-.73,5.43-2.43,8.3-3.29v.04Z"/>
      </g>
      <path class="cls-1" d="M403.54,132.26c2.43,1.32,10.16,1.66,10.82-.81.74,1.41,4.56,4.44,4.17,6.15-.13.47-6.6,6.15-7.08,6.15-.7,0-4.56-5.46-11.21-8.58.74-3.16,3.21-2.69,3.34-2.86l-.04-.04Z"/>
      <g>
        <path class="cls-9" d="M362.84,275.19c1.3,8.11,7.73-5.63,18.72.81,1.69-1.15,1.13-2.39,1.26-2.43,22.46-13.83,27.75,14.64,8.73,26.97-19.98,12.97-33.88-11.91-28.67-25.31l-.04-.04Z"/>
        <path class="cls-10" d="M382.78,273.57s.48,1.32-1.26,2.43c-10.99-6.44-17.42,7.3-18.72-.81,3.78-9.77,14.16-8.15,19.94-1.62h.04Z"/>
      </g>
      <path class="cls-21" d="M411.45,208.23c.52,1.71,7.08,8.79,7.08,9.39,0,2.3-27.84,10.71-7.08-9.39Z"/>
      <path class="cls-1" d="M371.58,253.94c1.74-.73,11.81,11.22,9.99,12.25l-16.2-2.05,6.25-10.2h-.04Z"/>
      <g>
        <path class="cls-10" d="M384.43,76.69c-4.17-.9-5.69,9.94-13.29,15.53-14.55,10.63-32.84-4.61-26.58-20.44,5.65,12.08,5.13,1.28,9.56-.81,10.82-5.12-3.56,12.29,6.65,12.25,4.65,0,20.98-12.33,20.37-17.97,4.6,3.54,3.74,6.91,3.34,11.44h-.04Z"/>
        <path class="cls-17" d="M381.13,65.26c.61,5.63-15.72,17.97-20.37,17.97-10.21,0,4.17-17.37-6.65-12.25-4.43,2.09-3.91,12.93-9.56.81,3.43-8.71,7.99-8.75,16.63-7.34,1.95.55,2.43.9,3.74,2.43,4.73-3.8,10.99-5.68,16.2-1.62Z"/>
        <path class="cls-9" d="M361.15,64.45c-8.64-1.41-13.2-1.32-16.63,7.34-6.25,15.79,12.07,31.03,26.58,20.44l3.34,2.43s-.74,1.58-.82,1.62c-22.63,16.6-45.61-19.59-27.84-31.84,8.56-5.89,14.59-.21,15.38,0h0Z"/>
        <path class="cls-9" d="M384.43,76.69c-.17,1.92-.26,3.03-.82,4.91-1.91,6.4-4.3,8.83-9.16,13.06l-3.34-2.43c7.6-5.55,9.12-16.43,13.29-15.53h.04Z"/>
      </g>
      <g>
        <path class="cls-9" d="M376.96,311.94c3.21,12.16,9.56,4.05,14.98-2.43,9.82,4.35,2.39,35.25-15.38,30.22-14.9-4.23-17.94-34.1-5-31.84,1.61.3,5.08,3.93,5.39,4.1v-.04Z"/>
        <path class="cls-10" d="M391.9,309.5c-5.39,6.53-11.73,14.64-14.98,2.43,6.91,3.07,7.73-5.63,14.98-2.43Z"/>
      </g>
      <path class="cls-10" d="M345.38,187.79s.48,2.77-2.91,2.43c-3.65-2.65-10.12-.81-12.07-4.91v-.81c5.34-3.33,11.51-1.75,14.98,3.29h0Z"/>
      <path class="cls-9" d="M414.36,131.41c-.61,2.48-8.38,2.13-10.82.81,2.39-3.5,4.26-7.34,5.39-11.44,1.43,3.76,3.52,7.08,5.39,10.63h.04Z"/>
      <g>
        <path class="cls-10" d="M376.96,229.44c3.65,4.1,14.38,5.59,17.46.81.87.38,1.39,1.07,2.48.81-3.13,3.63,14.16.51,14.12-3.29,10.73,4.82,7.12,19.16,1.65,26.55-21.02,28.51-49.65-12.85-35.75-24.92l.04.04Z"/>
        <path class="cls-10" d="M394.42,230.25c-3.08,4.78-13.77,3.29-17.46-.81,5.99-5.21,11.25-1.96,17.46.81Z"/>
        <path class="cls-17" d="M411.06,227.82c0,3.76-17.29,6.91-14.12,3.29,3.52-5.08,8.56-5.76,14.12-3.29Z"/>
      </g>
      <path class="cls-15" d="M359.07,294.78c1-.34,9.21,7.9,5,9.82-5.39,2.43-10.16-8.02-5-9.82Z"/>
      <path class="cls-1" d="M463,212.28c9.99,7.94,6.69,6.66-7.9,6.96l7.9-6.96Z"/>
      <path class="cls-15" d="M456.36,127.35c1.48-.21,3.34,2.18,2.91,3.67-.35,1.15-20.93,14.21-2.91-3.67Z"/>
      <path class="cls-16" d="M405.63,296.44c.22,0,.7,2.09,2.91,3.67-18.63,11.52-3.95-3.84-2.91-3.67Z"/>
      <path class="cls-16" d="M323.32,133.88c.3,0,4.52,4.18,4.56,4.48,1.22,7.77-12.47-4.48-4.56-4.48Z"/>
      <path class="cls-20" d="M261.82,489.22c.82-.43,5.3,4.95,5.39,5.29,1.48,5.76-7.86-4.1-5.39-5.29Z"/>
      <path class="cls-1" d="M258.47,448.38l3.34,4.91c-2.87.26-4.73-2.65-3.34-4.91Z"/>
      <path class="cls-1" d="M435.55,258.03c.26,0,3.04,4.18,1.65,4.91s-4.73-4.91-1.65-4.91Z"/>
      <g>
        <path class="cls-1" d="M555.69,199.22c17.98-1.92,25.06-24.63,18.29-39.22,9.43-1.15,12.29,17.71,8.3,28.98-3.69,10.41-18.68,18.44-29.49,18.39,0,0,2.91-8.15,2.91-8.15Z"/>
        <path class="cls-1" d="M559.86,142.03c3.17-16.43,4.69-26.76,1.65-44.13,14.81,13.14,13.73,31.84-1.65,44.13Z"/>
        <path class="cls-15" d="M544.88,91.38c-.7,1.62-5.34,11.01-5.82,11.44l-12.47-.43c5.69-4.27,10.64-10.41,18.29-11.01Z"/>
        <g>
          <path class="cls-14" d="M561.51,97.95c3.04,17.33,1.52,27.66-1.65,44.13-2.91,2.3-3.82,7-19.11,8.58,9.38,4.23,29.36-10.41,31.19-10.2.26,0,3.65,3.46,3.74,3.67,3.65,7.9-7.12,13.14-11.64,17.97.3,2.94,7.12-1.71,9.99-2.05,6.78,14.6-.3,37.3-18.29,39.22-1.39-22.49.09,2.3-9.56,9.01-4.78,3.33-14.98,4.44-20.81,5.72,17.46-38.11-32.62-63.29-47.82-26.12-6.3.34-7.82,2.09-11.64,6.53-2.65-6.27-3.26-14.3-18.29-16.73,13.94-7.17,17.03-24.88,5.82-35.94,15.64-12.63,15.25,5.93,33.66-1.24,12.07-4.69,21.8-22.32,14.98-34.31,8.25,2.43,31.01,2.35,37.01-3.29.48-.43,5.13-9.82,5.82-11.44,7.82-.64,11.16,1.71,16.63,6.53l-.04-.04Z"/>
          <path class="cls-2" d="M551.96,129.79c7.21-1.15,7.51,8.71,0,7.34-4.56-.81-4.73-6.57,0-7.34Z"/>
          <path class="cls-21" d="M548.61,173.1c2.26-.64,4.13,10.24-2.48,14.72-1.3-.43,4.13-7.77,2.48-14.72Z"/>
        </g>
      </g>
      <g>
        <path class="cls-9" d="M426,325.85c-1.04,1.15-10.25,6.53-10.82,9.82-9.95-.51-10.68-7.85-14.12-7.34-.74-3.03-1.22-9.26-.82-12.25-.13,4.18,11.55-1.45,26.58-4.91,2.61-.6,5.65-1.11,8.3-1.62-2.3,6.74-4.34,11.1-9.16,16.35l.04-.04Z"/>
        <path class="cls-10" d="M426.82,311.13c-15.07,3.46-26.76,9.09-26.58,4.91,2.26-17.07,16.37-8.49,26.58-4.91Z"/>
        <g>
          <path class="cls-14" d="M401.07,328.28c3.47-.51,4.21,6.83,14.12,7.34,7.43.38,11.03-2.6,10.82-9.82,4.78-5.25,6.86-9.6,9.16-16.35,5.56-1.11,7.47-3.2,7.9-3.29,18.46-2.48,26.93,20.53,14.12,26.97-5.17,2.6-8.38,1.32-9.16,1.62-15.64,6.66-40.35,20.49-46.95-6.53v.04Z"/>
          <path class="cls-9" d="M441.37,313.6c11.77-1.92,10.03,13.91,1.65,17.16-14.12,5.46-10.86-15.66-1.65-17.16Z"/>
        </g>
        <path class="cls-14" d="M415.18,335.67c.56-3.29,9.73-8.66,10.82-9.82.22,7.21-3.39,10.2-10.82,9.82Z"/>
      </g>
      <g>
        <path class="cls-14" d="M466.74,197.6c1.39,3.07,1.52,5.59,2.48,7.34,1.43,2.65,5.73,7.77,8.3,9.01,6.04,2.9,25.67-7.94,30.75-12.25,6.38-5.42,9.38-9.52,5.82-17.97-2.91-6.87-6.73-5.42-5-8.15,21.37,6.74,16.2,30.22-.43,40.03-17.89,10.54-44.48,5.59-42-17.97l.09-.04Z"/>
        <path class="cls-17" d="M500.83,173.91c4.34,8.36-1.95,18.39-8.3,24.5-2-.09-4.82.17-6.65-.81-1.78-.98-5.13-9.05-5-10.63.43-5.85,12.07-12.72,19.94-13.06h0Z"/>
        <path class="cls-10" d="M485.85,197.6c-5.17,3.93-10.21,5.97-16.63,7.34-.96-1.79-1.09-4.27-2.48-7.34-.3-.64-.52-2.56-.82-3.29,3.82-4.44,5.34-6.19,11.64-6.53,1.91-.13,3.43,2.3,3.34-.81-.13,1.58,3.17,9.65,5,10.63h-.04Z"/>
        <path class="cls-9" d="M509.13,175.54c-1.74,2.77,2.08,1.28,5,8.15-.82.09-1.87-.34-2.48.43-1.52,1.79-3.69,14.94-19.11,14.3,6.38-6.1,12.64-16.13,8.3-24.5,3.17-.13,5.39.73,8.3,1.62h0Z"/>
        <path class="cls-9" d="M514.13,183.69c3.56,8.45.56,12.55-5.82,17.97-4.26-7.51-5.17-1.41-7.08-.81-8.6,2.73-18.85,4.99-23.71,13.06-2.56-1.24-6.86-6.32-8.3-9.01,6.38-1.41,11.47-3.41,16.63-7.34,1.82.98,4.65.73,6.65.81,15.42.64,17.63-12.5,19.11-14.3.61-.73,1.65-.34,2.48-.43l.04.04Z"/>
        <path class="cls-11" d="M508.3,201.66c-5.08,4.31-24.71,15.15-30.75,12.25,4.86-8.07,15.07-10.33,23.71-13.06,1.87-.6,2.82-6.66,7.08.81h-.04Z"/>
      </g>
    </g>
  </g>
  <path class="cls-9" d="M226.46,13.79l-1.65.81c-3.17-1.66-12.94-.94-16.63,0-26.89-.21-27.88,40.5-6.65,51.47-.22.17-3.26,4.61-3.34,4.91-11.64-23.73-28.84-18.14-29.93-20.83C176.73-.04,97.68,7.34,110.06,53.43c-.39.94-11.94,2.26-16.2,8.58-4.3-9.73-9.69-14.13-20.37-16.35-.87-4.4,2.82-.17,9.56-2.43,1.3-.43,22.19-13.06,23.28-13.87,1.35-1.02,1.78-3.03,2.08-3.29,3.34-2.6,5.52-6.83,9.56-9.01,18.72-10.07,72.66-2.82,88.13-8.15.65-.21.43-1.11.43-1.62,5.99,1.19,14.38,3.97,19.94,6.53v-.04Z"/>
  <g>
    <path class="cls-17" d="M71.01,48.91c2.35,4.78-2.35,6.7-1.26,11.44-.96.68-7.47-3.88-12.9-.43,24.11,14.55-7.69,3.41,6.65,13.49-1.35,5.04-21.46,4.1-23.28-2.43.56-4.44,9.6-15.07,13.29-17.97,5.91-3.41,10.6-4.78,17.46-4.1h.04Z"/>
    <path class="cls-14" d="M65.19,97.95c-7.25-1.54-19.07-10.75-22.46-17.16,1.87-3.84,4.73,3.16,8.73,5.72,6.69,4.31,13.86,7.77,21.2,4.1,5.56-2.77,14.46-22.02,17.46-28.59.74,3.58-2.82,26.38-5,29.83-4.39,6.87-12.81,7.64-19.94,6.15v-.04Z"/>
    <path class="cls-10" d="M63.54,73.41c.48.34,1.3-1.32,2.08-.81,3.74,2.65,2.65,15.24,7.08,17.97-7.34,3.67-14.51.21-21.2-4.1-4-2.56-6.86-9.56-8.73-5.72-2.08-3.93-3.13-4.74-2.48-9.82,1.82,6.53,21.93,7.47,23.28,2.43l-.04.04Z"/>
    <path class="cls-9" d="M90.12,61.97c-3,6.57-11.9,25.82-17.46,28.59-4.39-2.73-3.3-15.36-7.08-17.97-.78-.51-1.61,1.15-2.08.81-14.38-10.07,17.42,1.07-6.65-13.49,5.43-3.46,11.94,1.07,12.9.43-1.09-4.74,3.6-6.66,1.26-11.44,8.43.85,17.46,4.95,19.11,13.06Z"/>
  </g>
  <g>
    <path class="cls-15" d="M124.22,111.82c-2.3.38-4.34-2.35-4.17.81-.48-2.77-3.82-6.83-5.82-9.01-7.9-8.54-18.24-6.02-21.63-20.44,12.73,20.44,44.26,15.24,44.91-9.82,8.77,14.04-11.81,26.38-13.29,38.41v.04Z"/>
    <path class="cls-10" d="M137.51,70.97c.13.73,0,1.66,0,2.43-.65,25.01-32.18,30.26-44.91,9.82-.65-2.69-.52-5.46,0-8.15,8.69-3.12,12.77-13.44,29.49-10.63,5.43.94,10.9,8.11,15.38,6.53h.04Z"/>
    <path class="cls-17" d="M137.51,70.97c-4.47,1.54-9.95-5.63-15.38-6.53-16.72-2.82-20.85,7.47-29.49,10.63,5.21-27.31,42.52-17.33,44.91-4.1h-.04Z"/>
  </g>
  <g>
    <path class="cls-10" d="M238.1,21.98c3.6,28.08-32.01,46.73-45.74,15.53v-.81c3.26-.51,5-6.83,11.21-10.63,10.51-6.4,32.79-5.29,21.2-11.44l1.65-.81c5.86,2.69,7.25,3.58,11.64,8.15h.04Z"/>
    <path class="cls-14" d="M192.41,37.47c13.73,31.2,49.34,12.59,45.74-15.53.17.17,2.61-1.02,4.17,2.86,2.78,7,.52,19.29-4.17,25.31-12.42,16.05-45.13,11.74-45.74-12.68v.04Z"/>
    <path class="cls-17" d="M224.81,14.6c11.6,6.15-10.68,5.04-21.2,11.44-6.21,3.8-7.95,10.11-11.21,10.63.26-9.35,5.69-19.5,15.81-22.06,3.69-.94,13.46-1.66,16.63,0h-.04Z"/>
  </g>
  <g>
    <path class="cls-9" d="M221.51,115.1c0,2.3-.87,6.96-1.65,9.01-2.17,5.51-9.9,12.72-15.81,13.87-10.77,2.13-22.11-8.32-23.28-18.78,18.85,22.45,25.37,18.91,40.74-4.1Z"/>
    <path class="cls-10" d="M219.82,107.72c1.39,2.26,1.65,4.78,1.65,7.34-15.38,22.96-21.89,26.55-40.74,4.1-.13-1.19-.09-2.86,0-4.1,9.03,2.73,7.12-2.52,7.47-2.86,11.77-10.29,13.03,8.66,22.85-2.86l8.73-1.62h.04Z"/>
    <path class="cls-17" d="M203.23,105.29s1.22,2.77,1.65.81c4.82-3.2,11.47-3.97,14.98,1.62l-8.73,1.62c-9.86,11.52-11.12-7.43-22.85,2.86-.39.34,1.56,5.59-7.47,2.86,1.52-17.84,18.37-10.58,22.46-9.82l-.04.04Z"/>
  </g>
  <g>
    <path class="cls-15" d="M257.26,44c9.6,9.43,20.46,24.88,20.81,17.97,7.12,11.99,12.07,21,12.47,35.55-18.29,8.45-7.99-.9-14.55-25.74-.87,6.06-.74,11.86-.43,17.97-2.43.68-1.39-2.65-2.48-5.29-4.6-11.05-17.94-26.59-27.45-34.7,2-5.12,1.61-10.24.82-15.53,3.6,3.2,7.38,6.44,10.82,9.82v-.04Z"/>
    <path class="cls-15" d="M274.72,94.66c2.91,11.01-1.95,7.04-6.65,14.72-1.87-1.84-6.21-7-7.47-9.01-7.3-11.35-6.56-17.37-11.64-24.5-.3-3.12-3.47-8.07-4.17-11.44,5.95,5.59,15.2,8.79,20.81,15.11,1.04,1.15,8.9,14.25,9.16,15.11h-.04Z"/>
    <path class="cls-1" d="M275.54,89.75c.13,2.05-.39,3.07-.82,4.91-.22-.85-8.12-13.96-9.16-15.11-5.56-6.32-14.81-9.52-20.81-15.11-10.12-9.47-2.52-6.19.82-14.72,9.47,8.15,22.8,23.64,27.45,34.7,1.09,2.65.04,6.02,2.48,5.29l.04.04Z"/>
    <path class="cls-9" d="M263.08,42.38c6.17,7,10.08,11.44,14.98,19.59-.3,6.91-11.21-8.54-20.81-17.97-1.65-4.69,2.87-1.58,5.82-1.62h0Z"/>
    <path class="cls-10" d="M263.08,42.38c-2.95.04-7.47-3.07-5.82,1.62-3.43-3.37-7.21-6.57-10.82-9.82-.43-3.03-3.56-8.41-1.65-9.82,6.99,5.38,12.47,11.4,18.29,17.97v.04Z"/>
    <path class="cls-9" d="M260.56,100.38c-11.94-6.27-13.33,3.46-23.28-2.86,7.95-4.95,12.55-12.08,11.64-21.64,5.08,7.13,4.34,13.14,11.64,24.5h0Z"/>
  </g>
  <g>
    <path class="cls-10" d="M198.23,76.69c5-1.54,8.9-5.55,13.73-7.34,5.08-1.92,11.68.73,11.21-2.43,12.99-9.39,21.46,1.88,19.11,15.11-1.35,7.64-17.63,20.57-19.55,20.83-3.91.55-24.45-7.85-24.54-26.12l.04-.04Z"/>
    <path class="cls-17" d="M223.16,66.88c.48,3.2-6.12.55-11.21,2.43-4.82,1.79-8.73,5.85-13.73,7.34,0-1.75-.26-4.69,0-5.72.09-.3,3.08-4.69,3.34-4.91,4.91-4.05,17.2-4.82,21.63.81l-.04.04Z"/>
  </g>
  <g>
    <path class="cls-2" d="M120.05,112.63c2.39,13.96-13.64,28.38-22.02,29.41-10.16,1.24-31.49-13.1-22.85-34.31,1.39.3,2.22-.21,3.34-.81v1.62c-8.3,10.11,9.34,29.15,17.89,28.59,7.95-.51,24.93-20.4,17.03-29.41.78-.6,2.35-.85,2.48-1.24.04-.17-2.3-1.58-1.65-2.86,2,2.18,5.34,6.23,5.82,9.01h-.04Z"/>
    <path class="cls-10" d="M96.81,106.91c-3.74,6.32,2.26,10.46,9.56,6.53,1.74-.94,4.3-4.18,6.25-5.72.17-.13.65.13.82,0,7.9,9.01-9.12,28.89-17.03,29.41-8.56.55-26.15-18.48-17.89-28.59-2.35,19.16,14.72,8.75,15.81-4.1.7.9,1.3,2.09,2.48,2.43v.04Z"/>
    <path class="cls-17" d="M89.3,101.19c4.65.26,3.74,1.75,5,3.29-1.04,12.85-18.11,23.22-15.81,4.1v-1.62c3.82-2.05,4.91-6.06,10.82-5.72v-.04Z"/>
    <path class="cls-17" d="M112.58,107.72c-1.91,1.54-4.47,4.78-6.25,5.72-7.3,3.88-13.29-.21-9.56-6.53.26-.43,1.52-2.39,1.65-2.43,3.91-1.84,11.99-1.32,14.12,3.29l.04-.04Z"/>
  </g>
  <g>
    <path class="cls-10" d="M241.45,104.48c.39.26,1.35.6,1.65.81.13.09-.56,2.22,1.26,3.29,10.9-8.92,10.99,9.3,16.2-1.62,3.43,5.8,2.22,11.35-.82,17.16v1.62c-15.11,24.8-36.05,9.01-34.92-12.25,11.34-7.64,12.25-3.54,13.73-4.1,2.35-.85-.22-4.44,2.91-4.91h0Z"/>
    <path class="cls-17" d="M241.45,104.48c-3.13.47-.56,4.05-2.91,4.91-1.48.55-2.35-3.54-13.73,4.1.13-2.43.22-3.58,1.65-5.72,4.39-5.72,8.69-7.13,14.98-3.29h0Z"/>
    <path class="cls-17" d="M260.56,106.91c-5.26,10.93-5.3-7.26-16.2,1.62-1.82-1.02-1.09-3.16-1.26-3.29,5.78-4.82,13.25-5.51,17.46,1.62v.04Z"/>
  </g>
  <g>
    <path class="cls-3" d="M244.79,24.41c-1.91,1.37,1.22,6.79,1.65,9.82.78,5.29,1.17,10.41-.82,15.53-3.34,8.49-10.95,5.21-.82,14.72.7,3.37,3.87,8.32,4.17,11.44.91,9.56-3.69,16.73-11.64,21.64,9.95,6.32,11.34-3.41,23.28,2.86,1.26,2.01,5.6,7.17,7.47,9.01.39.38,1.43.9,2.48,2.43-1.13,2.01-.7,2.77-.82,3.29-2.04,6.96-2.04,9.35.82,16.35-5.17-5.46-.22-8.45-10.82-7.34,3.04-5.8,4.26-11.35.82-17.16-4.21-7.17-11.68-6.49-17.46-1.62-.3-.21-1.26-.6-1.65-.81-6.3-3.88-10.55-2.48-14.98,3.29-7.21,9.35,1.65,19.93-6.65,16.35.78-2.01,1.65-6.7,1.65-9.01,0-2.6-.26-5.08-1.65-7.34-3.47-5.63-10.12-4.82-14.98-1.62,1-5.85-4.69-9.69-7.08-14.72-8.04,14.47-1.04,5.89,5.39,13.87-4.04-.77-20.93-8.02-22.46,9.82-.09,1.19-.13,2.9,0,4.1,1.17,10.46,12.51,20.91,23.28,18.78,1.22,2.52-.39,3.07-2.48,4.91-9.47,8.32-6.65-3.33-18.72-1.62-3.56.51-6.47,3.37-7.9,6.53-2.82,6.27-1.69,13.06,1.65,18.78-1.69-1.07-3.6-1.62-3.34.81-.87-.98-2.3-1.79-2.91-4.1-1.35-.43-1.69,1.58-3.74,4.1l-2.48-2.43c3.34-6.19,4.82-10.2,1.65-17.16-5.34-11.65-14.46-1.49-17.89-1.62-1.3-.04-14.46-12.63-21.2,2.43l-2.48-2.43c2.48-4.31,5.26-6.87,9.99-8.58.61-1.71-12.16-8.24-9.99-25.74,1.52-12.04,22.11-24.37,13.29-38.41,0-.77.13-1.75,0-2.43-2.39-13.23-39.66-23.26-44.91,4.1-.52,2.73-.65,5.51,0,8.15,3.39,14.38,13.73,11.91,21.63,20.44-.61,1.28,1.74,2.69,1.65,2.86-.13.38-1.74.64-2.48,1.24-.17.13-.65-.13-.82,0-2.17-4.57-10.21-5.08-14.12-3.29-3.3-8.02-7.47-12.5-9.16-3.29-5.91-.34-6.99,3.67-10.82,5.72-1.13.6-1.95,1.11-3.34.81,3.34-8.19,4.08.26-14.12-5.72,1.87-1.75,4.86,2.94,4.17-4.1,7.12,1.49,15.55.73,19.94-6.15,2.17-3.41,5.73-26.25,5-29.83-1.65-8.11-10.73-12.25-19.11-13.06-6.86-.68-11.55.68-17.46,4.1,4.17-3.24,6.04-4.91,12.07-5.72-.78-5.38.87-1.96,1.26-2.43,2.43-.51,4.39.34,6.65.81,10.68,2.22,16.07,6.57,20.37,16.35,4.26-6.32,15.81-7.64,16.2-8.58C97.64,7.43,176.69.04,168.22,50.23c1.09,2.69,18.29-2.9,29.93,20.83-.26,1.02,0,3.97,0,5.72.09,18.27,20.63,26.67,24.54,26.12,1.91-.26,18.2-13.19,19.55-20.83,2.35-13.23-6.17-24.5-19.11-15.11-4.43-5.63-16.72-4.91-21.63-.81-21.24-10.93-20.24-51.64,6.65-51.47-10.12,2.52-15.55,12.68-15.81,22.06v.81c.61,24.41,33.27,28.72,45.74,12.68,4.69-6.06,6.95-18.31,4.17-25.31-1.56-3.88-4-2.69-4.17-2.86-4.39-4.57-5.78-5.46-11.64-8.15-5.56-2.56-13.99-5.33-19.94-6.53-.52-.09-1.13.09-1.65,0,14.42-.68,28.67,8.49,39.92,17.16l.04-.13Z"/>
    <g>
      <g>
        <path class="cls-10" d="M150.02,105.29c-10.55-6.87-29.23,7.72-11.21,10.63,6.04-11.48,20.46,7.77,27.02-3.67,2.17-3.8-.74-6.36.82-8.58,19.02,9.26-12.25,54.63-33.27,24.92-13.55-19.16,5.78-36.7,16.63-23.3h0Z"/>
        <path class="cls-17" d="M166.61,103.67c-1.56,2.22,1.35,4.78-.82,8.58-6.56,11.44-20.98-7.81-27.02,3.67-18.03-2.9.65-17.5,11.21-10.63,3.17,2.39,6.78-6.44,16.63-1.62Z"/>
      </g>
      <g>
        <path class="cls-10" d="M154.15,23.6c11.99,14.08-2.74,28.38-17.03,31.84-6.69-5.42-15.33-6.15-23.71-5.72-2.22-4.91.26-11.74,2.48-16.35,6.78,9.26,5.34-1.79,10.38-4.1,10.25-4.65,13.25,5.29,18.29,4.1,1.87-.43,15.25-12.59-10.38-13.87,8.6-1.45,12.6-.55,19.94,4.1h.04Z"/>
        <path class="cls-14" d="M113.4,49.72c8.34-.43,17.03.3,23.71,5.72,14.33-3.5,29.01-17.8,17.03-31.84,3.34,2.09,7.95,5.59,9.16,9.39,6.65,20.78-12.38,21.25-21.2,33.89-13.77-18.22-25.63-10.41-28.67-17.16h-.04Z"/>
        <path class="cls-17" d="M134.21,19.5c25.63,1.28,12.25,13.44,10.38,13.87-5.08,1.19-8.04-8.71-18.29-4.1-5.08,2.3-3.6,13.36-10.38,4.1,3.74-7.72,9.82-12.46,18.29-13.87Z"/>
      </g>
      <g>
        <path class="cls-10" d="M187.42,66.07c.17.64,2.39,4.57,2.48,5.29,1.78,13.27-6.69,25.35-19.11,29.83-8.99-8.15-17.68-1.28-19.55-1.62-7.17-6.32-9.43-14.64-7.9-23.69,1.09-.21.78,1.79,1.26,1.62,2.3-.81,6.69-21.25,42.83-11.44Z"/>
        <path class="cls-17" d="M187.42,63.63c.09.77-.17,1.75,0,2.43-36.14-9.82-40.52,10.63-42.83,11.44-.48.17-.17-1.88-1.26-1.62,3.3-19.38,30.49-25.18,44.04-12.25h.04Z"/>
        <path class="cls-15" d="M170.78,101.19c12.47-4.48,20.93-16.56,19.11-29.83-.09-.77-2.35-4.65-2.48-5.29-.17-.68.09-1.66,0-2.43,15.9,15.19,1.95,34.19-10.38,45.75-2.08.43-3.3-5.51-6.25-8.15v-.04Z"/>
      </g>
      <path class="cls-14" d="M176.17,123.26c15.46,24.37,11.64,6.1-5,22.06-11.08-11.65-3.78-5.08,5-22.06Z"/>
      <path class="cls-15" d="M204.88,106.1c-.48,1.96-1.56-.81-1.65-.81-6.43-7.98-13.42.6-5.39-13.87,2.39,5.04,8.04,8.88,7.08,14.72l-.04-.04Z"/>
      <path class="cls-15" d="M98.46,104.48s-1.39,2.01-1.65,2.43c-1.17-.34-1.78-1.58-2.48-2.43-1.22-1.54-.3-2.99-5-3.29,1.65-9.22,5.86-4.74,9.16,3.29h-.04Z"/>
    </g>
  </g>
  <g>
    <path class="cls-10" d="M258.08,146.13c6.65,9.47-4.08,30.94-16.63,31.84-21.07,1.58-29.36-39.56-8.73-35.94,2.61.47,6.25,4.87,6.65,4.91,1.04.13,12.55-9.65,18.72-.81h0Z"/>
    <path class="cls-17" d="M229.37,142.85c.74-.26,9.43,2.18,7.9,6.96-17.72,3.29-10.73-5.93-7.9-6.96Z"/>
  </g>
</svg>