<?xml version="1.0" encoding="UTF-8"?>
<svg id="Layer_1" data-name="Layer 1" xmlns="http://www.w3.org/2000/svg" xmlns:xlink="http://www.w3.org/1999/xlink" viewBox="0 0 562.63 531.56">
  <defs>
    <style>
      .cls-1 {
        fill: url(#linear-gradient);
      }

      .cls-1, .cls-2, .cls-3, .cls-4, .cls-5, .cls-6, .cls-7, .cls-8, .cls-9, .cls-10, .cls-11, .cls-12, .cls-13, .cls-14, .cls-15, .cls-16, .cls-17, .cls-18, .cls-19, .cls-20, .cls-21, .cls-22, .cls-23, .cls-24, .cls-25 {
        stroke-width: 0px;
      }

      .cls-2 {
        fill: url(#linear-gradient-2);
      }

      .cls-3 {
        fill: #f4c0d2;
      }

      .cls-4 {
        fill: #532b42;
      }

      .cls-5 {
        fill: #28121d;
      }

      .cls-6 {
        fill: #54555a;
      }

      .cls-7 {
        fill: #340d1c;
      }

      .cls-8 {
        fill: #100d0f;
      }

      .cls-9 {
        fill: #414547;
      }

      .cls-10 {
        fill: #1b1218;
      }

      .cls-11 {
        fill: #1f201f;
      }

      .cls-12 {
        fill: #c74a81;
      }

      .cls-13 {
        fill: #d381a1;
      }

      .cls-14 {
        fill: #d1628c;
      }

      .cls-15 {
        fill: #cacbcc;
      }

      .cls-16 {
        fill: #e193ab;
      }

      .cls-17 {
        fill: #a8567d;
      }

      .cls-18 {
        fill: #a62967;
      }

      .cls-19 {
        fill: #cf53a6;
      }

      .cls-20 {
        fill: #ba718a;
      }

      .cls-21 {
        fill: #bc3d6c;
      }

      .cls-22 {
        fill: #6c0a32;
      }

      .cls-23 {
        fill: #751f48;
      }

      .cls-24 {
        fill: #f0a7bb;
      }

      .cls-25 {
        fill: #f5d1dd;
      }
    </style>
    <linearGradient id="linear-gradient" x1="453.08" y1="176.72" x2="468.14" y2="165.64" gradientTransform="translate(0 510.89) scale(1 -1)" gradientUnits="userSpaceOnUse">
      <stop offset="0" stop-color="#9f265b"/>
      <stop offset="1" stop-color="#700c39"/>
    </linearGradient>
    <linearGradient id="linear-gradient-2" x1="493.19" y1="264.63" x2="519.86" y2="253.53" gradientTransform="translate(0 510.89) scale(1 -1)" gradientUnits="userSpaceOnUse">
      <stop offset="0" stop-color="#a2285f"/>
      <stop offset="1" stop-color="#750e3f"/>
    </linearGradient>
  </defs>
  <path class="cls-4" d="M391.37,446.91c-11.17,11.51-23.53,21.76-35.93,31.67-15.53,12.41-40.85,28.92-42.7,30.87l-2.22-.8s1.28-3.4,0-3.15c9.32-5.7,68.02-52.13,76.4-60.14-.57,4,2.13,2.55,4.5,1.6l-.05-.05Z"/>
  <path class="cls-23" d="M402.63,436.65c-3.08,2.95-7.34,8.71-11.22,10.31-2.37.95-5.06,2.45-4.5-1.6,2.93-2.8,12.59-13.46,14.96-16.61,12.45-7.91,35.31-36.27,43.79-42.73,3.03-2.3,3.93-3.3,7.86-3.95.76-.15,1.66-1.6,2.98-.4-18.08,18.11-35.36,37.42-53.91,55.04l.05-.05Z"/>
  <g>
    <path class="cls-6" d="M520.17,491.23c19.79,15.71-31.29,23.11-48.66,26.12-25.75,4.45-82.65,10.96-107.07,9.51-15.86-.95-42.6-4-53.91-15.41.8-1.2,2.13-1.85,2.22-2,1.85-1.95,27.17-18.46,42.7-30.87,31.15-1.6,142.38,5.6,164.73,12.66h0Z"/>
    <path class="cls-9" d="M471.51,517.35c-.38,2.45,2.7,2.35,4.5,2.35-24,4.35-48.33,8.71-72.66,10.31-10.27.65-20.4.7-30.72.8l4.88-1.6c-6.3-.3-13.11,1.25-13.11-2.35,24.47,1.45,81.32-5.05,107.07-9.51h.05Z"/>
    <path class="cls-11" d="M513.45,513.4c-7.67,2.05-30.67,6.5-37.44,6.35-1.8,0-4.88.1-4.5-2.35,17.37-3,68.49-10.41,48.66-26.12,21.06,6.65,15.43,16.26-6.72,22.16v-.05Z"/>
  </g>
  <path class="cls-5" d="M461.05,6.83c11.55,3.75,20.45,8.16,30.72,15.06l-1.51,3.95c-6.86-4.75-13.92-9.01-21.73-11.86-12.12-4.4-24.99-6.3-37.82-6.35-.85.6.19,3.4-1.14,4.75-.19.2-1.28.6-2.22,1.6-.14.1-.99-.2-2.98,1.6-11.64,3.1-29.92,5.4-40.42-.8,12.12,2.55,42.84,6.3,46.81-8.71,3.22-.85,19.98,2.75,20.97,2.35.66-.25.66-3.4,2.22-3.15.47.1,2.98,7.35,7.1,1.6v-.05Z"/>
  <path class="cls-24" d="M180.21,25.84c.8,17.56,1.37,35.07,1.51,52.63-27.41,4.15-9.61,10.81-21.35,18.61-2.84,1.9-44.16,15.66-61.02,30.07,1.51-13.71-3.79-26.12-6.72-39.17-13.77-17.31-36.31-21.86-25.47-48.68,2.08-1.65.8.8,2.98,1.6-2.7,11.06,4.97,19.06,8.62,19.01,1.7,0,18.89-12.46,29.96-17.41,10.89-4.85,22.86-7.85,34.08-11.86,2.6-.95,7.2-1.65,10.13-2.35-1.7-7.15,12.45-13.26,17.23-11.06,2.08.95,6.67,9.31,10.13,8.71l-.1-.1Z"/>
  <path class="cls-16" d="M208.65,17.13c12.59,10.26,20.5,11.96,30.72,26.12-2.04,3.9-18.51,27.17-18.74,28.87-.09.6,3.93,9.76,4.5,11.46v2.35c.24,4.25,16.28,46.83,19.45,53.83l-4.88,8.71c-4.12-10.41-50.36-38.37-56.19-39.58-1.42-.3-27.79-.35-29.21,0-.76.2,0,2.05-.76,2.35-1.56.65-5.35-1.35-4.88,1.6-25.56,2.45-36.5,11.41-51.69,32.47-.19-.2-3.79-1.95-4.5-2.75,3.88-4.65,6.01-9.26,6.72-15.41,16.9-14.46,58.17-28.17,61.02-30.07,11.74-7.75-6.06-14.46,21.35-18.61-.14-17.56-.71-35.07-1.51-52.63-.24-5.55.24-11.11-.76-16.61,10.18.7,19.79,4,29.21,7.91h.14Z"/>
  <path class="cls-24" d="M383.89,14.73c10.51,6.2,28.78,3.9,40.42.8-1.7,1.5-3.55,1.6-2.98,3.55,4.35,4.15,14.11,10.26,11.22,17.41-1.56,3.8-50.89,57.74-54.29,59.74-11.41,6.75-31.67,8.76-37.82-6.7-2.93-7.3-1.09-17.56-3.74-19.41,12.69-13.91,32-25.67,47.9-35.22l-11.22-24.17c10.65-1.25,5.06.75,10.46,3.95l.05.05Z"/>
  <path class="cls-14" d="M455.79,325.83c-12.73,11.26-25.8,21.31-29.96,38.77-1.14-10.06,5.25-14.16,6.72-22.56,4.35-24.72-17.23-41.73-36.31-27.32-20.21,15.21-10.98,54.08,16.47,48.28,3.36,3.3,5.68,7.3,9.37,10.31-7.81,13.61-20.92,22.11-32.95,30.87-4.5-4.7-9.18-6.45-14.25-16.21-21.68-41.93,6.63-107.02,47.57-98.56,22.15,4.6,22.96,34.02,33.32,36.42h0Z"/>
  <path class="cls-25" d="M336.74,70.17c-8,8.81-13.92,19.16-20.21,29.27-3.5-1.15-10.93,7.96-14.25,1.2-5.3-10.81,7.34-20.31,6.01-24.52-23.48-11.41,48.14-35.57,19.83-35.22-8.52.1-14.77,8.21-21.35,12.66,15.24-17.91,43.64-40.03,66.65-42.73l11.22,24.17c-15.95,9.56-35.26,21.31-47.9,35.22v-.05Z"/>
  <path class="cls-1" d="M500.71,312.37c-12.92,23.56-28.92,45.08-45.68,65.69-5.77,1.55-13.06,2.15-18.74,0-5.02-1.9-9.85-7.8-10.46-13.46,4.17-17.46,17.23-27.57,29.96-38.77,8.14-7.2,17.89-12.81,25.09-21.36,5.73,2.9,13.59,7.3,19.83,7.91h0Z"/>
  <path class="cls-16" d="M452.81,22.69c3.83,2,7.57,3.95,11.22,6.35-12.54,27.17-28.64,43.58-18.74,76,4.88,15.96,23.48,48.88,27.69,82.3-.09.15-.33,1.1-1.51,3.15-5.49-4.35-8.38-24.87-12.73-35.22-2.18-5.15-9.18-16.81-12.73-20.96-.62-1.85,2.18-1.75,2.22-2.75,0-.2-1.61-1.55-2.22-2.75,1.14.15,1.51.15,1.51-1.2-.09-3.95-13.63-30.97-14.96-37.97-6.82-36.22,17.18-44.83-5.25-75.6.99-1,2.08-1.4,2.22-1.6,8.09,2.45,15.67,6.4,23.19,10.31l.09-.05Z"/>
  <path class="cls-16" d="M267.07,102.59c-3.17,10.66,0,8.96,0,9.51.85,15.16-.47,30.42-1.51,45.53.99,2.85,13.3-2.85,15.72-3.55,21.77-6.55,30.11-13.91,49.42-22.96-22.11,18.16-31.76,47.58-50.55,68.84-1.47-5.3-12.69-38.57-14.58-39.98-2.08-1.5-4.12,1.2-6.01-.4-1.09-6.25.05-19.86-.76-24.17-1.42-7.45-6.2-3.9-6.01-8.71,3.88-15.31,6.86-32.97,20.21-42.33.19,9.86-3.79,10.76-6.01,18.21h.09Z"/>
  <path class="cls-18" d="M75.36,328.98c7.01,10.51,15.01,21.46,24.71,29.27,14.72,17.36,80.19,86.1,101.87,75.2-.43.5-.57,4-4.88,6.35-6.01,3.2-21.96,4.55-27.69,1.6-1.66-.85-23.9-21.71-27.69-25.32-26.79-25.47-51.07-54.13-71.52-85.5,1.37-3.15,3.08-3.6,5.25-1.6h-.05Z"/>
  <path class="cls-3" d="M316.48,99.44c-9.42,15.06-5.96,20.06-21.73,12.66,1.42-6.75,0-16.61-3.74-22.56-.99-1.6-2.84-.35-2.98-.4-.09,0,.62-2-1.51-1.6,5.59-10.61,3.64-14.56,20.21-34.02,6.58-4.45,12.83-12.56,21.35-12.66,28.31-.35-43.31,23.82-19.83,35.22,1.33,4.2-11.27,13.76-6.01,24.52,3.31,6.75,10.75-2.35,14.25-1.2v.05Z"/>
  <path class="cls-23" d="M434.06,379.66c1.04.45,7.53,1.4,7.48,2.75l-36.68,36.82c-.33-.6-6.67-6.3-8.24-7.91,11.55-6.85,23.53-22.16,30.72-34.02.99.5,4.35,1.4,6.72,2.35Z"/>
  <path class="cls-7" d="M455.03,378.06s.52.05.76,0c1.7,4.4-2.18.6-2.22,3.95-3.93.65-4.83,1.65-7.86,3.95-8.47,6.45-31.38,34.87-43.79,42.73,2.89-3.85,6.01-4.35,2.98-9.51l36.68-36.82c0-1.4-6.44-2.35-7.48-2.75l2.22-1.6c5.63,2.15,12.97,1.55,18.74,0l-.05.05Z"/>
  <path class="cls-18" d="M427.34,377.26c-7.2,11.91-19.12,27.17-30.72,34.02-2.41-2.45-5.11-4.6-7.48-7.1,12.07-8.76,25.14-17.26,32.95-30.87,1.56,1.25,3.55,3.05,5.25,3.95Z"/>
  <g>
    <path class="cls-12" d="M490.25,54.31c5.25,7.05,9.18,15.51,14.96,21.36,0,21.26,12.73,23.82,17.23,27.72,1.33,5.75.28,11.66.76,17.41-12.26,11.31-29.25,16.91-20.97,37.22-8.99,8.16-22.58,18.71-29.21,29.27-4.21-33.42-22.82-66.34-27.69-82.3,17.7-14.11,28.73-35.27,44.92-50.63v-.05Z"/>
    <path class="cls-18" d="M528.45,138.21c-11.12-.05-22.15,3.2-21.73,17.01-.52,1.25-3.46,1.85-4.5,2.75-8.28-20.31,8.71-25.92,20.97-37.22,1.51,19.76,3.5,14.31,5.63,15.81.8.6-.33.65-.38,1.6v.05Z"/>
  </g>
  <path class="cls-18" d="M528.45,138.21c.05-.95,1.18-1,.38-1.6-2.08-1.5-4.12,3.95-5.63-15.81-.43-5.75.57-11.66-.76-17.41,2.93,2.55,6.77,4.9,8.99,8.31,4.21,6.45,8.14,22.66,3.36,28.12-.95-.5-6.06-1.6-6.34-1.6h0Z"/>
  <path class="cls-14" d="M245.34,53.56c-1.75.6-3.69,2.05-5.25,3.15-8.05,5.85-10.6,18.11-14.96,26.92-.57-1.7-4.54-10.86-4.5-11.46.19-1.75,16.66-24.97,18.74-28.87,2.32,3.2,4.92,6.35,6.01,10.31l-.05-.05Z"/>
  <path class="cls-20" d="M455.79,378.06s-.52-.05-.76,0c16.76-20.61,32.76-42.13,45.68-65.69.28,0,.8-1.8,5.25-.4-14.2,22.96-31.15,43.58-46.44,65.69-.99.9-2.7.1-3.74.4h0Z"/>
  <path class="cls-22" d="M289.55,515.8l-2.22,9.51c-10.65,4.8-15.24,2.65-23.95-5.15,0-1.5,13.44-.4,26.22-4.35h-.05Z"/>
  <path class="cls-17" d="M310.52,505.49c1.28-.25.09,3,0,3.15-1.14,1.7-20.54,15.41-23.19,16.61l2.22-9.51c7.38-2.3,14.34-6.25,20.97-10.31v.05Z"/>
  <path class="cls-19" d="M288.04,89.13c-7.05,10.36-8.66,18.36-20.97,22.96,0-.55-3.17,1.15,0-9.51,10.56,4.1,13.11-2.95,19.45-15.06,2.08-.4,1.42,1.55,1.51,1.6Z"/>
  <g>
    <path class="cls-14" d="M273.08,84.43c-13.35,9.36-16.33,27.07-20.21,42.33-.24,4.8,4.59,1.25,6.01,8.71.8,4.3-.38,17.86.76,24.17-.28,1.7-2.18,1.3-2.22,2.35-4.92-6.6-9.28-14.61-12.73-22.16-3.17-7-19.22-49.58-19.45-53.83,6.48-6.7,7.76-21.86,16.47-27.72,15.67-10.46,31.15,9.46,31.43,26.12l-.05.05Z"/>
    <path class="cls-23" d="M241.6,58.26c-8.71,5.85-9.99,21.01-16.47,27.72v-2.35c4.4-8.81,6.91-21.06,14.96-26.92l1.51,1.6v-.05Z"/>
  </g>
  <path class="cls-24" d="M427.34,13.98c22.44,30.77-1.56,39.38,5.25,75.6,1.33,7,14.86,34.07,14.96,37.97,0,1.35-.38,1.3-1.51,1.2-7.9-14.61-35.97-21.81-50.55-22.16-3.79-.1-10.89.4-10.13,2.35-18.18.5-40.24,10.31-54.67,22.16-19.36,9.01-27.64,16.41-49.42,22.96,2.56-12.01,11.6-33.02,13.49-41.93,15.76,7.35,12.31,2.4,21.73-12.66,6.3-10.11,12.21-20.51,20.21-29.27,2.65,1.85.8,12.06,3.74,19.41,6.15,15.51,26.41,13.51,37.82,6.7,3.41-2.05,52.73-55.94,54.29-59.74,2.89-7.15-6.86-13.26-11.22-17.41-.57-1.95,1.28-2.05,2.98-3.55,1.99-1.75,2.89-1.45,2.98-1.6l.05-.05Z"/>
  <g>
    <path class="cls-18" d="M490.25,25.84c11.74,8.16,19.5,16.76,29.21,27.32.14,2.9-14.25,2.65-14.25,22.56-5.82-5.85-9.75-14.31-14.96-21.36-9.28-12.51-13.25-17.01-26.22-25.32-3.69-2.35-7.38-4.35-11.22-6.35,5.54-2.05,14.91-.4,15.72-8.71,7.81,2.85,14.86,7.1,21.73,11.86h0Z"/>
    <path class="cls-12" d="M468.52,13.98c-.8,8.31-10.18,6.65-15.72,8.71-7.53-3.9-15.15-7.8-23.19-10.31,1.33-1.35.28-4.15,1.14-4.75,12.83.05,25.7,1.9,37.82,6.35h-.05Z"/>
  </g>
  <path class="cls-13" d="M244.63,139.81c3.46,7.55,7.81,15.56,12.73,22.16-.9,16.51-.33,45.08-1.51,47.08-.14.25-5.06,1.45-5.63,1.2-1.23-.6-5.3-21.71-6.34-24.92-15.34-46.08-46.58-77.1-95.1-72.45-.47-2.9,3.31-.95,4.88-1.6.76-.3,0-2.2.76-2.35,1.42-.35,27.79-.3,29.21,0,5.82,1.2,52.07,29.17,56.19,39.58l4.88-8.71h-.05Z"/>
  <path class="cls-16" d="M446.04,128.7c.66,1.2,2.27,2.6,2.22,2.75-.05,1-2.84.9-2.22,2.75-14.58-16.96-39.38-25.92-60.64-25.32-.76-1.95,6.3-2.45,10.13-2.35,14.58.35,42.65,7.55,50.55,22.16h-.05Z"/>
  <g>
    <path class="cls-24" d="M179.45,9.23c.99,5.5.52,11.06.76,16.61-3.46.6-8-7.75-10.13-8.71-4.78-2.15-18.93,3.9-17.23,11.06-2.93.7-7.48,1.45-10.13,2.35-.57-3.55-5.49-1.9-10.13-3.95-3.98-1.75-14.77-10.86-21.73-13.46-12.02,2.55-37.49,14.26-40.8,27.72-2.18-.8-.9-3.25-2.98-1.6,5.21-12.91,22.91-23.51,35.55-26.92,28.31-7.65,24.14,8.11,52.4,4.75,6.01-.7,13.63-3,17.23-8.71,4.78-.55,6.77.75,7.1.8l.1.05Z"/>
    <path class="cls-25" d="M142.76,30.59c-11.22,4-23.19,7-34.08,11.86-11.08,4.95-28.26,17.36-29.96,17.41-3.64.1-11.31-7.96-8.62-19.01,3.31-13.41,28.78-25.12,40.8-27.72,6.96,2.6,17.7,11.71,21.73,13.46,4.64,2.05,9.56.4,10.13,3.95v.05Z"/>
  </g>
  <path class="cls-14" d="M490.25,54.31c-16.19,15.41-27.27,36.57-44.92,50.63-9.94-32.37,6.15-48.83,18.74-76,12.97,8.31,16.9,12.81,26.22,25.32l-.05.05Z"/>
  <path class="cls-25" d="M294.8,112.09c-1.89,8.91-10.93,29.92-13.49,41.93-2.41.75-14.72,6.4-15.72,3.55.99-15.11,2.32-30.32,1.51-45.53,12.31-4.6,13.92-12.61,20.97-22.96.14.05,1.99-1.2,2.98.4,3.69,5.95,5.21,15.81,3.74,22.56v.05Z"/>
  <g>
    <path class="cls-14" d="M385.4,108.94c21.25-.6,46.06,8.36,60.64,25.32,3.55,4.15,10.56,15.81,12.73,20.96,4.35,10.36,7.24,30.87,12.73,35.22-14.01,25.37-16.43,67.84-6.72,95.36-.43,3.05-30.2-7.1-34.08-7.5-55.52-6-81.56,48.88-68.54,100.11-16.85-8.31-39.9-12.16-56.52-1.2-14.15,9.36-7.9,19.31-14.58,25.72-1.66,25.52,23.29,9.11,20.21,26.12-.47,2.75-3.64,4.55-4.88,6.7,14.2-5.8-1.85-20.41,11.22-16.61,11.36,3.3-.66,29.62-30.72,22.96-22.06-4.9-30.39-35.02-58.41-30.87-12.35,1.85-19.08,13.36-26.6,22.16-21.68,10.91-87.14-57.84-101.87-75.2-23.38-27.62-59.26-83.75-55.05-121.88,9.85-1,18.41-4.5,26.22-11.06,38.1-5,56.47-47.28,25.85-79.95,15.15-21.06,26.13-29.97,51.69-32.47,48.52-4.65,79.76,26.32,95.1,72.45,1.04,3.2,5.16,24.37,6.34,24.92.57.25,5.49-.95,5.63-1.2,1.14-2,.57-30.62,1.51-47.08.05-1.05,1.99-.65,2.22-2.35,1.89,1.6,3.93-1.15,6.01.4,1.89,1.4,13.11,34.67,14.58,39.98,18.74-21.26,28.45-50.73,50.55-68.84,14.44-11.86,36.45-21.66,54.67-22.16h.05Z"/>
    <g>
      <path class="cls-8" d="M243.49,327.38c44.21-5.95,49.65,71.4,9.37,72.45,3.17.75,10.04,3.45,12.35,5.15,16.47,12.21-4.59.5-6.01,0-20.97-7.2-29.92,11.11-42.32-6.7-16.19-23.26-1.18-67.09,26.6-70.85v-.05Z"/>
      <g>
        <path class="cls-14" d="M259.59,343.24c5.54,5.8,10.98,14.31,6.72,22.56-4.07,7.91-16.95,3.9-11.22.4.28-.2,1.66.25,2.98-.8,17.47-13.66-27.45-37.52-31.43.4-1.7,16.16,4.5,26.57,19.45,30.47-11.03,4-20.12,4.6-23.95-9.11-7.72-27.57,12.83-61.59,37.44-43.93h0Z"/>
        <path class="cls-8" d="M258.07,365.4c-.38-.8-1.47-1.1-2.22-1.6,4.4-2.8,1.8-10.66-2.6-11.86-20.92-5.7-25.99,33.17-4.88,42.73-.33.85-1.51,1.3-2.22,1.6-14.96-3.9-21.16-14.31-19.45-30.47,4.02-37.92,48.9-14.06,31.43-.4h-.05Z"/>
        <path class="cls-14" d="M255.85,363.8c-3.64-2.25-1.56-7.91-8.62-6.35-6.2,1.4-6.96,12.71-6.34,17.81,1.75,15.26,24.05,26.92,7.48,19.41-21.11-9.56-16.05-48.43,4.88-42.73,4.4,1.2,7.05,9.06,2.6,11.86Z"/>
        <path class="cls-14" d="M255.09,366.21c-5.68,3.5,7.2,7.5,11.22-.4,4.21-8.26-1.18-16.71-6.72-22.56,6.48,4.65,10.6,11.56,8.99,20.16-2.79,14.86-18.27,3.2-19.45,7.91-.19.65,2.27,4.85,2.22,11.86,1.85,5.55,10.7,9.36,4.88,10.71-5.68,1.3-16.05-18.46-12.35-28.87,3.93-11.06,7.48,1.3,11.22,1.2h0Z"/>
        <path class="cls-14" d="M270.43,363.8c2.41,26.82-15.67,27.97-16.09,17.81-.43-9.11,14.77.6,16.09-17.81Z"/>
      </g>
    </g>
  </g>
  <g>
    <path class="cls-8" d="M425.83,364.6c.62,5.65,5.44,11.56,10.46,13.46l-2.22,1.6c-2.41-1-5.77-1.85-6.72-2.35-1.7-.9-3.69-2.7-5.25-3.95-3.69-3-6.01-6.95-9.37-10.31-27.45,5.8-36.68-33.07-16.47-48.28,19.12-14.41,40.66,2.6,36.31,27.32-1.47,8.41-7.86,12.51-6.72,22.56v-.05Z"/>
    <g>
      <path class="cls-14" d="M408.22,317.92c22.11-2.95,20.69,38.32-1.51,34.82-16.61-2.6-13.49-32.82,1.51-34.82Z"/>
      <path class="cls-8" d="M419.86,341.64c-5.06-10.91-7.43,5.1-17.23-7.91-2.22-18.06,25.47-9.61,17.23,7.91Z"/>
      <path class="cls-21" d="M402.63,333.73c9.8,13.01,12.17-3,17.23,7.91-4.31,9.16-17.09,7.05-19.45-2-.99-3.75.52-15.31.76-5.55.43.95,1.18-.8,1.51-.4l-.05.05Z"/>
    </g>
  </g>
  <g>
    <path class="cls-8" d="M461.05,6.83c-4.12,5.75-6.63-1.5-7.1-1.6-1.56-.25-1.56,2.9-2.22,3.15-.99.4-17.75-3.2-20.97-2.35-3.98,15.01-34.7,11.26-46.81,8.71-5.44-3.2.19-5.2-10.46-3.95-23,2.7-51.41,24.82-66.65,42.73-16.57,19.46-14.67,23.41-20.21,34.02-6.34,12.06-8.9,19.16-19.45,15.06,2.22-7.45,6.15-8.36,6.01-18.21-.28-16.66-15.81-36.57-31.43-26.12l-1.51-1.6c1.51-1.1,3.5-2.55,5.25-3.15,2.22-.8,7.76-.5,8.24-1.2-11.5-16.06-27.27-27.92-44.92-35.22-9.42-3.9-19.03-7.2-29.21-7.91-.38,0-2.32-1.35-7.1-.8-3.6,5.7-11.22,8.01-17.23,8.71-28.26,3.35-24.09-12.41-52.4-4.75-12.69,3.4-30.34,14.01-35.55,26.92-10.84,26.82,11.69,31.37,25.47,48.68,2.98,13.06,8.24,25.52,6.72,39.17-.76,6.15-2.84,10.76-6.72,15.41.71.8,4.31,2.55,4.5,2.75,30.63,32.67,12.26,74.95-25.85,79.95-7.81,6.55-16.38,10.11-26.22,11.06-4.21,38.17,31.67,94.31,55.05,121.88-9.7-7.8-17.7-18.76-24.71-29.27-12.4-18.61-27.08-46.33-31.43-68.44-4.17-21.01,3.12-24.57-12.35-25.72-1.18,30.87,22.06,70.44,38.58,95.76,20.45,31.37,44.73,60.04,71.52,85.5,3.79,3.6,26.08,24.47,27.69,25.32,5.77,2.95,21.73,1.65,27.69-1.6,4.31-2.3,4.45-5.85,4.88-6.35,7.53-8.81,14.2-20.31,26.6-22.16,28.02-4.15,36.35,25.97,58.41,30.87,30.06,6.7,42.08-19.66,30.72-22.96-13.06-3.8,2.93,10.81-11.22,16.61,1.23-2.2,4.35-3.95,4.88-6.7,3.08-17.01-21.92-.6-20.21-26.12,6.67-6.4.43-16.36,14.58-25.72,16.61-11.01,39.67-7.1,56.52,1.2-13.02-51.23,13.02-106.12,68.54-100.11,3.83.4,33.66,10.61,34.08,7.5-9.7-27.52-7.29-69.99,6.72-95.36,1.14-2.1,1.42-3,1.51-3.15,6.63-10.61,20.21-21.11,29.21-29.27,1.04-.95,3.98-1.5,4.5-2.75-.43-13.81,10.6-17.06,21.73-17.01.33,0,5.44,1.05,6.34,1.6,4.78-5.45.8-21.61-3.36-28.12-2.22-3.4-6.06-5.75-8.99-8.31-4.5-3.9-17.23-6.45-17.23-27.72,0-19.91,14.39-19.66,14.25-22.56-9.7-10.51-17.47-19.11-29.21-27.32l1.51-3.95c5.63,3.75,13.02,9.61,17.99,14.26,23.34,21.91,43.41,54.58,49.42,87.06,12.83,69.14-14.58,129.73-48.66,186.42-29.06,48.23-66.08,90.86-107.83,127.03,18.56-17.61,35.83-36.87,53.91-55.04-1.33-1.2-2.22.25-2.98.4.09-3.35,3.93.4,2.22-3.95,1.04-.3,2.75.5,3.74-.4,15.29-22.11,32.24-42.73,46.44-65.69-4.45-1.4-4.97.4-5.25.4-6.25-.6-14.11-5-19.83-7.91-7.2,8.56-16.95,14.16-25.09,21.36-10.37-2.35-11.17-31.82-33.32-36.42-40.9-8.51-69.2,56.64-47.57,98.56,5.06,9.81,9.75,11.51,14.25,16.21,2.37,2.5,5.06,4.65,7.48,7.1,1.56,1.6,7.9,7.3,8.24,7.91,3.03,5.15-.09,5.6-2.98,9.51-2.37,3.15-12.07,13.81-14.96,16.61-8.38,8.01-67.07,54.48-76.4,60.14-6.63,4.05-13.59,8.01-20.97,10.31-12.78,3.95-26.27,2.85-26.22,4.35,8.76,7.8,13.35,9.96,23.95,5.15,2.65-1.2,22.06-14.91,23.19-16.61l2.22.8s-1.42.75-2.22,2c11.31,11.46,38.06,14.46,53.91,15.41,0,3.65,6.82,2.05,13.11,2.35l-4.88,1.6c-33.8.3-68.21-4.4-101.49.8-12.02-11.46-44.07-7.25-45.3-10.71-2.04-5.6,23.67-2.5,27.69-3.95-84.4-64.79-186.83-147.44-229.15-250.91C-6.01,191.04-15.1,113.49,38.91,47.55,65.04,15.58,93.16,2.47,132.87.47c68.3-3.45,111.47,11.06,147.54,75.2C309.62,25.84,340.2,3.07,396.48.47c21.49-1,44.16-.35,64.75,6.35h-.19Z"/>
    <g>
      <path class="cls-15" d="M559.12,123.2c-6.01-32.47-26.13-65.14-49.42-87.06-1.47-3.45,10.04,6.6,14.58,11.06,7.05,6.85,16.38,17.96,21.35,26.52,4.35,7.5,23.38,48.28,13.49,49.48Z"/>
      <path class="cls-2" d="M546.39,209.46c1.47,26.92-42.22,92.46-43.45,97.76,0,.15.9.6.76,1.2-8.76.15-20.02-10.86-24.71-18.21,11.27-27.97,13.21-59.34,22.48-87.86,8.05,20.96,30.63,20.61,44.92,7.1Z"/>
      <path class="cls-14" d="M370.4,424.74c-3.03.55-6.11,7.2-10.84,11.06-13.82,11.26-16.52,6.95-24.33,5.55-.05,0,.19-.9-.76-.8,2.98-8.41,3.12-16.66-2.22-24.17-9.7-13.51-26.74-.5-28.45-16.61-2.93-27.97,73.51-29.17,66.65,24.92l-.05.05Z"/>
      <path class="cls-14" d="M501.47,202.35c-9.28,28.52-11.22,59.89-22.48,87.86-13.59-21.31-12.69-52.53-6.01-76.4,1.94-6.9,18.41-44.13,26.98-34.82.76.8,3.83,9.76,3.74,10.31-.8,3.8-8-1.9-2.22,13.06Z"/>
      <path class="cls-23" d="M556.14,160.37c-2.75,13.56-2.75,28.62-8.99,41.93-12.31,12.11-30.48,19.66-37.44-2,15.95-6.2,19.79-18.06,11.22-33.62l2.22-21.36c4.12,4.8,5.3,8.91,6.72,10.71,13.77,17.01,23.48,5.35,26.22,4.35h.05Z"/>
      <path class="cls-14" d="M239.37,487.28l-19.45-10.31c25.66-6.15,32.9-32.87,17.61-42.73-12.31-7.96-16.8,3.4-24.33-9.11,25.09-20.86,60.78.85,39.67,35.62-5.25,8.71-16.57,14.41-13.49,26.52Z"/>
      <path class="cls-18" d="M235.63,461.17c-16.05,28.62-42.55,1.3-57.65-13.06.52-1.4,10.65-1,16.47-2.75,8.8,21.01,32,16.56,29.21.4-.05-.35-1.99-2.8-2.98-5.15.95,1.3,17.99-6.95,14.96,20.56h0Z"/>
      <path class="cls-18" d="M370.4,424.74c-1.56,12.21-10.22,30.22-20.97,36.42-11.12,6.4-23,6.45-34.46,3.15,8.85-5.1,16.33-13.01,20.21-22.96,7.81,1.4,10.51,5.75,24.33-5.55,4.78-3.9,7.86-10.56,10.84-11.06h.05Z"/>
      <path class="cls-14" d="M285.05,476.98c-2.27,6.75-17.66-3.25-24.33-3.95-2.18-.25-10.7,4.25-11.6-.8,9.23-12.76,20.73-19.86,17.61-40.38,5.82,6.95,14.67,10.21,21.35,14.66-10.04,10.71-6.82,24.12-7.86,24.92-8.66-5.15-25.09-3-23.57-.4,9.56-1.05,20.07.75,28.45,5.95h-.05Z"/>
      <path class="cls-12" d="M75.36,328.98c-2.18-2.05-3.88-1.55-5.25,1.6-16.52-25.32-39.71-64.89-38.58-95.76,15.48,1.15,8.24,4.75,12.35,25.72,4.35,22.16,19.03,49.83,31.43,68.44h.05Z"/>
      <path class="cls-12" d="M285.05,476.98c2.79,1.7,3.22,1.95,5.25,4.75-17.94.7-6.01,12.31-10.46,22.96-1.42-3.6-1.28-7.96-2.98-11.46-5.06-10.46-22.01-10.31-18.74.4-7.43-2.55-8,1.25-11.98,6.35-.9-1.7-4.02-14.66-3.74-17.01.43-3.9,4.64-7.8,6.72-10.71.9,5.05,9.47.55,11.6.8,6.67.75,22.06,10.71,24.33,3.95v-.05Z"/>
      <path class="cls-18" d="M308.25,461.17l2.98,14.26c-6.67.4-27.41,1.85-28.45-6.35,2.84-9.46,6.91-15.96,13.49-22.96,7.62.6,6.2,8.51,11.98,15.06Z"/>
      <path class="cls-14" d="M220.63,440.6c1.04,2.35,2.93,4.8,2.98,5.15,2.79,16.16-20.4,20.61-29.21-.4,14.67-4.45,13.35-33.87,26.22-4.75Z"/>
      <path class="cls-12" d="M321.36,419.99c16.66,5.15,10.7,25.07,0,34.02-11.5,9.61-13.3,4.65-19.08-7.5,11.46-2.05,27.88-12.31,19.08-26.52Z"/>
      <path class="cls-25" d="M503.69,308.42c.14-.6-.8-1-.76-1.2,1.23-5.3,44.92-70.8,43.45-97.76,12.21-20.71,7.1-2.2,3.74,9.91-4.83,17.46-28.16,65.69-38.2,80.75-4.12,6.2-3.93,8.21-8.24,8.31Z"/>
      <path class="cls-18" d="M290.31,481.73c8.09,11.06,4.88,25.27-10.46,22.96,4.5-10.61-7.43-22.21,10.46-22.96Z"/>
      <path class="cls-23" d="M219.92,476.98l19.45,10.31,4.5,13.06c-2.37,4.05-27.83-19.26-30.72-21.36-.47-1.55,2.79-1.05,6.72-2h.05Z"/>
      <path class="cls-16" d="M395.49,6.83c3.74-.3,16.99-.4,20.21,0,24.33,2.95-23.95,15.76-31.1,2,.38-1.1,9.18-1.85,10.84-2h.05Z"/>
      <path class="cls-14" d="M311.99,462.77s-.24,1.8,1.14,2.35c.9.4,1.28-.95,1.89-.8,11.46,3.3,23.34,3.25,34.46-3.15-12.07,9.86-23.29,13.31-38.2,14.26l-2.98-14.26c2.93,3.35,3.55,1.45,3.74,1.6h-.05Z"/>
      <path class="cls-12" d="M245.34,53.56c-1.09-3.95-3.69-7.1-6.01-10.31-10.22-14.16-18.13-15.91-30.72-26.12,17.66,7.3,33.42,19.16,44.92,35.22-.47.7-6.01.4-8.24,1.2h.05Z"/>
      <path class="cls-16" d="M133.39,7.63c21.21-1.05,43.03,1,22.48,5.55-7.9,1.75-19.55,1.65-25.85-4.35l3.36-1.2Z"/>
      <path class="cls-25" d="M547.15,202.35c6.25-13.36,6.25-28.37,8.99-41.93,1.04-.4,1.37-.65,2.22-1.2-.47,18.16,2.04,30.12-11.22,43.13Z"/>
      <path class="cls-14" d="M523.2,145.36l-2.22,21.36c-1.23-2.3-5.49-5.45-6.01-6.7-2.75-7.15,1.85-19.81,7.1-17.81,1.51.55.99,3.05,1.14,3.15Z"/>
      <path class="cls-23" d="M258.07,493.64c.43.15,1.18.55,1.51.8.09.05,1.33,1.4,1.51,1.6.09.1-.99-.2.76,3.15.95,1.85,2.37,3.5,2.98,5.55-2.89.8-11.17-2.35-15.34-1.6-3.69-1.25-2.65-1.8-3.36-3.15,3.98-5.05,4.54-8.86,11.98-6.35h-.05Z"/>
      <path class="cls-16" d="M235.63,461.17c3.03-27.57-14.01-19.31-14.96-20.56-7.57-10.26,30.2-6.6,14.96,20.56Z"/>
      <path class="cls-18" d="M15.1,224.52c1.7,1.45,12.83,8.31,13.11,9.11,3.31,9.21-7.53,14.71-13.11-9.11Z"/>
      <path class="cls-18" d="M261.1,495.99s-1.42-1.5-1.51-1.6c5.06-17.41,21.68,7.1,15.34,10.31-4.83,2.45-3.03-18.11-13.87-8.71h.05Z"/>
      <path class="cls-23" d="M531.05,146.92c4.5.65,14.06,10.71,13.87,14.66-.24,5.4-15.43-5.4-13.87-14.66Z"/>
      <path class="cls-14" d="M296.27,446.11c-6.58,7-10.65,13.51-13.49,22.96-1.09-8.31,4.4-23.67,13.49-22.96Z"/>
      <path class="cls-24" d="M335.23,441.4c-3.88,9.91-11.41,17.86-20.21,22.96-.62-.2-.95,1.15-1.89.8-1.37-.55-.99-2.3-1.14-2.35,8.8-3.35,19.22-13.01,22.48-22.16.95-.1.71.8.76.8v-.05Z"/>
      <path class="cls-12" d="M264.84,504.69c-.66-2.05-2.04-3.7-2.98-5.55,3.79-9.31,8.52,4,2.98,5.55Z"/>
      <g>
        <path class="cls-25" d="M94.86,127.95c-11.83,2.95-6.58-11.71-10.46-21.76-10.6-27.27-42.84-35.52-41.94-45.13.14-1.65,4.31-4.25,2.22-8.31,5.63-6.75,11.69-13.41,18.74-18.61-21.21,45.23,38.39,43.23,31.43,93.81Z"/>
        <g>
          <path class="cls-16" d="M79.85,207.1c-8.52,22.56-47,35.37-62.15,11.46-5.16-8.11-7.86-23.11-8.99-32.87,9.23-12.26,12.54-11.36,25.47-6.7-9.89,11.81,27.12,34.37,38.58,34.42l7.1-6.35v.05Z"/>
          <g>
            <path class="cls-24" d="M70.1,141.41c.33,4.05,4.4,3,13.49,7.1l-.76,3.95c-3.08-3.1-8.57-1.2-8.99,1.2-.52,2.8,10.51,7.1,4.5,28.87-.95-.8-4.26-1.7-4.5-2.75,10.7-38.02-41.28-23.51-23.19,0,8.19,10.61,19.45,2.75,20.59,2.75,1.75,0,15.57,6.1,8.62,24.52l-7.1,6.35c-11.46-.1-48.47-22.61-38.58-34.42-12.92-4.6-16.24-5.55-25.47,6.7-.95-8.41-2.7-60.84,3.36-63.34,7.62-3.1,1.61,5.3,14.25,13.46,5.54,3.55,12.17,5.15,18.37,6.7-25.85,33.12.76,63.14,22.11,55.04,6.72-2.55,16.09-13.56-2.22-1.6-22.25,3.75-41.51-28.02-15.72-53.03,7.34,1.8,13.68-1.4,21.35-1.6l-.09.1Z"/>
            <path class="cls-24" d="M82.84,152.47c1.09,1.1,5.16,16.16,6.72,19.81,7.48,17.21,16.09,12.01,17.23,8.71h1.51c-.99,20.36-16,36.17-33.7,40.78,10.08-14.06,19.45-25.77,3.74-39.17,6.01-21.76-5.02-26.07-4.5-28.87.43-2.4,5.87-4.25,8.99-1.2v-.05Z"/>
            <path class="cls-24" d="M108.3,172.28c.28,2.1.09,6.3,0,8.71h-1.51c.28-.85-.09-5.55.38-7.91-9.42,6.6-9.23-7.91-17.61-.8-1.56-3.65-5.63-18.71-6.72-19.81l.76-3.95c14.63,6.65,15.95,9.36,24.71,23.77Z"/>
            <path class="cls-25" d="M108.3,172.28c-8.76-14.41-10.08-17.06-24.71-23.77-9.04-4.15-13.11-3.05-13.49-7.1,18.18-.4,35.64,10.41,38.2,30.87h0Z"/>
            <path class="cls-24" d="M106.84,180.99c-1.14,3.25-9.75,8.46-17.23-8.71,8.33-7.1,8.19,7.4,17.61.8-.47,2.35-.09,7.05-.38,7.91h0Z"/>
            <g>
              <path class="cls-24" d="M57.04,159.57c20.31-5.5,21.92,27.37,2.22,22.96-10.56-2.35-11.03-20.56-2.22-22.96Z"/>
              <path class="cls-10" d="M59.26,165.93c5.25-1.8,10.65,5.5,6.01,8.71-5.73,3.95-11.74-6.75-6.01-8.71Z"/>
            </g>
          </g>
        </g>
        <g>
          <path class="cls-3" d="M94.86,127.95c-.57,4.15-2.79,8.91-5.63,11.86-19.83-6.8-32.76,3.95-53.16-2.35-19.88-6.15-14.91-16.36-15.72-17.41-3.83-4.9-12.45,9.26-3.36-17.81,6.06-18.16,15.72-35.02,27.69-49.48,2.04,4.05-2.08,6.65-2.22,8.31-.9,9.56,31.34,17.86,41.94,45.13,3.93,10.06-1.37,24.72,10.46,21.76Z"/>
          <g>
            <path class="cls-10" d="M43.55,81.22c26.27-3.85,28.92,36.32,2.98,42.73-31.57,7.8-24.24-39.63-2.98-42.73Z"/>
            <path class="cls-24" d="M43.55,83.63c24.19-3.85,25.18,34.57,1.51,37.97-28.21,4.1-19.03-35.22-1.51-37.97Z"/>
            <g>
              <path class="cls-5" d="M41.28,96.28c12.31-3.1,12.97,15.06,3.74,16.61-11.6,2-11.22-14.71-3.74-16.61Z"/>
              <path class="cls-25" d="M41.28,98.63c9.37-3.05,10.08,10.66,2.98,11.86-7.48,1.25-7.95-10.26-2.98-11.86Z"/>
            </g>
          </g>
        </g>
      </g>
    </g>
  </g>
</svg>