<?xml version="1.0" encoding="UTF-8"?>
<svg id="Layer_1" data-name="Layer 1" xmlns="http://www.w3.org/2000/svg" viewBox="0 0 481.4 923.82">
  <defs>
    <style>
      .cls-1 {
        fill: #f7e8d5;
      }

      .cls-1, .cls-2, .cls-3, .cls-4, .cls-5, .cls-6, .cls-7, .cls-8, .cls-9, .cls-10, .cls-11, .cls-12, .cls-13, .cls-14, .cls-15, .cls-16, .cls-17, .cls-18, .cls-19, .cls-20, .cls-21, .cls-22, .cls-23, .cls-24, .cls-25, .cls-26, .cls-27, .cls-28, .cls-29, .cls-30, .cls-31, .cls-32, .cls-33, .cls-34, .cls-35, .cls-36, .cls-37, .cls-38, .cls-39, .cls-40, .cls-41, .cls-42, .cls-43, .cls-44, .cls-45, .cls-46, .cls-47, .cls-48, .cls-49 {
        stroke-width: 0px;
      }

      .cls-2 {
        fill: #f3ced1;
      }

      .cls-3 {
        fill: #76706f;
      }

      .cls-4 {
        fill: #4e1d31;
      }

      .cls-5 {
        fill: #2c576e;
      }

      .cls-6 {
        fill: #635958;
      }

      .cls-7 {
        fill: #62a9b3;
      }

      .cls-8 {
        fill: #464240;
      }

      .cls-9 {
        fill: #86786f;
      }

      .cls-10 {
        fill: #a39685;
      }

      .cls-11 {
        fill: #947662;
      }

      .cls-12 {
        fill: #594949;
      }

      .cls-13 {
        fill: #0b706e;
      }

      .cls-14 {
        fill: #361320;
      }

      .cls-15 {
        fill: #0e5d5b;
      }

      .cls-16 {
        fill: #0e0e0e;
      }

      .cls-17 {
        fill: #0e1816;
      }

      .cls-18 {
        fill: #433332;
      }

      .cls-19 {
        fill: #0a4955;
      }

      .cls-20 {
        fill: #240e14;
      }

      .cls-21 {
        fill: #201e1f;
      }

      .cls-22 {
        fill: #119894;
      }

      .cls-23 {
        fill: #181110;
      }

      .cls-24 {
        fill: #c3d4d5;
      }

      .cls-25 {
        fill: #ddebef;
      }

      .cls-26 {
        fill: #b0517e;
      }

      .cls-27 {
        fill: #e295c0;
      }

      .cls-28 {
        fill: #ca5991;
      }

      .cls-29 {
        fill: #d5cac9;
      }

      .cls-30 {
        fill: #aba6a5;
      }

      .cls-31 {
        fill: #b09c8f;
      }

      .cls-32 {
        fill: #d8b5b4;
      }

      .cls-33 {
        fill: #cecdcc;
      }

      .cls-34 {
        fill: #ce6e97;
      }

      .cls-35 {
        fill: #9d8373;
      }

      .cls-36 {
        fill: #9dd2cd;
      }

      .cls-37 {
        fill: #741341;
      }

      .cls-38 {
        fill: #323031;
      }

      .cls-39 {
        fill: #34262b;
      }

      .cls-40 {
        fill: #902358;
      }

      .cls-41 {
        fill: #8c857e;
      }

      .cls-42 {
        fill: #7ecdd5;
      }

      .cls-43 {
        fill: #a23f71;
      }

      .cls-44 {
        fill: #e3e4e1;
      }

      .cls-45 {
        fill: #f1c0cc;
      }

      .cls-46 {
        fill: #eca2b1;
      }

      .cls-47 {
        fill: #f6d3b4;
      }

      .cls-48 {
        fill: #054239;
      }

      .cls-49 {
        fill: #008083;
      }
    </style>
  </defs>
  <g>
    <path class="cls-34" d="M254.72,810.33c-1.06-4.11-18.34-.99-28.71-1.83,4.36-3.59,15.74,3.01,14.56-5.12,47.54-1.05,58.55-11.29,61.59-10.44,1.89.54,3.04,4.68,2.38,6.5-1.94,5.59-42.89,10.28-49.82,10.85v.03Z"/>
    <g>
      <path class="cls-16" d="M182.15,795.75c-7.35-2.94-.21,5.25,2.39,7.02,14.41,9.7,53.2,8.97,70.16,7.59,6.9-.56,47.85-5.26,49.82-10.85.63-1.82-.52-5.96-2.38-6.5-3.02-.89-14.05,9.39-61.59,10.44-12.77.28-25.96.46-38.59-1.77,19.3-.87,38.59,1.41,57.88-.37,24.82-2.3,40.48-12.05,48.42-6.33,1.38,6.99-6.77,10.67,3.37,14.01,4.11,1.37,70.53,9.21,85.23,11.49-1.08,6.62-11.78-1.64-17.86,2.12-9.74-1.33-55.02-8.76-57.94-8.68-1.85.04-2.98-.43-4.22,1.52,1.5,1.12.9,2.88.97,4.5.7,14.45,16.26,17.59,2.51,26.07-3,1.83-33.59,10.74-37.57,11.29-8.66,1.19-47.42,1.92-57.39,1.37-19.01-1.05-35.05-8.11-40.48-2.76-19.36,1-12.51-7.6-25.02-13.39-.46-1.07,2.54-12.56,3.63-22.61.03-.32,2.1-4.42,1.85-6.04.29-2.63-.74-1.81-2.35-1.99-3.74-.46-67.59,14.07-74.25,13.5-.21,0-2.08-1.96-3.3-2.99,13.82-2.49,83.35-12.42,87.89-14.59,7.61-3.65.68-8.43,4.13-15.06,5.62-.78,4.46,2.79,4.73,2.98l-.03.03Z"/>
      <g>
        <path class="cls-26" d="M182.15,795.75c3.6,2.21,15.29,5.12,19.8,5.9,12.66,2.22,25.82,2.04,38.59,1.77,1.18,8.09-10.21,1.52-14.56,5.12,10.37.84,27.65-2.28,28.71,1.83-16.96,1.37-55.75,2.1-70.16-7.59-2.6-1.73-9.73-9.95-2.39-7.02Z"/>
        <g>
          <path class="cls-35" d="M299.41,809.04c11.98-.37,19.52,14.4,2.97,22.05-24.34,11.24-28.25-10.22-62.68-13.15,19.43.82,56.68-8.82,59.72-8.9h0Z"/>
          <path class="cls-29" d="M212.88,818.63c3.49-1.06,5.69,5.31,3.81,7.01-1.99,1.83-6.67-6.15-3.81-7.01Z"/>
          <path class="cls-44" d="M180.91,820.81l7.55.96c5.9,10.4-1.71-.99-7.53,1.05v-2.01Z"/>
          <path class="cls-18" d="M177.07,809.82c1.95.25,1.05,2.04.02,3.01-9.01,8.64-7.26-3.97-.02-3.01Z"/>
        </g>
      </g>
    </g>
  </g>
  <g>
    <path class="cls-16" d="M352.97,51.28c18.4-3.62,19.14,26.55,3.95,28.07-16.47,1.66-16.28-25.63-3.95-28.07Z"/>
    <path class="cls-13" d="M353.95,58.3c16.11-5.81,10.98,20.28-.85,14.04-5.58-2.95-2.51-12.85.85-14.04Z"/>
  </g>
  <g>
    <path class="cls-16" d="M110.18,52.81c16.97-4.32,21.7,23.62,9.6,27.03-19.91,5.6-22.19-23.81-9.6-27.03Z"/>
    <path class="cls-49" d="M113.04,57.82c11.08-2.08,13.17,19.75.11,17.05-6.88-1.45-7.24-15.7-.11-17.05Z"/>
  </g>
  <g>
    <path class="cls-16" d="M308.26,794.95c-7.94-5.72-23.6,4.04-48.42,6.33-19.29,1.77-38.58-.5-57.88.37-4.5-.78-16.2-3.66-19.8-5.9-.27-.16.89-3.76-4.73-2.98,1.56-2.99,5.76-2.3,6.57-4.55,2.27-6.37-7.97-28.99,7.3-38.16-2.9-10.71,8.62-11.46,9.34-13.09,2.91-6.86-13.77-19.62,21.48-27.23l.77-27.1c-7.32-3.65-8.12-28.6,2.64-29.12-2.07-101.62,1.85-203.56-4.75-304.92-12.79-8.83,1.23-7.49-1.16-34.09,0-.26-2.63-2.74-2.85-4-.69-4.01,1.68-7.76.88-10.05-.62-1.75-17.38-8.64.75-31.12,3.82-26.57.18-14.81-8.12-19.52-5.89-3.33-2.18-17.16-3.43-23.54l11.22-9.11c-16.28-2.62-29.93-11.77-38.75-26.85-19.09-32.58-8.2-61.52-23.23-102.16-24.68-66.73-68.72-34.99-68.83-18.62-.03,4.31,5.49,2.75,8.09,14.5,9.79.75,19.61,5.45,27.38,11.85,2.54-2.06-5.71-19.02,12.06-25.16-19.61,28.51,10.51,8.36-7.85,22.64-.82,15.11,32.51,29.84,15.78,38.53-.76.39-6.38.3-7.99,1.54,25.71,65.2-14.02,81.79-15.45,86.37-.86,2.76,1.66,13.11-1.31,14.56l-36.69.23c.41,22.2-5.79,22.4-5.65.04-51.64,1.65-32.75-.96-37.27-14.32-1.55-4.59-44.5-27.17-12.77-86.19-40.23-6.32,23.7-45.91,37.82-48.88,2.56-17.81,10.01-4.15,11.57-31.67-25.52-11.89-.57-37.78,7.01-7.56,30.79-29.91,70.1-11.36,83.93,27.57,3.7-5.86,8.36-14.31,13.04-19.14,16.98-17.45,29.97-10.37,28.51-29.77,13.41-9.87,12.53-13.92,16.37-17.67,18.76-18.4,24.72,5.06,25.91,6.35,5.85,6.25,20.87,12.22,18.03,24.97,16.34,7.25,27.72,18.01,36.46,34.38,2.62.37,7.74-21.21,21.44-32.25,19.48-15.68,46.94-14.33,64.03,4.62,6-32.12,33.53-5.49,7.09,5.46.17,27.32,8.63,19.23,10.52,24.01.96,2.39-1.42,5.75,1.45,8.51,1.28,1.22,15.25,3.57,31.17,15.84,3.15,2.44,22.09,21.25,22.25,23.42.63,7.64-13.6,7.67-14.05,9.13,30.77,63.36-13.37,82.59-14.5,87.36-2.93,12.3,16.91,14.77-36.15,13.77.54,22.16-6.82,22.18-6.6.04l-33.87.21c-1.32-21.64-6.78-15.12-15.71-27.48-15.37-21.32-14.28-51.08-3.3-74.22-33.71.41,6.65-30.6,7.33-33.17,2.11-7.92-4.54-6.49-4.76-7-.56-1.29,9.77-7.87-6.25-21.54,14.51,6.45,14.28,8.56,16.14,23.98,8.23-6.11,17.48-9.8,27.22-12.2,1.91-14.66,11.83-9.25,1.25-23.57-22.39-30.45-53.01,1.57-62.89,26.49-16.76,42.27-4.78,71.88-21,102.44-16.98,31.96-45.11,26.05-36.97,33.84,2.72,2.61,10.77-3.89,9.09,24.51l-13.1,10.13c9.03,9.24-3.18,11.85,10.52,24.01-2.52,9.74,3.78,16.47-8.36,20.11,2.02,6.27,1.47,15.51-3.64,20.08,14.71-1.13,5.69,10.04,5.72,11.01.04,1.07,8.87,8.79-4.6,18.08,3.6,10.96-1.7,14.27-1.79,15.05-4.02,41.77,4.7,229.93,1.84,290.91,6.36.58,10.48,7.68,4.79,13,8.27,9.96-3.35,13.24-3.68,14.06-.81,2.01,3.98,14.1,2.07,29.09,36.18,4.99,21.26,20.8,21.79,22.94.5,2.1,14.5,4.38,10.47,15.98,16.03,5.28,6.95,32.07,9.67,38.05.96,2.17,8.15.89,9.47,7.46l-.09.07Z"/>
    <g>
      <g>
        <path class="cls-49" d="M352.86,34.23c19.87-1.55,40.31,18.7,39.21,23.31-1.63,6.69-11.43-14.93-25.99-18.41-39.28-9.34-58.29,47-64.44,78.67,1.57-30.21,17.27-80.93,51.25-83.58h-.03Z"/>
        <path class="cls-33" d="M398.98,33.94c8.65-2.45,4.38,9.92,1.01,11.04-6.86,2.21,8.05-15.22-4.72-1.98-2.2-1.15,1.89-8.54,3.71-9.07Z"/>
      </g>
      <g>
        <path class="cls-17" d="M229.94,761.32c12.39,2.19,24.36,6.04,37.21,4.79.49.29-1.17,7.69-1.35,8.05-3.31,5.92-24.56,5.7-31.49,5.22-27.13-1.94-32.06-2.75-27.44-21.9,8.08-.57,15.61,2.56,23.07,3.87v-.03Z"/>
        <path class="cls-17" d="M290.75,776.98c4.68-.35,3.12,8.5,1.01,10.04-8.41,5.98-88.31,15.46-87.99-.94.09-4.86,21.42,1.94,35.31,2.27,39.26,1.02,49-11.17,51.7-11.38h-.03Z"/>
        <path class="cls-35" d="M265.78,774.13c.21-.36,1.87-7.76,1.35-8.05-12.85,1.28-24.83-2.6-37.21-4.79,11.33-1.89,22.95-1.02,34.34-2.23,11.15-1.17,42.55-12.16,13.69,5.42,16.04,2.56-1.49,14.95-12.16,9.6v.03Z"/>
        <path class="cls-40" d="M221.36,746.34h.94c-.96,2.14,13.28,3.7,18.39,3.9,14.38.52,28.47-2.71,42.79-2.28-7.63,9.38-85.76,6.54-88.47,1.04-.86-1.74-.09-4.21,1.85-5.52,3.4,3.71,24.97,6.26,24.49,2.86h0Z"/>
        <path class="cls-28" d="M283.49,747.96c-14.35-.43-28.41,2.8-42.79,2.28-5.08-.19-19.35-1.76-18.39-3.9,9.58.23,23.26.44,32.47-.21,10.88-.75,38.73-10.45,28.71,1.83Z"/>
        <path class="cls-31" d="M261.19,717.99c5.68-1.33,10.6,3.89,3.81,7.01-14.34,6.6-49.74-5.49-5.68-3.98,3.7-1.68.86-2.79,1.87-3.03h0Z"/>
        <path class="cls-43" d="M221.36,746.34c.48,3.43-21.09.85-24.49-2.86,1.03-.72,20.78,2.75,24.49,2.86Z"/>
      </g>
      <g>
        <path class="cls-49" d="M111.01,35.76c34-3.1,55.7,39.54,56.91,70.87-3.24,1.48-5.57-39.99-27.67-58-34.81-28.43-54.95,12.63-58.26,13.4-7.47,1.7,5.14-14.1,7.44-16.09,4.26-3.75,16.3-9.7,21.58-10.18h0Z"/>
        <path class="cls-8" d="M78.24,65.07c4.78-3.66,7.75,3.94,3.81,6-4.73,2.49-5.32-4.83-3.81-6Z"/>
      </g>
      <g>
        <g>
          <path class="cls-47" d="M231.31,83.16c.86,5.93.76,77.61.59,93.3-27.81,30.31-55.77-20.62-48.41-64.41,4.63-27.61,25.44-29.29,47.82-28.89Z"/>
          <path class="cls-11" d="M231.31,83.16c-22.35-.41-43.19,1.31-47.82,28.89-7.35,43.8,20.6,94.73,48.41,64.41-.04,3.5.68,25.21-.29,26.09-45.45.38-59.4-46.49-55.61-87.44,3.73-40.34,22.58-35.82,54.83-36.97.98.74.33,3.69.49,5.02Z"/>
        </g>
        <path class="cls-49" d="M256.46,40.87c17.43,7.05,30.6,16.63,41.62,32.86-5.11.03-10.04-1.3-15.06-1.91-8.43-6.62-24.26-5.29-35.35-7.81-13.64-3.09-27.21-9.91-41.48-10.79-6.5-3.26,19.09-10.81,19.22-14.15,7.14-.76,24.86-.87,31.08,1.81h-.03Z"/>
        <path class="cls-19" d="M225.38,39.06c-.13,3.34-25.68,10.89-19.22,14.15,14.26.88,27.84,7.7,41.48,10.79,11.08,2.52,26.88,1.19,35.35,7.81-36.85-4.43-74.28-5.66-110.55,4.72-4.03-2.02,16.48-33.55,52.94-37.44v-.03Z"/>
        <path class="cls-9" d="M286.54,187.13c-9.87,21.48-40.08,27.22-60.08,22.97,28.89-3.42,38.57-1.09,60.08-22.97Z"/>
        <path class="cls-7" d="M298.08,73.69c-11.05-16.2-24.18-25.81-41.62-32.86,16.52,2.13,36.63,17.63,41.62,32.86Z"/>
        <path class="cls-5" d="M169.67,85.56c7.52-3.61,3.22,4,1.95,10.03-2.11-1.57-3.77-9.15-1.95-10.03Z"/>
        <path class="cls-30" d="M295.76,81.75c7.6-4.36,5.84,5.47,3.83,10.02-.34-1.16-4.32-9.73-3.83-10.02Z"/>
        <g>
          <path class="cls-10" d="M238,24.94c4.34-1.87,26.73,1.06,25.94,10.37-4.11-1.63-23.82-2.8-24.95-3.34-1.52-.77-2.78-6.24-.99-7.03Z"/>
          <path class="cls-10" d="M240.69,3.86c1.46-.33,3.4,4.55,3.32,6.49-.31,8.72-8.64,9.36-3.32-6.49Z"/>
          <path class="cls-3" d="M243.14,19.89c.27-.03,1.32,2.55,5.65-1.04,14.68,4.54-26.57,4.51-5.65,1.04Z"/>
          <path class="cls-44" d="M248.78,18.85c-4.32,3.59-5.34,1.01-5.65,1.04,3.96-4.11,5.34-1.14,5.65-1.04Z"/>
        </g>
        <path class="cls-9" d="M286.54,187.13s-.5-1.65,1.38-3.02c1.65,1.84-1.32,2.86-1.38,3.02Z"/>
        <g>
          <path class="cls-11" d="M280.89,188.17c-11.17,11.8-25.47,15.2-40.86,15.3-2.44-1.15-1.29-12.44-1.51-18.04,12.8,14.15,27.32,11.79,42.37,2.75Z"/>
          <path class="cls-11" d="M265.15,77.92c-10.23,2.37-19.64,4.86-27.22,13.2.05-2.2-.57-13.32.37-14.03,9.06-.32,17.78-.21,26.82.84h.03Z"/>
          <g>
            <path class="cls-47" d="M280.89,188.17c-15.05,9.04-29.57,11.4-42.37-2.75-.94-24.2-1.26-70.12-.6-94.3,7.55-8.34,16.96-10.83,27.22-13.2,4.9.55,20.54,3.18,23.57,6.37,13.82,31.61,17.03,77.61-7.83,103.88h0Z"/>
            <path class="cls-1" d="M272.23,82.9c31.93-2.96,27.81,89.37,6.25,94.27-33.79,7.63-25.66-62.03-25.45-81.6,5.06-7.81,10.04-9.2,18.3-10.65.76-.13.2-1.95.93-2.02h-.03Z"/>
          </g>
        </g>
      </g>
      <g>
        <g>
          <path class="cls-49" d="M86.65,126.2c-9.31-15.21-41.16-18.02-37.82-28.86,40.29-22.68,68.74-9.15,93.82,28.51-2.05,2.54-48.7.34-56,.35Z"/>
          <path class="cls-19" d="M86.65,126.2c-23.05.05-46.12.39-69.16.44l-1.41-1.48c9.99-11.73,19.54-20.35,32.75-27.79-3.34,10.81,28.54,13.66,37.82,28.86v-.03Z"/>
        </g>
        <path class="cls-3" d="M77.37,76.09c4.1-.77,9.55.07,11.79,4.43-22.53,4.36-20.6-2.82-11.79-4.43Z"/>
        <path class="cls-33" d="M70.55,36.01c4.22-1.03,8.06,9.93,5.73,11.99-3.51,3.1-12.99-10.22-5.73-11.99Z"/>
        <g>
          <path class="cls-36" d="M79.27,150.33c.16,1.98,0,4.02.04,6.03-1.44-30-19.65-2.31-.94,1.01-.14,6,.2,12.05.11,18.05l-55.53-1.66v-2.01c10.82,1.75,5.03-4.83,6.49-14.59.93-6.39,4.61-11.89,3.65-18.59,1.42-1.53,2.5-3.71,4.19-5.05l38.58-.24c-.07,8.04,2.83,9.45,3.39,17.02v.03Z"/>
          <path class="cls-34" d="M78.48,175.41l.95,1c-.21,9.33.51,18.76.18,28.1-18.82-.04-39.69-2.12-52.35-18.73l-.44,2.01c-1.98-4.72-3.55-7.92-3.86-14.01l55.53,1.66v-.03Z"/>
          <path class="cls-24" d="M125.32,139.02c.63,4.01-1.17,6.88-.87,11.06-23.71-23.93-40.29,3.33-14.9,24.17-7.11.08-14.68,1.19-21.64,1.14-.91,0-1.04-1.06-1.89-.99.17-6.35,3.52-15.61-2.95-20.04,0-.36-1.56-2.26-.99-7.03,3.22-5.92,4.46-6.22,6.02-14.07l31.98-.2c2.02,1.7,3.49,4.03,5.21,5.99l.03-.03Z"/>
          <path class="cls-26" d="M134.93,174.05c-.7,9.63-7.54,24.19-13.91,31.2-3.68,4.04-11.47,8.4-15.92,12.12-20.43,4.57-18.9,5.76-19.85-13.91,5.38.32,10.53,2.3,16,1.91,15.56-1.07,25.06-17.27,29.93-31.3l3.77-.02h-.03Z"/>
          <path class="cls-26" d="M79.61,204.51c-.15,4.51.18,9.04.09,13.55-2.56,3.42-4.47.51-4.71.52,1.4-9.89-7.03-10.81-14.15-6.94-3.79-2.7-10.13-5.7-14.13-2.92-1.46-.64-2.32-1.41-4.72-.97-5.97-6.15-9.81-8.46-14.21-16.96-1.08-2.1-.9-2.85-.96-3.01l.44-2.01c12.66,16.64,33.53,18.68,52.35,18.73v.03Z"/>
          <path class="cls-34" d="M87.88,175.35l13.35,30.02c-5.47.39-10.62-1.55-16-1.91-.42-8.59-.36-18.47-.17-27.09,0-.94.91-1.04.93-2.02.85-.07.98,1,1.89.99h0Z"/>
          <path class="cls-36" d="M134.93,174.05l-9.42.06c2.75-11.62-.73-19.02-1.09-24.07-.3-4.18,1.51-7.04.87-11.06,7.59,8.57,10.46,23.82,9.65,35.04v.03Z"/>
          <path class="cls-4" d="M41.99,207.76c2.91,3,6.18,5.34,8.54,8.99.37.55.07,2.01,1.9,3-2.95-.18-5.96.17-8.94.06-1.83-.6-23.38-24.42-15.72-29,4.4,8.53,8.25,10.8,14.21,16.96Z"/>
          <path class="cls-36" d="M22.94,171.75c-.07-11.37,2.4-24.77,10.16-33.18.98,6.67-2.69,12.2-3.65,18.59-1.46,9.76,4.33,16.34-6.51,14.59Z"/>
          <path class="cls-39" d="M105.11,217.38c4.45-3.72,12.23-8.08,15.92-12.12,9.53-2,16.6-23.31,16.26-35.2,5.89,18.18-13.38,43.48-28.88,48.34-2.31.73-3.14-1.02-3.29-.98v-.03Z"/>
          <path class="cls-40" d="M60.83,211.63c.49.35,4.47,5.45,5.7,7-4.8.35-9.14,1.35-14.1,1.09-1.83-.99-1.54-2.45-1.9-3,5.5-.33-.22-6.45-3.82-8.01,4.03-2.78,10.37.23,14.13,2.92Z"/>
          <g>
            <path class="cls-15" d="M43.06,227.81c9.87-1.03,20.82,3.14,21.61-5.16,7.69-.24,45.02-1.03,48.47.7,2.04,1.02,2.07,4.98.04,6.03-3.09,1.58-65.45,1.64-68.71.43-.58-.22-1.16-1.29-1.41-2Z"/>
            <path class="cls-19" d="M64.67,222.65c-.77,8.3-11.74,4.13-21.61,5.16-2.97-8.02,10.06-4.8,21.61-5.16Z"/>
          </g>
          <path class="cls-48" d="M83.06,154.32c.04,7.03-2.58,14.92.14,22.07l-3.77.02-.95-1c.08-6.03-.26-12.05-.11-18.05,0-.06.97.29.94-1.01-.04-2.01.13-4.05-.04-6.03,1.98.44,1.64-.85,2.81-3.03-.58,4.77.98,6.67.99,7.03h0Z"/>
          <path class="cls-34" d="M74.98,218.57c-2.8.18-5.66-.16-8.48.05-1.23-1.55-5.21-6.64-5.7-7,7.15-3.9,15.55-2.95,14.15,6.94h.03Z"/>
          <path class="cls-22" d="M86.02,174.36c-.02.97-.91,1.04-.93,2.02h-1.88c-2.72-7.13-.09-15.02-.14-22.06,6.47,4.43,3.13,13.69,2.95,20.04Z"/>
          <path class="cls-44" d="M79.3,156.35c0,1.3-.94.95-.94,1.01-18.75-3.32-.5-31.01.94-1.01Z"/>
          <path class="cls-46" d="M109.52,174.21c5.32-.07,10.67-.07,15.99-.1l5.65-.04c-4.87,14-14.37,30.2-29.93,31.3l-13.35-30.02c6.96.05,14.53-1.03,21.64-1.14Z"/>
          <path class="cls-44" d="M124.44,150.04c.37,5.05,3.85,12.45,1.09,24.07-5.32.03-10.67.03-15.99.1-25.37-20.84-8.82-48.1,14.9-24.17Z"/>
          <path class="cls-45" d="M46.68,208.73c3.6,1.57,9.32,7.69,3.82,8.01-2.36-3.61-5.63-5.99-8.54-8.99,2.4-.47,3.26.34,4.72.97Z"/>
        </g>
      </g>
      <g>
        <path class="cls-36" d="M386.95,141.35c-12.58-4.36-12.81,8.77-1.31,14.04l1.32-13.04c.98,5.24.76,8.91,1.03,14.03.24,4.73-1,9.79-.83,17.05l-48.01-.7s-.97.62-.96-2c11.27,4.04,5.4-15.65,11.98-38.19l34.35-1.22c-.13,3.66,1.71,6.73,2.4,10.03h.03Z"/>
        <path class="cls-34" d="M387.15,173.46c0,.97.95,1.06.96,2,.05,8.33.38,16.75.16,25.08-13.69-2.02-27.77-1.7-40.52-7.78-3.96-5.87-7.16-11.85-8.6-19v-1s48,.7,48,.7h0Z"/>
        <path class="cls-46" d="M446.47,174.09c-3.89,14.51-21.47,33.39-36.52,27.32-3.96-1.6-14.78-20.65-15.19-21.97-.31-.97-.65-1.29-.96-3.01-.13-.61.08-1.36-.01-2.01,17.41-1.11,35.37,1.11,52.72-.33h-.03Z"/>
        <path class="cls-26" d="M450.2,172.06c-.88,15.17-10.19,28.45-20.46,38.24-3.42,2-7.28,3.35-10.33,6.09-3.22.34-7.9.18-11.28.07.81-1.2.69-1.98.92-3.02,1.48-6.23-1.07-6.25-6.64-5.99.15-.1-.44-1.49.44-2.01,1.67-.95,7.86,2.25,7.03-4.06,15.06,6.06,32.66-12.78,36.52-27.32,1.37-.11,1.9-2.7,3.76-2.03l.03.03Z"/>
        <path class="cls-26" d="M409.92,201.42c.83,6.31-5.36,3.08-7.03,4.06-.88.52-.32,1.91-.44,2.01-7.69,4.94.04,6.9,6.64,5.99-.24,1.04-.11,1.82-.92,3.02-2.19-.05-13.43.6-14.11-.4l.71-36.62c.4,1.33,11.23,20.38,15.19,21.97l-.03-.03Z"/>
        <path class="cls-4" d="M347.75,192.77c5.95,8.84,11.29,11.63,18.93,17.93,1.53,1.25,3.21,2.7,4.74,3.99.12.13,1.56,2.26,1.9,3-9.42,0-16.63.1-26.45-14.38-9.57-14.13-7.32-22.28-7.73-29.54,1.44,7.15,4.64,13.13,8.6,19Z"/>
        <path class="cls-36" d="M338.22,170.76c.06-13.9.79-28.62,11.98-38.19-6.61,22.56-.74,42.26-11.98,38.19Z"/>
        <path class="cls-26" d="M388.27,200.55c-.02,1,.07,2.01.02,3.01-7.68,2.64-23.85-6.43-21.61,5.16v2.01c-7.66-6.34-12.97-9.09-18.92-17.93,12.75,6.04,26.82,5.73,40.52,7.78v-.03Z"/>
        <path class="cls-43" d="M388.28,203.56c-.27,6,1.17,12.08-1.31,14.04-4.56.03-9.09.06-13.65.09-.34-.71-1.78-2.87-1.9-3,10.12-1.46,4-12.21-4.75-6-2.23-11.59,13.94-2.52,21.61-5.16v.03Z"/>
        <path class="cls-15" d="M392.68,153.37c2.28,4.07.34,15.62,1.08,21.06.1.65-.11,1.39.01,2.01l-5.66-.97c0-.94-.92-1.03-.96-2-.17-7.26,1.08-12.32.83-17.05,3.1.08,2.57-1.8,2.8-4.04.4.09,1.83.9,1.89.99Z"/>
        <path class="cls-39" d="M419.44,216.4c3.02-2.74,6.91-4.06,10.33-6.09,12.99-7.63,16.78-14.59,21.92-29.24-2.17,18.03-14.78,33.41-32.25,35.3v.03Z"/>
        <path class="cls-25" d="M386.95,141.35c.06.32-.06.68,0,1l-1.32,13.04c-11.5-5.27-11.27-18.4,1.31-14.04Z"/>
        <path class="cls-44" d="M392.68,153.37s-1.5-.9-1.89-.99c.77-8.17-.52-5.08,2.75-13.05,5.54.45,2.5,11.07-.85,14.04Z"/>
        <g>
          <path class="cls-49" d="M437.55,103.92l17.06,19.95c-3.06,1.32-56.94.46-65.88.42-1.31-5.86-29.82-18.51-30.26-20.39,9.22-9.04,22.02-13.23,31.86-19.78,18.24-.47,33.07,8.12,47.19,19.76l.03.03Z"/>
          <path class="cls-19" d="M390.36,84.16c-9.87,6.54-22.64,10.74-31.86,19.78.44,1.88,28.94,14.53,30.26,20.39-6.02-.03-57.54,1.85-58.35-1.12,12.16-19.46,37.91-38.45,59.98-39.01l-.03-.03Z"/>
          <path class="cls-42" d="M454.61,123.88l-17.06-19.95c3.73,3.09,21.46,18.05,17.06,19.95Z"/>
        </g>
        <path class="cls-30" d="M393.61,75.1c7.04-2.7,13.27,7.5-1.86,4.03-.67-.42,1.07-3.73,1.86-4.03Z"/>
        <g>
          <path class="cls-15" d="M425.12,221.38c0,.68-.02,1.33.01,2.01.1,1.65,1.54,3.23-.43,4.02-2.97,1.15-60.16,1.74-63.05.4-1.65-.77-1.92-5.63-1.44-6.5,1.62-2.99,58.88-1.12,64.94.08h-.03Z"/>
          <path class="cls-32" d="M425.14,223.39c-.03-.65,0-1.33-.01-2.01,11.35,2.23,6.48,9.75.01,2.01Z"/>
        </g>
        <g>
          <path class="cls-24" d="M435.84,132.03c-10.68-1.88-1.12,6.26.1,16.56.42,3.63-1.41,22.76-.31,23.56.34.26,7.51.18,7.99-.54.51-.78.65-18.09-1.06-18.04,2.21-6.01-4.86-13.13-2-17.55,7.01,8.19,10.28,25.25,9.65,36.04-1.86-.67-2.36,1.93-3.76,2.03-17.35,1.44-35.3-.78-52.72.33-.73-5.44,1.2-16.99-1.08-21.06,3.36-3,6.39-13.59.85-14.04,1.05-2.57,1.33-5.91,3.23-8.06,1.79-.82,35.87-.32,39.07.76h0Z"/>
          <path class="cls-44" d="M435.84,132.03c2.47.83,3.11,2.12,4.74,3.99-2.86,4.39,4.21,11.54,2,17.55,1.7-.01,1.57,17.26,1.06,18.04-.48.72-7.66.79-7.99.54-1.07-.8.76-19.97.31-23.56-1.22-10.3-10.79-18.44-.1-16.56h0Z"/>
          <path class="cls-44" d="M415.66,138.19c22.15-2.8,14.4,31.96-3.58,30.13-14.72-1.49-12.25-28.12,3.58-30.13Z"/>
        </g>
        <path class="cls-46" d="M402.45,207.49c5.53-.26,8.12-.25,6.64,5.99-6.56.92-14.33-1.04-6.64-5.99Z"/>
        <path class="cls-2" d="M371.42,214.69c-1.53-1.29-3.21-2.7-4.74-3.99v-2.01c8.73-6.21,14.85,4.54,4.74,6Z"/>
      </g>
      <g>
        <path class="cls-3" d="M242.58,380.04l1.74,275.87-.41,8.04c3.25-.51.93-2.66,4.2-4.05,1.14,1.97,3.55-.57,2.86,5.01-1.72,1.47-3.79,1.03-3.75,3.52,16.46,2.36,9.22,6.23-2.28,9.54-1.16-1.03-.04-1.88.44-3.02,11.76-.17,9.27-5.89,1.87-2.02-4.13-4.71-4.77.94-5.16,1.04-7.2,1.5,7.18-8.37-9.95-10.47,17.91-3.68,7.83-7.08,7.48-10.09-4.07-33.06,1.52-221.19-1.74-274.87,1.87-2.9,1.98.05,4.72,1.46l-.03.03Z"/>
        <path class="cls-12" d="M244.32,655.91l-1.74-275.87,2.32-3.03c4.62,91.2,3.3,185.09,3.15,277.36l-3.76,1.51.03.03Z"/>
        <path class="cls-6" d="M241.09,216.52c.42-.33,9.94-.39,10.37-.07,1.37,1.03.34,6.25.5,6.51,1.07,1.52,16.65,3.17,2.39,7.5-16.23,4.93-24.62-4.28-3.33-7.5-2.94.99-17-1.06-9.92-6.45Z"/>
        <path class="cls-21" d="M240.93,267.69c-3.88-2.63-11.04-.74-14.61-1.92-17.37-5.66,7.12-4.42,14.55-7.12-.09.45,1.53,6.5.06,9.04Z"/>
        <path class="cls-6" d="M247.65,286.7c3.6,7.3,9.22-3.07,8.51,3.96-1.33,1.14-11.91,1.24-14.59,1.1-28.34-1.41-11.31-4.27,6.08-5.06Z"/>
        <path class="cls-8" d="M247.01,334.86c-5.85,6.97,5.34,2.66,2.83-.02,1.91-.08,10.24-1.65,3.31,4-6.08,4.96-37.04-2-6.14-3.98Z"/>
        <path class="cls-12" d="M244.12,695.03c7.11-5.46,7.33,10.78,5.73,11.99-7.11,5.46-7.33-10.78-5.73-11.99Z"/>
        <path class="cls-8" d="M240.58,360.99c1.05-2.89,6.16-6.2,3.71-9.07.15,0,1.96-2.6,2.82-.5.83,2.04-1.68,13.88-2.73,16.06-3.27,6.89-2.29-.86-3.81-6.49Z"/>
        <path class="cls-41" d="M251.55,235.51c15.35-.23-2.78,8.28-11.74,3.57-.59-1.78,10.56-3.57,11.74-3.57Z"/>
        <path class="cls-41" d="M244.29,351.93c2.45,2.87-2.67,6.17-3.71,9.07-1.71-6.37-7.18-10.07,3.71-9.07Z"/>
        <path class="cls-8" d="M246.97,327.83l-.92,4.02c-3.4.7-14.62.06-13.18-2.41,6.6.54,8.75-.67,14.1-1.58v-.03Z"/>
        <path class="cls-6" d="M259.09,235.46c10.83,10.82-21.56,9.21-.91,5.03l.91-5.03Z"/>
        <path class="cls-35" d="M256.16,290.67c.75-7.04-4.9,3.34-8.51-3.96,1-.04,15.92-2.43,8.51,3.96Z"/>
        <path class="cls-41" d="M246.05,331.86l.92-4.02c3.71-.64,8.8-3.04,8.47-1.54-2.08,2.93-6.14,4.9-9.39,5.57h0Z"/>
        <path class="cls-30" d="M250.98,664.88c.72-5.58-1.72-3.04-2.86-5.01,1.85-.79,7.11-1.28,7.55,1.44.44,2.72-4.45,3.33-4.69,3.53v.03Z"/>
        <path class="cls-23" d="M245.39,674.96c1.05-2.4-.37-.84,1.87-2.02,7.39-3.87,9.89,1.85-1.87,2.02Z"/>
        <path class="cls-30" d="M249.84,334.85c2.51,2.67-8.68,6.99-2.83.02.94-.07,1.88-.01,2.83-.02Z"/>
        <path class="cls-38" d="M242.85,344.9s1.16.64.96,2c-.7,4.44-2.59-.44-.96-2Z"/>
        <g>
          <path class="cls-12" d="M240.93,267.69c1.47-2.5-.15-8.59-.06-9.04,1.21-6.36,6.24-3.77,5.17-.03,1.4.77,10.22-3.6,8.02,4.45-.83,3.05-16.11,4.87-3.25,5.53.32,11.63,14.43,8.4,5.76,16.01,1.83-8.83-2.72-1.6-10.37-.94-3.86.35-28.46-1.15-22.61-3.88,8.75,3.32,27.79-.47,9.83-7.58,4.97-2.01,4.92-.23,7.51-4.55v.03Z"/>
          <path class="cls-41" d="M245.26,278.68c3.03-1.9,11.36,3.01.01,2.01-.79-.45-.8-1.52-.01-2.01Z"/>
        </g>
        <g>
          <path class="cls-21" d="M235.96,299.8c12.55-1.67,19.17,6.81,6.63,4.98-4.34,6.02,8.51-.28,8.94.43-6.97,13.56-6.98,21.72-14.58,2.59l-13.65-.4c0-1.26,26.85,1.29,12.66-7.6h0Z"/>
          <path class="cls-33" d="M244.46,301.76l.46.48.46.48.46.48-.45.49h-.94s-.46-.48-.46-.48v-1s.45-.49.45-.49l.03.03Z"/>
        </g>
      </g>
    </g>
  </g>
  <g>
    <path class="cls-20" d="M165.33,813.91c-21.25,4.8-127.15,19.02-134.91,22.92-.18.1-3.08,2.81-3.26,3.03-3.41,4.36-.79,4.61-.9,6.03-.11,1.39-2.24,1.93-1.86,3.51,2.89,4.81,5.85,7.38,10.88,9.46,9.3,3.86,184.67,44.2,195.11,44.92,12.23,1.32,23.4-2.03,35.27-4.24,60.8-11.34,126.79-32.75,188.43-44.32,3.9-3.69,3.86-9.13,2.25-14.05-4.15-12.77-63.47-16.71-77.28-18.57,6.09-3.77,16.78,4.5,17.86-2.12,30.55,4.77,75.18,4,63.27,33.21,13.56,5.52,23.33-2.64,20.82,18.44l-5.67-1.97c.06-.71-.13-1.65-.01-2.01.84-2.24,3.63-2.32-.5-7.03-24.12-6.33.19,1.2-19.73,5.15-70.33,16.15-140.66,32.31-210.99,48.48l-7.54.05c-4.5-.1-9.77-2.21-14.13-2.92-66.32-10.66-137.39-33.87-203.57-47.36,4.91-7.23-19.09-4.29-14.08,4.11.65,1.1,7.51.28,6.62,3.46-3.47-.82-7.03-1.64-10.39-2.95.08-1.85-2.58-4.39.4-9.04l20.22-4.63c-3.94-7.88-1.18-18.95,6.91-22.63,4.24-1.94,46.8-8.59,56.88-10.41,1.22,1.03,3.09,2.96,3.3,2.99,6.66.57,70.51-13.96,74.25-13.5,1.61.18,2.67-.63,2.35,1.99h0Z"/>
    <path class="cls-40" d="M475.3,868.11l-225.54,51.59c-2.31-.5-2.97.96-3.76,1.03-.22-.65-3.57-1.95-3.78-1.99l1.86-4.03c70.33-16.15,140.66-32.31,210.99-48.48,19.95-3.92-4.39-11.48,19.73-5.15,4.13,4.71,1.34,4.76.5,7.03h0Z"/>
    <path class="cls-4" d="M475.3,868.11c-.12.36.07,1.3.01,2.01-73.61,17.19-147.23,34.37-220.86,51.56l-4.72-1.98,225.54-51.59h.03Z"/>
    <path class="cls-37" d="M236.56,914.76c-1.27,6.13,5.25,3.92,5.68,3.98.21,0,3.54,1.34,3.78,1.99-7.08.69-30.97,1.52-23.59-8.89,4.35.69,9.66,2.82,14.13,2.92Z"/>
    <path class="cls-27" d="M244.07,914.72l-1.86,4.03c-.4-.06-6.92,2.18-5.68-3.98l7.54-.05Z"/>
    <g>
      <path class="cls-40" d="M317.84,819.95c38.49,9.71,79.04,8.87,117.29,18.32-45.05,15.35-96.49-2.99-139.15,19.93,20.04,1.27,43.93-4.59,63.05-.4-22.85,7.5-104.63,21.56-113.73,24.8-3.85,1.39-5.61,2.3-2.3,6.04-5.41.03-38.34-.92-39.56-5.26-.12-.49,3.74-4.37,2.79-6.53l4.23.98c11-5.42,42.83-10.54,48.86-13.34.94-.43,3.33-1.67,1.87-3.03-17.54.69-98.04,2.27-107.31-2.34-5.46-2.72-4.52-7.36-5.71-8-3.32-1.73-62.52-1.03-71.99.45-15.1-2.56-22.65-4.49-38.61-4.78-3.83-.07-7.54.14-11.29-.93.11-1.43-2.5-1.67.9-6.03,41.46,8.39,97.58-1.98,136.35-19.92-1.09,10.05-4.09,21.51-3.63,22.61,12.5,5.79,5.65,14.39,25.02,13.39,5.44-5.35,21.48,1.71,40.48,2.76,9.98.55,48.77-.18,57.39-1.37,4.01-.54,34.57-9.42,37.57-11.29,13.72-8.45-1.81-11.62-2.51-26.07h-.03Z"/>
      <path class="cls-46" d="M379.03,822.57c13.81,1.89,73.13,5.79,77.28,18.57-44.62,11.11-89.02,24.06-133.89,33.97-24.02,5.27-56.37,13.55-79.45,13.53-3.31-3.74-1.55-4.66,2.3-6.04,9.07-3.23,90.89-17.3,113.73-24.8-19.12-4.19-43.01,1.67-63.05.4,42.69-22.95,94.1-4.58,139.15-19.93-38.25-9.48-78.8-8.61-117.29-18.32-.07-1.62.53-3.41-.97-4.5,1.23-1.95,2.39-1.47,4.22-1.52,2.92-.08,48.2,7.34,57.94,8.68l.03-.03Z"/>
      <path class="cls-37" d="M265.62,899.54c-7.74-2.51-16.2.1-23.99-.85-11.9-1.45-34-10.74-38.66-11.78-23.9-5.39-48.19-9.09-72.09-14.58-7.15-15.77-29.34-5.19-29.29-15.86,34.85,6.75,69.15,17.1,104.59,20.4.96,2.17-2.91,6.05-2.79,6.53,1.21,4.37,34.15,5.26,39.56,5.26,23.08-.02,55.4-8.26,79.45-13.53,44.87-9.88,89.27-22.86,133.89-33.97,1.61,4.95,1.65,10.36-2.25,14.05-61.61,11.57-127.61,32.99-188.43,44.32h0Z"/>
      <path class="cls-14" d="M37.54,846.8c29.54,13.29,62.05,18.31,93.35,25.5,23.9,5.49,48.22,9.19,72.09,14.58,4.66,1.04,26.76,10.33,38.66,11.78,7.79.96,16.26-1.66,23.99.85-11.87,2.21-23.04,5.56-35.27,4.24-10.4-.71-185.81-41.05-195.11-44.92-5.03-2.07-7.99-4.65-10.88-9.46-.37-1.59,1.75-2.12,1.86-3.51,3.78,1.08,7.45.86,11.29.93h.03Z"/>
      <path class="cls-46" d="M206.2,876.84c-35.44-3.31-69.74-13.66-104.59-20.4-8.46-1.63-16.96-3.43-25.45-4.86,9.48-1.49,68.67-2.18,71.99-.45,1.19.61.22,5.28,5.71,8,9.27,4.58,89.74,3.03,107.31,2.34,1.5,1.35-.93,2.57-1.87,3.03-6,2.82-37.86,7.95-48.86,13.34l-4.23-.98Z"/>
      <path class="cls-37" d="M76.15,851.58c8.49,1.44,16.99,3.23,25.45,4.86-.08,10.69,22.13.09,29.29,15.86-31.27-7.19-63.8-12.17-93.35-25.5,15.96.29,23.52,2.22,38.61,4.78h0Z"/>
      <g>
        <path class="cls-46" d="M165.33,813.91c.25,1.62-1.82,5.72-1.85,6.04-38.74,17.94-94.89,28.31-136.35,19.92.18-.23,3.08-2.94,3.26-3.03,7.76-3.91,113.65-18.12,134.91-22.92h.03Z"/>
        <path class="cls-45" d="M83.09,833.48c8.63-.9-4.08,4.21-4.22,1.52,0-.23,4-1.52,4.22-1.52Z"/>
      </g>
    </g>
    <g>
      <path class="cls-37" d="M222.41,911.84c-7.38,10.38,16.51,9.55,23.59,8.89.79-.07,1.45-1.53,3.76-1.03l4.72,1.98-20.23,2.14c-74.41-16.74-148.64-34.26-222.91-51.77.92-3.18-5.94-2.36-6.62-3.46-5.01-8.39,18.99-11.33,14.08-4.11,66.21,13.52,137.26,36.73,203.57,47.36h.03Z"/>
      <path class="cls-37" d="M217.26,914.89c.91-.59,1.89.21.96,2-1.29,2.5-2.23-1.15-.96-2Z"/>
    </g>
  </g>
</svg>