<?xml version="1.0" encoding="UTF-8"?>
<svg id="Layer_1" data-name="Layer 1" xmlns="http://www.w3.org/2000/svg" xmlns:xlink="http://www.w3.org/1999/xlink" viewBox="0 0 797.31 579.3">
  <defs>
    <style>
      .cls-1 {
        fill: url(#linear-gradient);
      }

      .cls-1, .cls-2, .cls-3, .cls-4, .cls-5, .cls-6, .cls-7, .cls-8, .cls-9, .cls-10, .cls-11, .cls-12, .cls-13, .cls-14, .cls-15, .cls-16, .cls-17, .cls-18, .cls-19, .cls-20, .cls-21, .cls-22, .cls-23, .cls-24, .cls-25, .cls-26, .cls-27, .cls-28, .cls-29, .cls-30, .cls-31, .cls-32, .cls-33, .cls-34, .cls-35, .cls-36, .cls-37 {
        stroke-width: 0px;
      }

      .cls-2 {
        fill: #f3d2de;
      }

      .cls-3 {
        fill: #620b37;
      }

      .cls-4 {
        fill: #46213d;
      }

      .cls-5 {
        fill: #7a1a4a;
      }

      .cls-6 {
        fill: #54c4ca;
      }

      .cls-7 {
        fill: #88c7c0;
      }

      .cls-8 {
        fill: #0c898d;
      }

      .cls-9 {
        fill: #0f1815;
      }

      .cls-10 {
        fill: #08a6a9;
      }

      .cls-11 {
        fill: #0cb8b5;
      }

      .cls-12 {
        fill: #101010;
      }

      .cls-13 {
        fill: #06646b;
      }

      .cls-14 {
        fill: #0b5366;
      }

      .cls-15 {
        fill: #077b7d;
      }

      .cls-16 {
        fill: #1f2f3f;
      }

      .cls-17 {
        fill: #c4e6e4;
      }

      .cls-18 {
        fill: #d1e5eb;
      }

      .cls-19 {
        fill: #d2d2d2;
      }

      .cls-20 {
        fill: #d1769a;
      }

      .cls-21 {
        fill: #d6c9c0;
      }

      .cls-22 {
        fill: #c3a6ac;
      }

      .cls-23 {
        fill: #a84675;
      }

      .cls-24 {
        fill: #ac5c7e;
      }

      .cls-25 {
        fill: #b78b9d;
      }

      .cls-26 {
        fill: #9dd7d1;
      }

      .cls-27 {
        fill: #31273b;
      }

      .cls-28 {
        fill: #96d0d2;
      }

      .cls-29 {
        fill: #983066;
      }

      .cls-30 {
        fill: #eec4c2;
      }

      .cls-31 {
        fill: #e8e0dd;
      }

      .cls-32 {
        fill: #eaf1f1;
      }

      .cls-33 {
        fill: #e8a7b7;
      }

      .cls-34 {
        fill: #052927;
      }

      .cls-35 {
        fill: #053e47;
      }

      .cls-36 {
        fill: #039796;
      }

      .cls-37 {
        fill: #044e55;
      }
    </style>
    <linearGradient id="linear-gradient" x1="420.22" y1="298.35" x2="404.41" y2="215.06" gradientTransform="translate(0 574.12) scale(1 -1)" gradientUnits="userSpaceOnUse">
      <stop offset="0" stop-color="#7b214a"/>
      <stop offset="1" stop-color="#963864"/>
    </linearGradient>
  </defs>
  <path class="cls-12" d="M152.69,0h492.89c23.15,3.82,37.47,20.55,40.19,43.04,1.48,12.26,1.65,234.67,0,246.92-1.82,13.52-14.9,29.17-22.28,40.68,16.59.93,25.68-.09,36.8,13.25,2.71,3.25,31.63,51.6,45.52,70.96,8.92,12.44,45.35,56.42,47.45,60.54,11.64,22.81-2.52,69.2-33.41,73.32-20.92,2.8-138.39-2.11-174.3,0-32.83,12.65-78.25,4.15-114.26,6.62-35.76,31.36-111.3,32.59-146.22,0-40.08-1.52-81.02,4.56-120.08-6.62-35.96-1.4-144.01,3.21-164.62.94C-.22,545.21-5.42,493.15,4.06,474.44c2.07-4.09,44.36-56.01,56.16-72.85,24.77-35.36,34.18-74.52,71.65-70.96-9.26-8.38-18.8-25.76-20.33-37.84-1.57-12.39-1.49-237.35,0-249.76C114.12,21.56,130.29,3.01,152.71,0h-.02Z"/>
  <g>
    <g>
      <path class="cls-1" d="M648.99,331.11l-478.36-.94,25.17-18.92c143.28,3.67,287.1-2.75,430.43,0,8.11-1.72,15.64-3.12,22.76-7.57v27.44h0Z"/>
      <path class="cls-36" d="M663.51,19.86l-12.59,7.57c-10.77-3.53-196.67.73-227.09-.94-2.24-1.52-3.04-3.54-4.36-5.67,4.19.03,4.72-8.5,5.81-12.3,10.9-1.25,208.5-1.69,219.33,0,6.79,1.06,14.21,6.59,18.88,11.35h.02Z"/>
      <path class="cls-31" d="M130.91,54.87c0,32.77-.36,208.14.97,219.01,1.6,13.05,11.77,30.75,25.17,35.48l-1.93,20.82c-8.31-.7-14.13-.2-23.24-12.77-6.9-9.5-9-21.06-11.61-32.16,2.35-53.47-5.21-193.79-.97-234.61.75-7.16,3.3-15.79,6.77-22.23,2.18-1.89,7.72,12.87,7.75,13.72.03,1.35-2.9,3.42-2.91,12.77v-.02Z"/>
      <path class="cls-35" d="M676.09,195.83l-8.72.94c.65-23.47,3.83-133.33,1.93-144.75l6.77-1.89c3.77,31.37.75,109.51,0,145.69h.02Z"/>
      <path class="cls-16" d="M676.09,195.83c-.39,18.95-.08,80.75-.97,87.98-3.33-10.11,4.03-12.65-8.72-17.03,1.4-20.26.36-47.91.97-70l8.72-.94Z"/>
      <path class="cls-31" d="M158.03,8.52v18.92c-15.08,1.78-24.69,13.43-27.12,27.44,0-9.35,2.94-11.41,2.91-12.77-.02-.85-5.57-15.6-7.75-13.72,6.54-12.12,18.31-18.46,31.96-19.86h0Z"/>
      <path class="cls-37" d="M663.51,19.86c9.54,9.73,11.04,17.28,12.59,30.28l-6.77,1.89c-1.12-6.77-11.63-22.39-18.4-24.59l12.59-7.57h-.02Z"/>
      <path class="cls-4" d="M666.41,307.46c-2.83,5.86-12.95,23.88-17.43,23.65v-27.44c1.01-.64,9.29-7.97,9.68-8.52,8.5.94,2.85,11.19,7.75,12.3h0Z"/>
      <path class="cls-27" d="M675.12,283.81c-.79,6.43-5.7,17.41-8.72,23.65-4.9-1.11.75-11.35-7.75-12.3,6.16-8.43,7.07-18.51,7.75-28.38,12.75,4.38,5.39,6.9,8.72,17.03Z"/>
      <path class="cls-26" d="M184.17,8.52c-2.41,5.82-24.02,19.25-26.15,15.13v-15.13c6.79-.7,18.03.2,26.15,0Z"/>
      <g>
        <path class="cls-33" d="M195.8,311.25l-25.17,18.92c-1.29-.06-2.58.08-3.88,0v-19.86c9.9,1.23,19.18.7,29.05.94Z"/>
        <path class="cls-20" d="M166.73,310.3v19.86c-3.83-.23-7.8.32-11.61,0l1.93-20.82c.45.17,8.09.75,9.68.94v.02Z"/>
      </g>
      <path class="cls-14" d="M396.73,8.52c14.98-6.48,14.34,12.85,0,6.62-2.12-.91-2.12-5.7,0-6.62Z"/>
      <g>
        <path class="cls-20" d="M655.76,198.66c.11,9.47-.16,72.44-.97,76.16-2.52,11.48-14.34,24.18-26.63,26.02-28.55,4.27-391-3.27-458.03,0-4.56-1.23-7.1-2.45-11.13-4.73.76-36.91-4.13-73.85-1.93-110.68,21.96,36.33,69.79,66.12,110.88,76.63,102.66,26.23,197.04-16.03,270.66-84.19,25.59,19.12,84.46,20.68,117.17,20.82l-.02-.03Z"/>
        <path class="cls-7" d="M408.82,45.41c2.93,26.19,65.88,90.34,84.25,98.4l5.81,5.67c-28.19,3.24-56.46,10.17-84.73,12.3-104.83,7.86-210.55-20.99-251.29-124.87,70.61,1.63,141.87-3.38,212.06.47-3.19,10.16,27.71,8.9,33.89,8.04l.02-.02Z"/>
        <path class="cls-30" d="M162.87,36.89c40.74,103.89,146.47,132.74,251.29,124.87,28.27-2.11,56.54-9.06,84.73-12.3,1.26-.15,2.62.14,3.88,0,4.41,3.54,8.86,7.27,13.56,10.4-80.31,102.78-278.81,82.79-348.61-21.29-3.67-5.47-8.25-18.84-14.52-21.29.54-15.12,1.04-74.09,1.93-78.05.16-.7,2.55.08,1.93-2.37,1.53-.3,3.92.17,5.81,0l.02.03Z"/>
        <path class="cls-36" d="M616.06,35.95c-13.75,12.21-79.83,102.4-85.69,105.95-7.75,4.71-29.13,5.46-37.28,1.89-18.37-8.05-81.32-72.19-84.25-98.4,8.59-1.19,5.99-2.68,10.17-9.46,65.63,1.19,131.46-1.6,197.06,0v.02Z"/>
        <path class="cls-37" d="M653.83,163.67c-24.22-9.81-55.18-17.6-81.34-18.92,24.47-35.68,52.18-69.8,72.63-107.85,5.21,1.93,10.82,12.35,11.61,17.5.83,5.38.33,103.51-.97,108.8-.17.7-1.28.49-1.93.47h-.02Z"/>
        <path class="cls-24" d="M572.48,144.75c26.15,1.32,57.11,9.11,81.34,18.92l1.93,2.37c.09,10.87-.12,21.76,0,32.64-32.72-.14-91.58-1.69-117.17-20.82.7-.64,1.29-1.28,1.93-1.89,10.52-9.9,21.5-19.51,30.01-31.22.64.03,1.29-.03,1.93,0h.03Z"/>
        <path class="cls-15" d="M645.11,36.89c-20.45,38.04-48.15,72.16-72.63,107.85-.64-.03-1.29.03-1.93,0-12.41-.53-31.76.93-44.55,1.89-7.91.59-15.43,1.96-23.24,2.84-1.26.14-2.62-.15-3.88,0l-5.81-5.67c8.16,3.57,29.53,2.81,37.28-1.89,5.87-3.56,71.96-93.74,85.69-105.95,7.21.18,23.72-1.03,29.05.94l.02-.02Z"/>
        <path class="cls-17" d="M382.69,21.76l-143.8,1.89c-6.97-3.19-6.04-8.36-4.36-15.13,49.22-.38,98.46.29,147.68,0,.7.49.73,11.57.48,13.25h0Z"/>
        <path class="cls-33" d="M149.31,168.4c2.72,5.69,4.39,11.48,7.75,17.03-2.18,36.83,2.71,73.77,1.93,110.68-10.07-5.7-16.98-18.83-18.4-29.81-1.06-8.24-.93-93.86-.97-112.11,3.08-1.06,7.32,9.26,9.68,14.19v.02Z"/>
        <path class="cls-6" d="M234.53,8.52c-1.68,6.77-2.62,11.95,4.36,15.13l143.8-1.89c-.19,1.23.51,4.05-.48,4.73-45.24,2.14-194.41-2.55-224.18.94v-3.79c2.13,4.12,23.74-9.31,26.15-15.13,16.75-.41,33.59.12,50.36,0h-.02Z"/>
        <path class="cls-2" d="M153.19,117.31c-.61,16.87-.33,35.08-3.88,51.08-2.37-4.93-6.6-15.27-9.68-14.19-.03-17.02-.93-93.7,0-98.87,1.17-6.46,10.51-17.05,17.43-18.45.61,2.43-1.77,1.66-1.93,2.37-.89,3.95-1.39,62.93-1.93,78.05h-.02Z"/>
        <path class="cls-28" d="M425.29,8.52c-1.09,3.8-1.63,12.33-5.81,12.3-5.5-8.84-3.52-11.22,5.81-12.3Z"/>
        <path class="cls-33" d="M516.31,159.88c.22.15.75-.15.97,0,7.81,5.19,16.19,9.9,23.24,16.09-.65.61-1.25,1.25-1.93,1.89-73.61,68.18-168,110.44-270.66,84.19-41.1-10.51-88.92-40.3-110.88-76.63-3.36-5.55-5.03-11.33-7.75-17.03,3.55-16,3.27-34.22,3.88-51.08,6.27,2.45,10.85,15.82,14.52,21.29,69.8,104.08,268.29,124.07,348.61,21.29h0Z"/>
        <path class="cls-22" d="M525.99,146.64l-8.72,13.25c-.22-.15-.75.15-.97,0-4.7-3.15-9.15-6.86-13.56-10.4,7.81-.87,15.33-2.24,23.24-2.84h0Z"/>
        <path class="cls-25" d="M570.55,144.75c-8.51,11.71-19.51,21.32-30.01,31.22-7.05-6.17-15.43-10.9-23.24-16.09l8.72-13.25c12.8-.97,32.13-2.42,44.55-1.89h-.02Z"/>
      </g>
    </g>
    <g>
      <path class="cls-10" d="M662.53,338.68c10.55,12.2,5.28,17.35-6.77,25.06,12.42,1.87,24.83-2.59,35.83,5.2-3.33-.43-7.8-2.78-8.23-2.84-7.81-1.09-150.09-.49-157.85.94-.86.15-2.52,2.81-2.91,3.79-1.15-.21-2.66-3.74-2.91-3.79-2.6-.55-50.7-1.64-53.25-.94-2.77.76-4.47,5.76-4.84,5.67-.4-.11-1.06-4.97-2.91-5.67-3.02-1.16-61.74-.81-64.88,0-2.97.76-2.83,8.79-9.68,0H112.98c-13.06,1.23-40.35,42.98-39.21,51.55.58,4.41,4.14,6.95,7.75,8.99-5.74,1.7-9.48-7.07-9.68-12.3-.03-.96-1.21-1.06-.97-2.37.62-3.25,30.82-49.03,44.05-48.73,13.01-15.18,27.04-26.42,9.2-25.55,26.6-4.06,466.42,2.42,538.4.94v.05Z"/>
      <path class="cls-10" d="M752.6,485.32c-.16,6.34-2.35,7.7-6.77,11.83,6.44-.5,13.64.56,15.49-2.37.11,1,1.43,1.37.97,2.84-26.23,5.02-80.6,1.92-110.88,2.84-44.02,1.35-88.19,2.92-132.18,4.73-.5-2.31.89-2.98.97-3.79,75.5-22.43,154.56-16.56,232.41-16.09Z"/>
      <path class="cls-8" d="M224.84,486.26c13.89.91,66.78,5.03,76.01,8.52,2.9,1.09,3.07,4.91,6.29,4.73,4.5,7.1,12.55,5.92,11.61,8.52-50.75-2.65-101.71-6.48-152.52-7.57-36.66-.79-74.24,3.38-110.88.94v-2.84c6.01,2.87,90.05-.26,106.04.94l1.45-15.13c21.26.32,40.64.5,61.97,1.89l.03.02Z"/>
      <path class="cls-15" d="M755.49,443.69c-11.78,10.77,1.85,24.56,4.84,36.42,1.37,5.46.42,9.95.97,14.66-1.85,2.94-9.04,1.86-15.49,2.37,4.44-4.12,6.62-5.47,6.77-11.83.25-9.99-24.89-52.27-29.05-65.74l-1.93-.47c.81-2.39,1.49-4.56.97-7.1-.54-2.59-24.07-38.14-30.99-43.04-11.01-7.8-23.4-3.33-35.83-5.2,12.05-7.71,17.33-12.88,6.77-25.06,28.08-6.78,34.65,23.01,54.23,51.55,12.47,18.17,25.68,35.69,38.73,53.46l.02-.02Z"/>
      <path class="cls-6" d="M71.84,414.37c-4.27,7.09-28.7,50.9-29.05,53.93-.03.3.03.64,0,.94-9.7-1.28-15.71,2.65-17.43,2.84-2.93.32-3.66-.9-4.84-2.84,11.22-16.76,29.36-36.96,41.64-54.4,20.16-28.65,40.43-73.82,61.97-77.1,17.84-.87,3.81,10.36-9.2,25.55-13.25-.32-43.43,45.47-44.05,48.73-.25,1.29.93,1.41.97,2.37v-.02Z"/>
      <path class="cls-13" d="M755.49,443.69c10.17,13.82,21.4,26.9,30.99,41.15-4.93,7.73-15.5,11.1-24.21,12.77.47-1.48-.86-1.82-.97-2.84-.54-4.73.4-9.22-.97-14.66-2.99-11.86-16.63-25.66-4.84-36.42h-.02Z"/>
      <g>
        <path class="cls-5" d="M747.76,520.32l-4.84,18.92c-58.13,2.9-126.07-3.18-185.45-.94-1.88,1.25-2.13,4.76-3.88,5.67-4.93,2.6-63.67-.02-75.53.94-1.88-1.29,2.9-14.68,3.39-17.03l62.94-4.73c3.81.73,46.42-1.78,60.04-1.89,25.17-.21,50.36.2,75.53,0,12.19-.11,61.27,1.19,67.78-.94h.02Z"/>
        <path class="cls-29" d="M758.41,508.02c-2.09,6.05-4.14,10.17-10.65,12.3-6.51,2.13-55.59.85-67.78.94-.5-4.68-15.43,1.35-16.47-5.2-1.14-7.18,9.7-4.14,13.56-6.14,21.45-.56,63.29.33,81.34-1.89v-.02Z"/>
        <path class="cls-3" d="M742.92,539.24l4.84-18.92c6.51-2.13,8.56-6.25,10.65-12.3,6.6-.82,16.38-4.11,22.76-6.62,3.27,2.28-3.08,19.53-6.29,24.12-8.73,12.5-18.35,13.03-31.96,13.72h0Z"/>
        <path class="cls-23" d="M677.07,509.92c-3.86,2.01-14.69-1.03-13.56,6.14,1.04,6.55,15.96.52,16.47,5.2-25.17.2-50.36-.21-75.53,0-9.28-1.51-21.11-.41-7.75-9.46,26.84-.81,53.56-1.19,80.37-1.89Z"/>
        <path class="cls-20" d="M545.36,513.69c-3.11,4.55-10.91,7.57-.97,9.46l-62.94,4.73c.11-.53-.47-8.59,0-10.87,20.87-2.78,42.65-2.31,63.92-3.32h-.02Z"/>
        <path class="cls-24" d="M596.68,511.81c-13.36,9.05-1.53,7.95,7.75,9.46-13.62.11-56.21,2.62-60.04,1.89-9.93-1.89-2.15-4.91.97-9.46,17.14-.81,34.18-1.37,51.32-1.89Z"/>
      </g>
      <g>
        <path class="cls-5" d="M189.97,520.32h30.01c7.32,1.22,14.85,1.28,22.28,1.89,23.21,1.93,46.54,2.37,69.72,4.73.47,3.04,5.03,16.97,2.43,17.98l-74.56-.94c-12.56-2.55-25.93-4.41-38.73-4.73-31.88-.79-140.68,3.97-160.74.94-13.75-2.07-22.45-14.78-24.69-27.44,4.93,3.09,10.12,7.22,15.97,8.52,17.2,3.77,127.49-.94,158.33-.94h-.02Z"/>
        <path class="cls-33" d="M190.95,511.81l-.97,8.52c-30.84,0-141.11,4.71-158.33.94-5.87-1.28-11.04-5.43-15.97-8.52-.4-2.27-2.04-11.1-.48-12.3,10.23,5.64,23.19,8.5,34.85,9.46,20.17,1.66,103.3.62,140.89,1.89v.02Z"/>
        <path class="cls-29" d="M312,526.94c-23.18-2.36-46.51-2.8-69.72-4.73l-3.88-8.52c24.38,1.2,48.72,3,73.12,3.79,3.47,3.22.4,8.99.48,9.46Z"/>
        <path class="cls-24" d="M238.4,513.69l3.88,8.52c-7.43-.62-14.96-.68-22.28-1.89-7.53-1.25-9.45.75-7.75-7.57,8.69.36,17.47.52,26.15.94Z"/>
        <path class="cls-20" d="M212.25,512.75c-1.7,8.3.22,6.31,7.75,7.57h-30.01l.97-8.52c7.08.24,14.21.65,21.31.94h-.02Z"/>
      </g>
      <path class="cls-10" d="M308.12,476.8c-4.51,7.3-5.71,15.22-.97,22.71-3.22.18-3.39-3.63-6.29-4.73-9.23-3.48-62.13-7.6-76.01-8.52-.31-1.02.64-2.6,1.45-2.84,7.5-2.14,65.3-4.11,81.82-6.62h0Z"/>
      <g>
        <g>
          <path class="cls-5" d="M348.78,537.36c1.57,6.9,16.02,16.07,22.76,17.98,23.83,6.72,52.51-2.72,47.93,7.1-4.67,10.02-100.25,2.3-93.93-39.27l23.24,14.19h0Z"/>
          <g>
            <path class="cls-33" d="M412.7,546.82c-2.83-2.4-13.33.24-14.52-1.41-.62-.87.47-17.96,0-21.29,10.27-.67,28.64-2.89,34.85,8.04,6.62,11.62-8.44,13.37-20.33,14.66Z"/>
            <path class="cls-30" d="M398.18,524.11c.47,3.33-.62,20.42,0,21.29,1.21,1.67,11.69-.97,14.52,1.41-54.53,5.95-39.73-18.68-35.35-20.82,1.57-.76,16.81-1.63,20.81-1.89h.02Z"/>
          </g>
          <path class="cls-33" d="M348.78,537.36l-23.24-14.19c.19-1.23-.51-4.03.48-4.73,6.93,1.63,35.04,1.34,36.8,1.89,6.96,2.19-10.32.05-13.08,5.2-1.17,2.17-1.48,9.55-.97,11.83Z"/>
          <path class="cls-29" d="M446.59,520.32c2.05,6.68,7.16,16.5,15.49,14.19-1.96,6.81-2.79,5.99-6.77,10.4l-11.61-.94c1.56-5.41-1.01-18.49-6.77-22.23,7.38-4.3,9.17-1.35,9.68-1.41h-.02Z"/>
          <path class="cls-2" d="M462.09,534.51c-8.34,2.3-13.43-7.51-15.49-14.19,5.64-.75,11.16-2.42,16.95-1.89,1.51,1.05-.81,13.82-1.45,16.09l-.02-.02Z"/>
          <path class="cls-5" d="M360.9,528.84c7.38,0,8.95,14.71,5.81,16.09-4.9,2.14-18.74-16.09-5.81-16.09Z"/>
          <path class="cls-5" d="M455.31,544.92c-10.57,11.66-22.52,12.84-21.31,8.99.22-.67,8.13-4.52,9.68-9.93l11.61.94h.02Z"/>
        </g>
        <g>
          <path class="cls-28" d="M444.66,453.15c-4.36,3.8,9.88,3.06,22.76,6.62,17.4,4.82,55.11,19.34,52.77,41.62-.08.81-1.46,1.48-.97,3.79-51.17,2.11-102.16,9.5-153.49,7.57-15.66-1.2-31.29-3.91-46.96-4.73.92-2.6-7.13-1.41-11.61-8.52-4.73-7.48-3.55-15.41.97-22.71,6.55-10.58,29.34-17.11,41.16-19.86,3.91-.91,13.03-.23,13.08-3.79,27.34.53,54.97.33,82.32,0h-.02Z"/>
          <path class="cls-32" d="M370.58,481.53c5.2-1.32,22.96,13.78,22.28,20.82,43.17-14.27,23.3,9.81-19.36,6.62-27.37-2.04-21.75-13.14,7.27-12.77.81-1.02-19.85-12.21-10.17-14.66h-.02Z"/>
        </g>
      </g>
      <path class="cls-10" d="M162.87,484.37l-1.45,15.13c-15.99-1.22-100.02,1.93-106.04-.94-2.48-1.19-5.17-6.89-4.84-9.46.14-1.11,3.46-4.2,3.88-5.67,1.42-.12.65,1.66,1.45,1.89,5.14,1.48,91.58-1.19,107.01-.94h0Z"/>
      <g>
        <path class="cls-28" d="M25.36,472.07c-7.25,14.52,6.23,21.81,23.24,17.03.5-.14,1.31.08,1.93,0-.33,2.57,2.37,8.27,4.84,9.46v2.84c-11.66-.78-45.7-4.23-42.61-21.29.37-2.04,6.04-8.32,7.75-10.87,1.18,1.95,1.91,3.16,4.84,2.84v-.02Z"/>
        <path class="cls-18" d="M42.79,469.24l5.81,19.86c-17.01,4.79-30.5-2.51-23.24-17.03,1.73-.18,7.74-4.12,17.43-2.84v.02Z"/>
        <path class="cls-18" d="M54.4,483.43c-.42,1.48-3.74,4.56-3.88,5.67-.62.08-1.45-.14-1.93,0l-5.81-19.86c.03-.32-.03-.64,0-.94,10.43,1.48,14.65,4.41,11.61,15.13Z"/>
      </g>
      <g>
        <path class="cls-10" d="M81.52,426.66c8.55,4.84,46.03,7.68,51.81-2.84,8.48,9.35,52.82,8.97,61.97,0,9.15,9.75,51.43,10.14,59.08-1.89,9.04,10.93,24.27,8.18,36.8,8.52-.19,27.6,38.68,22.07,71.17,22.71-.05,3.54-9.17,2.87-13.08,3.79-11.82,2.75-34.6,9.29-41.16,19.86-16.52,2.52-74.32,4.47-81.82,6.62-.83.23-1.76,1.81-1.45,2.84-21.34-1.4-40.71-1.57-61.97-1.89-15.41-.23-101.87,2.42-107.01.94-.81-.23-.03-2.02-1.45-1.89,3.04-10.72-1.2-13.66-11.61-15.13.34-3.03,24.78-46.84,29.05-53.93.2,5.23,3.94,13.99,9.68,12.3l-.02-.02Z"/>
        <path class="cls-21" d="M130.43,435.18c27.02-1.81,23.18,27.24,7.75,35.01-32.66,16.44-43.15-32.64-7.75-35.01Z"/>
        <path class="cls-19" d="M197.24,437.08c36.58-4.24-.98,46.78-21.31,35.01-15.04-8.73,3.91-32.99,21.31-35.01Z"/>
      </g>
      <g>
        <path class="cls-10" d="M752.6,485.32c-77.85-.49-156.91-6.34-232.41,16.09,2.33-22.28-35.37-36.8-52.77-41.62-12.86-3.57-27.12-2.83-22.76-6.62,45.25-.56,75.64,8.35,95.38-29.32,4.16,9.89,56.76,9.75,61.97,0,9.56,10.16,49.8,9.55,58.09-1.89,8.61,13.41,56.4,12.21,61.49-2.84l1.93.47c4.16,13.49,29.31,55.77,29.05,65.74l.03-.02Z"/>
        <path class="cls-21" d="M673.68,437.08c25.84-4.2,39.49,25.52,23.24,35.01-25.98,15.16-48.86-30.84-23.24-35.01Z"/>
        <path class="cls-31" d="M598.15,439.91c24.49-4.78,39.1,32.32,20.33,35.01-20.21,2.89-38.54-31.45-20.33-35.01Z"/>
      </g>
      <g>
        <path class="cls-9" d="M691.59,368.96c6.93,4.91,30.45,40.45,30.99,43.04.53,2.54-.16,4.71-.97,7.1-5.09,15.06-52.88,16.24-61.49,2.84-8.31,11.45-48.54,12.04-58.09,1.89-5.21,9.75-57.83,9.89-61.97,0-19.74,37.67-50.12,28.77-95.38,29.32-27.35.33-54.97.53-82.32,0-32.49-.64-71.37,4.91-71.17-22.71-12.53-.33-27.74,2.42-36.8-8.52-7.63,12.04-49.92,11.63-59.08,1.89-9.17,8.97-53.49,9.35-61.97,0-5.78,10.52-43.26,7.68-51.81,2.84-3.61-2.04-7.16-4.58-7.75-8.99-1.14-8.58,26.17-50.32,39.21-51.55h271.14c6.85,8.79,6.71.76,9.68,0,3.14-.81,61.86-1.16,64.88,0,1.84.7,2.49,5.58,2.91,5.67.37.09,2.07-4.91,4.84-5.67,2.57-.7,50.65.4,53.25.94.23.05,1.76,3.57,2.91,3.79.37-.96,2.04-3.62,2.91-3.79,7.75-1.43,150.03-2.04,157.85-.94.44.06,4.89,2.42,8.23,2.84h-.03Z"/>
        <g>
          <path class="cls-28" d="M307.64,429.5h97.81c2.16,1.25,1.71,12.18,1.45,12.77-1.93,4.23-90.18,1.61-94.41-.47-2.8-1.37-9.67-10.2-4.84-12.3Z"/>
          <path class="cls-28" d="M420.94,429.5h92.96c6.27,24.14-72.65,10.66-92.96,14.19v-14.19Z"/>
          <path class="cls-10" d="M518.26,395.44c-3.69.56-21.81.2-28.08,0-11.91-.38-25.3,2.9-21.31-15.6,2.43-11.3,31.99-4.14,41.16-6.14,3.78,1.19,7.8,17.52,11.13,21.29-.39.88-2.05.35-2.91.47l.02-.02Z"/>
          <path class="cls-10" d="M578.28,395.44c-4.9.55-17.15.18-23.24,0-11.46-.33-29.64,3.13-26.15-15.6,2.13-11.47,30.95-4.03,40.19-6.14l13.08,21.29c-.75.91-2.38.3-3.88.47v-.02Z"/>
          <path class="cls-10" d="M697.4,393.55l-44.55,1.89c-26.34-23.22,21.56-32.32,37.76-13.72.7.79,4.11,8.27,6.77,11.83h.02Z"/>
          <path class="cls-10" d="M527.94,402.07c4.7,5.2,9.59,17.38-.48,19.86-1.79.44-35.02.5-36.8,0-1.21-.35-1.68-2.87-2.43-3.79l.48-17.03,39.21.94.02.02Z"/>
          <path class="cls-10" d="M590.88,403.95c3.44,4.64,5,12.53-.48,16.09-7.44,4.84-61.33,5.05-40.19-17.98,12.64,1.03,30.84-2.24,40.68,1.89h0Z"/>
          <path class="cls-10" d="M390.91,399.22c2.6-.15,17.81,4.27,30.99,2.84l.48,18.45c-27.09-.85-47.53,7.15-43.57-11.35.92-4.29,7.77-9.67,12.11-9.93l-.02-.02Z"/>
          <path class="cls-10" d="M705.15,401.12c20.17,29.41-52.99,25.67-39.69.94,6.37.78,27.76-2.3,39.69-.94Z"/>
          <path class="cls-10" d="M307.16,402.07c2.76,4.46,2.09,9.08-.97,13.25,3.02-26.67-6.51-1.34-14.52,4.26,5.51.24,9.26.81,13.56-3.32,1.46,6.92-42.19,8.03-44.55-1.41-2.02-8.08,4.45-12.17,4.84-12.77h41.64Z"/>
          <path class="cls-10" d="M264.54,373.69l-20.33,19.39c-.05,2.51,13.09,2.01,14.52-.47-.17.15.59,1.58-2.43,3.79h-18.88c-7.63,0-15.69-.78-23.24-1.89,2.55-3.15,14.17-20.23,15.97-20.82,11.44.32,22.95-.43,34.37,0h.02Z"/>
          <path class="cls-10" d="M205.48,373.69c-9.96,9.73-19.05,23.54-34.85,21.29l29.05-.47c-.09.06-.02.87-1.45,1.89-5.32.11-10.66-.15-15.97,0-9.03.24-18.52.81-27.12-1.89,6.12-7.1,11.82-14.54,18.88-20.82,10.48.26,21-.35,31.48,0h-.02Z"/>
          <path class="cls-11" d="M145.44,373.69l-23.24,20.33c-.03,1.9,10.18,3.32,18.4-1.41.2,5.41-9.53,3.71-19.36,3.79-8.34.06-16.39-.2-24.69-.94l.48-1.89c18.93-21.9,18.21-20.77,48.41-19.86v-.02Z"/>
          <path class="cls-10" d="M240.33,402.07c.03,12.87-22.23,21.02,3.88,15.13-7.57,6.19-40.58,4.94-43.57.47-2.82-4.18,1.31-11.01,3.88-14.66,8.45-2.98,23.43-1.17,35.83-.94h-.02Z"/>
          <path class="cls-10" d="M179.33,402.07c-2.83,8.65-13.01,21.75,1.45,17.03,5.21-1.7,4.98-13.93,10.17-16.09-.26,2.3-5.67,16.64-11.13,17.98-3.8.94-37.25,1.34-39.21-4.26-3.28-9.35,8.09-14.87,8.72-15.6l30.01.94h0Z"/>
          <path class="cls-11" d="M123.16,403.01c-5.64,8.26-17.93,19.06-3.39,16.09,5.6-1.16,7.36-12.38,10.17-17.03.73.08,1.07.12.97.94-1.06,2.83-4.22,12.88-4.84,13.72-4.79,6.43-43.37,7.71-43.57-2.84-.02-1.08,3.81-7.03,4.84-8.99,5.43-7.91,20.69-2.02,35.83-1.89h0Z"/>
          <path class="cls-10" d="M321.68,373.69c-18.23,19.19-19.41,22.57-47.45,18.92,5-6.2,8.67-13.67,15.01-18.92,10.77.41,21.68-.55,32.44,0Z"/>
          <path class="cls-36" d="M637.36,394.49l-42.61,1.89c-.76-.52-7.94-14.14-8.72-16.09,4.48-.05,6.35,13.03,10.17,13.25,1.79.11,28.35-17.37,27.6-21.76,7.02,1.46,10.97,16.46,13.56,22.71v.02Z"/>
          <path class="cls-10" d="M623.8,371.79c.75,4.4-25.79,21.85-27.6,21.76-3.83-.21-5.68-13.29-10.17-13.25-.59-1.48-4.55-7.19-2.43-8.52,10.23.9,34.32-1.22,40.19,0h0Z"/>
          <g>
            <path class="cls-10" d="M448.54,371.79c2.33,14.16-17.73,12.88-21.79,22.71-10.37-1.23-22.71,3.59-30.51-4.73-6.69-27.95,27.96-15.18,52.29-17.98h.02Z"/>
            <path class="cls-10" d="M460.15,394.49c-1.21,3.1-15.02,1.86-25.17,1.89-17.78.08-36.5,2.71-38.73-6.62,7.8,8.32,20.13,3.5,30.51,4.73,4.05-9.82,24.11-8.55,21.79-22.71,5.4,1.28,7.35,13.63,11.61,22.71h-.02Z"/>
          </g>
          <g>
            <path class="cls-10" d="M332.33,392.61c1.18-3.12,8.37-15.36,10.65-17.03,32.88-.94,53.99-7.42,15.97,17.98l-26.63-.94h.02Z"/>
            <path class="cls-10" d="M341.05,395.44c-2.48-.09-5.6.32-7.75,0-1.07-.15-2.29.43-2.91-.47,1.23-2.24,1.88-2.22,1.93-2.37l26.63.94c38.01-25.4,16.91-18.92-15.97-17.98.16-.11-.4-1.58.48-1.89h37.76c6.91,25.38-2.13,23.12-40.19,21.76h.02Z"/>
          </g>
          <path class="cls-8" d="M296.5,395.44c-7.91.21-16.39.62-24.21-.94,1.11-1.44,1.85-1.79,1.93-1.89,28.04,3.65,29.22.26,47.45-18.92,5.09.26,9.28-.93,8.72,1.41l-14.04,20.33c-6.62.14-13.25-.18-19.85,0h0Z"/>
          <path class="cls-15" d="M140.6,392.61c-8.22,4.73-18.43,3.32-18.4,1.41l23.24-20.33c.72.02,12.1-2.98,12.59.47-5.11,4.53-12.36,15.53-17.43,18.45h0Z"/>
          <path class="cls-15" d="M199.67,394.49l-29.05.47c15.82,2.25,24.89-11.56,34.85-21.29,1.95.06,9.93-.47,10.65.47-3.99,3.92-14.73,19.15-16.47,20.33l.02.02Z"/>
          <path class="cls-35" d="M705.15,401.12c-11.96-1.35-33.33,1.73-39.69.94-4.81-.59-9.15-3.6-12.59-6.62l44.55-1.89c2.24,3,5.65,4.52,7.75,7.57l-.02-.02Z"/>
          <path class="cls-15" d="M258.73,392.61c-1.45,2.48-14.57,2.98-14.52.47l20.33-19.39c1.85.08,8.95-.47,9.68.47-5.46,5.86-9.42,13.11-15.49,18.45h0Z"/>
          <path class="cls-34" d="M518.26,395.44c-1.71,8.2,5.9,3.28,10.17,4.73,1.21.41-.92,1.41-.48,1.89l-39.21-.94-.48,17.03c-6.82-8.36-2.02-14.93,1.93-22.71,6.27.2,24.39.56,28.08,0Z"/>
          <path class="cls-34" d="M272.29,394.49c7.81,1.57,16.3,1.16,24.21.94-3.21,9.11,7.52,1.55,10.65,6.62h-41.64c4.7-7.39,6.48-7.16,6.77-7.57l.02.02Z"/>
          <path class="cls-34" d="M182.24,396.4c-1.88,7.39,10.04,1.08,8.72,5.67h-11.61l-30.01-.94c1.93-2.27,3.89-4.4,5.81-6.62,8.59,2.69,18.09,2.14,27.12,1.89h-.02Z"/>
          <path class="cls-37" d="M639.3,401.12c-9.12-1-22.98.75-32.92,0-1.53-5.99-7.92-2.24-11.61-4.73l42.61-1.89c.92,2.22,2.63,3.89,1.93,6.62h0Z"/>
          <path class="cls-34" d="M214.2,394.49c7.53,1.11,15.61,1.89,23.24,1.89-3.19,8.2,7.24-.36,10.65,6.62-2.4-1.51-5.12-.9-7.75-.94-12.41-.21-27.38-2.04-35.83.94,2.3-3.27,7.07-5.29,9.68-8.52l.02.02Z"/>
          <path class="cls-34" d="M97.02,393.55l-.48,1.89c8.31.75,16.36,1,24.69.94-1.11,6.78,2.04,4.4,10.17,4.73,3.08,2.48-.42,1.7-.48,1.89.11-.82-.23-.87-.97-.94-6.26-.71-6.43.94-6.77.94-15.13-.14-30.4-6.01-35.83,1.89,3.63-6.84,7.24-8.52,9.68-11.35v.02Z"/>
          <path class="cls-34" d="M578.28,395.44c-2.93,10.23,5.78-.67,12.59,8.52-9.82-4.12-28.04-.85-40.68-1.89,3.52-3.83,5.57.24,4.84-6.62,6.09.18,18.34.55,23.24,0v-.02Z"/>
          <path class="cls-34" d="M473.71,402.07c-1.46.46-1.85-.81-2.91-.94-8.34-1.13-25.2.84-35.35,0-2.35,1.02-1.51,14.23-1.45,17.03.03,1.49-.42,2.9.97,2.84-.2-.02-1.14,2.34-3.88-1.41,2.15-7.97.53-15.6,3.88-23.18,10.15-.05,23.96,1.2,25.17-1.89,1.2,2.55-.76,2.57.48,4.73,5.18.14,9.11-1.09,13.08,2.84l.02-.03Z"/>
          <path class="cls-15" d="M190.95,402.07c-.03.32.03.64,0,.94-5.2,2.14-4.95,14.39-10.17,16.09-14.46,4.71-4.3-8.38-1.45-17.03h11.61Z"/>
          <path class="cls-15" d="M248.08,403.01c2.43,4.96.37,10.71-3.88,14.19-26.11,5.89-3.84-2.28-3.88-15.13,2.63.05,5.34-.56,7.75.94h0Z"/>
          <path class="cls-15" d="M306.18,415.31c-.62.87-.79.78-.97.94-4.3,4.12-8.03,3.56-13.56,3.32,8.02-5.6,17.54-30.93,14.52-4.26Z"/>
          <path class="cls-34" d="M341.05,395.44c-2.82,8,10.83,3.71,25.65,4.73,2.71,1.54.45,2.69.48,2.84.05-1.46-1.29-.73-1.93-.94-1.4-.47-.26,0-.97,0-13.54.03-27.15-2.49-40.68,0,4.86-5.41,9.15,2.24,9.68-6.62,2.15.32,5.26-.09,7.75,0v-.02Z"/>
          <g>
            <path class="cls-10" d="M364.29,402.07l-13.56,17.5,15.01.47-.48-17.98c.64.21,1.99-.5,1.93.94,1.62,5.9,1.21,12,.48,17.98h-48.41c-2.69-1.87,2.09-16.38,4.36-18.92,13.53-2.49,27.13.03,40.68,0h0Z"/>
            <path class="cls-15" d="M365.25,402.07l.48,17.98-15.01-.47,13.56-17.5c.7,0-.44-.47.97,0Z"/>
          </g>
          <g>
            <path class="cls-10" d="M639.3,401.12c10.06,1.11,15.3,8.21,11.61,14.66-3.91,6.86-54.19,12.79-44.55-14.66,9.95.75,23.8-1,32.92,0h.02Z"/>
            <path class="cls-8" d="M642.68,402.07c7.27,3.24,11.07,12.47,1.93,16.09-15.63,6.19,3.18-2.54-1.93-16.09Z"/>
          </g>
          <path class="cls-15" d="M129.95,402.07c-2.8,4.65-4.56,15.88-10.17,17.03-14.54,2.98-2.24-7.83,3.39-16.09.34,0,.51-1.66,6.77-.94h0Z"/>
          <g>
            <path class="cls-36" d="M473.71,402.07c4.58,4.55,2.9,12.93,2.43,18.92-12.9-.79-28.75,1.06-41.16,0-1.39.06-.93-1.35-.97-2.84,17.37,3.03,35.43,2.34,36.8-17.03,1.04.14,1.45,1.4,2.91.94l-.02.02Z"/>
            <path class="cls-10" d="M470.81,401.12c-1.35,19.36-19.43,20.04-36.8,17.03-.05-2.8-.9-16.01,1.45-17.03,10.15.84,27.01-1.13,35.35,0Z"/>
          </g>
        </g>
      </g>
    </g>
  </g>
</svg>