<?xml version="1.0" encoding="UTF-8"?>
<svg id="Layer_1" data-name="Layer 1" xmlns="http://www.w3.org/2000/svg" viewBox="0 0 535 760">
  <defs>
    <style>
      .cls-1 {
        fill: #f2e3dd;
      }

      .cls-1, .cls-2, .cls-3, .cls-4, .cls-5, .cls-6, .cls-7, .cls-8, .cls-9, .cls-10, .cls-11, .cls-12, .cls-13, .cls-14, .cls-15 {
        stroke-width: 0px;
      }

      .cls-2 {
        fill: #5fbebf;
      }

      .cls-3 {
        fill: #732449;
      }

      .cls-4 {
        fill: #19828b;
      }

      .cls-5 {
        fill: #0d0f10;
      }

      .cls-6 {
        fill: #221013;
      }

      .cls-7 {
        fill: #140e11;
      }

      .cls-8 {
        fill: #e385a4;
      }

      .cls-9 {
        fill: #cd5a89;
      }

      .cls-10 {
        fill: #d7bb90;
      }

      .cls-11 {
        fill: #a73f69;
      }

      .cls-12 {
        fill: #ba4a7c;
      }

      .cls-13 {
        fill: #8f3059;
      }

      .cls-14 {
        fill: #ec9db2;
      }

      .cls-15 {
        fill: #044c4e;
      }
    </style>
  </defs>
  <path class="cls-6" d="M495.92,192.29c56.87,31.92,49.5,110.24-8.06,136.54,12.49,31.92,1.8,66.42-30.58,80.63-27.48,9.55-69.56,2.61-62.8-33.54,4.46,3.14,10.73,4.49,11.26,4.79,6.1,3.44,38.88,25.71,20.92,5.58,35.88-11,52.47-46.06,30.58-78.25,28.82-8.49,45.01-38.27,38.64-67.08,9.29-14.54,8.63-35.75-6.43-45.5,1.13-1.95,4.2-3.3,6.43-3.21l.03.03Z"/>
  <g>
    <path class="cls-4" d="M278.59,534.04c.73,72.9,1.53,145.89.8,218.79-2.1.46-4.76-.43-5.63-2.38-4.06-9.38-.1-178.87-3.23-204.42-1.43-1.19-2.37-2.28-3.23-4-.53-23.16,1.97-47.22,1.6-70.25,14.62-13.81,9.33,27.76,9.66,62.29l.03-.03Z"/>
    <g>
      <path class="cls-5" d="M169.12,455.79c4.56,1.52.97.63,6.43-1.59,2.47,1.95,5.23,3.4,8.06,4.79-3.06,11.2.67,7.67,3.23,9.58,19.02,14.34,70.82,54,80.49,73.46.83,1.72,1.8,2.81,3.23,4,3.13,25.54-.87,195.03,3.23,204.42.87,1.98,3.53,2.84,5.63,2.38.73-72.9-.1-145.89-.8-218.79,10.36-1.95,1,25.08,6.43,36.75,11.56-16.19,20.19-34.43,32.21-50.29,8.73-11.53,67.66-84.83,82.12-59.08,10.56,18.84-23.35,60.37-38.64,94.21-19.36,42.86-29.18,103.03-72.46,134.13l1.6,62.29c17.59,3.44,122.19-1.88,127.99.79,2.8,1.29,2.6,4.63,2.4,7.17H156.23c-.2-2.54-.4-5.88,2.4-7.17,5.63-2.61,109.13,3.73,111.9-2.38v-94.21c-35.48-26.24-45.54-70.58-69.23-105.41-23.49-34.5-69.49-67.08-62.8-92.62,4.36-16.59,23.19-4.82,30.58-2.38l.03-.03Z"/>
      <path class="cls-15" d="M288.25,672.96l3.23-79.04c10.73-6.64,10.16-16.95,14.49-25.54,18.42-36.51,48.64-66.39,74.06-98.21.3-.17.73-4.03,5.63-3.21-50,66.88-50.57,116.32-71.66,165.29-4.1,9.52-17.72,37.08-25.75,40.71h0Z"/>
      <path class="cls-15" d="M238.35,602.71c7.76-.99-11.69-39.42-16.09-47.12-15.82-27.53-52.77-67.58-74.06-93.42.6-1.95,3.36-4.99,5.63-4.79,15.19,1.39,95.44,76.3,102.24,99.8-25.68,29.21,15.02,98.7-6.43,68.67-4.53-6.38-7.8-16.56-11.26-23.16l-.03.03Z"/>
      <path class="cls-2" d="M379.99,470.16c-25.42,31.86-55.63,61.69-74.06,98.21-4.33,8.59-3.76,18.9-14.49,25.54l-3.23,79.04c-.17.1.67,5.29-3.23,2.38v-86.25c19.45-35.66,59.46-99.56,94.98-118.96l.03.03Z"/>
      <path class="cls-2" d="M238.35,602.71c-10.43-19.69-19.36-39.89-32.21-58.29-11.06-15.83-63-66.19-57.97-82.25,21.29,25.84,58.23,65.89,74.06,93.42,4.43,7.7,23.89,46.13,16.09,47.12h.03Z"/>
    </g>
  </g>
  <g>
    <path class="cls-6" d="M476.6,184.33c-.17.3-2.4-.76-1.6,6.38-22.29-35.62-90.25-.59-118.33,14.37-11.96,6.38-55.2,30.73-45.87,35.13-9.16-.73,1.03-10.64-1.6-12.79,21.35-12.19,41.14-27.89,63.6-38.33,20.32-9.45,61.7-20.72,67.63-23.96,47.54-25.97,18.89-113.97-56.33-71.87-21.89,12.26-37.64,36.91-50.7,57.5-.6.93-1.37,2.11-1.6,3.21h-1.6c.43-2.84.13-5.45-3.23-6.38,19.16-35.52,41.87-57.04,33.81-112.58,26.45,10.34,7.33-6.68-3.23-13.58.37-5.98-23.62-13.78-28.18-14.37-24.75-3.14-37.71,8.96-36.21,1.59,47.94-20.26,106.64,21.28,102.24,73.46,49.7-18.84,106.3,17.15,97.41,72.67-1.8,11.27-11.23,20.19-16.09,29.54l-.1.03Z"/>
    <path class="cls-11" d="M215.79,436.62c-19.06-26.24,5.63-59.41,6.43-86.25,2.63-3.9,33.38-59.38,36.21-57.5-5.83,49.14-20.12,99.07-42.67,143.71l.03.03Z"/>
    <path class="cls-11" d="M357.47,21.41c10.56,6.91,29.68,23.92,3.23,13.58,8.06,55.55-14.66,77.06-33.81,112.58-18.79,34.86-55.9,104.92-37.84,52.71-11.26,12.56-13.36,30.93-12.06,8,15.62-22.34,67.06-103.89,72.46-122.17,8.53-28.95,4.76-43.69-4.83-71.08,5.43,1.98,8.03,3.21,12.89,6.38h-.03Z"/>
    <path class="cls-13" d="M244.77,447.79c-3.16-1.65-4.96-4.56-8.06-6.38-8.63-5.12-12.23-4.53-12.89-4.79,24.72-41.83,30.75-89.92,44.27-135.75-6.96,39.39-1.67,95.9-13.69,128.54-.63,1.72-8.59,16.89-9.66,18.37h.03Z"/>
    <g>
      <path class="cls-9" d="M447.62,257.78c4.56,9.62,30.61,22.21,27.38,32.75-3.76,12.19-15.36-3.57-18.52-5.58-26.72-17.18,6.2,9.52,5.63,13.58-.37,2.61-9.43,5.82-9.66,6.38-1.13,2.87,17.06,31.52-3.23,59.08-8.69,11.8-29.18,18.27-43.47,16.75-.53-.3-6.8-1.65-11.26-4.79-23.49-16.56-36.88-43.19-56.33-63.88,7.8-3.3,27.58,13.85,41.04,17.58,34.65,9.58,33.65-15.5,24.95-22.37,5.83-13.58,40.11-9.88,5.63-23.96-14.79-6.05-69.73-16.19-82.92-8-3.7-4.03-14.49-7.77-12.06-12.79,43.81-6.11,89.18.73,132.82-4.79v.03Z"/>
      <path class="cls-11" d="M405.78,380.74c14.29,1.52,34.78-4.96,43.47-16.75,20.29-27.56,2.07-56.21,3.23-59.08.23-.56,9.29-3.8,9.66-6.38.57-4.03-32.35-30.76-5.63-13.58,3.16,2.02,14.76,17.78,18.52,5.58,3.26-10.54-22.79-23.1-27.38-32.75,70.46-8.92,38.38-56.24,41.84-62.29,15.09,9.78,15.72,30.96,6.43,45.5,6.36,28.78-9.83,58.56-38.64,67.08,21.89,32.19,5.26,67.25-30.58,78.25,17.92,20.09-14.86-2.15-20.92-5.58h0Z"/>
      <g>
        <path class="cls-8" d="M331.72,283.33c17.12,13.71,63.6,16.99,72.46,23.96,8.69,6.87,9.69,31.95-24.95,22.37-13.49-3.73-33.28-20.88-41.04-17.58-17.99-19.1-54.4-44.58-4.03-11.17-12.03-20.06-40.24-37.47-2.4-17.58h-.03Z"/>
        <path class="cls-14" d="M404.15,307.29c-8.83-6.97-55.33-10.21-72.46-23.96-.37-.3,1.97-.63-4.83-8,13.19-8.23,68.09,1.95,82.92,8,34.48,14.08.2,10.38-5.63,23.96h0Z"/>
      </g>
    </g>
    <g>
      <path class="cls-9" d="M309.17,227.42c-1.6.93-2.9,1.72-4.03,3.21l-.8-2.38c27.05-20.82,41.91-50.66,61.16-77.46,7.23-10.05,12.69-21.58,21.72-30.34,18.69-18.11,70.42-31.26,28.98-28.75-37.81,2.31-58.07,37.08-82.92,59.08,13.06-20.59,28.82-45.24,50.7-57.5,75.22-42.1,103.9,45.9,56.33,71.87-5.93,3.24-47.3,14.51-67.63,23.96-22.42,10.44-42.24,26.14-63.6,38.33l.07-.03Z"/>
      <path class="cls-14" d="M365.54,150.79c-1.93-.1-2.43-1.85-3.23-3.21-7.86-13.61-12.76,7.04-30.58,6.38.27-1.09,1.03-2.28,1.6-3.21,24.85-22.01,45.11-56.77,82.92-59.08,41.44-2.51-10.29,10.64-28.98,28.75-9.03,8.76-14.49,20.29-21.72,30.34v.03Z"/>
      <path class="cls-9" d="M362.3,147.58c-21.55,25.51-37.54,61.23-67.63,75.84,5.66-12.56,34.65-64.24,35.41-69.46h1.6c17.82.66,22.75-20.03,30.58-6.38h.03Z"/>
    </g>
    <path class="cls-12" d="M244.77,447.79c-14.82,20.45-39.41,21.84-61.16,11.17-2.83-1.39-5.56-2.84-8.06-4.79-5.33-4.2-7.63-10.61-8.06-11.17,17.36,19.53,49.37,11.76,69.23-1.59,3.1,1.85,4.9,4.73,8.06,6.38Z"/>
    <g>
      <path class="cls-9" d="M344.58,15.04c9.59,27.36,13.36,42.13,4.83,71.08-5.36,18.27-56.83,99.83-72.46,122.17.73-13.15,8.33-92.16,6.43-96.62-.87-2.02-5.16-3.7-6.43-1.59-3.03,4.99-5.93,88.49-10.46,103-2.27-14.41-19.76-106.9-30.58-108.59-2.86-.43-8.4,4.56-8.86,7.17-.8,4.63,19.85,78.84,20.12,91.83-24.52-42.17-59.63-90.58-100.61-117.38-7.6-77.62,99.31-121.18,118.33-27.96C274.39,16.09,303.37-.06,344.58,15.04Z"/>
      <path class="cls-14" d="M208.56,16.62c35.38-2.31-10.69,13.09-17.72,19.17-24.25,20.95-13.49,57.33,4.03,79.04-.07,7.44-24.65-15.04-28.98-27.16-11.69-32.81,5.56-68.63,42.67-71.08v.03Z"/>
      <path class="cls-14" d="M308.37,19.83c36.35-4.76-3.86,6.71-15.29,26.34-12.69,21.81-7.8,47.19-12.06,47.12-8.13-23.53-3.6-69.39,27.38-73.46h-.03Z"/>
    </g>
    <g>
      <path class="cls-9" d="M475,190.7c13.76,22.01,6.23,51.52-20.12,59.08-16.96-1.39-134.35,10.41-140.05,6.38-5.7-4,2.73-18.24,10.46-17.58,1.43,1.88-2.6,8.66-.8,9.58.87.43,11.56,0,15.29,0,19.19-.1,68.69.83,74.06-20.75,1.8-7.2-.6-12.79,0-19.96,2.57-7.73,55.37-24.02,24.95-23.16-18.32.53-76.12,26.9-94.98,36.75-17.79,9.29-17.49,13.81-18.52,14.37-2.43,1.35-11.86,4.99-14.49,4.79-9.33-4.4,33.95-28.75,45.87-35.13,28.08-14.97,96.04-50,118.33-14.37h0Z"/>
      <g>
        <path class="cls-14" d="M413.81,227.42c-3.33-.33-.27-6.28-2.4-8-3.1-2.45-75.62,22.24-71.66,28.75-3.76,0-14.42.43-15.29,0-1.8-.93,2.23-7.7.8-9.58v-3.21c1.03-.56.73-5.09,18.52-14.37,18.86-9.85,76.69-36.22,94.98-36.75,30.42-.86-22.39,15.4-24.95,23.16-.6,7.17,1.8,12.76,0,19.96v.03Z"/>
        <path class="cls-8" d="M413.81,227.42c-5.36,21.58-54.87,20.69-74.06,20.75-3.96-6.51,68.56-31.19,71.66-28.75,2.17,1.72-.93,7.63,2.4,8Z"/>
      </g>
    </g>
    <g>
      <path class="cls-9" d="M222.25,350.41c-.8,26.83-25.48,60.01-6.43,86.25,2.5.36,6.6-.56,8.06,0,.63.26,4.26-.33,12.89,4.79-19.85,13.35-51.87,21.15-69.23,1.59-45.17-61.83,30.91-111.36,73.26-148.5l2.4,2.38c-21.85,29.08-39.44,80.89-20.92,53.5h-.03Z"/>
      <path class="cls-14" d="M216.59,321.66c-6.6,15.8-19.85,28.09-26.55,43.92-10.73,25.21-9.03,47.88-13.69,47.12-14.99-33.31,13.26-70.88,40.24-91.04Z"/>
    </g>
    <g>
      <path class="cls-7" d="M293.08,8.66c-1.47,7.37,11.46-4.73,36.21-1.59,4.56.56,28.55,8.39,28.18,14.37-4.83-3.17-7.43-4.4-12.89-6.38-41.21-15.1-70.19,1.06-79.69,43.12-19.02-93.25-125.92-49.67-118.33,27.96,40.98,26.8,76.12,75.21,100.61,117.38-.27-12.99-20.92-87.21-20.12-91.83.47-2.64,6-7.63,8.86-7.17,10.83,1.69,28.32,94.18,30.58,108.59,4.53-14.54,7.43-98.01,10.46-103,1.27-2.11,5.56-.43,6.43,1.59,1.9,4.46-5.7,83.47-6.43,96.62-1.3,22.97.8,4.56,12.06-8-18.06,52.21,19.06-17.84,37.84-52.71,3.33.93,3.63,3.54,3.23,6.38-.77,5.22-29.75,56.9-35.41,69.46,30.05-14.61,46.04-50.36,67.63-75.84.77,1.35,1.27,3.11,3.23,3.21-19.29,26.8-34.11,56.64-61.16,77.46l.8,2.38c1.13-1.49,2.4-2.28,4.03-3.21,2.63,2.15-7.53,12.06,1.6,12.79,2.63.2,12.06-3.44,14.49-4.79v3.21c-7.73-.66-16.16,13.55-10.46,17.58,5.73,4.03,123.09-7.8,140.05-6.38,26.35-7.57,33.88-37.08,20.12-59.08-.8-7.17,1.47-6.08,1.6-6.38,13.93,1.32,18.42,7.47,19.32,8-2.23-.1-5.33,1.22-6.43,3.21-3.46,6.01,28.62,53.33-41.84,62.29-43.64,5.52-89.01-1.32-132.82,4.79-2.43,5.02,8.36,8.76,12.06,12.79,6.8,7.37,4.46,7.7,4.83,8-37.81-19.89-9.63-2.48,2.4,17.58-50.37-33.41-13.96-7.93,4.03,11.17,19.49,20.69,32.88,47.32,56.33,63.88-6.76,36.15,35.31,43.09,62.8,33.54-23.12,10.14-44.81,8.23-68.43,0-13.53,52.48-61.43,61.93-103.04,31.95-.27,43.11-.53,86.23-.8,129.34-5.46-11.63,3.93-38.7-6.43-36.75-.33-34.53,4.96-76.1-9.66-62.29-1.17-73.33-.43,3.7-62,0-7.5-.46-25.09-10.54-20.12-3.21-2.53-1.92-6.3,1.62-3.23-9.58,21.75,10.67,46.34,9.29,61.16-11.17,1.07-1.49,9.03-16.65,9.66-18.37,12.03-32.65,6.73-89.15,13.69-128.54-13.53,45.83-19.55,93.91-44.27,135.75-1.47-.56-5.56.36-8.06,0,22.55-44.68,36.84-94.57,42.67-143.71-2.83-1.92-33.58,53.6-36.21,57.5-18.49,27.39-.93-24.42,20.92-53.5l-2.4-2.38c-42.34,37.14-118.4,86.68-73.26,148.5.4.56,2.7,6.97,8.06,11.17-5.46,2.21-1.87,3.11-6.43,1.59l-20.12-30.34c-55.97,12.23-131.09-33.41-110.27-96.62-58.5-40.58-49.67-134.26,19.32-158.09-35.85-55.25,23.79-113.44,81.28-87.04,2.57-.53-1.07-28.45,12.06-50.29,19.99-33.28,93.64-56.54,113.5,4,2.03.2,9.49-20.85,28.18-28.75v-.13Z"/>
      <g>
        <g>
          <path class="cls-10" d="M244.77,267.37c29.12,10.24,47.97-21.15,24.15-43.12,11.36-.96,25.95,6.38,30.58,16.75,19.32,43.16-39.04,65.56-54.73,26.34v.03Z"/>
          <path class="cls-1" d="M244.77,267.37c-7.56-18.87,4.23-41.47,24.15-43.12,23.85,21.97,4.96,53.37-24.15,43.12Z"/>
        </g>
        <g>
          <path class="cls-9" d="M199.7,213.04c-7.96,4.16-31.11-12.92-41.04-14.37-23.79-3.44-46.54,10.14-41.04,35.92-31.02,7.73-56.73,31.23-65.99,61.5-1.77.17-1.4-.79-1.6-1.59-4.46-16.39-26.25-50.23,4.83-90.21,13.19-16.99,30.78-20.75,32.21-23.16.4-.66-.23-4.13,0-6.38,38.38.07,80.99,16.82,112.7,38.33l-.07-.03Z"/>
          <path class="cls-9" d="M132.08,316.87c-9.53,11.57-19.22,24.29-4.83,36.75-6.6,10.31-7.03,15.7,4.83,8-1.37,17.84-5.76,21.08,8.06,35.13-1.9,1.42-3.2,1.16-4.83,1.59-20.75,5.58-42.01.96-62.8,4.79-2.7-1.88-5.63-4.2-8.06-6.38,25.55-14.87,19.39-66.25,53.13-108.59,1.17-.63,4.56-3.21,4.83-4.79,8.13-2.91,27.05-10.94,32.21-14.37,19.19-1.59,40.38.2,59.56,2.38-26.02,10.24-64.23,23.76-82.12,45.5Z"/>
          <path class="cls-11" d="M199.7,213.04c1.97,1.32,34.88,20.29,21.72,23.96-1.97.56-33.88-20.26-34.61-12.79-29.12-9.72-50.14,22.6-40.24,22.37-3.2.59-49.57,8.86-28.18,15.96,7.9,2.64,82.78-8.1,59.56,0-9.96,3.47-81.05-3.67-127.99,46.3-.5-4.53.3-8.53,1.6-12.79,9.29-30.27,35.01-53.73,65.99-61.5-5.46-25.77,17.26-39.39,41.04-35.92,9.93,1.45,33.08,18.54,41.04,14.37l.07.03Z"/>
          <path class="cls-11" d="M227.05,187.5c-11.73-10.34-20.65-23.96-34.61-31.95-6.1-3.47-28.58-13.32-29.78-8-18.36-11.47-15.56-.33,4.83,22.37-12.53-3.07-26.25,1.65-38.64,4.79-13.49-3.04-26.45-5.22-40.24-6.38,5.66-10.9,13.83-34.86,23.35-41.5,25.58-17.91,37.01,28.75,49.1-20.75,26.52,22.14,46.54,53.4,65.99,81.46v-.03Z"/>
          <path class="cls-9" d="M154.63,268.95c-5.16,3.44-24.09,11.47-32.21,14.37-11.89,4.26-43.57,9.19-57.97,32.75-9.69,15.86-11.06,35.32-2.4,51.91,5.56.23-9.86-44.51,55.53-79.84-33.75,42.33-27.58,93.72-53.13,108.59-66.06-60.41,16.69-121.67,90.15-127.75l.03-.03Z"/>
          <path class="cls-9" d="M87,174.74c-.23,2.28.4,5.72,0,6.38-49.97,1.49-76.29,44.18-59.56,90.21,2.13,5.85,15.56,29.54,22.55,23.16.23.79-.17,1.75,1.6,1.59-1.3,4.26-2.1,8.26-1.6,12.79-4.7,4.99-7.16,13.94-10.46,14.37C-18.77,272.89,1.92,174.54,87.04,174.74h-.03Z"/>
          <path class="cls-3" d="M140.14,396.71c-13.83-14.04-9.43-17.28-8.06-35.13,2.2-1.42,16.79-18.14,24.95-23.96,3.26-2.31,44.44-27.63,44.27-23.16-18.89,27.13-48.04,47.72-56.33,81.46l-4.83.79Z"/>
          <g>
            <path class="cls-9" d="M299.51,334.42l-8.06-7.17c-7.76,27.49-12.76,75.64,9.66,94.21.9-1.65-4.53-19.99,0-36.75,3.33-12.33,30.02-36.15,24.95-39.13-6.33,2.78-12.33,8.86-18.52,11.17,2.67-42.83-15.06-65.46,7.23-38.33,2.76-8.06-17.32-29.21-9.66-28.75,36.84,38.17,91.75,79.04,57.17,136.54-3.8,6.34-14.62,13.38-14.49,14.37.07.4,6.6,3.14,6.43,4.79-.77,8.29-92.44,27.99-83.72-95.83.93-13.22,10.49-69.66,16.89-43.92,6.43-34.83,10.89,16.82,12.06,28.75l.07.03Z"/>
            <path class="cls-14" d="M299.51,334.42c1.7,17.18-4.1,26.9,8.06,22.37,6.2-2.31,12.19-8.39,18.52-11.17,5.06,2.97-21.62,26.8-24.95,39.13-4.53,16.75.9,35.06,0,36.75-22.42-18.57-17.42-66.72-9.66-94.21l8.06,7.17-.03-.03Z"/>
          </g>
          <path class="cls-11" d="M127.24,353.58c-14.39-12.46-4.7-25.15,4.83-36.75,6.4-1.59,76.89-38.3,78.89-32.75-22.15,13.18-70.89,49.4-83.72,69.46v.03Z"/>
          <path class="cls-3" d="M227.05,187.5c4.23,6.11,33.45,38.76,15.29,31.95-13.16-4.96-59.6-59.32-79.69-71.87,1.2-5.35,23.69,4.49,29.78,8,13.96,7.96,22.89,21.58,34.61,31.95v-.03Z"/>
          <path class="cls-11" d="M135.31,398.29c35.08,27.96-23.29,32.15-62.8,4.79,20.79-3.83,42.04.79,62.8-4.79Z"/>
          <path class="cls-13" d="M186.81,224.24c3.26,1.09,12.99,6.11,15.29,8,20.62,16.95-.93,4.13-55.53,14.37-9.86.26,11.13-32.09,40.24-22.37h0Z"/>
          <path class="cls-13" d="M167.49,169.95c8,8.89,19.39,15.8,26.55,25.54-22.19-5.42-42.91-15.73-65.19-20.75,12.39-3.14,26.12-7.86,38.64-4.79h0Z"/>
          <path class="cls-14" d="M87,181.12c-1.43,2.41-19.02,6.18-32.21,23.16-31.08,40.02-9.29,73.82-4.83,90.21-7,6.38-20.42-17.32-22.55-23.16-16.72-46.06,9.59-88.76,59.56-90.21h.03Z"/>
          <path class="cls-14" d="M122.41,283.33c-.27,1.59-3.66,4.16-4.83,4.79-65.43,35.32-49.97,80.07-55.53,79.84-8.63-16.59-7.3-36.02,2.4-51.91,14.39-23.56,46.04-28.45,57.97-32.75v.03Z"/>
          <g>
            <path class="cls-9" d="M161.06,106.08c-12.09,49.53-23.52,2.87-49.1,20.75-9.49,6.64-17.69,30.6-23.35,41.5-11.16-.96-21.65,3.01-24.95,1.59-34.01-54.42,27.55-122.27,97.41-63.88v.03Z"/>
            <path class="cls-14" d="M99.09,94.87c32.48-3.9-18.82,11-21.72,43.92-.8,9.22,7.83,24.42-2.4,21.55-9.66-2.71-15.96-60.64,24.15-65.46h-.03Z"/>
          </g>
        </g>
      </g>
    </g>
  </g>
</svg>